<?xml version="1.0" encoding="utf-8"?>
<!-- Generator: Adobe Illustrator 24.0.0, SVG Export Plug-In . SVG Version: 6.00 Build 0)  -->
<svg version="1.1" id="Layer_1" xmlns="http://www.w3.org/2000/svg" xmlns:xlink="http://www.w3.org/1999/xlink" x="0px" y="0px"
	 viewBox="0 0 512 512" style="enable-background:new 0 0 512 512;" xml:space="preserve">
<style type="text/css">
	.st0{fill:none;stroke:#1A2E35;stroke-width:1.0621;stroke-linecap:round;stroke-linejoin:round;stroke-miterlimit:10;}
	.st1{fill:url(#SVGID_1_);}
	.st2{opacity:0.7;fill:url(#SVGID_2_);}
	.st3{fill:#C182F9;}
	.st4{fill:#FFFFFF;stroke:#7328C4;stroke-width:5;stroke-linecap:round;stroke-linejoin:round;stroke-miterlimit:10;}
	.st5{fill:#B557FF;}
	.st6{fill:#FFFFFF;stroke:#1A2E35;stroke-width:1.0621;stroke-linecap:round;stroke-linejoin:round;stroke-miterlimit:10;}
	.st7{fill:#B557FF;stroke:#1A2E35;stroke-width:1.0621;stroke-miterlimit:10;}
	.st8{fill:none;stroke:#1A2E35;stroke-width:1.0621;stroke-miterlimit:10;}
	.st9{fill:#1A2E35;stroke:#1A2E35;stroke-width:1.0621;stroke-linecap:round;stroke-linejoin:round;stroke-miterlimit:10;}
	.st10{fill:#B557FF;stroke:#1A2E35;stroke-width:1.0621;stroke-linecap:round;stroke-linejoin:round;stroke-miterlimit:10;}
	.st11{fill:none;stroke:#4C4C4C;stroke-width:1.0621;stroke-linecap:round;stroke-linejoin:round;stroke-miterlimit:10;}
	.st12{fill:#1A2E35;}
	.st13{fill:#4C4C4C;stroke:#1A2E35;stroke-width:1.1012;stroke-linecap:round;stroke-linejoin:round;stroke-miterlimit:10;}
	.st14{fill:#1A2E35;stroke:#1A2E35;stroke-width:1.1012;stroke-linecap:round;stroke-linejoin:round;stroke-miterlimit:10;}
	.st15{fill:#FFFFFF;stroke:#1A2E35;stroke-width:1.1012;stroke-linecap:round;stroke-linejoin:round;stroke-miterlimit:10;}
	.st16{fill:none;stroke:#1A2E35;stroke-width:1.1012;stroke-linecap:round;stroke-linejoin:round;stroke-miterlimit:10;}
	.st17{fill:#B557FF;stroke:#1A2E35;stroke-width:1.1012;stroke-linecap:round;stroke-linejoin:round;stroke-miterlimit:10;}
	.st18{fill:#B6B6B6;stroke:#1A2E35;stroke-width:1.1012;stroke-linecap:round;stroke-linejoin:round;stroke-miterlimit:10;}
	.st19{fill:#502975;}
	.st20{fill:#FFFFFF;}
	.st21{fill:#FFFFFF;stroke:#1A2E35;stroke-width:0.7966;stroke-linecap:round;stroke-linejoin:round;stroke-miterlimit:10;}
	.st22{fill:#1A2E35;stroke:#1A2E35;stroke-width:1.1303;stroke-linecap:round;stroke-linejoin:round;stroke-miterlimit:10;}
	.st23{fill:#4C4C4C;stroke:#1A2E35;stroke-width:1.1303;stroke-linecap:round;stroke-linejoin:round;stroke-miterlimit:10;}
	.st24{fill:#B557FF;stroke:#1A2E35;stroke-width:1.1303;stroke-linecap:round;stroke-linejoin:round;stroke-miterlimit:10;}
	.st25{fill:#FFFFFF;stroke:#1A2E35;stroke-width:1.1303;stroke-linecap:round;stroke-linejoin:round;stroke-miterlimit:10;}
	.st26{fill:#808080;stroke:#1A2E35;stroke-width:1.1303;stroke-linecap:round;stroke-linejoin:round;stroke-miterlimit:10;}
	.st27{fill:none;stroke:#1A2E35;stroke-width:1.1303;stroke-linecap:round;stroke-linejoin:round;stroke-miterlimit:10;}
	.st28{fill:none;}
	.st29{fill:#E2CCFF;}
	.st30{fill:url(#SVGID_3_);}
</style>
<line class="st0" x1="6.7" y1="491.6" x2="514.7" y2="491.6"/>
<g>
	<linearGradient id="SVGID_1_" gradientUnits="userSpaceOnUse" x1="0.257" y1="217.0562" x2="467.7961" y2="217.0562">
		<stop  offset="0" style="stop-color:#FFF3E9;stop-opacity:0.7"/>
		<stop  offset="1" style="stop-color:#FFA052"/>
	</linearGradient>
	<path class="st1" d="M3.4,283.1c0,0,15.7,81.8,91.9,121.9c76.2,40.1,170.2,23.5,246.7,12c76.5-11.4,127.6-67.9,125.8-135.9
		c-1.8-68-62.6-74.6-106-142.9C318.4,70,317.3,44.7,243.6,13.1C169.9-18.6,70.6,32.7,28.9,123.9C-12.9,215,3.4,283.1,3.4,283.1z"/>
	<linearGradient id="SVGID_2_" gradientUnits="userSpaceOnUse" x1="0.257" y1="217.0562" x2="467.7961" y2="217.0562">
		<stop  offset="0" style="stop-color:#FFF3E9;stop-opacity:0.7"/>
		<stop  offset="1" style="stop-color:#FFA052"/>
	</linearGradient>
	<path class="st2" d="M3.4,283.1c0,0,15.7,81.8,91.9,121.9c76.2,40.1,170.2,23.5,246.7,12c76.5-11.4,127.6-67.9,125.8-135.9
		c-1.8-68-62.6-74.6-106-142.9C318.4,70,317.3,44.7,243.6,13.1C169.9-18.6,70.6,32.7,28.9,123.9C-12.9,215,3.4,283.1,3.4,283.1z"/>
</g>
<g>
	<rect x="86.5" y="132.3" class="st3" width="310.1" height="183.8"/>
	<rect x="88.2" y="137.5" class="st4" width="306.6" height="173.3"/>
	<rect x="82.9" y="129.2" class="st5" width="315.4" height="9.9"/>
	<circle class="st6" cx="245" cy="120.2" r="8.9"/>
	<path class="st7" d="M249.7,120.2c0,2.6-2.1,4.7-4.7,4.7c-2.6,0-4.7-2.1-4.7-4.7c0-2.6,2.1-4.7,4.7-4.7
		C247.6,115.5,249.7,117.6,249.7,120.2z"/>
</g>
<g>
	<polyline class="st8" points="143.9,250.1 106,250.1 106,211.7 170.4,211.7 170.4,250.1 151.1,250.1 	"/>
	<rect x="156.8" y="268.5" class="st8" width="51.4" height="30.7"/>
	<polyline class="st8" points="265,211.7 271.5,211.7 271.5,250.1 207.1,250.1 207.1,211.7 258.9,211.7 	"/>
	<polyline class="st8" points="212.5,155.5 288.1,155.5 288.1,194 190.5,194 190.5,155.5 205.2,155.5 	"/>
	<rect x="307.6" y="211.7" class="st8" width="64.4" height="38.4"/>
	<path class="st8" d="M185.2,174.4c0,0-34.2,4.8-54.3,33.7"/>
	<line class="st8" x1="163.3" y1="254.3" x2="167.9" y2="267.5"/>
	<line class="st8" x1="210" y1="253.1" x2="205.9" y2="265.5"/>
	<polyline class="st8" points="162.9,263.1 167.9,267.5 169.1,261.6 	"/>
	<polyline class="st8" points="203.9,261.6 205.7,266.5 211,263.4 	"/>
	<polyline class="st8" points="131.8,202.3 130.9,208.2 137.4,204.1 	"/>
	<g>
		<line class="st8" x1="273.4" y1="229.9" x2="305.7" y2="229.9"/>
		<polyline class="st8" points="298.9,225.9 306,229.9 299.5,233.9 		"/>
	</g>
	<g>
		<line class="st8" x1="171.5" y1="229.9" x2="203.8" y2="229.9"/>
		<polyline class="st8" points="197,225.9 204.1,229.9 197.6,233.9 		"/>
	</g>
	<g>
		<line class="st8" x1="239.1" y1="197" x2="239.1" y2="206.8"/>
		<polyline class="st8" points="243.1,200 239.1,207.2 235,200.6 		"/>
	</g>
	<g>
		<line class="st8" x1="305.4" y1="241.5" x2="274.3" y2="241.5"/>
		<polyline class="st8" points="280.9,237.5 274,241.5 280.3,245.5 		"/>
	</g>
	<g>
		<line class="st8" x1="210.7" y1="167.5" x2="269.1" y2="167.5"/>
		<line class="st8" x1="210.7" y1="173.1" x2="269.1" y2="173.1"/>
		<line class="st8" x1="210.7" y1="178.7" x2="269.1" y2="178.7"/>
	</g>
	<g>
		<line class="st8" x1="112" y1="225.9" x2="164.4" y2="225.9"/>
		<line class="st8" x1="112" y1="231.5" x2="164.4" y2="231.5"/>
		<line class="st8" x1="112" y1="237" x2="164.4" y2="237"/>
	</g>
	<g>
		<line class="st8" x1="213.8" y1="225.9" x2="266.3" y2="225.9"/>
		<line class="st8" x1="213.8" y1="231.5" x2="266.3" y2="231.5"/>
		<line class="st8" x1="213.8" y1="237" x2="266.3" y2="237"/>
	</g>
	<g>
		<line class="st8" x1="311.9" y1="225.9" x2="364.4" y2="225.9"/>
		<line class="st8" x1="311.9" y1="231.5" x2="364.4" y2="231.5"/>
		<line class="st8" x1="311.9" y1="237" x2="364.4" y2="237"/>
	</g>
	<g>
		<line class="st8" x1="163.5" y1="279" x2="203.6" y2="279"/>
		<line class="st8" x1="163.5" y1="284.5" x2="203.6" y2="284.5"/>
		<line class="st8" x1="163.5" y1="290.1" x2="203.6" y2="290.1"/>
	</g>
	<g>
		<g>
			<path class="st5" d="M341.1,172.4c-0.2,0-0.4-0.1-0.5-0.3c-0.1-0.2-0.1-0.6,0.2-0.7l0.4-0.3l-0.1,0.1c-0.2,0.1-0.6,0.1-0.7-0.2
				c-0.1-0.2-0.1-0.6,0.2-0.7l2.1-1.4l-1.9,1.1c-0.2,0.1-0.6,0.1-0.7-0.2c-0.1-0.2-0.1-0.6,0.2-0.7l3.8-2.5l-3.6,2.1
				c-0.2,0.1-0.6,0.1-0.7-0.2c-0.2-0.2-0.1-0.6,0.2-0.7l5.9-4l-5.8,3.3c-0.2,0.1-0.6,0.1-0.7-0.2c-0.2-0.2-0.1-0.6,0.1-0.7l8.9-6.3
				l-8.9,5.1c-0.2,0.1-0.6,0.1-0.7-0.2c-0.2-0.2-0.1-0.6,0.1-0.7l6.4-4.4l-6.3,3.6c-0.2,0.1-0.6,0.1-0.7-0.2
				c-0.2-0.2-0.1-0.6,0.2-0.7l3.6-2.4l-3.4,2c-0.2,0.1-0.6,0.1-0.7-0.2c-0.2-0.2-0.1-0.6,0.2-0.7l2.3-1.6l-2.1,1.2
				c-0.2,0.1-0.6,0.1-0.7-0.2c-0.2-0.2-0.1-0.5,0.1-0.7l6.2-4.6l-6.1,3.5c-0.2,0.1-0.5,0.1-0.7-0.2c-0.2-0.2-0.1-0.5,0.1-0.7
				l5.5-4.2l-5.4,3.1c-0.2,0.1-0.6,0.1-0.7-0.2c-0.2-0.2-0.1-0.5,0.1-0.7l2.7-2l-2.5,1.4c-0.2,0.1-0.6,0.1-0.7-0.2
				c-0.2-0.2-0.1-0.5,0.1-0.7l2.2-1.7l-2,1.1c-0.2,0.1-0.5,0.1-0.7-0.2c-0.2-0.2-0.1-0.5,0.1-0.7l1.1-0.9l-0.8,0.5
				c-0.2,0.1-0.5,0.1-0.7-0.1c-0.2-0.2-0.2-0.5,0-0.7l1.7-2.2l-1.5,0.9c-0.2,0.1-0.4,0.1-0.6,0c-0.2-0.1-0.2-0.3-0.2-0.5l0.2-0.6
				c-0.2,0-0.3-0.1-0.4-0.3c-0.1-0.3-0.1-0.6,0.2-0.7l0.8-0.4c0.2-0.1,0.4-0.1,0.6,0c0.2,0.1,0.2,0.3,0.2,0.5l-0.1,0.5l2.8-1.6
				c0.2-0.1,0.5-0.1,0.7,0.1c0.2,0.2,0.2,0.5,0,0.7l-1.7,2.2l5-2.9c0.2-0.1,0.5-0.1,0.7,0.2c0.2,0.2,0.1,0.5-0.1,0.7l-1.1,0.9
				l2.7-1.5c0.2-0.1,0.5-0.1,0.7,0.2c0.2,0.2,0.1,0.5-0.1,0.7l-2.2,1.7l3.6-2.1c0.2-0.1,0.6-0.1,0.7,0.2c0.2,0.2,0.1,0.5-0.1,0.7
				l-2.7,2l4-2.3c0.2-0.1,0.5-0.1,0.7,0.2c0.2,0.2,0.1,0.5-0.1,0.7l-5.5,4.2l7.3-4.2c0.2-0.1,0.6-0.1,0.7,0.2
				c0.2,0.2,0.1,0.5-0.1,0.7l-6.2,4.6l7.7-4.4c0.2-0.1,0.6-0.1,0.7,0.2c0.2,0.2,0.1,0.6-0.2,0.7l-2.3,1.6l3-1.7
				c0.2-0.1,0.6-0.1,0.7,0.2c0.2,0.2,0.1,0.6-0.2,0.7l-3.6,2.4l4.3-2.5c0.2-0.1,0.6-0.1,0.7,0.2c0.2,0.2,0.1,0.6-0.1,0.7l-6.4,4.4
				l7.2-4.2c0.2-0.1,0.6-0.1,0.7,0.2c0.2,0.2,0.1,0.6-0.1,0.7l-8.9,6.3l9.9-5.7c0.2-0.1,0.6-0.1,0.7,0.2c0.2,0.2,0.1,0.6-0.2,0.7
				l-5.9,4l6.4-3.7c0.2-0.1,0.6-0.1,0.7,0.2c0.1,0.2,0.1,0.6-0.2,0.7l-3.8,2.5l4.1-2.3c0.2-0.1,0.6-0.1,0.7,0.2
				c0.1,0.2,0.1,0.6-0.2,0.7l-2.1,1.4l2.2-1.3c0.3-0.1,0.6-0.1,0.7,0.2c0.1,0.2,0.1,0.6-0.2,0.7l-0.4,0.3l0.5-0.3
				c0.2-0.1,0.6-0.1,0.7,0.2c0.2,0.2,0.1,0.6-0.1,0.7l-6.2,4.3l6.4-3.7c0.2-0.1,0.6-0.1,0.7,0.2c0.2,0.2,0.1,0.6-0.2,0.7l-0.1,0.1
				l0,0c0.2-0.1,0.6-0.1,0.7,0.2c0.2,0.2,0.1,0.6-0.1,0.7l-1.2,0.8l1.1-0.6c0.2-0.1,0.5-0.1,0.7,0.1c0.2,0.2,0.2,0.5,0,0.7l-2,2.3
				l2-1.1c0.2-0.1,0.4-0.1,0.6,0.1c0.2,0.1,0.2,0.4,0.1,0.6l-0.2,0.5c0.2,0,0.4,0.1,0.5,0.3c0.1,0.3,0.1,0.6-0.2,0.7l-1.1,0.6
				c-0.2,0.1-0.4,0.1-0.6-0.1c-0.2-0.1-0.2-0.4-0.1-0.6l0.2-0.4l-3.3,1.9c-0.2,0.1-0.5,0.1-0.7-0.1c-0.2-0.2-0.2-0.5,0-0.7l2-2.3
				l-7.8,4.5c-0.2,0.1-0.6,0.1-0.7-0.2c-0.2-0.2-0.1-0.6,0.1-0.7l1.2-0.9l-4.4,2.5c-0.2,0.1-0.6,0.1-0.7-0.2
				c-0.2-0.2-0.1-0.6,0.2-0.7l0.1-0.1l-2.9,1.7c-0.2,0.1-0.6,0.1-0.7-0.2c-0.2-0.2-0.1-0.6,0.1-0.7l6.1-4.3l-10.9,6.3
				C341.3,172.3,341.2,172.4,341.1,172.4z"/>
		</g>
	</g>
	<path class="st8" d="M324.8,187.2c-4.8-4.1-7.7-10-7.7-16.6c0-12.5,10.9-22.7,24.3-22.7c13.4,0,24.3,10.2,24.3,22.7
		c0,12.5-10.9,22.7-24.3,22.7c-3.6,0-7.1-0.8-10.2-2.1"/>
	<line class="st8" x1="295.6" y1="165.8" x2="311" y2="165.8"/>
	<line class="st8" x1="295.6" y1="171.1" x2="311" y2="171.1"/>
	<line class="st8" x1="295.6" y1="176.4" x2="311" y2="176.4"/>
	<line class="st8" x1="110.4" y1="255.9" x2="137.3" y2="255.9"/>
	<line class="st8" x1="110.4" y1="261.2" x2="137.3" y2="261.2"/>
	<line class="st8" x1="104.8" y1="187.2" x2="131.7" y2="187.2"/>
	<line class="st8" x1="110.4" y1="266.5" x2="137.3" y2="266.5"/>
	<line class="st8" x1="110.4" y1="277.6" x2="137.3" y2="277.6"/>
	<line class="st8" x1="110.4" y1="282.9" x2="137.3" y2="282.9"/>
	<line class="st8" x1="110.4" y1="288.2" x2="137.3" y2="288.2"/>
	<polyline class="st8" points="334.8,148.6 341.4,172.3 365.4,166.8 	"/>
	<polyline class="st8" points="105.1,154.7 105.1,181.1 147.5,181.1 	"/>
	<rect x="109.5" y="158.3" class="st7" width="8.8" height="22.8"/>
	<rect x="131.9" y="163.5" class="st7" width="8.8" height="17.6"/>
	<rect x="120.7" y="151.1" class="st7" width="8.8" height="30"/>
</g>
<g>
	<g>
		<g>
			<path class="st5" d="M54,324.8c0,0,0-4.4-6.2-10.7c-6.2-6.2-10.2-9.8-10.2-9.8s-3.1,10.2,2.7,16.4c5.8,6.2,13.8,12,13.8,12V324.8
				z"/>
			<path class="st5" d="M45,352.5c0,0,0-4.4-6.2-10.7c-6.2-6.2-10.2-9.8-10.2-9.8s-3.1,10.2,2.7,16.4c5.8,6.2,13.8,12,13.8,12V352.5
				z"/>
			<path class="st5" d="M53.6,332.4c0,0,0.5-4.4,7.3-9.9c6.8-5.5,11.2-8.6,11.2-8.6s2,10.5-4.4,16.1c-6.4,5.6-14.9,10.5-14.9,10.5
				L53.6,332.4z"/>
			<path class="st5" d="M42.7,365.1c0,0,0.9-4.3,8.3-9.1c7.4-4.8,12-7.4,12-7.4s0.9,10.6-6,15.5c-6.9,4.9-16,8.8-16,8.8L42.7,365.1z
				"/>
			<path class="st5" d="M44.8,400.8c0,0,0-4.4,6.2-10.7c6.2-6.2,10.2-9.8,10.2-9.8s3.1,10.2-2.7,16.4c-5.8,6.2-13.8,12-13.8,12
				V400.8z"/>
			<path class="st5" d="M44.7,409.5c0,0,0.6-4.4-4.6-11.4S31.3,387,31.3,387s-4.5,9.7,0.3,16.6c4.8,7,11.9,13.8,11.9,13.8
				L44.7,409.5z"/>
			<path class="st5" d="M38.6,435.3c0,0,0-4.4,6.2-10.7c6.2-6.2,10.2-9.8,10.2-9.8s3.1,10.2-2.7,16.4c-5.8,6.2-13.8,12-13.8,12
				V435.3z"/>
			<path class="st5" d="M42.7,458.8c0,0-1.1-4.3,3.3-11.9c4.4-7.6,7.4-12,7.4-12s5.6,9.1,1.6,16.6c-4,7.5-10.3,15.1-10.3,15.1
				L42.7,458.8z"/>
		</g>
		<path class="st0" d="M54.6,323.7c-0.4,4.7-0.9,9.7-1.7,13.8c-2.5,12.7-8.6,20.9-11.1,32.3c-2.5,11.5,4.6,26.2,2.7,41
			c-1.9,14.7-7.6,22.9-6,32.7c1.6,9.8,10.2,36.4,10.2,36.4"/>
		<line class="st0" x1="53.6" y1="335.3" x2="60.3" y2="330.2"/>
		<line class="st0" x1="53.9" y1="329.4" x2="51.1" y2="324.4"/>
		<path class="st0" d="M42.2,369.3c0,0,5.6-4.2,11.4-8.4"/>
		<path class="st0" d="M45,360.5c0,0-4.7-9.2-10-15.2"/>
		<path class="st0" d="M45,407.1c0,0,4.4-8.6,12-16"/>
		<path class="st0" d="M43.9,413.4c0,0-2.8-6.7-6.1-11.5c-3.3-4.8-3.7-5.5-3.7-5.5"/>
		<path class="st0" d="M38.6,443.5c0,0,2.2-5.7,5-10.2c2.8-4.5,6.5-8.6,6.5-8.6"/>
		<path class="st0" d="M44.7,466.5c0,0-0.7-5.3,1.7-9.8c2.3-4.5,5-10.4,6.1-12.8"/>
	</g>
	<g>
		<g>
			<path class="st5" d="M13.3,384.1c0,0-0.5-2.8,2.7-7.4s5.3-7.2,5.3-7.2s3.1,6.1,0.1,10.6c-2.9,4.5-7.3,9-7.3,9L13.3,384.1z"/>
			<path class="st5" d="M22,400.5c0,0-0.5-2.8,2.7-7.4c3.2-4.6,5.3-7.2,5.3-7.2s3.1,6.1,0.1,10.6c-2.9,4.5-7.3,9-7.3,9L22,400.5z"/>
			<path class="st5" d="M14.4,388.8c0,0-0.8-2.7-5.7-5.4c-4.9-2.7-8-4.2-8-4.2s-0.1,6.8,4.5,9.6c4.6,2.8,10.5,4.9,10.5,4.9
				L14.4,388.8z"/>
			<path class="st5" d="M24.8,408.2c0,0-1.1-2.6-6.2-4.8c-5.1-2.2-8.3-3.3-8.3-3.3s0.6,6.8,5.5,9.1c4.9,2.3,11,3.8,11,3.8
				L24.8,408.2z"/>
			<path class="st5" d="M27.4,430.8c0,0-0.5-2.8-5.1-6s-7.5-5-7.5-5s-0.8,6.7,3.5,10c4.3,3.3,9.9,6,9.9,6L27.4,430.8z"/>
			<path class="st5" d="M28.4,436.2c0,0-0.9-2.7,1.7-7.7c2.5-5,4.3-7.9,4.3-7.9s3.9,5.6,1.6,10.5c-2.3,4.9-6,10-6,10L28.4,436.2z"/>
			<path class="st5" d="M36.2,458.7c0,0,0.3-2.8,4.7-6.3c4.4-3.5,7.2-5.4,7.2-5.4s1.2,6.7-2.9,10.2c-4.1,3.5-9.6,6.6-9.6,6.6
				L36.2,458.7z"/>
			<path class="st5" d="M35,451.7c0,0-0.5-2.8-5.1-6c-4.6-3.2-7.5-5-7.5-5s-0.8,6.7,3.5,10c4.3,3.3,9.9,6,9.9,6L35,451.7z"/>
			<path class="st5" d="M35,466.9c0,0,0.2-2.8-3.4-7.1c-3.6-4.3-5.9-6.7-5.9-6.7s-2.5,6.3,0.8,10.6c3.3,4.3,8.1,8.3,8.1,8.3
				L35,466.9z"/>
		</g>
		<path class="st0" d="M12.9,383.5c0.7,2.9,1.6,6,2.6,8.5c2.9,7.7,7.7,12.2,10.4,19.1c2.8,6.9,0,16.9,2.7,26
			c2.8,9,7.3,13.5,7.3,19.9c0,6.3-2.5,24-2.5,24"/>
		<line class="st0" x1="14.8" y1="390.7" x2="10" y2="388.2"/>
		<line class="st0" x1="13.9" y1="387" x2="15.1" y2="383.6"/>
		<path class="st0" d="M25.6,410.7c0,0-4-2-8-4"/>
		<path class="st0" d="M22.9,405.5c0,0,1.9-6.3,4.6-10.6"/>
		<path class="st0" d="M27.9,434.8c0,0-3.7-4.9-9.3-8.8"/>
		<path class="st0" d="M29.3,438.5c0,0,1-4.5,2.6-7.9c1.5-3.4,1.8-3.8,1.8-3.8"/>
		<path class="st0" d="M35.7,461.7c0,0,3.2-3.9,5.1-5.3c2-1.4,3.3-2.9,3.3-2.9"/>
		<path class="st0" d="M35.9,456.9c0,0-2-3.3-4.3-5.9c-2.2-2.5-5-4.7-5-4.7"/>
		<path class="st0" d="M34.5,471.9c0,0-0.2-3.4-2.1-6c-2-2.6-4.3-6-5.2-7.3"/>
	</g>
</g>
<g>
	<g>
		<g>
			<path class="st6" d="M246.7,287.2l-4.9-7.2c0,0,1-11.6-0.1-13.4c-1.1-1.8-19-3.9-20-2.6c-1,1.3,2.7,2.5,2.7,2.5s-2.5,1.1-2.3,2.4
				c0.4,1.9,3.6,2.1,3.6,2.1s-2.6,1.7-2.3,2.9c0.3,0.9,2.8,1.6,2.8,1.6s-2.6,1.2-0.5,2.7s4,3.1,4,3.1s-1.5,3.2,2.5,6
				c4,2.8,11,7.8,11,7.8L246.7,287.2z"/>
			<path class="st9" d="M222.2,259.3l-4-0.3l0,1.2l3.2,1.8C221.4,262,222.1,258.9,222.2,259.3z"/>
			<g>
				<path class="st6" d="M237.8,267.3c-0.2,0-0.3,0-0.5-0.1l-15.7-5c-0.8-0.3-1.3-1.1-1-2c0.3-0.8,1.1-1.3,2-1l15.7,5
					c0.8,0.3,1.3,1.1,1,2C239,266.8,238.4,267.3,237.8,267.3z"/>
			</g>
			<g>
				<path class="st9" d="M245.9,270.4c-0.2,0-0.5,0-0.7-0.1l-8.1-2.6c-1.1-0.3-1.7-1.5-1.4-2.6c0.3-1.1,1.5-1.7,2.6-1.4l8.1,2.6
					c1.1,0.3,1.7,1.5,1.4,2.6C247.6,269.8,246.8,270.3,245.9,270.4z"/>
			</g>
			<path class="st6" d="M239.4,272.7c0,0-1.4-4.2-2.5-6.2c-1.1-2.1-3.3-3.8-4.1-5.9c-0.8-2.1-3.1,1.1-2.3,2.7
				c0.8,1.6,2.7,3.9,2.8,4.9c0,1,0.3,1.8-0.9,5.3c-1.2,3.4-1.9,7.4,0.8,10.2"/>
			<line class="st0" x1="224.3" y1="266.6" x2="233.2" y2="268.2"/>
			<path class="st0" d="M225.6,271.2c1-0.3,6.7,2.3,6.7,2.3"/>
			<line class="st0" x1="226.2" y1="275.6" x2="230.9" y2="277.2"/>
		</g>
		<path class="st10" d="M309.5,273.4c0,0-2.7-1.6-3.9,2.7c-1.2,4.2-4.6,11.7-6.2,13.3c-1.5,1.6-16.6,16.5-16.6,16.5s-6.4-5.1-8-3.2
			c-1.5,1.9-2.6,2.2-2.6,2.2l-25.8-20.2l-9.5,14.5c0,0,35.1,32,38,33c2.9,1,5,0.6,6,0.1c1-0.6,20.3-15,20.3-15s11.7-37.9,12.8-39.2
			C315.1,276.6,309.5,273.4,309.5,273.4z"/>
		<path class="st10" d="M274.9,305.9c0,0,5.2,6,5.2,13.7"/>
		<path class="st10" d="M283.3,308.3c0,0,1.6,4-0.8,12.9"/>
	</g>
	<path class="st9" d="M321,226.6c0,0-11.4-7.5-10-14.5c1.3-7,26.9-12.7,41.6-8c14.7,4.8,17.7,26.7,15.7,40.3
		c-1.9,13.6-3.1,44.5-3.1,44.5l-49.8,1.5c0,0,4.6-36.2,5.6-47.7C321.9,231.3,321,226.6,321,226.6z"/>
	<g>
		<path class="st9" d="M295.5,426.1c1,10.8,3.1,58.5,4.2,65.6h51.8c-0.1-8.1-0.2-63.1,0.9-67.6c1.5-5.6,3.5-24.4,1.3-35.1
			c-2.3-10.7-5.1-15.9-5.1-15.9l-53.7-0.1l0.2,4.4C295.1,377.4,294.1,410.7,295.5,426.1z"/>
		<path class="st11" d="M307,393.6c2.2,1.4,4.3,2.5,4.3,4.6c1,18.9,5.2,71.9,6.7,91"/>
	</g>
	<g>
		<path class="st6" d="M322.4,272.7l26.3,1c0,0-21.1,32.5-20.9,50.3c0.2,17.8,3.7,54.8,3.7,54.8s-11.6,9.1-23.5,7.4
			c-1.3-0.2-2-10.9-2-10.9s-0.8,10.4-1.7,10.2c-6.7-1.2-9.3-8.1-9.3-8.1l1.4-35.7c0,0,0-23.4,2.6-30.2c2.6-6.7,20.3-36.6,20.3-36.6
			L322.4,272.7z"/>
		<path class="st0" d="M321.4,293.3c0,0-8.1,16.9-11.1,26.8c-3,9.9-4.3,55.1-4.3,55.1"/>
	</g>
	<g>
		<path class="st10" d="M345.5,273.4c0,0-18.4,27.5-22,37.4c-3.6,9.9-5.9,47.8-5.5,63.8c0.5,16.1,5.5,33.8,5.5,33.8
			s21.1,4.3,44.7-3.1c0,0-6.4-28.5-9.5-37.9c-3.1-9.4-4.4-18.8-4.4-18.8s21.1-67.5,21.1-68.5c0-1-0.4-2.1-2.5-2.7
			S345.5,273.4,345.5,273.4z"/>
		<polyline class="st10" points="328.7,378.5 356,376.3 356.4,380.7 344.7,382.2 		"/>
	</g>
	<path class="st10" d="M322.2,276.2c0,0-22,38.8-22.4,45.8c-0.5,7-3.7,39.3-5.5,49.5c-1.8,10.2-9.6,30-9.6,30s-2-8.7-1.4-12.6
		c0.6-3.9,9-25.8,9.9-30.7c0.9-4.9,2.1-22.5,1.9-30.2c-0.2-7.7-0.7-13.3,0.8-18.9c1.6-5.6,13.6-35.7,13.6-35.7l17.5-0.9L322.2,276.2
		z"/>
	<g>
		<polygon class="st6" points="317.4,273 313.8,289.7 323.2,282.4 		"/>
		<polygon class="st6" points="328.6,264.8 317.4,273 321.6,284 321.4,293.3 334.1,274.5 		"/>
	</g>
	<path class="st6" d="M328,260.4c0,0-2.1,15.6-2.8,19.8c-0.7,4.2-3.8,13.1-3.8,13.1s19.9-19.3,20.9-20.9c1-1.6,4.4-17,4.4-17
		S333.9,260.3,328,260.4z"/>
	<path class="st9" d="M327.4,264.8c2.7,1.7,4.8,1.7,8,1.2c3.2-0.5,7.5-3.4,10.3-5.8c0.6-2.7,1.1-4.8,1.1-4.8s-12.8,4.8-18.8,5
		C328,260.4,327.7,262.3,327.4,264.8z"/>
	<g>
		<path class="st6" d="M334.4,213l-14.7,11.6c0,0-1.5,11.2-2,19c-0.5,7.8,2.7,13.4,7,17.2c4.3,3.8,6.6,4,10.7,3.3
			c4.1-0.6,10.2-5.5,12.5-7.6c2.3-2.1,6.5-8.5,6.5-8.5s3.4,0.7,4.4-0.9c1-1.6,1.2-2.4,1.2-2.4s-14-7.9-19.7-17.8
			S334.4,213,334.4,213z"/>
		<g>
			<path class="st0" d="M329.8,233.7c0,0-0.4,3.1-1.4,4.7c-1,1.6-4.9,2.5-2.7,4.2c2.1,1.8,5.5,1.7,5.5,1.7"/>
			<path class="st0" d="M325.5,247.3c0,0,7.9,3.4,12.9-1.2"/>
			<path class="st0" d="M328.1,248.5c0,0,1.2,4.4,3.7,3.5c2.6-0.9,4.8-4.3,4.8-4.3S333.3,248.3,328.1,248.5z"/>
			<path class="st12" d="M339.7,235.7c0,1.1-0.5,2.1-1.1,2.1c-0.6,0-1.2-0.9-1.2-2c0-1.1,0.5-2.1,1.1-2.1
				C339.1,233.6,339.7,234.6,339.7,235.7z"/>
			<path class="st12" d="M327.3,234.2c0,1.1-0.5,2.1-1.1,2.1s-1.2-0.9-1.2-2c0-1.1,0.5-2.1,1.1-2.1
				C326.7,232.2,327.3,233.1,327.3,234.2z"/>
			<path class="st0" d="M323.2,229.4c0,0,2.8-2.9,6,0.1"/>
			<path class="st0" d="M335.1,230.1c0,0,5.9-2.3,8.4,2.9"/>
		</g>
	</g>
	<g>
		<polygon class="st6" points="331.8,277.5 321.4,293.3 336.7,285.1 		"/>
		<polygon class="st6" points="349.3,263.7 331.8,277.5 336.9,291.9 353.8,272.4 		"/>
	</g>
	<g>
		<path class="st6" d="M328.1,345.3c0,0-2.8-0.6-6.7-3s-8.1-1.5-11.6-1.4c-3.5,0.1-5.9,0.9-5.5,2.3c0.4,1.4,3.9,1.3,4.9,1.3
			c1,0,2.8,1.7,2.8,1.7l-8.7,2.1c0,0-2.7,1.8-0.6,3.9c2.2,2,2.5,1.6,2.5,1.6s3.3,5.2,6.8,5.4c3.5,0.2,17.7-3.3,17.7-3.3L328.1,345.3
			z"/>
		<path class="st10" d="M352.8,305.1c0.4,2.1,2.7,33.4,2.7,33.4l-28.8,6.8l1.5,16.4c0,0,51.6-6.1,52.6-9.2c1-3.2-2.4-58-2.2-61.2
			c0.3-3.2,4.5-13.8-8.1-13.8"/>
		<path class="st10" d="M357.7,299.9c0,0,8.4-10.9,17.7-10.4"/>
		<path class="st10" d="M357.7,303.9c0,0,7.2-4,14.5-4"/>
	</g>
</g>
<g>
	<g>
		<path class="st13" d="M22.1,512.6v-63.7c0-1.1-0.9-1.9-1.9-1.9h-7.8c-1.1,0-1.9,0.9-1.9,1.9v63.7H22.1z"/>
		<g>
			<path class="st14" d="M12.4,512.6v-63.7c0-1.1-0.9-1.9-1.9-1.9H2.7c-1.1,0-1.9,0.9-1.9,1.9v63.7H12.4z"/>
		</g>
	</g>
	<g>
		<path class="st14" d="M16.8,512.6h139.4c-1.2-2.6-2.7-4.9-4.8-6.2c-6.3-4-66.5-13.3-66.5-13.3l-62.5-1l-3,1c0,0-3.3,4.7-3,7
			C16.5,501.3,16.6,507,16.8,512.6z"/>
		<g>
			<path class="st15" d="M73.6,372.4c0,0-14.6,8.3-19.6,13c-5,4.7-13.3,20-14,29.3c-0.7,9.3-8,44.9-8,44.9s-15,29.3-12.6,33.6
				c2.3,4.3,63.9,0,65.5,0c1.7,0-1.7-18.3-1.7-18.3s23.3-35.9,24.3-45.6s-6-35.9-7.3-41.9C98.9,381.4,76.6,371.1,73.6,372.4z"/>
			<g>
				<path class="st16" d="M62.1,423.2c0,0,11.6,11,16.5,14.7"/>
				<path class="st16" d="M56.6,431.8c0,0,21.4,7.3,26.9,8"/>
			</g>
		</g>
		<g>
			<path class="st15" d="M119.2,335.2c0,0,1.7,12.3,1.3,16c-0.3,3.7-3.7,16.3-4.7,19c-1,2.7-2,5.7-5.7,5.3c-3.7-0.3-6-2-6-2
				l-3.7,12.3l-25.3-14.6l3.3-6.7c0,0-3.7-6-4.7-16c-1-10,4.7-21.3,12-25.6c7.3-4.3,20-2.7,23.6,0.3
				C113.2,326.2,119.2,335.2,119.2,335.2z"/>
			<path class="st15" d="M73.9,366.1c1.3,0.3,29.9,13.3,30.3,16.6c0.3,3.3,1.7,13.6,1.7,13.6s-8.6-7.7-19-13.3
				c-10.3-5.7-15.3-9.6-15.3-9.6L73.9,366.1z"/>
			<g>
				<path class="st17" d="M99.2,307.9c0,0,8.6-3.7,15.6-2c7,1.7,9.6,9.6,9.6,16.3c0,6.7-3.7,14.6-5,15c-1.3,0.3-4.7-15.6-11-20.3
					C102.2,312.2,99.2,307.9,99.2,307.9z"/>
				<g>
					<path class="st17" d="M88.6,309.9c0,0,13.6-7.3,25.6,3c12,10.3,8,20.6,5.3,24.3c-2.7,3.7-2.7,10.6-4.7,12
						c-2,1.3-2.3-5.3-4.7-6.7c-2.3-1.3-2,3.7-4.7,10.3c-2.7,6.7-14.6,16.3-21,15.6c-6.3-0.7-14-7.7-18.3-22.3
						c-4.3-14.6-1.3-30.3,6.7-35.3C80.9,305.9,88.6,309.9,88.6,309.9z"/>
					<path class="st16" d="M115,316.2c0,0,2.6,7.6-4.1,16.2c-6.8,8.5-15.9,13.2-22.6,9.1c-6.8-4.1-7-8.8-7-8.8"/>
					<path class="st16" d="M70.4,334.1c0,0-1.5,22.9,12.3,25.3c13.8,2.3,21.4-12,21.4-12"/>
				</g>
				<g>
					<ellipse class="st17" cx="74.7" cy="320.5" rx="13.8" ry="14"/>
					<path class="st16" d="M71.8,318.5c0,0,1.8-9.1,6.8-10.3"/>
					<path class="st16" d="M71.3,319.7c0,0,10-3.5,14.7,0.3"/>
					<path class="st16" d="M70.7,321.4c0,0-4.4,2.9-2.9,9.7"/>
				</g>
			</g>
			<path class="st15" d="M112.2,350.1c0,0-1-10-4-9.6c-3,0.3-1.7,15.3,0,17.6c1.7,2.3,3.3,0.3,3.3,0.3"/>
		</g>
	</g>
	<g>
		<polygon class="st18" points="393.3,499.1 84.4,499.1 94.8,472.9 323.8,472.9 		"/>
		<rect x="87.8" y="504.4" class="st19" width="301.2" height="8.3"/>
		<rect x="84.4" y="499.1" class="st5" width="308.9" height="9.7"/>
	</g>
	<g>
		<polygon class="st20" points="200.8,476.3 209.7,490.4 137.2,490.4 144.3,476.3 		"/>
		<polygon class="st20" points="187.1,480.5 196.1,494.6 123.6,494.6 130.6,480.5 		"/>
	</g>
	<g>
		<path class="st15" d="M98.9,402.7l14,64.9l54.2,7.7c0,0,16.3-6.7,17.6-6.7s3.7,4,4.7,5.3c1,1.3,2.7,3.3,3.3,4.3c0.7,1,1,6,0,7.3
			c-1,1.3-3,5-5,4.7c-2-0.3,0-5.7,0-5.7s-11.6,4.7-15.3,4.7c-3.7,0-11-3.3-11-3.3s-61.9,7-65.5,5.7c-3.7-1.3-5.7-3.3-7-6
			c-1.3-2.7-22.6-73.8-22.6-73.8"/>
		<path class="st15" d="M189.3,473.9c-1-1.3-3.3-5.3-4.7-5.3s-17.6,6.7-17.6,6.7l-30.9-4.4c1.3,3.8,2.9,10.4,1.5,17.6
			c12.9-1.3,23.8-2.6,23.8-2.6s7.3,3.3,11,3.3c3.7,0,15.3-4.7,15.3-4.7s-2,5.3,0,5.7c2,0.3,4-3.3,5-4.7c1-1.3,0.7-6.3,0-7.3
			C192,477.2,190.3,475.2,189.3,473.9z"/>
	</g>
</g>
<g>
	<polygon class="st6" points="285.7,470.6 342.2,470.6 342.2,468.8 258.1,456.2 260.2,458 	"/>
	<polygon class="st6" points="285.7,468.8 342.2,468.8 312.4,456.5 260.2,456.2 	"/>
	<g>
		<polygon class="st21" points="294.9,459 300.2,459 297.5,457.9 292.3,457.9 		"/>
		<polygon class="st21" points="305.7,463.5 308.4,464.6 313.7,464.6 311,463.5 		"/>
		<polygon class="st21" points="315.5,461.8 309.6,461.8 311.2,462.4 317.1,462.4 		"/>
		<polygon class="st21" points="303.2,462.4 308.5,462.4 306.9,461.8 301.6,461.8 		"/>
		<polygon class="st21" points="307.1,460.7 312.9,460.7 311.3,460.1 305.5,460.1 		"/>
		<polygon class="st21" points="286.9,459 292.2,459 289.7,457.9 284.5,458 		"/>
		<polygon class="st21" points="297.5,460.1 299.1,460.7 304.4,460.7 302.8,460.1 		"/>
		<polygon class="st21" points="323.4,467.6 329.5,467.6 324.9,465.7 318.9,465.7 		"/>
		<polygon class="st21" points="310.9,465.7 315.4,467.6 320.7,467.6 316.2,465.7 		"/>
		<polygon class="st21" points="302.9,465.7 307.3,467.6 312.6,467.6 308.2,465.7 		"/>
		<polygon class="st21" points="300.1,465.7 289.8,465.7 293.5,467.6 304.6,467.6 		"/>
		<polygon class="st21" points="303,459 308.7,459 305.8,457.8 300.2,457.9 		"/>
		<polygon class="st21" points="313.7,463.5 316.4,464.6 322.4,464.6 319.6,463.5 		"/>
		<polygon class="st21" points="305.7,464.6 302.9,463.5 297.6,463.5 300.4,464.6 		"/>
		<polygon class="st21" points="284.2,459 281.8,458 274.8,458.1 276.6,459 		"/>
		<polygon class="st21" points="298.9,461.8 293.6,461.8 295.1,462.4 300.4,462.4 		"/>
		<polygon class="st21" points="289.4,460.1 291.1,460.7 296.4,460.7 294.7,460.1 		"/>
		<polygon class="st21" points="292.4,462.4 290.9,461.8 282.1,461.8 283.4,462.4 		"/>
		<polygon class="st21" points="280,460.7 288.3,460.7 286.7,460.1 278.7,460.1 		"/>
		<polygon class="st21" points="294.9,463.5 285.5,463.5 287.7,464.6 297.6,464.6 		"/>
	</g>
	<polygon class="st6" points="285.7,468.8 283.7,468.8 244.7,412.5 246.6,411.9 272.2,411.9 	"/>
	<polygon class="st6" points="283.7,468.8 258.1,456.2 244.6,411.9 270.1,411.9 	"/>
</g>
<g>
	<g>
		<path class="st22" d="M520.8,512.6V440c0-1.1-0.9-2-2-2h-26.5c-1.1,0-2,0.9-2,2v72.7H520.8z"/>
		<path class="st23" d="M511.2,512.6V440c0-1.1-0.9-2-2-2h-26.5c-1.1,0-2,0.9-2,2v72.7H511.2z"/>
	</g>
	<g>
		<g>
			<path class="st24" d="M405.1,396.8c0,0-11.7,7.8-13.2,12.6c-1.5,4.8-10.2,32-11.1,34.1c-0.9,2.1-8.1,13.2-8.1,13.2l-38.3,1.8
				c0,0-17.3-3.9-18.8-3.9c-1.5,0-16.4,9.9-17.6,12.6c-1.2,2.7-3.9,6.6-2.7,7.5c1.2,0.9,3-0.6,3-0.6s0.6,4.2,8.1,2.7
				c7.5-1.5,15-6.9,15-6.9s9.3,4.5,12.9,3.6c0.1,0,0.2-0.1,0.3-0.1v4c0,0,50.5,2.7,52.6,2.1s13.2-14.1,13.2-14.1l12.9-69.4
				C413.2,395.9,412.6,389.3,405.1,396.8z"/>
			<path class="st23" d="M335.4,459.4l-0.7-1l-0.1,0c0,0-17.3-3.9-18.8-3.9c-1.5,0-16.4,9.9-17.6,12.6c-1.2,2.7-3.9,6.6-2.7,7.5
				c1.2,0.9,3-0.6,3-0.6s0.6,4.2,8.1,2.7c7.5-1.5,15-6.9,15-6.9s9.3,4.5,12.9,3.6c0.1,0,0.2-0.1,0.3-0.1v4L335.4,459.4z"/>
			<path class="st24" d="M406.6,512.6h1.2c-0.9-2.2-1.7-4.2-2-5.2c-1-3.2-12.4-44.7-13.7-50.8c-1.3-6.1-0.6-14.7,2.6-26.8
				c3.2-12.1,10.6-33,10.6-33l-10.6,14.8c0,0-8.9,34.5-8.9,38.9s4.5,27.1,8.9,38.3C397.1,495.3,402.5,505.4,406.6,512.6z"/>
		</g>
		<path class="st25" d="M409.9,388.4c0,0-11.1,17.3-14.1,29.3c-3,12-5.4,22.4-5.4,33.2c0,10.8,12,41.3,13.8,45.1
			c1.8,3.9,21.2,5.1,27.2-13.5c6-18.5,8.7-72.1,5.1-84.3C432.9,386,417.4,380.4,409.9,388.4z"/>
		<path class="st26" d="M406.8,385.9c-0.7,1.1-10.7,6.6-10.7,6.6l-0.4,10.3l2.9-5.5l4.6,13.7l4.9-25.4L406.8,385.9z"/>
		<g>
			<path class="st24" d="M407.9,512.6h81.4c-2.7-7.2-13-34.9-13.4-36.2c-0.4-1.5-8.8-67-17.7-79.1c-8.8-12.1-29.4-16.6-33.8-14
				c0,0-14.7,29.8-20.2,43.8c-5.5,14-9.2,41.6-9.2,45.6s7.7,29.4,7.7,29.4L407.9,512.6z"/>
			<polyline class="st27" points="466.5,490.7 431.3,501.2 433.6,505.7 453.1,499.7 			"/>
		</g>
		<g>
			<g>
				<path class="st25" d="M389.4,334.1c0,0-2.8,8.7-2.9,10.5c-0.1,1.8,0.1,4,0.1,4s0.1,1.1-0.5,2.1c-0.6,0.9-7.2,7.3-6.4,8.6
					c0.8,1.3,5.3,6.4,5.3,6.4s3.2,15.2,7.5,17c4.3,1.8,10.3,0.7,10.3,0.7l2.2,6l26.7-8.8l-0.4-8.8c0,0,2.7-15.6-0.4-26.9
					S401.2,321.4,389.4,334.1z"/>
				<path class="st12" d="M390.3,352c-0.3,1.3-1,2.3-1.5,2.1c-0.5-0.1-0.7-1.3-0.3-2.6c0.3-1.3,1-2.3,1.5-2.1
					C390.4,349.6,390.6,350.7,390.3,352z"/>
				<path class="st25" d="M388.4,346.1c0,0,3.7-1.1,5.2,3"/>
				<path class="st25" d="M385.8,367.8c0,0,3,3,8.2,1.1"/>
			</g>
			<path class="st22" d="M405.8,312.7c0,0-2.4-6.7-10-8.2c-7.6-1.5-13.1,9.2-11.2,13.2c1.9,4.1,2.8,5-0.9,5.2
				c-3.7,0.2-10.7,9.7-4.5,15.6c6.2,5.8,13.6-2.5,14,0.5c0.4,3-0.6,5.6,2.9,5.8c3.6,0.1,9.5-0.2,8.6,2.1c-0.9,2.3-1.1,7.7,2.3,8.5
				c3.4,0.8,5.5-3.4,7.9-2.8c2.4,0.6,5.6,8.2,3.5,12.4c-2.1,4.2-3.5,4.2-3.8,5.2c-0.2,1,6.4,8.1,13.2,6.8
				c6.8-1.3,15.7-3.5,16.7-10.8s-1.1-9,1.7-11.5s5.5-3.4,4.7-7.5c-0.8-4.2-3.4-5.5-2.5-8.9c0.8-3.4-2.6-19.1-17.3-25.9
				C416.6,305.6,405.8,312.7,405.8,312.7z"/>
		</g>
		<polygon class="st25" points="434.6,372.3 400.9,391.8 403.3,411 439.3,382.4 		"/>
		<g>
			<g>
				<path class="st25" d="M346.5,463.2c0,0-6.8-2.5-11.1-3.8c-7.4-2.1-14.3-5.3-16.9-4.5c-2.6,0.7-15.1,9.4-15.1,9.4
					s-4.4,10.7-4,12.1c0.4,1.5,3.1-0.9,3.1-0.9s-1.6,2-0.1,3.5c1.5,1.5,2.9-1.5,2.9-1.5s-0.4,3.7,1.8,3.3c2.2-0.4,2.4-2,2.4-2
					s0.2,2,2,2c1.8,0,5.9-7.7,5.9-7.7l7,0.4c0,0,5.5,2.9,8.8,3.3c3.3,0.4,7.4-1.8,7.4-1.8l4.4,1.1l3.7-10.7L346.5,463.2z"/>
				<path class="st27" d="M302.4,475.5c0,0,3.8-9,4.4-9.6c0.6-0.6,8.1-4.8,8.1-4.8"/>
				<path class="st27" d="M305.3,477.5c0,0,4.6-9.2,5-9.7c0.5-0.5,6.2-3.3,6.2-3.3"/>
				<path class="st27" d="M309.5,478.8c0,0,4.4-8.4,5.1-8.9c0.8-0.5,2.7-1.5,2.7-1.5"/>
			</g>
			<path class="st24" d="M444,396.6c0,0-23.2,15.1-22.8,21c0.4,5.9,2.2,5.9,2.2,5.9l-11.8,44.2c0,0-3.7-2.9-4,0.7
				c-0.4,3.7-0.4,3.7-0.4,3.7l-61.4-10.3l-6.3,15.5c0,0,25.4,9.9,43,16.2c17.7,6.3,36.1,13.2,37.9,9.9c1.8-3.3,38.3-57.8,40.5-61.8
				c2.2-4,2.2-11.4,2.2-11.4"/>
			<path class="st27" d="M423.4,423.4c0,0,7-14.3,23.9-15.5"/>
		</g>
	</g>
</g>
<rect x="-0.8" y="0.2" class="st28" width="512" height="512"/>
</svg>
