<svg id="_x33_0" enable-background="new 0 0 62 62" height="512" viewBox="0 0 62 62" width="512" xmlns="http://www.w3.org/2000/svg"><g><path d="m19 30c1.615 0 3.067-.897 3.789-2.342l.105-.211-1.789-.895-.105.212c-.381.762-1.147 1.236-2 1.236s-1.619-.474-2-1.236l-.105-.211-1.789.895.105.21c.722 1.445 2.174 2.342 3.789 2.342z"/><path d="m10 22h18v-6h-18zm2-4h14v2h-14z"/><path d="m60 0h-18c-1.103 0-2 .897-2 2v16h-2.101c-.247-1.213-.946-2.253-1.899-2.974v-4.026c0-6.065-4.935-11-11-11h-11.528c-2.943 0-5.607 1.533-7.086 4.038-2.468.303-4.386 2.413-4.386 4.962v6.026c-1.207.913-2 2.347-2 3.974 0 2.757 2.243 5 5 5h1c0 1.103.897 2 2 2v.917c0 3.727 2.477 6.918 6 7.885v1.248c-7.805.519-14 7.017-14 14.95v4c0 3.86 3.141 7 7 7h37c2.206 0 4-1.794 4-4v-18c0-2.206-1.794-4-4-4h-10v4.821c-2.594-2.8-6.17-4.503-10-4.76v-1.258c3.523-.967 6-4.159 6-7.886v-.917c1.103 0 2-.897 2-2h1c.342 0 .677-.035 1-.101v8.101c0 1.103.897 2 2 2h20c1.103 0 2-.897 2-2v-10h2c1.103 0 2-.897 2-2v-18c0-1.103-.897-2-2-2zm0 2 .001 10.586-3.587-3.586c-1.291-1.289-3.537-1.29-4.828 0l-9.586 9.586v-16.586zm-26 9v3.101c-.323-.066-.658-.101-1-.101h-1c0-1.103-.897-2-2-2h-.312c-.575-1.382-1.455-2.625-2.558-3.634.65-.505 1.232-1.106 1.702-1.812l-1.664-1.109c-1.066 1.6-2.851 2.555-4.773 2.555h-.395v-6h3c4.963 0 9 4.038 9 9zm-21.273-1.559c.902.362 1.875.559 2.878.559h.395v2h-5.471c.543-.996 1.3-1.862 2.198-2.559zm5.273-7.441h2v10h-2zm4 8h.395c1.003 0 1.977-.197 2.879-.559.897.697 1.655 1.563 2.197 2.559h-5.471zm-17 12c-1.654 0-3-1.346-3-3s1.346-3 3-3h1v6zm1-8h-1c-.342 0-.677.035-1 .101v-5.101c0-1.654 1.346-3 3-3h.618l.276-.553c1.063-2.126 3.201-3.447 5.578-3.447h2.528v6h-.395c-1.923 0-3.707-.955-4.773-2.555l-1.664 1.11c.47.705 1.052 1.307 1.702 1.812-1.104 1.008-1.983 2.251-2.558 3.633h-.312c-1.103 0-2 .897-2 2zm-4 41v-4c0-6.869 5.359-12.496 12.114-12.955.482 2.256 2.488 3.955 4.886 3.955 2.395 0 4.398-1.694 4.883-3.946 3.228.221 6.24 1.633 8.469 3.946h-2.352v10.069c-.376.077-.736.219-1.059.435l-1.095.73c-.301-.724-1.015-1.234-1.846-1.234h-16v-6h-2v6.586l-1.707 1.707 1.414 1.414 1.707-1.707h12.586v6h-15c-2.757 0-5-2.243-5-5zm31-3h-1v-8h10v16h-6.184c.112-.314.184-.648.184-1v-4c0-1.654-1.346-3-3-3zm-7 2v6h-2v-6zm2 6v-4.465l2.052-1.368c.164-.109.355-.167.553-.167h2.395c.552 0 1 .449 1 1v4c0 .551-.448 1-1 1zm16 0v-16c.732 0 1.409-.212 2-.556v14.556c0 1.103-.897 2-2 2zm-8-22h8c1.103 0 2 .897 2 2s-.897 2-2 2h-8zm-8-11.083c0 3.034-2.172 5.598-5.164 6.097l-.836.139v3.847c0 1.654-1.346 3-3 3s-3-1.346-3-3v-3.847l-.836-.139c-2.992-.499-5.164-3.063-5.164-6.097v-.917h18zm-20-2.917v-10h22l.001 10zm24-2v-6h1c1.654 0 3 1.346 3 3s-1.346 3-3 3zm24 10h-20v-9.026c.953-.721 1.652-1.762 1.899-2.974h2.101c0 1.103.897 2 2 2h14zm-12.586-12 9.586-9.585c.535-.535 1.465-.535 2 0l5.001 5.001v4.585h-16.587z"/><path d="m47 10c1.654 0 3-1.346 3-3s-1.346-3-3-3-3 1.346-3 3 1.346 3 3 3zm0-4c.552 0 1 .449 1 1s-.448 1-1 1-1-.449-1-1 .448-1 1-1z"/><path d="m38 24h4v2h-4z"/><path d="m44 24h10v2h-10z"/><path d="m38 28h4v2h-4z"/><path d="m44 28h10v2h-10z"/></g></svg>