<?xml version="1.0" encoding="iso-8859-1"?>
<!-- Generator: Adobe Illustrator 19.0.0, SVG Export Plug-In . SVG Version: 6.00 Build 0)  -->
<svg version="1.1" id="Capa_1" xmlns="http://www.w3.org/2000/svg" xmlns:xlink="http://www.w3.org/1999/xlink" x="0px" y="0px"
	 viewBox="0 0 479.985 479.985" style="enable-background:new 0 0 479.985 479.985;" xml:space="preserve">
<g>
	<path style="fill:#FF5023;" d="M263.975,58.08V32c0-13.255-10.745-24-24-24c-13.255,0-24,10.745-24,24v26.08
		C231.855,55.307,248.095,55.307,263.975,58.08z"/>
	<path style="fill:#FF5023;" d="M239.975,472c26.51,0,48-21.49,48-48l0,0h-96C191.975,450.51,213.465,472,239.975,472L239.975,472z"
		/>
</g>
<path style="fill:#FFCD00;" d="M287.975,424h136l-24.8-49.6c-10.002-19.994-15.207-42.044-15.2-64.4V200
	c0.064-70.278-50.689-130.302-120-141.92c-15.88-2.773-32.12-2.773-48,0c-69.279,11.674-120.004,71.664-120,141.92v110
	c0.007,22.356-5.198,44.406-15.2,64.4l-24.8,49.6H287.975z"/>
<path style="fill:#231F20;" d="M431.175,420.424l-24.8-49.6c-9.43-18.892-14.358-39.71-14.4-60.824V200
	c0.102-71.621-49.948-133.537-120-148.448V32c0-17.673-14.327-32-32-32s-32,14.327-32,32v19.616
	C137.871,66.4,87.768,128.355,87.975,200v110c-0.031,21.102-4.943,41.912-14.352,60.8l-24.8,49.6
	c-1.988,3.946-0.401,8.756,3.544,10.744c1.119,0.564,2.355,0.857,3.608,0.856h128.64c4.391,30.574,32.736,51.8,63.311,47.409
	c24.574-3.529,43.88-22.835,47.409-47.409h128.64c4.418,0.024,8.02-3.538,8.044-7.956
	C432.026,422.788,431.737,421.548,431.175,420.424L431.175,420.424z M223.975,32c0.009-8.837,7.179-15.993,16.016-15.984
	c8.824,0.009,15.976,7.16,15.984,15.984v16.864c-0.488-0.048-0.984,0-1.472-0.08c-4.496-0.44-9.008-0.696-13.528-0.728
	c-0.336-0.008-0.664-0.056-1-0.056s-0.584,0.048-0.88,0.048c-4.584,0-9.144,0.296-13.68,0.744c-0.48,0-0.96,0-1.44,0.072L223.975,32
	z M239.975,464c-19.002-0.021-35.375-13.387-39.2-32h78.4C275.35,450.613,258.977,463.979,239.975,464z M68.919,416l19.056-38.024
	c10.509-21.12,15.985-44.386,16-67.976V200c-0.227-66.45,47.809-123.241,113.376-134.04c11.223-1.948,22.651-2.44,34-1.464
	c3.803,0.331,7.579,0.824,11.328,1.48C328.125,76.957,376.041,133.64,375.975,200v110c0.023,23.601,5.514,46.876,16.04,68l19.016,38
	H68.919z"/>
<g>
</g>
<g>
</g>
<g>
</g>
<g>
</g>
<g>
</g>
<g>
</g>
<g>
</g>
<g>
</g>
<g>
</g>
<g>
</g>
<g>
</g>
<g>
</g>
<g>
</g>
<g>
</g>
<g>
</g>
</svg>
