<svg id="Layer_1" data-name="Layer 1" xmlns="http://www.w3.org/2000/svg" viewBox="0 0 30 30"><defs><style>.cls-1{fill:#f3f3f3;}.cls-2{fill:#ccc;}.cls-3{fill:#fafafa;}</style></defs><title>dien dan icon</title><circle class="cls-1" cx="15" cy="15" r="14.79"/><path class="cls-2" d="M7.72,13.54c0,3.05,3.26,5.53,7.28,5.53s7.28-2.48,7.28-5.53S19,8,15,8,7.72,10.49,7.72,13.54Z"/><path class="cls-2" d="M19.72,16.15s1.46,4,2.12,5.83l-8-5.83Z"/><path class="cls-3" d="M17.1,13.54a.74.74,0,1,0,1.48,0,.74.74,0,0,0-1.48,0Z"/><path class="cls-3" d="M13.81,13.54a1,1,0,1,0,.95-.94A.95.95,0,0,0,13.81,13.54Z"/><path class="cls-3" d="M10.65,13.54a1.07,1.07,0,1,0,1.06-1.06A1.07,1.07,0,0,0,10.65,13.54Z"/></svg>