<svg id="Layer_1" data-name="Layer 1" xmlns="http://www.w3.org/2000/svg" viewBox="0 0 50 50"><defs><style>.cls-1{fill:#f3f3f3;}.cls-2{fill:#5dc1d1;}.cls-3{fill:#46919d;}.cls-4{fill:#f9962d;}.cls-5{fill:#fafafa;}</style></defs><title>dien dan icon</title><circle class="cls-1" cx="24.95" cy="25" r="25"/><rect class="cls-2" x="19.39" y="11.7" width="21.82" height="16.43" rx="1.47"/><path class="cls-2" d="M36.31,25.48S38.7,32,39.79,35L26.66,25.48Z"/><path class="cls-3" d="M39.76,35c-.63-1.79-1.71-4.75-2.5-6.9h2.45a1.42,1.42,0,0,0,1.28-.7l-8.61-9.29c-2.47.71-5.36,6-6.43,10h4.33Z"/><path class="cls-4" d="M34,22.72c0,5.21-5.57,9.43-12.43,9.43S9.09,27.93,9.09,22.72s5.56-9.44,12.43-9.44S34,17.51,34,22.72Z"/><path class="cls-4" d="M13.46,27.17S11,33.94,9.84,37.12l13.68-9.95Z"/><path class="cls-5" d="M17.93,22.72a1.26,1.26,0,1,1-2.52,0,1.26,1.26,0,0,1,2.52,0Z"/><path class="cls-5" d="M23.54,22.72a1.62,1.62,0,1,1-1.61-1.62A1.61,1.61,0,0,1,23.54,22.72Z"/><path class="cls-5" d="M28.94,22.72a1.81,1.81,0,1,1-1.81-1.82A1.81,1.81,0,0,1,28.94,22.72Z"/></svg>