<svg id="Layer_1" data-name="Layer 1" xmlns="http://www.w3.org/2000/svg" viewBox="0 0 24 24"><defs><style>.cls-1{fill:#a0a0a0;}</style></defs><title>NOTIFICATION ICON-01</title><path class="cls-1" d="M22.55,19a2.34,2.34,0,0,0-.9-1.6,5.09,5.09,0,0,1-2-3.19C19.39,12,20,4.07,13.51,3.14h0a1.4,1.4,0,0,1,.06-.63h0a1.56,1.56,0,0,0,.1-.57,1.7,1.7,0,0,0-3.4,0,1.73,1.73,0,0,0,.11.6,1.42,1.42,0,0,1,.06.62C4,4.13,4.61,12,4.36,14.23a5.09,5.09,0,0,1-2,3.19,2.34,2.34,0,0,0-.9,1.6c-.16,1.68,1.77,1.5,1.77,1.5H20.78S22.71,20.7,22.55,19Z"/><path class="cls-1" d="M12,24a2.88,2.88,0,0,0,2.85-2.43H9.15A2.88,2.88,0,0,0,12,24Z"/></svg>