<svg id="Layer_1" enable-background="new 0 0 100 100" height="512" viewBox="0 0 100 100" width="512" xmlns="http://www.w3.org/2000/svg"><g><path d="m7.9 17.1c-.4 0-.8.3-.8.7l-.1 1-1-.1c-.4 0-.8.3-.8.7s.3.8.7.8l1 .1-.1 1c0 .4.3.8.7.8s.8-.3.8-.7l.1-1 1 .1c.4 0 .8-.3.8-.7s-.3-.8-.7-.8l-1-.1.1-1c0-.4-.3-.7-.7-.8z"/><path d="m7.6 52.7c.4 0 .7-.3.8-.7v-1.1h1.1c.4 0 .7-.3.8-.7 0-.4-.3-.7-.7-.8h-1.1v-1.1c0-.4-.3-.7-.7-.8-.5.2-.8.5-.8.9v1.1h-1.1c-.4 0-.7.3-.8.7 0 .4.3.7.7.8h1.1v1.1c0 .3.3.6.7.6z"/><path d="m87.4 22.1c.4 0 .7-.3.8-.7v-1.1h1.1c.4 0 .7-.3.8-.7 0-.4-.3-.7-.7-.8h-1.1v-1.1c0-.4-.3-.7-.7-.8-.4 0-.7.3-.8.7v1.1h-1.1c-.4 0-.7.3-.8.7 0 .4.3.7.7.8h1.1v1.1c-.1.4.3.8.7.8z"/><path d="m43 82.9c.4 0 .7-.3.8-.7v-1.1h1.1c.4 0 .7-.3.8-.7 0-.4-.3-.7-.7-.8h-1.1v-1.1c0-.4-.3-.7-.7-.8-.4 0-.7.3-.8.7v1.1h-1.1c-.4 0-.7.3-.8.7 0 .4.3.7.7.8h1.1v1.1c-.1.5.3.8.7.8z"/><path d="m5 75.7h13.1c.6 0 1-.4 1-1s-.4-1-1-1h-6.9c.1-.3.1-.6.2-1h24.7c2 0 3.7-1.6 3.7-3.7s-1.6-3.7-3.7-3.7h-24.7c-.1-.3-.1-.6-.2-1h24.9c2.5 0 4.6 2 4.6 4.6v.3c-.2 2.4-2.2 4.3-4.6 4.3h-10.2c-.6 0-1 .4-1 1 0 2 1 .6 42.4 1 .6 0 1-.4 1-1s-.4-1-1-1h-3.5l1.4-3.2h21.8c2.2 0 4-1.8 4-4.1v-37.5c0-2.2-1.8-4-4-4h-64.2c-2.2 0-4 1.8-4 4v33.7h-8.8c-.3 0-.6.1-.8.4s-.3.6-.2.9c.9 3.2.9 6.5.2 10h-4.2c-.6 0-1 .4-1 1 0 .5.4 1 1 1zm20.9-13.2v-30.7h58v31.6h-44.4c-1-.6-2.2-1-3.4-1h-10.2zm14.9 11.2c.9-.9 1.5-2 1.8-3.2h1.1l1.4 3.2zm21.2-.6c-.2.4-.5.6-.9.6h-13.1c-.4 0-.8-.2-.9-.6l-1.1-2.6h17.2zm-41.2-44.4c0-1.1.9-2 2-2h64.2c1.1 0 2 .9 2 2v18.7h-.7c-.6 0-1 .5-1 1 0 .6.4 1 1 1h.7v1.9h-.7c-.6 0-1 .5-1 1 0 .6.4 1 1 1h.7v1.9h-.7c-.6 0-1 .5-1 1 0 .6.4 1 1 1h.7v1.9h-.7c-.6 0-1 .5-1 1s.4 1 1 1h.7v1.9h-.7c-.6 0-1 .4-1 1s.4 1 1 1h.7v1.4c0 1.1-.9 2.1-2 2.1-.2 0-32.6 0-44.2 0-.1-1.1-.5-2.2-1.1-3.1h43.3c.6 0 1-.4 1-1v-33.6c0-.6-.4-1-1-1h-60c-.6 0-1 .4-1 1v31.7h-3.1v-33.8zm15.4 37.7c1.5 0 2.7 1.2 2.7 2.7s-1.2 2.7-2.7 2.7h-24.6c.1-.5.1-1.1.1-1.6h16.6c.6 0 1-.5 1-1 0-.6-.5-1-1-1h-16.6c0-.5-.1-1.1-.1-1.6h24.6z"/><path d="m95 73.8h-20.6c-.6 0-1 .4-1 1s.4 1 1 1h20.6c.6 0 1-.4 1-1s-.4-1-1-1z"/><path d="m49.1 72.9c.5 0 .9-.4.9-.9s-.4-.9-.9-.9-.9.4-.9.9.4.9.9.9z"/><path d="m52.6 72.9c.5 0 .9-.4.9-.9s-.4-.9-.9-.9-.9.4-.9.9.4.9.9.9z"/><path d="m56.2 72.9c.5 0 .9-.4.9-.9s-.4-.9-.9-.9-.9.4-.9.9c-.1.5.4.9.9.9z"/><path d="m59.7 72.9c.5 0 .9-.4.9-.9s-.4-.9-.9-.9-.9.4-.9.9.4.9.9.9z"/><path d="m39.6 42v8.7c0 1.6 1.6 2.7 4.9 3.5 2.5.6 5.8.9 9.3.9 3.3 0 14.3-.3 14.3-4.3v-8.8l.8-.3-.1 9.7v.1c-.6.4-1 1.1-1 1.8 0 .6.3 1.3.8 1.7 0 0 .1 0 .1.1l-.7 3.5c-.3 1.3.7 2.4 2 2.4s2.2-1.2 2-2.4l-.7-3.4s.1 0 .1-.1c.4-.3.6-.7.8-1.2 0-.2.1-.3.1-.5 0-.9-.5-1.6-1.3-2v-11.4c0-.2-.1-.5-.2-.7-.2-.3-.4-.5-.8-.7l-15.4-5.4c-.5-.2-1-.2-1.5 0l-15.6 5.5c-.5.3-.9.8-.9 1.3s.4 1.1.9 1.2zm26.6 8.7c0 .8-4.2 2.3-12.3 2.3s-12.3-1.5-12.3-2.3v-8l11.5 4c.5.2 1 .2 1.5 0l11.5-4v8zm-12.4-15.5h.2l10.7 3.8h-7.8c-.1-.3-.3-.5-.6-.7-.6-.6-1.5-.9-2.5-.9-1.9 0-3.3 1.2-3.3 2.7s1.5 2.6 3.3 2.6c1 0 1.8-.3 2.5-.8.3-.2.4-.5.6-.7h7.8l-10.7 3.7c-.1 0-.1 0-.2 0-4.3-1.5-7.5-2.6-13.8-4.8zm1.4 4.8c0 .1-.1.2-.2.3-.2.2-.7.4-1.1.4-.8 0-1.3-.4-1.3-.6 0-.3.5-.7 1.3-.7.5 0 .9.1 1.1.4.1 0 .2.1.2.2z"/></g></svg>