<svg xmlns="http://www.w3.org/2000/svg" width="25" height="25" xmlns:xlink="http://www.w3.org/1999/xlink" version="1.1" id="Capa_1" x="0px" y="0px" viewBox="0 0 512.002 512.002" style="enable-background:new 0 0 512.002 512.002" xml:space="preserve"><g><g><path d="M486.536,77.488H314.993c-0.404-5.593-3.568-10.697-8.464-13.524l-42.018-24.259c-5.25-3.031-11.773-3.032-17.021,0    l-42.018,24.259c-4.897,2.827-8.06,7.932-8.464,13.524H125.49c-4.143,0-7.5,3.357-7.5,7.5c0,4.143,3.357,7.5,7.5,7.5h71.472    v20.951H25.464c-5.77,0-10.464-4.699-10.464-10.476c0-2.801,1.089-5.432,3.058-7.399c1.989-1.983,4.62-3.076,7.406-3.076h69.714    c4.143,0,7.5-3.357,7.5-7.5c0-4.143-3.357-7.5-7.5-7.5H25.464c-6.783,0-13.175,2.646-18.005,7.46C2.649,89.76,0,96.158,0,102.965    c0,14.047,11.423,25.476,25.464,25.476h171.544c0.404,5.594,3.568,10.699,8.464,13.524l42.018,24.259    c2.625,1.516,5.567,2.273,8.511,2.273c2.942,0,5.887-0.758,8.511-2.273l42.017-24.258c4.897-2.826,8.061-7.931,8.465-13.525    h27.518c4.143,0,7.5-3.357,7.5-7.5s-3.357-7.5-7.5-7.5H315.04V92.489h171.497c5.77,0,10.464,4.699,10.464,10.476    c0,2.801-1.089,5.432-3.057,7.4c-1.99,1.983-4.621,3.075-7.407,3.075H372.822c-4.143,0-7.5,3.357-7.5,7.5s3.357,7.5,7.5,7.5    h113.714c6.783,0,13.174-2.646,18.005-7.46c4.811-4.812,7.459-11.209,7.459-18.016C512,88.917,500.577,77.488,486.536,77.488z     M300.04,127.224c0,0.72-0.387,1.391-1.011,1.751l-42.018,24.259c-0.623,0.359-1.398,0.359-2.021,0l-42.019-24.26    c-0.623-0.359-1.01-1.03-1.01-1.75V78.706h0c0-0.72,0.388-1.391,1.011-1.751l42.018-24.259c0.623-0.359,1.398-0.359,2.021,0    l42.018,24.259c0.623,0.36,1.011,1.031,1.011,1.751V127.224z"/></g></g><g><g><path d="M286.011,81.309L259.75,66.147c-2.32-1.34-5.18-1.34-7.5,0l-26.261,15.162c-2.32,1.34-3.75,3.815-3.75,6.495v30.322    c0,2.68,1.43,5.155,3.75,6.495l26.261,15.162c1.16,0.67,2.455,1.005,3.75,1.005s2.59-0.335,3.75-1.005l26.261-15.162    c2.32-1.34,3.75-3.815,3.75-6.495V87.804C289.761,85.124,288.331,82.649,286.011,81.309z M274.761,113.796L256,124.628    l-18.761-10.832V92.134L256,81.302l18.761,10.832V113.796z"/></g></g><g><g><path d="M486.536,230.527H211.913c-0.404-5.594-3.568-10.699-8.464-13.524l-42.018-24.259c-5.249-3.031-11.772-3.032-17.021,0    l-42.017,24.258c-4.897,2.826-8.061,7.931-8.465,13.525H25.464c-6.783,0-13.174,2.646-18.005,7.46    C2.648,242.798,0,249.196,0,256.002c0,14.047,11.423,25.476,25.464,25.476h68.464c0.404,5.594,3.568,10.699,8.464,13.524    l42.018,24.259c2.625,1.516,5.567,2.273,8.511,2.273c2.942,0,5.887-0.758,8.511-2.273l42.017-24.258    c4.897-2.826,8.061-7.931,8.465-13.525h162.597c4.143,0,7.5-3.357,7.5-7.5s-3.357-7.5-7.5-7.5H211.96v-20.951h274.576    c5.77,0,10.464,4.699,10.464,10.476c0,2.801-1.089,5.432-3.058,7.399c-1.989,1.983-4.62,3.076-7.406,3.076h-81.714    c-4.143,0-7.5,3.357-7.5,7.5s3.357,7.5,7.5,7.5h81.714c6.783,0,13.175-2.646,18.005-7.46c4.81-4.811,7.459-11.209,7.459-18.016    C512,241.955,500.577,230.527,486.536,230.527z M93.882,266.478H25.464c-5.77,0-10.464-4.699-10.464-10.476    c0-2.801,1.089-5.433,3.057-7.4c1.99-1.983,4.621-3.075,7.407-3.075h68.418V266.478z M196.961,280.261L196.961,280.261    c-0.001,0.72-0.388,1.391-1.012,1.751l-42.018,24.259c-0.623,0.359-1.398,0.359-2.021,0l-42.019-24.26    c-0.623-0.359-1.01-1.03-1.01-1.75v-48.518c0-0.72,0.387-1.391,1.01-1.75l0.001-0.001l42.018-24.259    c0.312-0.18,0.661-0.27,1.011-0.27c0.35,0,0.699,0.09,1.011,0.27l42.019,24.26c0.623,0.359,1.01,1.03,1.01,1.75V280.261z"/></g></g><g><g><path d="M182.932,234.346l-26.261-15.162c-2.32-1.34-5.18-1.34-7.5,0l-26.261,15.162c-2.32,1.34-3.75,3.815-3.75,6.495v30.322    c0,2.68,1.43,5.155,3.75,6.495l26.261,15.162c1.16,0.67,2.455,1.005,3.75,1.005s2.59-0.335,3.75-1.005l26.261-15.162    c2.32-1.34,3.75-3.815,3.75-6.495v-30.322C186.682,238.161,185.252,235.686,182.932,234.346z M171.682,266.833l-18.761,10.832    l-18.761-10.832v-21.662l18.761-10.832l18.761,10.832V266.833z"/></g></g><g><g><path d="M486.536,383.564H426.66c-0.404-5.594-3.568-10.699-8.464-13.524l-42.018-24.259c-5.248-3.029-11.771-3.033-17.022,0    l-42.018,24.259c-4.896,2.826-8.06,7.931-8.464,13.524H25.464c-6.781,0-13.172,2.646-18.005,7.46    C2.648,395.835,0,402.233,0,409.039c0,14.047,11.423,25.476,25.464,25.476h283.21c0.404,5.592,3.568,10.696,8.464,13.524    l42.018,24.259c2.625,1.516,5.567,2.273,8.512,2.273c2.942,0,5.886-0.758,8.511-2.273l42.018-24.259    c4.897-2.827,8.06-7.932,8.464-13.524h59.877c6.782,0,13.173-2.646,18.005-7.46c4.81-4.811,7.459-11.209,7.459-18.016    C512,394.992,500.577,383.564,486.536,383.564z M308.627,419.515H25.464c-5.77,0-10.464-4.699-10.464-10.476    c0-2.801,1.089-5.433,3.056-7.399c1.991-1.983,4.622-3.076,7.408-3.076h283.163V419.515z M411.707,433.298h-0.001    c0,0.72-0.388,1.391-1.011,1.751l-42.018,24.259c-0.625,0.359-1.399,0.359-2.022,0l-42.017-24.258    c-0.624-0.361-1.012-1.032-1.012-1.752V384.78c0-0.72,0.387-1.391,1.011-1.751l42.018-24.259c0.313-0.18,0.661-0.271,1.011-0.271    s0.7,0.091,1.012,0.271l42.019,24.26c0.623,0.359,1.01,1.03,1.01,1.75V433.298z M493.943,416.439    c-1.991,1.983-4.621,3.076-7.407,3.076h-59.83v-20.951h59.83c5.77,0,10.464,4.699,10.464,10.476    C497,411.84,495.911,414.471,493.943,416.439z"/></g></g><g><g><path d="M397.678,387.383l-26.261-15.162c-2.32-1.34-5.18-1.34-7.5,0l-26.261,15.162c-2.32,1.34-3.75,3.815-3.75,6.495V424.2    c0,2.68,1.43,5.155,3.75,6.495l26.261,15.162c1.16,0.67,2.455,1.005,3.75,1.005c1.295,0,2.59-0.335,3.75-1.005l26.261-15.162    c2.32-1.34,3.75-3.815,3.75-6.495v-30.322C401.428,391.198,399.998,388.723,397.678,387.383z M367.667,430.702l-18.761-10.832    v-21.662l18.761-10.832l18.761,10.832v21.662h0L367.667,430.702z"/></g></g><g></g><g></g><g></g><g></g><g></g><g></g><g></g><g></g><g></g><g></g><g></g><g></g><g></g><g></g><g></g></svg>