<svg xmlns:xlink="http://www.w3.org/1999/xlink" class="sub_menu_child_item mr-2" xmlns="http://www.w3.org/2000/svg" id="Capa_1" enable-background="new 0 0 512 512" height="512" viewBox="0 0 512 512" width="512"><path d="m497 76h-46v-15c0-8.284-6.716-15-15-15h-120c-22.011 0-41.836 9.533-55.568 24.685-15.586-19.959-52.969-54.685-124.432-54.685-8.284 0-15 6.716-15 15v15h-45c-8.284 0-15 6.716-15 15v15h-46c-8.284 0-15 6.716-15 15v360c0 8.284 6.716 15 15 15h168.57c6.191 17.461 22.874 30 42.43 30h60c19.556 0 36.239-12.539 42.43-30h168.57c8.284 0 15-6.716 15-15v-360c0-8.284-6.716-15-15-15zm-181 0h105v300h-135c-5.259 0-10.305.916-15 2.581 0-3.119 0-253.321 0-257.581 0-24.813 20.187-45 45-45zm-75 19.079v255.661c-18.661-15.513-47.601-31.174-90-34.212v-269.882c26.697 2.262 49.598 10.673 68.202 25.139 11.989 9.322 18.898 18.782 21.798 23.294zm-150-19.079h30v255c0 8.284 6.716 15 15 15 33.205 0 61.198 8.675 83.202 25.785 1.811 1.408 3.5 2.818 5.083 4.215h-133.285zm391 360h-166c-8.284 0-15 6.716-15 15 0 8.271-6.729 15-15 15h-60c-8.271 0-15-6.729-15-15 0-8.284-6.716-15-15-15h-166v-330h31v285c0 8.284 6.716 15 15 15h150c8.271 0 15 6.729 15 15 0 8.284 6.716 15 15 15s15-6.716 15-15c0-8.271 6.729-15 15-15h150c8.284 0 15-6.716 15-15v-285h31z" fill="#0C2188"></path></svg>