<svg xmlns:xlink="http://www.w3.org/1999/xlink" class="menu_icon_child mr-2" xmlns="http://www.w3.org/2000/svg" viewBox="0 0 64 64" width="512" height="512"><g id="Layer_25" data-name="Layer 25" fill="#0C2188"><circle cx="13" cy="12" r="1" fill="#0C2188"></circle><circle cx="16" cy="12" r="1" fill="#0C2188"></circle><circle cx="19" cy="12" r="1" fill="#0C2188"></circle><path d="M23,17H13a1,1,0,0,0-1,1v8a1,1,0,0,0,1,1H23a1,1,0,0,0,1-1V18A1,1,0,0,0,23,17Zm-1,8H14V19h8Z" fill="#0C2188"></path><path d="M37,17H27a1,1,0,0,0-1,1v8a1,1,0,0,0,1,1H37a1,1,0,0,0,1-1V18A1,1,0,0,0,37,17Zm-1,8H28V19h8Z" fill="#0C2188"></path><path d="M40,18v8a1,1,0,0,0,1,1H51a1,1,0,0,0,1-1V18a1,1,0,0,0-1-1H41A1,1,0,0,0,40,18Zm2,1h8v6H42Z" fill="#0C2188"></path><path d="M23,28H15a1,1,0,0,0,0,2h8a1,1,0,0,0,0-2Z" fill="#0C2188"></path><path d="M23,31H13a1,1,0,0,0,0,2H23a1,1,0,0,0,0-2Z" fill="#0C2188"></path><path d="M37,28H29a1,1,0,0,0,0,2h8a1,1,0,0,0,0-2Z" fill="#0C2188"></path><path d="M37,31H27a1,1,0,0,0,0,2H37a1,1,0,0,0,0-2Z" fill="#0C2188"></path><path d="M51,28H43a1,1,0,0,0,0,2h8a1,1,0,0,0,0-2Z" fill="#0C2188"></path><path d="M51,31H41a1,1,0,0,0,0,2H51a1,1,0,0,0,0-2Z" fill="#0C2188"></path><path d="M34.414,37l.293-.293A1,1,0,0,0,34,35H30a1,1,0,0,0-1,1v4a1,1,0,0,0,1.707.707L31,40.414l2.293,2.293a1,1,0,0,0,1.414,0l2-2a1,1,0,0,0,0-1.414ZM34,40.586l-2.293-2.293A1,1,0,0,0,31,38V37h1a1,1,0,0,0,.293.707L34.586,40Z" fill="#0C2188"></path><path d="M63,48H60V17a4.994,4.994,0,0,0-1.25-3.307,1,1,0,1,0-1.5,1.323A3,3,0,0,1,58,17V48H6V17a3,3,0,0,1,.75-1.984,1,1,0,1,0-1.5-1.323A4.994,4.994,0,0,0,4,17V48H1a1,1,0,0,0-1,1v2a5.006,5.006,0,0,0,5,5H59a5.006,5.006,0,0,0,5-5V49A1,1,0,0,0,63,48ZM38,50a1,1,0,0,1-1,1H27a1,1,0,0,1-1-1Zm24,1a3,3,0,0,1-3,3H5a3,3,0,0,1-3-3V50H24a3,3,0,0,0,3,3H37a3,3,0,0,0,3-3H62Z" fill="#0C2188"></path><path d="M11,46H53a3,3,0,0,0,3-3V11a3,3,0,0,0-3-3H11a3,3,0,0,0-3,3V43A3,3,0,0,0,11,46Zm0-36H53a1,1,0,0,1,1,1v3H48a1,1,0,0,0,0,2h6V43a1,1,0,0,1-1,1H11a1,1,0,0,1-1-1V16H44a1,1,0,0,0,0-2H10V11A1,1,0,0,1,11,10Z" fill="#0C2188"></path></g></svg>