<svg xmlns:xlink="http://www.w3.org/1999/xlink" class="menu_icon_child mr-2" xmlns="http://www.w3.org/2000/svg" id="Layer_3" height="512" viewBox="0 0 64 64" width="512" data-name="Layer 3"><path d="m57 5h-50a6.006 6.006 0 0 0 -6 6v42a6.006 6.006 0 0 0 6 6h50a6.006 6.006 0 0 0 6-6v-42a6.006 6.006 0 0 0 -6-6zm-50 2h50a4 4 0 0 1 4 4v2h-58v-2a4 4 0 0 1 4-4zm50 50h-50a4 4 0 0 1 -4-4v-38h58v38a4 4 0 0 1 -4 4z" fill="#0C2188"></path><path d="m7 9h2v2h-2z" fill="#0C2188"></path><path d="m11 9h2v2h-2z" fill="#0C2188"></path><path d="m15 9h2v2h-2z" fill="#0C2188"></path><path d="m45 9h12v2h-12z" fill="#0C2188"></path><path d="m36 17h-28a3 3 0 0 0 -3 3v24a3 3 0 0 0 3 3h28a3 3 0 0 0 3-3v-24a3 3 0 0 0 -3-3zm-9 10h-2a1 1 0 0 1 -1-1 1 1 0 0 0 -1.555-.832 10.865 10.865 0 0 1 -5.445 1.81v-.978a3 3 0 0 1 3-3h4a3 3 0 0 1 3 3zm-10 1.963a12.827 12.827 0 0 0 5.41-1.45 3 3 0 0 0 2.59 1.487h2v3a3 3 0 0 1 -3 3h-4a3 3 0 0 1 -3-3zm7 8.037v2h-4v-2zm5 4a3 3 0 0 1 3 3v1h-20v-1a3 3 0 0 1 3-3zm8 3a1 1 0 0 1 -1 1h-2v-1a5.006 5.006 0 0 0 -5-5h-3v-2.424a5 5 0 0 0 3-4.576v-6a5.006 5.006 0 0 0 -5-5h-4a5.006 5.006 0 0 0 -5 5v6a5 5 0 0 0 3 4.576v2.424h-3a5.006 5.006 0 0 0 -5 5v1h-2a1 1 0 0 1 -1-1v-24a1 1 0 0 1 1-1h28a1 1 0 0 1 1 1z" fill="#0C2188"></path><path d="m36 49h-28a1 1 0 0 0 -1 1v4a1 1 0 0 0 1 1h28a1 1 0 0 0 1-1v-4a1 1 0 0 0 -1-1zm-1 4h-26v-2h26z" fill="#0C2188"></path><path d="m58 17h-16a1 1 0 0 0 -1 1v14a1 1 0 0 0 1 1h16a1 1 0 0 0 1-1v-14a1 1 0 0 0 -1-1zm-8 12a3 3 0 0 1 2.816 2h-5.632a3 3 0 0 1 2.816-2zm-2-4a2 2 0 1 1 2 2 2 2 0 0 1 -2-2zm9 6h-2.1a5.016 5.016 0 0 0 -2.106-3.145 4 4 0 1 0 -5.586 0 5.016 5.016 0 0 0 -2.108 3.145h-2.1v-12h14z" fill="#0C2188"></path><path d="m58 35h-16a1 1 0 0 0 -1 1v14a1 1 0 0 0 1 1h16a1 1 0 0 0 1-1v-14a1 1 0 0 0 -1-1zm-8 12a3 3 0 0 1 2.816 2h-5.632a3 3 0 0 1 2.816-2zm-2-4a2 2 0 1 1 2 2 2 2 0 0 1 -2-2zm9 6h-2.1a5.016 5.016 0 0 0 -2.106-3.145 4 4 0 1 0 -5.586 0 5.016 5.016 0 0 0 -2.108 3.145h-2.1v-12h14z" fill="#0C2188"></path><circle cx="33" cy="23" r="2" fill="#0C2188"></circle></svg>