<svg xmlns:xlink="http://www.w3.org/1999/xlink" class="menu_icon_child mr-2" xmlns="http://www.w3.org/2000/svg" id="Capa_1" enable-background="new 0 0 512 512" height="512" viewBox="0 0 512 512" width="512"><g fill="#0C2188"><path d="m115.019 310.92h163.021c4.142 0 7.5-3.358 7.5-7.5s-3.358-7.5-7.5-7.5h-163.021c-4.142 0-7.5 3.358-7.5 7.5s3.357 7.5 7.5 7.5z" fill="#0C2188"></path><path d="m115.019 257.324h163.021c4.142 0 7.5-3.358 7.5-7.5s-3.358-7.5-7.5-7.5h-163.021c-4.142 0-7.5 3.358-7.5 7.5s3.357 7.5 7.5 7.5z" fill="#0C2188"></path><path d="m115.019 203.727h98.589c4.142 0 7.5-3.358 7.5-7.5s-3.358-7.5-7.5-7.5h-98.589c-4.142 0-7.5 3.358-7.5 7.5s3.357 7.5 7.5 7.5z" fill="#0C2188"></path><path d="m463.401 148.814 24.427-51.432c.018-.036.042-.067.059-.104.026-.054.043-.109.068-.163l14.789-31.14c7.17-15.108-.271-33.729-16.605-41.516l-20.109-9.553c-8.208-3.914-17.661-4.472-25.936-1.532-7.506 2.667-13.445 7.94-16.722 14.845l-34.155 71.915c-19.077-6.653-39.029-10.032-59.417-10.032h-147.6c-48.48 0-94.184 19.022-128.691 53.562-34.506 34.538-53.509 80.281-53.509 128.802v7.575c0 52.253 22.507 101.859 61.852 136.63l-3.901 71.864c-.29 5.589 2.088 8.553 4.134 10.056 1.332.979 3.304 1.899 6.006 1.899 1.533 0 3.3-.296 5.319-1.046.28-.104.554-.225.819-.361l70.239-36.136c.374-.192.78-.401 1.069-.543.268-.003.623-.002.951 0l77.892.001c4.142 0 7.5-3.358 7.5-7.5s-3.358-7.5-7.5-7.5h-77.074l-.77-.001c-4.04-.04-5.176.275-8.925 2.203l-64.32 33.091 3.669-67.591c.667-3.956-1.425-6.437-2.773-7.592-37.615-32.026-59.187-78.487-59.187-127.474v-7.575c0-92.284 75.005-167.363 167.2-167.363h147.6c18.151 0 35.923 2.913 52.944 8.661l-25.307 53.285c-1.777 3.742-.184 8.215 3.557 9.993 3.743 1.777 8.216.184 9.993-3.558l47.853-100.758 52.276 24.878-90.87 191.336-52.276-24.878 28.362-59.708c1.777-3.742.185-8.215-3.556-9.993-3.743-1.777-8.216-.184-9.993 3.556l-31.578 66.479c-.408.858-.648 1.786-.71 2.734l-5.329 82.387h-190.147c-4.142 0-7.5 3.358-7.5 7.5s3.358 7.5 7.5 7.5h192.193c.982 1.233 2.221 2.24 3.688 2.939 1.439.686 2.97 1.023 4.514 1.023 2.544 0 5.125-.916 7.395-2.697.163-.128.321-.263.473-.404l65.622-60.945c.696-.646 1.263-1.42 1.671-2.278l65.843-138.637c26.241 30.45 40.582 68.731 40.582 108.948v7.575c0 92.284-75.005 167.363-167.2 167.363h-72.142c-4.142 0-7.5 3.358-7.5 7.5s3.358 7.5 7.5 7.5h72.142c48.47 0 94.169-19.021 128.68-53.561 34.513-34.542 53.52-80.284 53.52-128.802v-7.575c0-46.035-17.223-89.735-48.599-123.652zm-38.125-89.638 11.647-24.524c1.558-3.283 4.468-5.82 8.193-7.144 4.548-1.616 9.818-1.274 14.46.938l20.125 9.561c8.864 4.226 13.122 13.887 9.492 21.535l-11.641 24.512zm-104.958 288.484 1.54-23.803 15.927 7.581zm29.293-27.205-26.711-12.714 1.85-28.6 45.85 21.82z" fill="#0C2188"></path></g></svg>