<svg xmlns:xlink="http://www.w3.org/1999/xlink" class="menu_icon_child mr-2" xmlns="http://www.w3.org/2000/svg" height="512" viewBox="0 0 512 512" width="512"><path d="m437.019531 74.980469c-48.351562-48.351563-112.640625-74.980469-181.019531-74.980469s-132.667969 26.628906-181.019531 74.980469c-48.351563 48.351562-74.980469 112.640625-74.980469 181.019531s26.628906 132.667969 74.980469 181.019531c48.351562 48.351563 112.640625 74.980469 181.019531 74.980469s132.667969-26.628906 181.019531-74.980469c48.351563-48.351562 74.980469-112.640625 74.980469-181.019531s-26.628906-132.667969-74.980469-181.019531zm-181.019531 407.058593c-124.636719 0-226.039062-101.402343-226.039062-226.039062s101.402343-226.039062 226.039062-226.039062 226.039062 101.402343 226.039062 226.039062-101.402343 226.039062-226.039062 226.039062zm0 0" fill="#0C2188"></path><path d="m259.382812 120.078125c-22.820312-.871094-44.433593 7.359375-60.851562 23.167969-16.425781 15.8125-25.472656 37.078125-25.472656 59.875h29.960937c0-14.578125 5.785157-28.175782 16.292969-38.289063 10.496094-10.105469 24.316406-15.375 38.933594-14.8125 27.5625 1.046875 49.96875 23.453125 51.015625 51.015625.691406 18.234375-7.832031 35.335938-22.804688 45.75-28.351562 19.71875-45.277343 52.648438-45.277343 88.085938h29.960937c0-25.632813 12.121094-49.367188 32.425781-63.488282 23.394532-16.273437 36.71875-42.996093 35.636719-71.484374-1.636719-43.121094-36.699219-78.183594-79.820313-79.820313zm0 0" fill="#0C2188"></path><path d="m241.019531 357.890625h29.960938v29.960937h-29.960938zm0 0" fill="#0C2188"></path></svg>