<svg xmlns:xlink="http://www.w3.org/1999/xlink" class="menu_icon_child mr-2" xmlns="http://www.w3.org/2000/svg" id="Layer_1" enable-background="new 0 0 128 128" height="512" viewBox="0 0 128 128" width="512"><g fill="#0C2188"><path d="m15.4 15.2h74.7c1 0 1.7-.8 1.7-1.7s-.8-1.7-1.7-1.7h-74.7c-1 0-1.7.8-1.7 1.7s.7 1.7 1.7 1.7z" fill="#0C2188"></path><path d="m15.4 26.6h74.7c1 0 1.7-.8 1.7-1.7 0-1-.8-1.7-1.7-1.7h-74.7c-1 0-1.7.8-1.7 1.7-.1.9.7 1.7 1.7 1.7z" fill="#0C2188"></path><path d="m15.4 38h64.7c1 0 1.7-.8 1.7-1.7 0-1-.8-1.7-1.7-1.7h-64.7c-1 0-1.7.8-1.7 1.7-.1.9.7 1.7 1.7 1.7z" fill="#0C2188"></path><path d="m57.2 83.1h22.9c1 0 1.7-.8 1.7-1.7s-.8-1.7-1.7-1.7h-22.9c-1 0-1.7.8-1.7 1.7s.7 1.7 1.7 1.7z" fill="#0C2188"></path><path d="m90.1 90.8h-32.9c-1 0-1.7.8-1.7 1.7 0 1 .8 1.7 1.7 1.7h32.8c1 0 1.7-.8 1.7-1.7.1-1-.7-1.7-1.6-1.7z" fill="#0C2188"></path><path d="m90.1 101.9h-32.9c-1 0-1.7.8-1.7 1.7s.8 1.7 1.7 1.7h32.8c1 0 1.7-.8 1.7-1.7s-.7-1.7-1.6-1.7z" fill="#0C2188"></path><path d="m90.1 113.1h-32.9c-1 0-1.7.8-1.7 1.7s.8 1.7 1.7 1.7h32.8c1 0 1.7-.8 1.7-1.7s-.7-1.7-1.6-1.7z" fill="#0C2188"></path><path d="m48.2 46h-32.8c-1 0-1.7.8-1.7 1.7 0 1 .8 1.7 1.7 1.7h32.8c1 0 1.7-.8 1.7-1.7 0-1-.8-1.7-1.7-1.7z" fill="#0C2188"></path><path d="m48.2 57.2h-32.8c-1 0-1.7.8-1.7 1.7 0 1 .8 1.7 1.7 1.7h32.8c1 0 1.7-.8 1.7-1.7 0-1-.8-1.7-1.7-1.7z" fill="#0C2188"></path><path d="m48.2 68.4h-32.8c-1 0-1.7.8-1.7 1.7 0 1 .8 1.7 1.7 1.7h32.8c1 0 1.7-.8 1.7-1.7 0-1-.8-1.7-1.7-1.7z" fill="#0C2188"></path><path d="m48.2 79.6h-32.8c-1 0-1.7.8-1.7 1.7s.8 1.7 1.7 1.7h32.8c1 0 1.7-.8 1.7-1.7s-.8-1.7-1.7-1.7z" fill="#0C2188"></path><path d="m48.2 90.8h-32.8c-1 0-1.7.8-1.7 1.7 0 1 .8 1.7 1.7 1.7h32.8c1 0 1.7-.8 1.7-1.7 0-1-.8-1.7-1.7-1.7z" fill="#0C2188"></path><path d="m48.2 101.9h-32.8c-1 0-1.7.8-1.7 1.7s.8 1.7 1.7 1.7h32.8c1 0 1.7-.8 1.7-1.7s-.8-1.7-1.7-1.7z" fill="#0C2188"></path><path d="m48.2 113.1h-32.8c-1 0-1.7.8-1.7 1.7s.8 1.7 1.7 1.7h32.8c1 0 1.7-.8 1.7-1.7s-.8-1.7-1.7-1.7z" fill="#0C2188"></path><path d="m124.4 58.9c0-12.8-9.9-23.4-22.7-24.3v-32.7c0-1-.8-1.7-1.7-1.8h-34.8c-.5 0-1 .2-1.3.6l-4.2 4.5-3.4-4.4c-.3-.4-.8-.7-1.4-.7h-17.1c-.5 0-.9.2-1.3.6l-3 3.3-2.4-3.2c-.3-.4-.8-.7-1.4-.7h-24.3c-1 0-1.7.8-1.7 1.7v30.3c0 .6.3 1.2.9 1.5l2.7 1.4-2.8 1.9c-.5.3-.8.9-.8 1.5v4.2c0 .6.3 1.2.9 1.5l2.7 1.5-2.8 1.9c-.5.3-.8.9-.8 1.5v77c0 1 .8 1.7 1.7 1.8h11.3c.6 0 1.1-.3 1.5-.8l2.1-3.1 3.6 3.4c.3.3.7.5 1.2.5h75.1c1 0 1.7-.8 1.7-1.7v-25.9c0-.5-.2-.9-.5-1.2l-4.4-4.3 4.3-3.7c.4-.3.6-.8.6-1.3v-6.4c12.6-1 22.5-11.6 22.5-24.4zm-31.2 34.4c-.7.6-.8 1.7-.2 2.5l.1.1 5.2 5.2v23.4h-72.6l-4.6-4.3c-.8-.7-2-.6-2.6.3l-2.7 4h-8.7v-74.5l4.4-2.9c1.1-.7 1-2.3-.1-3l-4.3-2.4v-2.3l4.4-2.9c1.1-.7 1-2.3-.1-3l-4.3-2.4v-27.4h21.7l3.3 4.1c.6.8 1.7.9 2.5.3 0-.1 0-.1.1-.2l3.9-4.2h15.5l4.2 5.3c.6.8 1.7.9 2.5.3 0-.1 0-.2.1-.2l5-5.4h32.3v30.9c-7.8.6-14.8 4.8-18.9 11.4h-22.1c-1 0-1.7.8-1.7 1.7 0 1 .8 1.7 1.7 1.7h20.4c-1 2.5-1.7 5.1-1.8 7.7h-18.6c-1 0-1.7.8-1.7 1.7 0 1 .8 1.7 1.7 1.7h18.6c.2 2.7.8 5.3 1.8 7.7h-20.4c-1 0-1.7.8-1.7 1.7 0 1 .8 1.7 1.7 1.7h22.2c4.1 6.6 11.2 10.8 18.9 11.4v5.6zm6.8-13.5c-11.6 0-20.9-9.4-20.9-20.9.1-11.6 9.5-20.9 20.9-20.9 11.6 0 20.9 9.4 20.9 20.9 0 11.6-9.4 20.9-20.9 20.9z" fill="#0C2188"></path><path d="m100 44.5c-7.1 0-13.1 5.1-14.2 12.1l-.8-.5c-.8-.5-1.9-.3-2.4.5s-.3 2 .6 2.5c.1.1 3.6 2.2 3.4 2 .6.3 1.2.3 1.7 0 .1-.1 3.6-2.2 3.4-2 .8-.5 1.1-1.5.7-2.4-.5-.9-1.6-1.2-2.5-.6l-.4.2c1.4-5.9 7.4-9.4 13.2-8 5.9 1.4 9.4 7.4 8 13.2-1.2 4.9-5.6 8.3-10.6 8.3-1 0-1.7.8-1.7 1.7s.8 1.7 1.7 1.7c8 0 14.4-6.5 14.4-14.4s-6.6-14.3-14.5-14.3z" fill="#0C2188"></path><path d="m100 51.8c-1 0-1.7.8-1.7 1.7v5.4c0 .5.2.9.5 1.2l3.5 3.5c.7.7 1.8.7 2.5 0s.7-1.8 0-2.5l-2.9-2.9v-4.7c-.2-1-1-1.7-1.9-1.7z" fill="#0C2188"></path></g></svg>