<svg xmlns:xlink="http://www.w3.org/1999/xlink" class="menu_icon_child mr-2" xmlns="http://www.w3.org/2000/svg" height="512" viewBox="0 0 68 68" width="512">
                                        <g id="Page-1" fill-rule="evenodd" fill="#0C2188"><g id="shelter_export" fill-rule="nonzero" transform="translate(-296 -536)" fill="#0C2188"><path id="book,-open,-pages,-paper,-roof,-home" d="m332.334747 559.642743c2.301682-1.288942 5.098712-2.21249 8.417184-2.627299 4.211492-.526436 8.212048-.088875 11.816815.962515 1.539236.448944 2.672627.90666 3.325681 1.233187.677568.338784 1.105573 1.03131 1.105573 1.788854v26c0 1.486764-1.564625 2.453755-2.894427 1.788854-.091382-.045691-1.896263-.749064-2.656827-.970895-3.112433-.907793-6.575434-1.286559-10.200677-.833403-2.803977.350497-5.106072 1.110623-6.958909 2.148211-.883852.494957-2.879638 2.308536-3.033617 2.429739-.372533.307098-.816797.445606-1.255543.441274-.438746.004332-.88301-.134176-1.255543-.441274-.153979-.121203-2.149765-1.934782-3.033617-2.429739-1.852837-1.037588-4.154932-1.797714-6.958909-2.148211-3.625243-.453156-7.088244-.07439-10.200677.833403-.760564.221831-2.565445.925204-2.656827.970895-1.329802.664901-2.894427-.30209-2.894427-1.788854v-26c0-.757544.428005-1.45007 1.105573-1.788854.653054-.326527 1.786445-.784243 3.325681-1.233187 3.604767-1.05139 7.605323-1.488951 11.816815-.962515 3.318472.414809 6.115502 1.338357 8.417184 2.627299.891313.499135 1.667862 1.030748 2.334747 1.574762.666885-.544014 1.443434-1.075627 2.334747-1.574762zm-25.334747 24.464397c.139981-.043059.283754-.08616.431254-.129181 3.604767-1.05139 7.605323-1.488951 11.816815-.962515 3.318472.414809 6.115502 1.338357 8.417184 2.627299.113438.063525.225017.127576.334747.192112v-21.053058c-.041213-.03931-.084499-.079718-.12988-.121153-.559724-.511052-1.275428-1.03292-2.15928-1.527877-1.852837-1.037588-4.154932-1.797714-6.958909-2.148211-3.625243-.453156-7.088244-.07439-10.200677.833403-.565754.165012-1.084267.338038-1.551254.51216zm46 0v-21.777021c-.466987-.174122-.9855-.347148-1.551254-.51216-3.112433-.907793-6.575434-1.286559-10.200677-.833403-2.803977.350497-5.106072 1.110623-6.958909 2.148211-.883852.494957-1.599556 1.016825-2.15928 1.527877-.045381.041435-.088667.081843-.12988.121153v21.053058c.10973-.064536.221309-.128587.334747-.192112 2.301682-1.288942 5.098712-2.21249 8.417184-2.627299 4.211492-.526436 8.212048-.088875 11.816815.962515.1475.043021.291273.086122.431254.129181zm-54.198362-30.274825c-1.01196.442732-2.19122-.018718-2.633953-1.030677-.442732-1.01196.018718-2.19122 1.030677-2.633953l32-14c.511041-.22358 1.092235-.22358 1.603276 0l32 14c1.011959.442733 1.473409 1.621993 1.030677 2.633953-.442733 1.011959-1.621993 1.473409-2.633953 1.030677l-31.198362-13.649284zm29.661919 49.448054c-1.771522-1.65114-3.011189-2.715054-3.719-3.191743-2.424985-1.633154-5.106712-2.743331-7.992626-3.10407-3.592203-.449026-6.531954-.081557-8.845602.786062-.916393.343647-1.485549.663797-1.706329.829382-.883656.662742-2.137258.483656-2.8-.4s-.483656-2.137258.4-2.8c.513914-.385435 1.414146-.891816 2.701835-1.374699 2.910841-1.091565 6.501703-1.540423 10.746234-1.009857 3.560367.445046 6.817784 1.793546 9.73089 3.755434 1.126652.758766 2.135309 1.565851 3.021041 2.380525.885732-.814674 1.894389-1.621759 3.021041-2.380525 2.913106-1.961888 6.170523-3.310388 9.73089-3.755434 4.244531-.530566 7.835393-.081708 10.746234 1.009857 1.287689.482883 2.187921.989264 2.701835 1.374699.883656.662742 1.062742 1.916344.4 2.8s-1.916344 1.062742-2.8.4c-.22078-.165585-.789936-.485735-1.706329-.829382-2.313648-.867619-5.253399-1.235088-8.845602-.786062-2.885914.360739-5.567641 1.470916-7.992626 3.10407-1.061717.715034-3.705524 3.176075-3.71748 3.190023-.801829.961228-2.27501.960994-3.074406.00172z" fill="#0C2188"></path></g></g>
                                    </svg>