<svg xmlns:xlink="http://www.w3.org/1999/xlink" class="menu_icon_child mr-2" xmlns="http://www.w3.org/2000/svg" id="Capa_1" enable-background="new 0 0 512 512" height="512" viewBox="0 0 512 512" width="512"><g fill="#0C2188"><path d="m415.394 210.863c1.029-3.843.49-7.937-1.499-11.382l-30-51.962c-1.989-3.445-5.266-5.959-9.108-6.989-3.841-1.029-7.937-.491-11.382 1.499l-19.838 11.453c-12.432-10.545-26.866-18.79-42.566-24.313v-23.169c0-8.284-6.716-15-15-15h-60c-8.284 0-15 6.716-15 15v23.169c-15.7 5.523-30.135 13.768-42.566 24.313l-19.838-11.453c-3.445-1.99-7.544-2.529-11.382-1.499-3.843 1.029-7.119 3.543-9.108 6.989l-30 51.962c-1.989 3.445-2.528 7.54-1.499 11.382 1.03 3.843 3.544 7.119 6.989 9.108l20.019 11.557c-1.773 8.623-2.616 16.587-2.616 24.472s.843 15.849 2.614 24.472l-20.019 11.557c-3.445 1.989-5.959 5.266-6.989 9.108-1.029 3.843-.49 7.937 1.499 11.382l30 51.962c1.989 3.445 5.266 5.959 9.108 6.989 3.844 1.031 7.938.491 11.382-1.499l19.838-11.453c12.432 10.545 26.866 18.79 42.566 24.313v23.169c0 8.284 6.716 15 15 15h60c8.284 0 15-6.716 15-15v-23.169c15.7-5.523 30.135-13.768 42.566-24.313l19.838 11.453c3.445 1.989 7.542 2.528 11.382 1.499 3.843-1.029 7.119-3.543 9.108-6.989l30-51.962c1.989-3.445 2.528-7.54 1.499-11.382-1.03-3.843-3.544-7.119-6.989-9.108l-20.019-11.557c1.773-8.623 2.616-16.587 2.616-24.472s-.843-15.849-2.614-24.472l20.019-11.557c3.445-1.989 5.958-5.265 6.989-9.108zm-58.684 17.299c2.927 10.546 4.29 19.391 4.29 27.838s-1.363 17.292-4.29 27.838c-1.828 6.59 1.031 13.583 6.954 17.002l16.75 9.669-15 25.98-16.428-9.484c-5.922-3.419-13.407-2.401-18.199 2.477-13.05 13.28-29.842 22.872-48.562 27.739-6.61 1.719-11.226 7.687-11.226 14.518v19.261h-30v-19.261c0-6.831-4.615-12.799-11.226-14.518-18.72-4.867-35.512-14.458-48.562-27.739-4.793-4.879-12.281-5.897-18.199-2.477l-16.428 9.484-15-25.98 16.75-9.669c5.923-3.419 8.782-10.412 6.954-17.002-2.925-10.546-4.288-19.391-4.288-27.838s1.363-17.292 4.29-27.838c1.828-6.59-1.031-13.583-6.954-17.002l-16.75-9.669 15-25.98 16.428 9.484c5.922 3.418 13.406 2.401 18.199-2.477 13.05-13.28 29.842-22.872 48.562-27.739 6.61-1.719 11.226-7.687 11.226-14.518v-19.261h30v19.261c0 6.831 4.615 12.799 11.226 14.518 18.72 4.867 35.512 14.458 48.562 27.739 4.792 4.878 12.279 5.895 18.199 2.477l16.428-9.484 15 25.98-16.75 9.669c-5.925 3.419-8.784 10.412-6.956 17.002z" fill="#0C2188"></path><path d="m256 181c-41.355 0-75 33.645-75 75s33.645 75 75 75 75-33.645 75-75-33.645-75-75-75zm0 120c-24.813 0-45-20.187-45-45s20.187-45 45-45 45 20.187 45 45-20.187 45-45 45z" fill="#0C2188"></path><path d="m457.523 118.115c6.1-6.1 3.624-15.352 3.624-15.352l-21.213-63.64c-2.62-7.86-11.116-12.108-18.974-9.487-7.859 2.62-12.106 11.115-9.487 18.974l1.803 5.409c-13.46-10.245-27.965-19.274-43.235-26.848-35.836-17.775-75.271-27.171-114.041-27.171-68.01 0-132.194 26.731-180.731 75.268-48.539 48.538-75.269 112.723-75.269 180.732 0 31.411 6.599 63.589 19.611 95.643 2.366 5.828 7.979 9.361 13.903 9.361 1.879 0 3.79-.355 5.638-1.105 7.676-3.117 11.372-11.865 8.256-19.541-11.552-28.452-17.408-56.834-17.408-84.358 0-124.617 101.383-226 226-226 45.741 0 91.915 15.216 130.278 41.606-7.332-1.507-14.802 2.665-17.229 9.944-2.619 7.859 1.628 16.354 9.487 18.974l63.64 21.213s8.968 2.757 15.347-3.622z" fill="#0C2188"></path><path d="m50.849 409.236 21.213 63.64c2.096 6.286 7.947 10.262 14.229 10.261 1.572 0 3.172-.249 4.745-.773 7.859-2.62 12.106-11.114 9.487-18.974l-1.803-5.409c13.46 10.245 27.965 19.274 43.235 26.849 35.84 17.774 75.275 27.17 114.045 27.17 68.01 0 132.194-26.73 180.731-75.268 48.539-48.538 75.269-112.723 75.269-180.732 0-31.411-6.599-63.589-19.611-95.643-3.116-7.676-11.866-11.371-19.541-8.256-7.676 3.117-11.372 11.865-8.256 19.541 11.552 28.452 17.408 56.834 17.408 84.358 0 124.617-101.383 226-226 226-45.74 0-91.915-15.216-130.278-41.607 7.333 1.507 14.802-2.664 17.229-9.944 2.619-7.859-1.628-16.354-9.487-18.974l-63.64-21.213c-8.892-2.964-15.352 3.624-15.352 3.624-6.231 6.23-3.623 15.35-3.623 15.35z" fill="#0C2188"></path></g></svg>