<svg xmlns:xlink="http://www.w3.org/1999/xlink" class="sub_menu_child_item mr-2" xmlns="http://www.w3.org/2000/svg" id="Capa_1" enable-background="new 0 0 512 512" height="512" viewBox="0 0 512 512" width="512"><g fill="#0C2188"><path d="m233.714 313.864 75-44.975c9.672-5.801 9.736-19.884.006-25.725l-75-45.025c-9.984-5.995-22.72 1.218-22.72 12.861v90c0 11.735 12.834 18.791 22.714 12.864zm7.286-76.363 30.845 18.518-30.845 18.496z" fill="#0C2188"></path><path d="m497 210h-45v-14c0-108.075-87.925-196-196-196s-196 87.925-196 196v14h-45c-8.284 0-15 6.716-15 15v120c0 8.284 6.716 15 15 15h60c8.284 0 15-6.716 15-15v-149c0-91.532 74.467-166 166-166s166 74.468 166 166v149c0 8.284 6.716 15 15 15h14.05v122h-180v-31h104.95c8.284 0 15-6.716 15-15v-301c0-8.284-6.716-15-15-15h-210c-24.813 0-45 20.187-45 45v241c0 24.813 20.187 45 45 45h75.05v46c0 8.284 6.716 15 15 15h210c8.284 0 15-6.716 15-15v-137h15.95c8.284 0 15-6.716 15-15v-120c0-8.284-6.716-15-15-15zm-437 120h-30v-90h30zm91-165c0-8.271 6.729-15 15-15h195v211c-205.574.907-197.036-2.026-210 2.57zm0 241c0-8.271 6.729-15 15-15h195v30h-195c-8.271 0-15-6.729-15-15zm331-76h-30v-90h30z" fill="#0C2188"></path></g></svg>