<svg xmlns:xlink="http://www.w3.org/1999/xlink" class="menu--icon icon_menu_parent" xmlns="http://www.w3.org/2000/svg" height="512" viewBox="0 0 512 512" width="512"><g id="Chalkboard" fill="#F1F8F3"><path d="m496 384h-8v-288a8 8 0 0 0 -8-8h-448a8 8 0 0 0 -8 8v288h-8a8 8 0 0 0 -8 8v32a8 8 0 0 0 8 8h480a8 8 0 0 0 8-8v-32a8 8 0 0 0 -8-8zm-456-280h432v280h-8v-264a8 8 0 0 0 -8-8h-400a8 8 0 0 0 -8 8v264h-8zm376 280h-72v-24h72zm8-40h-88a8 8 0 0 0 -8 8v32h-264v-256h384v256h-16v-32a8 8 0 0 0 -8-8zm64 72h-464v-16h464z" fill="#F1F8F3"></path><path d="m128 136h-48a8 8 0 0 0 0 16h48a8 8 0 0 0 0-16z" fill="#F1F8F3"></path><path d="m160 136h-8a8 8 0 0 0 0 16h8a8 8 0 0 0 0-16z" fill="#F1F8F3"></path></g></svg>