<svg xmlns:xlink="http://www.w3.org/1999/xlink" class="menu--icon icon_menu_parent" xmlns="http://www.w3.org/2000/svg" id="Capa_1" enable-background="new 0 0 511.91 511.91" height="512" viewBox="0 0 511.91 511.91" width="512"><g fill="#0C2188"><path d="m303.813 142.382h-161.43v161.43h65.715v65.715h161.43v-161.43h-65.715zm-131.43 30h101.43v101.43h-101.43zm167.145 65.715v101.43h-101.43v-35.715h65.715v-65.715z" fill="#0C2188"></path><path d="m511.909 117.62v-117.62h-117.619v43.81h-276.67v-43.81h-117.62v117.62h43.81v276.67h-43.81v117.62h117.62v-43.81h276.67v43.81h117.619v-117.62h-43.809v-276.67zm-87.619-87.62h57.619v57.62h-57.619zm-394.29 0h57.62v57.62h-57.62zm57.62 451.91h-57.62v-57.62h57.62zm394.289 0h-57.619v-57.62h57.619zm-43.809-87.62h-43.81v43.81h-276.67v-43.81h-43.81v-276.67h43.81v-43.81h276.67v43.81h43.81z" fill="#0C2188"></path></g></svg>