<svg xmlns:xlink="http://www.w3.org/1999/xlink" class="menu_icon_child mr-2" xmlns="http://www.w3.org/2000/svg" id="Capa_1" enable-background="new 0 0 512 512" height="512" viewBox="0 0 512 512" width="512"><g fill="#0C2188"><path d="m376.244 391.374-33.432 32.912-33.433-32.912-21.047 21.379 33.098 32.582-33.098 32.583 21.047 21.379 33.433-32.912 33.432 32.912 21.047-21.379-33.097-32.583 33.097-32.582z" fill="#0C2188"></path><path d="m414.45 32.574-21.046-21.379-68.774 67.705-31.793-35.264-22.281 20.089 52.783 58.544z" fill="#0C2188"></path><path d="m324.63 266.933-31.793-35.265-22.281 20.089 52.783 58.545 91.111-89.695-21.046-21.378z" fill="#0C2188"></path><path d="m170.473 0c-40.21 0-72.923 32.713-72.923 72.923s32.713 72.923 72.923 72.923 72.923-32.713 72.923-72.923-32.713-72.923-72.923-72.923zm0 115.846c-23.668 0-42.923-19.255-42.923-42.923s19.255-42.923 42.923-42.923 42.923 19.255 42.923 42.923-19.255 42.923-42.923 42.923z" fill="#0C2188"></path><path d="m170.473 183.077c-40.21 0-72.923 32.713-72.923 72.923s32.713 72.923 72.923 72.923 72.923-32.713 72.923-72.923-32.713-72.923-72.923-72.923zm0 115.846c-23.668 0-42.923-19.255-42.923-42.923s19.255-42.923 42.923-42.923 42.923 19.255 42.923 42.923-19.255 42.923-42.923 42.923z" fill="#0C2188"></path><path d="m170.473 366.154c-40.21 0-72.923 32.713-72.923 72.923s32.713 72.923 72.923 72.923 72.923-32.713 72.923-72.923-32.713-72.923-72.923-72.923zm0 115.846c-23.668 0-42.923-19.255-42.923-42.923 0-23.667 19.255-42.923 42.923-42.923s42.923 19.255 42.923 42.923-19.255 42.923-42.923 42.923z" fill="#0C2188"></path></g></svg>