<svg xmlns:xlink="http://www.w3.org/1999/xlink" class="menu_icon_child mr-2" xmlns="http://www.w3.org/2000/svg" id="Capa_1" enable-background="new 0 0 512 512" height="512" viewBox="0 0 512 512" width="512"><g fill="#0C2188"><path d="m462 54h-44v-44c0-5.522-4.478-10-10-10h-304c-5.523 0-10 4.478-10 10v44h-44c-27.57 0-50 22.43-50 50v250c0 27.57 22.43 50 50 50h137.049v38.01h-9.198c-22.802 0-41.352 18.55-41.352 41.352v18.638c0 5.522 4.477 10 10 10h219.003c5.522 0 10-4.478 10-10v-18.639c0-22.802-18.551-41.352-41.353-41.352h-9.198v-38.009h137.049c27.57 0 50-22.43 50-50v-250c0-27.57-22.43-50-50-50zm-44 60h33.95l.048 214.998h-33.998zm-20-94v308.998l-284 .002v-309zm-337.948 309v-215h33.948v215zm295.45 154.361v8.639h-199.003v-8.639c0-11.773 9.579-21.352 21.352-21.352h156.299c11.773.001 21.352 9.579 21.352 21.352zm-50.551-41.351h-97.902v-38.01h97.902zm187.049-88.01c0 16.542-13.458 30-30 30h-412c-16.542 0-30-13.458-30-30v-250c0-16.542 13.458-30 30-30h44v20h-43.948c-5.523 0-10 4.478-10 10v235c0 2.652 1.054 5.195 2.929 7.071 1.875 1.875 4.418 2.929 7.071 2.929l411.948-.002c2.652 0 5.196-1.054 7.072-2.93 1.875-1.876 2.929-4.42 2.928-7.072l-.052-234.998c-.001-5.522-4.478-9.998-10-9.998h-43.948v-20h44c16.542 0 30 13.458 30 30z" fill="#0C2188"></path><path d="m163.923 113.687c2.514 2.514 5.808 3.771 9.103 3.771s6.59-1.257 9.103-3.771l31.053-31.053c1.735-1.735 1.735-4.549 0-6.285l-11.922-11.923c-1.735-1.735-4.549-1.735-6.284 0l-21.95 21.951-8.599-8.598c-1.735-1.735-4.549-1.735-6.284 0l-11.922 11.923c-1.735 1.735-1.735 4.549 0 6.284z" fill="#0C2188"></path><path d="m163.923 202.984c2.514 2.514 5.808 3.771 9.103 3.771s6.59-1.257 9.103-3.771l31.053-31.053c1.735-1.735 1.735-4.549 0-6.284l-11.922-11.923c-1.735-1.735-4.549-1.735-6.284 0l-21.95 21.951-8.599-8.598c-1.735-1.735-4.549-1.735-6.284 0l-11.922 11.923c-1.735 1.735-1.735 4.549 0 6.284z" fill="#0C2188"></path><path d="m251.227 120.291h61.603c5.522 0 10-4.478 10-10s-4.478-10-10-10h-61.603c-5.523 0-10 4.478-10 10s4.477 10 10 10z" fill="#0C2188"></path><path d="m251.227 80.291h116.225c5.522 0 10-4.478 10-10s-4.478-10-10-10h-116.225c-5.523 0-10 4.478-10 10s4.477 10 10 10z" fill="#0C2188"></path><path d="m251.227 209.588h61.603c5.522 0 10-4.478 10-10s-4.478-10-10-10h-61.603c-5.523 0-10 4.478-10 10s4.477 10 10 10z" fill="#0C2188"></path><path d="m251.227 169.588h116.225c5.522 0 10-4.478 10-10s-4.478-10-10-10h-116.225c-5.523 0-10 4.478-10 10s4.477 10 10 10z" fill="#0C2188"></path><path d="m212.191 249.899-9.924-9.924c-2.219-2.219-5.818-2.219-8.037 0l-10.949 10.949-10.949-10.949c-2.219-2.219-5.818-2.219-8.037 0l-9.924 9.924c-2.219 2.219-2.219 5.818 0 8.037l10.949 10.949-10.949 10.949c-2.219 2.22-2.219 5.818 0 8.037l9.924 9.924c2.219 2.219 5.818 2.219 8.037 0l10.949-10.949 10.949 10.949c2.219 2.219 5.818 2.219 8.037 0l9.924-9.924c2.219-2.219 2.219-5.817 0-8.037l-10.949-10.949 10.949-10.949c2.219-2.219 2.219-5.818 0-8.037z" fill="#0C2188"></path><path d="m251.227 298.885h61.603c5.522 0 10-4.478 10-10s-4.478-10-10-10h-61.603c-5.523 0-10 4.478-10 10s4.477 10 10 10z" fill="#0C2188"></path><path d="m251.227 258.885h116.225c5.522 0 10-4.478 10-10s-4.478-10-10-10h-116.225c-5.523 0-10 4.478-10 10s4.477 10 10 10z" fill="#0C2188"></path></g></svg>