<svg xmlns="http://www.w3.org/2000/svg" xmlns:xlink="http://www.w3.org/1999/xlink" version="1.1" id="Capa_1" x="0px" y="0px" viewBox="0 0 512 512" xml:space="preserve" class="menu_icon_child mr-2 page_speed_1724281408" width="512"  height="512" ><g fill="#0C2188"><g fill="#0C2188"><path d="M276.316,202.039l-23.28-19.674l3.011-30.333c0.332-3.349-1.236-6.535-4.093-8.316c-2.856-1.78-6.408-1.785-9.27-0.011    l-25.906,16.06l-27.916-12.235c-3.084-1.352-6.598-0.846-9.175,1.321c-2.577,2.168-3.679,5.546-2.875,8.814l7.269,29.601    l-20.262,22.767c-2.239,2.515-2.844,6.015-1.58,9.136c1.264,3.12,4.136,5.212,7.493,5.458l30.399,2.234l15.394,26.31    c1.592,2.72,4.448,4.344,7.561,4.344c0.211,0,0.425-0.008,0.638-0.022c3.357-0.239,6.233-2.322,7.506-5.44l11.518-28.221    l29.782-6.511c3.287-0.721,5.832-3.199,6.641-6.465C279.98,207.59,278.886,204.212,276.316,202.039z M236.4,209.936    c-2.824,0.618-5.162,2.585-6.253,5.259l-8.03,19.674l-10.735-18.346c-1.459-2.489-4.047-4.102-6.931-4.316l-21.192-1.557    l14.129-15.877c1.919-2.158,2.653-5.121,1.965-7.927l-5.068-20.636l19.457,8.527c2.646,1.163,5.693,0.947,8.155-0.577    l18.061-11.197l-2.098,21.145c-0.286,2.876,0.861,5.707,3.069,7.574l16.23,13.715L236.4,209.936z" fill="#0C2188"></path></g></g><g fill="#0C2188"><g fill="#0C2188"><path d="M491.943,386.842l-24.885-21.981c-6.347-5.605-16.02-5.722-22.501-0.273l-1.116,0.939c-1.1-3.964-3.11-7.716-6.059-10.892    c-3.603-3.881-8.178-6.536-13.218-7.73c2.907-8.928,1.028-19.133-5.799-26.488c-4.856-5.231-11.458-8.257-18.59-8.52    c-0.215-0.008-0.428-0.005-0.642-0.008c0.327-6.924-2.011-13.968-7.087-19.437c-4.796-5.167-11.297-8.177-18.329-8.505    c0.634-7.264-1.68-14.758-7.019-20.509c-4.856-5.231-11.458-8.257-18.59-8.52c-7.134-0.269-13.94,2.266-19.169,7.123l-3.544,3.292    c-5.148-3.716-11.307-5.826-17.848-6.041c-0.824-0.028-1.643-0.016-2.459,0.016l2.656-8.863    c4.763-15.896,7.727-44.713,7.639-43.167c0.257,0.124,0.509,0.253,0.772,0.37c3.654,1.63,7.591,2.44,11.512,2.44    c4.495,0,8.969-1.065,12.967-3.182c8.323-4.406,14.23-13.616,14.7-22.919c0.447-8.853-3.722-16.67-11.738-22.013    c-3.432-2.285-8.067-1.359-10.353,2.072c-2.286,3.431-1.358,8.066,2.073,10.353c3.565,2.375,5.283,5.347,5.106,8.834    c-0.207,4.102-3.056,8.508-6.774,10.476c-3.409,1.806-7.781,1.921-11.411,0.301c-2.318-1.033-5.323-3.232-6.473-7.835    c-3.425-13.709,4.429-27.316,13.522-43.07c16.471-28.537,36.969-64.05-5.939-114.766l-17.77-21.004    c-3.579-4.231-8.591-6.81-14.113-7.264c-5.522-0.454-10.888,1.272-15.11,4.862c-11.449,9.735-17.401,24.476-15.923,39.431    l0.887,8.972c0.455,4.601-1.317,9.121-4.727,12.215l9.621,11.44c7.179-6.27,10.904-15.622,9.964-25.124l-0.887-8.972    c-0.997-10.084,3.016-20.023,10.736-26.587c1.177-1.001,2.669-1.485,4.215-1.356c1.54,0.126,2.938,0.846,3.937,2.026l17.77,21.004    c36.126,42.701,20.718,69.397,4.406,97.658c-2.552,4.421-5.124,8.883-7.451,13.407c-6.169-21.2-16.494-40.91-30.77-57.883    l-34.17-40.627l0.192-0.161c2.742-2.306,4.422-5.541,4.73-9.11c0.308-3.57-0.792-7.045-3.098-9.786l-10.918-12.981    c-2.306-2.742-5.541-4.422-9.11-4.73c-3.569-0.307-7.044,0.791-9.787,3.097L43.434,161.979    c-5.659,4.759-6.391,13.235-1.632,18.896l10.918,12.981c2.306,2.742,5.541,4.422,9.111,4.73c0.394,0.034,0.786,0.051,1.176,0.051    c3.151,0,6.171-1.097,8.609-3.149l0.193-0.163l12.833,15.259c-3.614,2.784-8.324,3.742-12.744,2.531l-8.693-2.386    c-14.49-3.978-30.025-0.596-41.551,9.049c-4.249,3.557-6.856,8.554-7.339,14.075c-0.484,5.52,1.214,10.894,4.781,15.135    l17.709,21.055c42.759,50.841,81.22,36.623,112.124,25.197c13.947-5.156,26.339-9.736,37.465-8.13    c2.065,0.581,4.143,1.13,6.237,1.636c0.345,0.135,0.689,0.274,1.032,0.424c4.343,1.908,6.004,5.241,6.633,7.7    c0.984,3.85,0.133,8.14-2.221,11.197c-2.566,3.333-7.389,5.394-11.468,4.911c-3.467-0.414-6.107-2.608-7.848-6.522    c-1.675-3.767-6.086-5.461-9.856-3.787c-3.767,1.675-5.463,6.087-3.788,9.855c3.915,8.802,10.919,14.229,19.72,15.28    c0.972,0.116,1.951,0.173,2.934,0.173c8.382-0.001,16.993-4.123,22.134-10.8c5.168-6.71,6.984-15.684,4.857-24.004    c-0.049-0.19-0.108-0.375-0.161-0.563c6.79,0.765,13.678,1.167,20.641,1.167c7.458,0,15.002-0.446,22.584-1.351l0.661-0.079    c-3.4,4.056-6.047,8.718-7.758,13.714l-29.347,72.186L64.838,498.616c-2.534,1.948-3.547,5.295-2.517,8.321    c1.029,3.027,3.871,5.063,7.068,5.063h177.372c2.014,0,3.943-0.814,5.348-2.256l9.879-10.143    c2.877-2.954,2.815-7.681-0.139-10.558c-2.954-2.876-7.681-2.815-10.557,0.139l-7.681,7.887H91.347l140.742-108.217    c0.104-0.08,0.197-0.167,0.295-0.251c0.067-0.057,0.136-0.112,0.201-0.172c0.238-0.218,0.459-0.448,0.663-0.69    c0.04-0.048,0.077-0.099,0.116-0.149c0.186-0.232,0.356-0.473,0.511-0.723c0.029-0.047,0.061-0.092,0.089-0.14    c0.176-0.298,0.328-0.605,0.46-0.921c0.009-0.021,0.022-0.04,0.03-0.061l30.192-74.264c0.058-0.143,0.112-0.288,0.161-0.434    c1.466-4.364,4.027-8.35,7.405-11.53l21.443-20.182c3.682-3.466,8.43-5.286,13.399-5.12c4.691,0.155,9.003,2.096,12.141,5.467    l0.798,0.857l0.001,0.001l0.001,0.001l26.228,28.171c0.001,0.001,0.002,0.002,0.002,0.003c0.001,0.001,0.002,0.002,0.003,0.003    l0.001,0.001c0.002,0.002,0.003,0.004,0.005,0.006s0.004,0.004,0.006,0.006l3.716,3.991c1.566,1.682,2.38,3.904,2.295,6.256    c-0.091,2.526-1.187,4.889-3.084,6.652l-4.323,4.017c-2.991,2.778-7.241,3.303-10.541,1.621c-0.086-0.047-0.176-0.086-0.265-0.13    c-0.766-0.425-1.476-0.973-2.101-1.644l-10.887-11.712c-3.891-4.185-9.207-6.596-14.968-6.788    c-5.903-0.193-11.559,1.947-15.905,6.037c-0.405,0.382-0.763,0.803-1.069,1.256c-0.765,1.132-1.208,2.458-1.272,3.833    c-0.013,0.275-0.01,0.552,0.008,0.83c0.001,0.01,0.001,0.02,0.001,0.03c0.036,0.567,0.061,1.128,0.076,1.686    c0.008,0.314,0.007,0.625,0.009,0.937c0.002,0.24,0.006,0.481,0.003,0.719c-0.004,0.398-0.018,0.792-0.033,1.185    c-0.005,0.143-0.009,0.286-0.016,0.429c-0.022,0.444-0.053,0.885-0.089,1.322c-0.005,0.057-0.009,0.115-0.014,0.172    c-0.021,0.187-0.038,0.374-0.045,0.562c-0.697,6.912-3.195,13.098-7.56,18.763c-2.517,3.266-1.909,7.954,1.357,10.47    c3.265,2.516,7.954,1.908,10.47-1.358c2.586-3.356,4.707-6.891,6.373-10.589l63.499,86.849l-1.515,1.274    c-0.948,0.325-1.847,0.843-2.631,1.565c-5.277,4.855-11.736,8.127-18.699,9.479l-46.751,3.36    c-1.824,0.131-3.537,0.927-4.813,2.237l-11.935,12.254c-2.877,2.954-2.815,7.681,0.139,10.558c1.451,1.413,3.33,2.117,5.208,2.117    c1.943,0,3.885-0.754,5.348-2.256l9.954-10.221l44.347-3.186c0.085-0.006,0.168-0.023,0.252-0.032    c0.193,2.674,0.993,5.325,2.465,7.719l17.39,28.283c2.629,4.276,6.978,7.187,11.932,7.987c0.918,0.149,1.838,0.222,2.753,0.222    c4.028,0,7.958-1.412,11.088-4.045l105.218-88.492c3.841-3.23,6.078-7.961,6.14-12.98    C497.827,394.949,495.704,390.166,491.943,386.842z M143.753,281.236c-30.609,11.316-59.519,22.003-95.519-20.802l-17.709-21.055    c-0.994-1.183-1.468-2.682-1.333-4.222s0.862-2.935,2.048-3.926c7.771-6.503,18.246-8.783,28.016-6.102l8.693,2.386    c9.156,2.511,18.943,0.455,26.319-5.487l11.712,13.926c14.31,17.015,32.008,30.591,51.895,40.307    C153.141,277.767,148.426,279.508,143.753,281.236z M293.439,246.159l-5.637,18.811c-1.536,1.034-3.004,2.195-4.382,3.491    l-7.143,6.723l-20.222,2.416c-54.359,6.495-106.194-12.668-138.649-51.257l-34.169-40.627l13.339-11.219    c3.156-2.654,3.562-7.364,0.908-10.519c-2.653-3.156-7.364-3.565-10.519-0.909l-19.05,16.021    c-0.001,0.001-0.002,0.002-0.003,0.002c-0.001,0.001-0.002,0.002-0.003,0.003l-4.74,3.987l-8.962-10.655L224.421,29.271    l8.962,10.656l-4.733,3.981c-0.003,0.003-0.007,0.005-0.01,0.007c-0.003,0.002-0.006,0.006-0.009,0.008l-114.739,96.5    c-3.155,2.655-3.562,7.364-0.908,10.519c2.653,3.156,7.362,3.56,10.519,0.909l109.034-91.704l34.169,40.627    C299.162,139.365,309.155,193.715,293.439,246.159z M418.439,361.127c3.069,0.114,5.911,1.416,8,3.667    c3.562,3.838,4.05,9.589,1.282,13.954l-32.529,27.359c-3.504,0.294-6.907-0.998-9.34-3.619c-4.311-4.644-4.041-11.93,0.6-16.243    l4.713-4.379c0.861-0.628,1.694-1.305,2.487-2.041l18.206-16.913C413.806,361.673,416.074,361.05,418.439,361.127z     M391.647,329.219c2.049-1.566,4.529-2.41,7.128-2.41c0.148,0,0.297,0.003,0.446,0.008c3.146,0.117,6.058,1.451,8.2,3.758    c4.419,4.759,4.143,12.228-0.615,16.648l-4.3,3.995c-0.859,0.626-1.689,1.299-2.48,2.034l-18.228,16.934    c-2.002,1.283-4.34,1.936-6.764,1.841c-3.146-0.117-6.058-1.451-8.2-3.758c-4.129-4.448-4.156-11.26-0.258-15.74    c0.254-0.219,0.508-0.44,0.755-0.669l23.317-21.662C390.993,329.878,391.324,329.552,391.647,329.219z M352.077,293.09    l-16.057-17.247l3.081-2.863c2.306-2.142,5.308-3.237,8.454-3.142c3.146,0.117,6.058,1.451,8.2,3.758    c4.419,4.759,4.142,12.228-0.616,16.649L352.077,293.09z M355.006,340.587l4.324-4.018c4.821-4.478,7.606-10.534,7.842-17.049    c0.205-5.658-1.555-11.063-4.979-15.432l2.255-2.095c2.306-2.142,5.302-3.264,8.454-3.142c3.145,0.117,6.057,1.451,8.199,3.758    c4.131,4.45,4.156,11.265,0.255,15.746c-0.253,0.218-0.505,0.436-0.751,0.664l-23.317,21.662    c-0.345,0.321-0.679,0.649-1.003,0.983c-1.754,1.342-3.828,2.144-6.017,2.345C351.939,343.073,353.538,341.95,355.006,340.587z     M302.821,328.059c0.022-0.563,0.042-1.125,0.047-1.693c0.215-0.081,0.435-0.151,0.657-0.211c0.667-0.179,1.36-0.26,2.06-0.235    c1.758,0.058,3.366,0.781,4.53,2.032l10.887,11.711c1.114,1.198,2.327,2.253,3.614,3.165c1.199,2.816,2.858,5.376,4.956,7.636    c4.856,5.231,11.458,8.257,18.591,8.521c0.215,0.007,0.428,0.009,0.642,0.012c-0.326,6.922,2.012,13.965,7.087,19.432    c3.638,3.919,8.256,6.6,13.343,7.81c-2.972,8.88-1.133,19.077,5.673,26.408c1.9,2.046,4.092,3.747,6.477,5.072l-8.057,6.776    L302.821,328.059z M482.014,401.521l-105.218,88.492c-0.702,0.592-1.462,0.573-1.849,0.511c-0.389-0.063-1.113-0.285-1.594-1.067    l-17.39-28.284c-0.602-0.979-0.401-2.227,0.479-2.967l97.719-82.187c0.004-0.003,0,0,0.004-0.003    c0.425-0.358,0.954-0.537,1.482-0.537c0.547,0,1.093,0.192,1.524,0.573l24.885,21.981c0.688,0.608,0.783,1.36,0.778,1.755    C482.831,400.181,482.717,400.931,482.014,401.521z" fill="#0C2188"></path></g></g></svg>