<svg xmlns:xlink="http://www.w3.org/1999/xlink" class="menu_icon_child mr-2" xmlns="http://www.w3.org/2000/svg" enable-background="new 0 0 64 64" height="512" viewBox="0 0 64 64" width="512"><g id="Layer_7" display="none" fill="#0C2188"><path d="m-173-89h410v410h-410z" display="inline" fill="#FFFFFF"></path></g><g id="Layer_9" display="none" fill="#0C2188"><path d="m-8-8h80v80h-80z" display="inline" fill="#FFFFFF"></path></g><g id="filled" display="none" stroke="#000000" stroke-miterlimit="10" stroke-width="2px" fill="#0C2188"><path d="m40 30.95v-16.95h-29v46h29" display="inline" fill="#68E4DE" stroke="#000000" stroke-width="2px"></path><g stroke-linecap="square" stroke="#000000" fill="#0C2188" stroke-width="2px"><path d="m40 4h-29v10h29c2.76 0 5-2.24 5-5 0-2.76-2.24-5-5-5z" display="inline" fill="#A0EDEB" stroke="#000000" stroke-width="2px"></path><path d="m17 20h5v5h-5z" display="inline" fill="#FFFFFF" stroke="#000000" stroke-width="2px"></path><path d="m11 4c-2.76 0-5 2.24-5 5v22h5v-17c2.76 0 5-2.24 5-5s-2.24-5-5-5z" display="inline" fill="#68E4DE" stroke="#000000" stroke-width="2px"></path><path d="m17 30h5v5h-5z" display="inline" fill="#FFFFFF" stroke="#000000" stroke-width="2px"></path><path d="m17 40h5v5h-5z" display="inline" fill="#FFFFFF" stroke="#000000" stroke-width="2px"></path><path d="m17 50h5v5h-5z" display="inline" fill="#FFFFFF" stroke="#000000" stroke-width="2px"></path><path d="m28 20h6" display="inline" fill="none" stroke="#000000" stroke-width="2px"></path><path d="m28 25h6" display="inline" fill="none" stroke="#000000" stroke-width="2px"></path><g display="inline" stroke="#000000" fill="#0C2188" stroke-width="2px"><path d="m30 46h26v14h-26z" fill="#FF375B" stroke="#000000" stroke-width="2px"></path><path d="m28 39h30v7h-30z" fill="#FF6678" stroke="#000000" stroke-width="2px"></path><path d="m40 39h6v21h-6z" fill="#FFFFFF" stroke="#000000" stroke-width="2px"></path><g fill="none" stroke-linejoin="bevel" stroke="#000000" stroke-width="2px"><path d="m52.49 36.8c1.87-1.57 2.11-4.35.54-6.22s-4.35-2.11-6.22-.54c-.62.52-1.05 1.17-1.31 1.87l-2.5 7.09 7.42-1.24c.74-.13 1.46-.44 2.07-.96z" stroke="#000000" fill="none" stroke-width="2px"></path><path d="m33.51 36.8c-1.87-1.57-2.11-4.35-.54-6.22s4.35-2.11 6.22-.54c.62.52 1.05 1.17 1.31 1.87l2.5 7.09-7.42-1.24c-.74-.13-1.46-.44-2.07-.96z" stroke="#000000" fill="none" stroke-width="2px"></path></g></g></g></g><g id="filled_expand" display="none" fill="#0C2188"><g display="inline" fill="#0C2188"><path d="m11 4c-2.76 0-5 2.24-5 5v22h7l-2-17c2.76 0 5-2.24 5-5s-2.24-5-5-5z" fill="#5FE4DC"></path><path d="m40 30.95v-16.95l-14.6-2-14.4 2v46h29" fill="#9BEBE6"></path><path d="m25.5 60h14.5v-29.05-16.95l-14.5-2z" fill="#5FE4DC"></path><g fill="#FFFFFF"><path d="m17 20h5v5h-5z" fill="#FFFFFF"></path><path d="m17 30h5v5h-5z" fill="#FFFFFF"></path><path d="m17 40h5v5h-5z" fill="#FFFFFF"></path><path d="m17 50h5v5h-5z" fill="#FFFFFF"></path></g><path d="m30 46h26v14h-26z" fill="#FF5078"></path><path d="m43 46h13v14h-13z" fill="#FF1739"></path><path d="m28 39h30v7h-30z" fill="#FF7FA8"></path><path d="m43 39h15v7h-15z" fill="#FF5078"></path><path d="m40 39h6v21h-6z" fill="#FFDC32"></path><path d="m43 39h3v21h-3z" fill="#FFBE1E"></path><path d="m40 4h-29v10h29c2.76 0 5-2.24 5-5 0-2.76-2.24-5-5-5z" fill="#C6F4F3"></path><path d="m40 4h-14.5v10h14.5c2.76 0 5-2.24 5-5s-2.24-5-5-5z" fill="#9BEBE6"></path><path d="m11 14c2.76 0 5-2.24 5-5s-2.24-5-5-5-5 2.24-5 5" fill="#5FE4DC"></path></g><g display="inline" fill="#0C2188"><path d="m16 26h7v-7h-7zm2-5h3v3h-3z" fill="#0C2188"></path><path d="m16 36h7v-7h-7zm2-5h3v3h-3z" fill="#0C2188"></path><path d="m16 46h7v-7h-7zm2-5h3v3h-3z" fill="#0C2188"></path><path d="m16 56h7v-7h-7zm2-5h3v3h-3z" fill="#0C2188"></path><path d="m27 19h8v2h-8z" fill="#0C2188"></path><path d="m27 24h8v2h-8z" fill="#0C2188"></path><path d="m59 38h-6.47c.21-.13.41-.28.6-.43 1.11-.93 1.79-2.24 1.91-3.68s-.32-2.85-1.25-3.95c-.93-1.11-2.24-1.79-3.68-1.91s-2.84.32-3.95 1.25c-.72.61-1.28 1.4-1.61 2.31l-1.55 4.41-1.57-4.44c-.11-.31-.26-.61-.43-.89v-15.76c2.83-.48 5-2.94 5-5.91 0-3.31-2.69-6-6-6h-29c-3.31 0-6 2.69-6 6v23h5v29h47v-14h2zm-20 7h-10v-5h10zm7.45-12.75c.2-.56.55-1.06 1.01-1.45.64-.54 1.42-.8 2.19-.8.98 0 1.94.41 2.62 1.22.59.7.87 1.58.79 2.49s-.51 1.73-1.21 2.32c-.46.38-1.01.64-1.59.74l-5.75.96zm-4.96 5.48-5.74-.96c-.59-.1-1.15-.36-1.6-.74-.7-.59-1.13-1.41-1.21-2.32s.2-1.79.79-2.49c1.21-1.44 3.37-1.63 4.81-.42.46.38.81.88 1.01 1.44zm2.51-28.73c0 2.21-1.79 4-4 4h-24.55c.96-1.06 1.55-2.46 1.55-4s-.59-2.94-1.54-4h24.54c2.21 0 4 1.79 4 4zm-37 21v-21c0-2.21 1.79-4 4-4s4 1.79 4 4-1.79 4-4 4h-1v17zm5 29v-44h27v13.7c-.95-.53-2.03-.77-3.13-.68-1.44.13-2.75.81-3.68 1.91-.93 1.11-1.37 2.51-1.25 3.95s.81 2.75 1.91 3.68c.19.16.39.3.6.43h-6.45v9h2v12h-17zm19 0v-12h8v12zm14 0h-4v-19h4zm10 0h-8v-12h8zm2-14h-10v-5h10z" fill="#0C2188"></path></g></g><g id="flat" display="none" fill="#0C2188"><g display="inline" fill="#0C2188"><path d="m11 4c-2.76 0-5 2.24-5 5v22h7l-2-17c2.76 0 5-2.24 5-5s-2.24-5-5-5z" fill="#5FE4DC"></path><path d="m40 30.95v-16.95l-14.6-2-14.4 2v46h29" fill="#9BEBE6"></path><path d="m25.5 60h14.5v-29.05-16.95l-14.5-2z" fill="#5FE4DC"></path><g fill="#FFFFFF"><path d="m17 20h5v5h-5z" fill="#FFFFFF"></path><path d="m17 30h5v5h-5z" fill="#FFFFFF"></path><path d="m17 40h5v5h-5z" fill="#FFFFFF"></path><path d="m17 50h5v5h-5z" fill="#FFFFFF"></path></g><path d="m27 19h8v2h-8z" fill="#50555A"></path><path d="m27 24h8v2h-8z" fill="#50555A"></path><path d="m30 46h26v14h-26z" fill="#FF416E"></path><path d="m43 46h13v14h-13z" fill="#F00023"></path><path d="m28 39h30v7h-30z" fill="#FF6E91"></path><path d="m43 39h15v7h-15z" fill="#FF416E"></path><path d="m40 39h6v21h-6z" fill="#FFD723"></path><path d="m43 39h3v21h-3z" fill="#FFAA1E"></path><path d="m53.8 29.93c-.93-1.11-2.24-1.79-3.68-1.91s-2.84.32-3.95 1.25c-.72.61-1.28 1.4-1.61 2.31l-1.56 4.42-1.57-4.44c-.33-.89-.88-1.69-1.61-2.3-1.11-.93-2.52-1.37-3.95-1.25-1.44.13-2.75.81-3.68 1.91-.93 1.11-1.37 2.51-1.25 3.95s.81 2.75 1.91 3.68c.73.61 1.6 1.02 2.55 1.18l7.6 1.28 7.59-1.27c.94-.17 1.82-.57 2.54-1.18 1.11-.93 1.79-2.24 1.91-3.68s-.31-2.84-1.24-3.95zm-18.05 6.85c-.59-.1-1.15-.36-1.6-.74-.7-.59-1.13-1.41-1.21-2.32s.2-1.79.79-2.49c1.21-1.44 3.37-1.63 4.81-.42.46.38.81.88 1.01 1.44l1.94 5.5zm16.1-.75c-.46.38-1.01.64-1.59.74l-5.75.96 1.94-5.49c.2-.56.55-1.06 1.01-1.45.64-.54 1.42-.8 2.19-.8.98 0 1.94.41 2.62 1.22.59.7.87 1.58.79 2.49s-.51 1.75-1.21 2.33z" fill="#FFED69"></path><path d="m50.13 28.02c-1.44-.12-2.84.32-3.95 1.25-.72.61-1.28 1.4-1.61 2.31l-1.57 4.42v4.01l7.59-1.27c.94-.17 1.82-.57 2.54-1.18 1.11-.93 1.79-2.24 1.91-3.68s-.32-2.85-1.25-3.95c-.92-1.1-2.22-1.78-3.66-1.91zm1.72 8.01c-.46.38-1.01.64-1.59.74l-5.75.96 1.94-5.49c.2-.56.55-1.06 1.01-1.45.64-.54 1.42-.8 2.19-.8.98 0 1.94.41 2.62 1.22.59.7.87 1.58.79 2.49s-.51 1.75-1.21 2.33z" fill="#FFD723"></path><path d="m40 4h-29v10h29c2.76 0 5-2.24 5-5 0-2.76-2.24-5-5-5z" fill="#C6F4F3"></path><path d="m40 4h-14.5v10h14.5c2.76 0 5-2.24 5-5s-2.24-5-5-5z" fill="#9BEBE6"></path><path d="m11 14c2.76 0 5-2.24 5-5s-2.24-5-5-5-5 2.24-5 5" fill="#5FE4DC"></path></g></g><g id="Line" display="none" fill="#0C2188"><g display="inline" fill="none" stroke="#000000" stroke-miterlimit="10" stroke-width="2px"><path d="m40 30.95v-16.95h-29v46h29" stroke="#000000" fill="none" stroke-width="2px"></path><path d="m11 14h29c2.76 0 5-2.24 5-5 0-2.76-2.24-5-5-5h-29" stroke="#000000" fill="none" stroke-width="2px"></path><g stroke-linecap="square" stroke="#000000" fill="none" stroke-width="2px"><path d="m17 20h5v5h-5z" stroke="#000000" fill="none" stroke-width="2px"></path><path d="m11 4c-2.76 0-5 2.24-5 5v22h5v-17c2.76 0 5-2.24 5-5s-2.24-5-5-5z" stroke="#000000" fill="none" stroke-width="2px"></path><path d="m17 30h5v5h-5z" stroke="#000000" fill="none" stroke-width="2px"></path><path d="m17 40h5v5h-5z" stroke="#000000" fill="none" stroke-width="2px"></path><path d="m17 50h5v5h-5z" stroke="#000000" fill="none" stroke-width="2px"></path><path d="m28 20h6" stroke="#000000" fill="none" stroke-width="2px"></path><path d="m28 25h6" stroke="#000000" fill="none" stroke-width="2px"></path><g stroke="#000000" fill="none" stroke-width="2px"><path d="m30 46h10v14h-10z" stroke="#000000" fill="none" stroke-width="2px"></path><path d="m46 46h10v14h-10z" stroke="#000000" fill="none" stroke-width="2px"></path></g><g stroke="#000000" fill="none" stroke-width="2px"><path d="m28 39h12v7h-12z" stroke="#000000" fill="none" stroke-width="2px"></path><path d="m46 39h12v7h-12z" stroke="#000000" fill="none" stroke-width="2px"></path></g><path d="m40 39h6v21h-6z" stroke="#000000" fill="none" stroke-width="2px"></path><path d="m52.49 36.8c1.87-1.57 2.11-4.35.54-6.22s-4.35-2.11-6.22-.54c-.62.52-1.05 1.17-1.31 1.87l-2.5 7.09 7.42-1.24c.74-.13 1.46-.44 2.07-.96z" stroke-linejoin="bevel" stroke="#000000" fill="none" stroke-width="2px"></path><path d="m33.51 36.8c-1.87-1.57-2.11-4.35-.54-6.22s4.35-2.11 6.22-.54c.62.52 1.05 1.17 1.31 1.87l2.5 7.09-7.42-1.24c-.74-.13-1.46-.44-2.07-.96z" stroke-linejoin="bevel" stroke="#000000" fill="none" stroke-width="2px"></path></g></g></g><g id="line_Expand" fill="#0C2188"><g fill="#0C2188"><path d="m16 26h7v-7h-7zm2-5h3v3h-3z" fill="#0C2188"></path><path d="m16 36h7v-7h-7zm2-5h3v3h-3z" fill="#0C2188"></path><path d="m16 46h7v-7h-7zm2-5h3v3h-3z" fill="#0C2188"></path><path d="m16 56h7v-7h-7zm2-5h3v3h-3z" fill="#0C2188"></path><path d="m27 19h8v2h-8z" fill="#0C2188"></path><path d="m27 24h8v2h-8z" fill="#0C2188"></path><path d="m59 38h-6.47c.21-.13.41-.28.6-.43 1.11-.93 1.79-2.24 1.91-3.68s-.32-2.85-1.25-3.95c-.93-1.11-2.24-1.79-3.68-1.91s-2.84.32-3.95 1.25c-.72.61-1.28 1.4-1.61 2.31l-1.55 4.41-1.57-4.44c-.11-.31-.26-.61-.43-.89v-15.76c2.83-.48 5-2.94 5-5.91 0-3.31-2.69-6-6-6h-29c-3.31 0-6 2.69-6 6v23h5v29h47v-14h2zm-20 7h-10v-5h10zm7.45-12.75c.2-.56.55-1.06 1.01-1.45.64-.54 1.42-.8 2.19-.8.98 0 1.94.41 2.62 1.22.59.7.87 1.58.79 2.49s-.51 1.73-1.21 2.32c-.46.38-1.01.64-1.59.74l-5.75.96zm-4.96 5.48-5.74-.96c-.59-.1-1.15-.36-1.6-.74-.7-.59-1.13-1.41-1.21-2.32s.2-1.79.79-2.49c1.21-1.44 3.37-1.63 4.81-.42.46.38.81.88 1.01 1.44zm2.51-28.73c0 2.21-1.79 4-4 4h-24.55c.96-1.06 1.55-2.46 1.55-4s-.59-2.94-1.54-4h24.54c2.21 0 4 1.79 4 4zm-37 21v-21c0-2.21 1.79-4 4-4s4 1.79 4 4-1.79 4-4 4h-1v17zm5 29v-44h27v13.7c-.95-.53-2.03-.77-3.13-.68-1.44.13-2.75.81-3.68 1.91-.93 1.11-1.37 2.51-1.25 3.95s.81 2.75 1.91 3.68c.19.16.39.3.6.43h-6.45v9h2v12h-17zm19 0v-12h8v12zm14 0h-4v-19h4zm10 0h-8v-12h8zm2-14h-10v-5h10z" fill="#0C2188"></path></g></g><g id="Solid" display="none" fill="#0C2188"><g display="inline" fill="#0C2188"><path d="m9 4c-2.76 0-5 2.24-5 5v22h5v-17c2.76 0 5-2.24 5-5s-2.24-5-5-5z" fill="#0C2188"></path><path d="m18 31h3v3h-3z" fill="#0C2188"></path><path d="m18 41h3v3h-3z" fill="#0C2188"></path><path d="m18 51h3v3h-3z" fill="#0C2188"></path><path d="m18 21h3v3h-3z" fill="#0C2188"></path><path d="m40 4h-26.11c1.3 1.27 2.11 3.04 2.11 5s-.81 3.73-2.11 5h26.11c2.76 0 5-2.24 5-5s-2.24-5-5-5z" fill="#0C2188"></path><path d="m47 47h9v13h-9z" fill="#0C2188"></path><path d="m30 47h9v13h-9z" fill="#0C2188"></path><path d="m53.8 30.93c-.93-1.11-2.24-1.79-3.68-1.91s-2.84.32-3.95 1.25c-.72.61-1.28 1.4-1.61 2.31l-1.56 4.42-1.57-4.44c-.33-.89-.88-1.69-1.61-2.3-1.11-.93-2.52-1.37-3.95-1.25-1.44.13-2.75.81-3.68 1.91-.93 1.11-1.37 2.51-1.25 3.95s.81 2.75 1.91 3.68c.73.61 1.6 1.02 2.55 1.18l7.6 1.28 7.59-1.27c.94-.17 1.82-.57 2.54-1.18 1.11-.93 1.79-2.24 1.91-3.68s-.31-2.84-1.24-3.95zm-18.05 6.85c-.59-.1-1.15-.36-1.6-.74-.7-.59-1.13-1.41-1.21-2.32s.2-1.79.79-2.49c1.21-1.44 3.37-1.63 4.81-.42.46.38.81.88 1.01 1.44l1.94 5.5zm16.1-.75c-.46.38-1.01.64-1.59.74l-5.75.96 1.94-5.49c.2-.56.55-1.06 1.01-1.45.64-.54 1.42-.8 2.19-.8.98 0 1.94.41 2.62 1.22.59.7.87 1.58.79 2.49s-.51 1.75-1.21 2.33z" fill="#0C2188"></path><g fill="#0C2188"><path d="m28 47h-2v-9h3.86c-.49-.9-.81-1.89-.9-2.94-.17-1.97.43-3.9 1.71-5.41 1.27-1.52 3.06-2.45 5.03-2.62.22-.02.43-.03.64-.03 1.29 0 2.55.34 3.66.97v-11.97h-29v44h17zm-1-28h8v2h-8zm0 5h8v2h-8zm-4 32h-7v-7h7zm0-10h-7v-7h7zm0-10h-7v-7h7zm0-10h-7v-7h7z" fill="#0C2188"></path></g><path d="m41 60h4v-17.29l-2 .33-2-.33z" fill="#0C2188"></path><path d="m31.58 40.1c-.04-.03-.07-.07-.11-.1h-3.47v5h11v-2.63l-3.92-.65c-1.3-.23-2.51-.79-3.5-1.62z" fill="#0C2188"></path><path d="m54.53 40c-.04.03-.07.07-.1.1-.99.83-2.2 1.39-3.48 1.62l-3.95.65v2.63h11v-5z" fill="#0C2188"></path></g></g></svg>