<svg xmlns:xlink="http://www.w3.org/1999/xlink" class="menu_icon_child mr-2" xmlns="http://www.w3.org/2000/svg" id="Capa_1" enable-background="new 0 0 512 512" height="512" viewBox="0 0 512 512" width="512"><g fill="#0C2188"><path d="m406 240.99h-203.42l177.689-102.589c7.175-4.142 9.633-13.316 5.49-20.49l-45-77.942c-4.139-7.168-13.3-9.629-20.473-5.5l-45.927 26.431c.136-10.803-2.59-21.424-8.062-30.902-16.542-28.651-53.307-38.505-81.96-21.962-19.241 11.108-30.726 31.811-29.973 54.024l1.593 47.807s-39.762-24.782-39.767-24.786c-18.863-11.749-42.523-12.15-61.758-1.045-13.88 8.013-23.808 20.952-27.956 36.433-4.147 15.48-2.019 31.65 5.995 45.528 5.269 9.127 12.678 16.53 21.529 21.72l-46.483 26.751c-3.473 1.998-6.001 5.303-7.022 9.178-1.021 3.874-.449 7.996 1.587 11.447l46 77.942c4.181 7.086 13.292 9.481 20.418 5.366l22.5-12.99v191.579c0 8.284 6.716 15 15 15h300c8.284 0 15-6.716 15-15v-241c0-8.284-6.716-15-15-15zm-165 30h30v98.787l-4.394-4.393c-5.857-5.858-15.355-5.858-21.213 0l-4.393 4.393zm-41.663-236.973c14.326-8.27 32.708-3.344 40.98 10.981 7.888 13.663 3.863 31.531-8.624 40.457l-45.658 26.276-1.688-50.683c-.377-11.118 5.367-21.476 14.99-27.031zm-122.669 130.959c-7.74-2.074-14.209-7.038-18.216-13.978s-5.071-15.024-2.997-22.765c2.073-7.74 7.038-14.209 13.978-18.216 9.615-5.551 21.445-5.351 30.883.521.008.004.016.009.023.014l42.125 26.254-47.234 27.183c-5.895 2.289-12.341 2.654-18.562.987zm-10.302 120.016-30.74-52.087c30.786-17.718 256.921-147.86 286.643-164.964l30.011 51.98zm324.634 196.998h-270v-193.9l29.619-17.1h60.381v135c0 6.067 3.654 11.537 9.26 13.858 5.604 2.322 12.058 1.039 16.347-3.252l19.393-19.392 19.394 19.393c4.297 4.298 10.752 5.569 16.347 3.252 5.605-2.322 9.26-7.792 9.26-13.858v-135h90v210.999z" fill="#0C2188"></path><path d="m497 180.99h-15v-15c0-8.284-6.716-15-15-15s-15 6.716-15 15v15h-15c-8.284 0-15 6.716-15 15s6.716 15 15 15h15v15c0 8.284 6.716 15 15 15s15-6.716 15-15v-15h15c8.284 0 15-6.716 15-15s-6.716-15-15-15z" fill="#0C2188"></path><circle cx="436" cy="105.99" r="15" fill="#0C2188"></circle><circle cx="376" cy="195.99" r="15" fill="#0C2188"></circle></g></svg>