<svg xmlns:xlink="http://www.w3.org/1999/xlink" class="sub_menu_child_item mr-2" xmlns="http://www.w3.org/2000/svg" viewBox="0 0 64 64" width="512" height="512"><g id="Ebook" fill="#0C2188"><path d="M60,19H57V17a1,1,0,0,0-.684-.949L52,14.612V7a5.006,5.006,0,0,0-5-5H17a5.006,5.006,0,0,0-5,5v7.612L7.684,16.051A1,1,0,0,0,7,17v2H4a1,1,0,0,0-1,1V51a1,1,0,0,0,1,1h8v5a5.006,5.006,0,0,0,5,5H47a5.006,5.006,0,0,0,5-5V52h8a1,1,0,0,0,1-1V20A1,1,0,0,0,60,19ZM47,13.505a25.134,25.134,0,0,0-10.906,1.076L32,15.946l-4.094-1.365A25.134,25.134,0,0,0,17,13.505V8a1,1,0,0,1,1-1h6a1,1,0,0,1,1,1,3,3,0,0,0,3,3h8a3.043,3.043,0,0,0,2.15-.9A2.908,2.908,0,0,0,39,8.013a.976.976,0,0,1,.306-.725A.957.957,0,0,1,40,7h6a1,1,0,0,1,1,1ZM32.947,17.738l3.78-1.259a23.134,23.134,0,0,1,14.546,0L55,17.721V47.613l-3.094-1.032a25.163,25.163,0,0,0-15.812,0L33,47.612V18A.961.961,0,0,0,32.947,17.738ZM17,4H47a3,3,0,0,1,3,3v7.032c-.331-.082-.666-.137-1-.205V8a3,3,0,0,0-3-3H40a3.015,3.015,0,0,0-3,3.036.924.924,0,0,1-.272.661A1.029,1.029,0,0,1,36,9H28a1,1,0,0,1-1-1,3,3,0,0,0-3-3H18a3,3,0,0,0-3,3v5.827c-.334.068-.669.123-1,.205V7A3,3,0,0,1,17,4ZM9,17.721l3.727-1.242a23.134,23.134,0,0,1,14.546,0l3.78,1.259A.961.961,0,0,0,31,18V47.612l-3.094-1.031a25.168,25.168,0,0,0-15.812,0L9,47.613ZM47,60H17a3,3,0,0,1-3-3v-.026A4.948,4.948,0,0,0,17,58H47a4.948,4.948,0,0,0,3-1.026V57A3,3,0,0,1,47,60Zm3-7a3,3,0,0,1-3,3H17a3,3,0,0,1-3-3V52H50Zm9-3H5V21H7V49a1,1,0,0,0,1.316.949l4.411-1.47a23.134,23.134,0,0,1,14.546,0l4.411,1.47a1,1,0,0,0,.632,0l4.411-1.47a23.134,23.134,0,0,1,14.546,0l4.411,1.47A1.01,1.01,0,0,0,56,50a1,1,0,0,0,1-1V21h2Z" fill="#0C2188"></path><path d="M26.684,41.18a1,1,0,1,0,.632-1.9,25.146,25.146,0,0,0-15.811,0,1,1,0,1,0,.633,1.9A23.148,23.148,0,0,1,26.684,41.18Z" fill="#0C2188"></path><path d="M12.138,37.18a23.148,23.148,0,0,1,14.546,0,1,1,0,1,0,.632-1.9,25.146,25.146,0,0,0-15.811,0,1,1,0,1,0,.633,1.9Z" fill="#0C2188"></path><path d="M12.138,33.18a23.148,23.148,0,0,1,14.546,0,1,1,0,1,0,.632-1.9,25.146,25.146,0,0,0-15.811,0,1,1,0,1,0,.633,1.9Z" fill="#0C2188"></path><path d="M12.138,29.18a23.148,23.148,0,0,1,14.546,0,1,1,0,1,0,.632-1.9,25.146,25.146,0,0,0-15.811,0,1,1,0,0,0,.633,1.9Z" fill="#0C2188"></path><path d="M12.138,25.18a23.148,23.148,0,0,1,14.546,0,1,1,0,1,0,.632-1.9,25.146,25.146,0,0,0-15.811,0,1,1,0,0,0,.633,1.9Z" fill="#0C2188"></path><path d="M37.316,41.18a23.148,23.148,0,0,1,14.546,0,1,1,0,0,0,.633-1.9,25.146,25.146,0,0,0-15.811,0,1,1,0,1,0,.632,1.9Z" fill="#0C2188"></path><path d="M37.316,37.18a23.148,23.148,0,0,1,14.546,0,1,1,0,1,0,.633-1.9,25.146,25.146,0,0,0-15.811,0,1,1,0,1,0,.632,1.9Z" fill="#0C2188"></path><path d="M37.316,33.18a23.148,23.148,0,0,1,14.546,0,1,1,0,1,0,.633-1.9,25.146,25.146,0,0,0-15.811,0,1,1,0,1,0,.632,1.9Z" fill="#0C2188"></path><path d="M37.316,29.18a23.148,23.148,0,0,1,14.546,0,1,1,0,0,0,.633-1.9,25.146,25.146,0,0,0-15.811,0,1,1,0,1,0,.632,1.9Z" fill="#0C2188"></path><path d="M37.316,25.18a23.148,23.148,0,0,1,14.546,0,1,1,0,0,0,.633-1.9,25.146,25.146,0,0,0-15.811,0,1,1,0,1,0,.632,1.9Z" fill="#0C2188"></path><rect x="29" y="6" width="2" height="2" fill="#0C2188"></rect><rect x="33" y="6" width="2" height="2" fill="#0C2188"></rect><rect x="29" y="53" width="6" height="2" fill="#0C2188"></rect></g></svg>