<svg xmlns:xlink="http://www.w3.org/1999/xlink" class="menu_icon_child mr-2" xmlns="http://www.w3.org/2000/svg" id="Capa_1" enable-background="new 0 0 512.001 512.001" height="512" viewBox="0 0 512.001 512.001" width="512"><g fill="#0C2188"><circle cx="136" cy="346" r="15" fill="#0C2188"></circle><circle cx="76" cy="346" r="15" fill="#0C2188"></circle><circle cx="196" cy="346" r="15" fill="#0C2188"></circle><circle cx="346" cy="196" r="15" fill="#0C2188"></circle><circle cx="286" cy="196" r="15" fill="#0C2188"></circle><circle cx="406" cy="196" r="15" fill="#0C2188"></circle><path d="m346 31c-90.981 0-165 74.019-165 165 0 7.847.558 15.628 1.649 23.312-14.545-5.373-30.26-8.312-46.649-8.312-74.456 0-136 60.426-136 135 0 23.984 6.368 47.329 18.484 67.989l-17.528 46.744c-2.06 5.493-.729 11.682 3.406 15.842 4.15 4.175 10.336 5.521 15.821 3.501l47.78-17.589c20.672 12.135 44.034 18.513 68.037 18.513 74.439 0 135-60.561 135-135 0-1.042-.016-2.081-.04-3.117 23.107 11.809 48.867 18.117 75.04 18.117 30.566 0 60.188-8.419 86.167-24.421l59.334 23.377c5.578 2.198 11.964.869 16.202-3.447 4.219-4.297 5.459-10.7 3.15-16.262l-24.172-58.211c16.591-26.736 25.319-56.316 25.319-86.036 0-91.004-74.861-165-166-165zm-210 420c-20.656 0-40.714-6.09-58.005-17.612-3.993-2.661-9.01-3.246-13.5-1.594l-23.955 8.819 8.634-23.024c1.693-4.516 1.112-9.571-1.562-13.584-11.522-17.291-17.612-37.349-17.612-58.005 0-57.897 47.551-105 106-105 58.352 0 105 47.611 105 105 0 57.897-47.103 105-105 105zm319.939-164.768 13.638 32.841-33.599-13.237c-4.632-1.824-9.865-1.232-13.973 1.579-22.535 15.43-48.817 23.585-76.005 23.585-29.576 0-58.508-9.853-81.963-27.818-8.651-25.802-24.9-48.147-46.074-64.375-4.616-13.761-6.963-28.139-6.963-42.807 0-74.439 60.561-135 135-135 74.991 0 136 60.561 136 135 0 26.232-8.501 52.514-24.585 76.005-2.866 4.188-3.422 9.541-1.476 14.227z" fill="#0C2188"></path></g></svg>