<?xml version="1.0" encoding="UTF-8"?>
<svg xmlns="http://www.w3.org/2000/svg" xmlns:xlink="http://www.w3.org/1999/xlink" width="24pt" height="24pt" viewBox="0 0 24 24" version="1.1">
<g id="surface1">
<path style=" stroke:none;fill-rule:nonzero;fill:rgb(12.941176%,58.823529%,95.294118%);fill-opacity:1;" d="M 22 12 C 22 17.523438 17.523438 22 12 22 C 6.476562 22 2 17.523438 2 12 C 2 6.476562 6.476562 2 12 2 C 17.523438 2 22 6.476562 22 12 Z M 22 12 "/>
<path style=" stroke:none;fill-rule:nonzero;fill:rgb(100%,100%,100%);fill-opacity:1;" d="M 14.5 15.5 L 7 15.5 C 6.171875 15.5 5.5 14.828125 5.5 14 L 5.5 8.5 L 13 8.5 C 13.828125 8.5 14.5 9.171875 14.5 10 Z M 14.5 15.5 "/>
<path style=" stroke:none;fill-rule:nonzero;fill:rgb(100%,100%,100%);fill-opacity:1;" d="M 18.5 15.5 L 15.5 13.5 L 15.5 10.5 L 18.5 8.5 Z M 18.5 15.5 "/>
</g>
</svg>
