<svg id="Capa_1" enable-background="new 0 0 511.842 511.842" height="512" viewBox="0 0 511.842 511.842" width="512" xmlns="http://www.w3.org/2000/svg"><g><g><path d="m182.518 440.849-19.711 6.285c-45.076 14.372-94.285-1.823-122.015-40.156l-8.905-12.31c-4.639-6.413-11.481-10.888-19.215-12.57l-2.734-.594c-2.554-.555-3.304-3.836-1.246-5.446l20.27-15.855c13.817-10.807 30.028-18.138 47.268-21.376l28.611-5.373 135.356-25.102 7.723 106.619z" fill="#97da7b"/><path d="m89.615 409.344-8.905-12.31c-4.639-6.413-11.481-10.888-19.215-12.57l-2.734-.594c-2.554-.555-3.304-3.836-1.246-5.446l20.27-15.855c13.817-10.807 30.028-18.138 47.268-21.376l28.611-5.373 87.348-16.199-.816-11.269-135.356 25.102-28.611 5.373c-17.24 3.238-33.451 10.569-47.268 21.376l-20.27 15.855c-2.059 1.61-1.308 4.891 1.246 5.446l2.734.594c7.734 1.681 14.576 6.157 19.215 12.57l8.905 12.31c24.873 34.384 67.069 50.949 108.021 43.626-23.258-6.529-44.335-20.715-59.197-41.26z" fill="#80d261"/><g id="XMLID_247_"><g><path d="m433.851 93.277c1.74 14.61 1.26 29.4-1.41 43.87l-3.48 18.89-31.99 94.04s-110.55-63.92-112.93-65.08l45.3-86.17c25.16-24.85 58.47-39.76 93.76-41.96.14-.01.28-.01.42-.01 3.39 0 6.3 2.53 6.7 5.95z" fill="#fdd5d5"/></g></g><path d="m352.755 122.928c21.817-21.548 49.764-35.616 79.814-40.41l-2.348-19.711c-.4-3.42-3.31-5.95-6.7-5.95-.14 0-.28 0-.42.01-35.29 2.2-68.6 17.11-93.76 41.96l-45.3 86.17c.752.366 12.294 6.994 27.732 15.888z" fill="#f9b1b1"/><path d="m181.498 98.826c-25.159-24.851-58.463-39.755-93.758-41.958-3.573-.223-6.699 2.383-7.122 5.938l-3.626 30.469c-1.739 14.611-1.265 29.401 1.406 43.872l3.487 18.895 26.562 96.459 126.618-104.106z" fill="#fdd5d5"/><path d="m112.613 174.291-3.487-18.895c-2.671-14.47-3.145-29.26-1.406-43.872l3.626-30.469c.423-3.555 3.549-6.161 7.122-5.938 17.289 1.079 34.097 5.213 49.708 12.064-23.069-17.842-51.061-28.48-80.436-30.314-3.573-.223-6.699 2.383-7.122 5.938l-3.626 30.469c-1.739 14.611-1.265 29.401 1.406 43.872l3.487 18.895 26.562 96.459 20.958-17.232z" fill="#f9b1b1"/><g><path d="m349.035 447.134c45.076 14.372 94.285-1.823 122.015-40.156l8.905-12.31c4.639-6.413 11.481-10.888 19.215-12.57l2.734-.594c2.554-.555 3.304-3.836 1.246-5.446l-20.27-15.855c-13.817-10.807-30.028-18.138-47.268-21.376l-28.612-5.373-107.463-20.369-23.76 113.975z" fill="#97da7b"/><path d="m391.548 421.707c-14.354-3.933-22.943-18.78-18.908-33.105 1.731-6.144 3.168-12.398 4.298-18.742l2.581-14.489 4.91-26.194-84.891-16.091-23.76 113.975 73.258 20.073c38.819 12.377 80.728 2.06 109.319-25.519-21.206 6.812-44.529 7.195-66.807.092z" fill="#80d261"/><path d="m359.845 351.771-2.597 14.582c-8.89 49.913-38.841 93.582-82.203 119.852l-5.847 3.542c-8.468 5.13-19.085 5.13-27.553 0l-5.847-3.542c-43.362-26.27-73.314-69.938-82.203-119.852l-2.597-14.582-13.565-78.234h237.076z" fill="#97da7b"/><path d="m288.37 474.748-5.847-3.542c-43.362-26.269-73.314-69.938-82.203-119.852l-2.597-14.581-10.964-63.236h-49.326l13.565 78.234 2.597 14.582c8.89 49.913 38.841 93.582 82.203 119.852l5.847 3.542c8.468 5.13 19.085 5.13 27.553 0l5.847-3.542c5.299-3.21 10.405-6.686 15.29-10.395-.662-.33-1.327-.675-1.965-1.062z" fill="#80d261"/><g><path d="m500.901 155.087v24.41c0 95.14-77.13 172.27-172.27 172.27h-146.42c-95.14 0-172.27-77.13-172.27-172.27v-24.41c0-5.38 6.02-8.55 10.45-5.51l2.69 1.84c4.39 3.01 9.59 4.62 14.91 4.62h43.89c24.96 0 49.36 7.32 70.2 21.04l60.62 36.1 42.72 56.42 73.9-66.82 29.44-25.7c20.84-13.72 45.24-21.04 70.2-21.04h43.89c5.32 0 10.52-1.61 14.91-4.62l2.69-1.84c4.43-3.04 10.45.13 10.45 5.51z" fill="#f9b1b1"/></g><g id="XMLID_246_"><g><path d="m377.418 337.392h-42.225c-6.025 0-9.149-7.141-5.097-11.6 23.944-26.344 40.26-59.133 46.726-95.319 3.819-21.375 3.993-42.828.757-63.613-6.518 2.867-12.819 6.267-18.819 10.217l-29.44 25.7-73.9 66.82-42.72-56.42-60.62-36.1c-5.999-3.95-12.301-7.35-18.819-10.217-3.236 20.785-3.062 42.238.757 63.613 5.02 28.097 15.982 54.144 31.838 76.715 5.103 7.264-2.771 16.535-10.738 12.62-57.092-28.056-96.391-86.779-96.391-154.687v-9.085h-20.736c-5.32 0-10.52-1.61-14.91-4.62l-2.69-1.84c-4.43-3.04-10.45.13-10.45 5.51v24.41c0 95.142 77.128 172.27 172.27 172.27h146.42c25.948 0 50.551-5.749 72.621-16.024-7.792 1.08-15.746 1.65-23.834 1.65z" fill="#f79595"/><path d="m316.661 82.667c73.48 83.15 50.27 213.07-47.46 265.63-4.3 2.32-9.04 3.47-13.78 3.47s-9.48-1.15-13.78-3.47c-97.73-52.56-120.94-182.48-47.46-265.63l54.11-61.22c3.79-4.29 10.47-4.29 14.26 0z" fill="#f9c6c6"/></g></g><path d="m251.562 82.667 32.549-36.826-21.561-24.394c-3.79-4.29-10.47-4.29-14.26 0l-54.11 61.22c-73.48 83.15-50.27 213.07 47.46 265.63 4.3 2.32 9.04 3.47 13.78 3.47s9.48-1.15 13.78-3.47c5.186-2.789 10.148-5.808 14.911-9.014-84.996-57.214-102.13-177.878-32.549-256.616z" fill="#f9b1b1"/></g></g><g><path d="m442.309 204.348-8.425 21.531c-1.509 3.857.394 8.208 4.251 9.717.897.351 1.822.518 2.731.518 2.997 0 5.828-1.809 6.986-4.769l8.425-21.531c1.509-3.857-.394-8.208-4.251-9.717-3.855-1.508-8.208.394-9.717 4.251z"/><path d="m58.816 200.097c-3.857 1.509-5.761 5.86-4.251 9.717l8.425 21.531c1.158 2.96 3.989 4.769 6.986 4.769.909 0 1.833-.167 2.731-.518 3.857-1.509 5.761-5.86 4.251-9.717l-8.425-21.531c-1.509-3.857-5.858-5.76-9.717-4.251z"/><path d="m507.77 370.151-20.27-15.854c-14.7-11.498-32.164-19.396-50.505-22.84l-9.611-1.805c12.299-8.076 23.666-17.677 33.762-28.685 2.8-3.053 2.595-7.797-.458-10.597-3.053-2.799-7.796-2.594-10.597.458-31.148 33.964-75.42 53.443-121.465 53.443h-2.843c46.374-14.144 86.108-45.733 110.204-88.06 2.049-3.6.792-8.179-2.808-10.229-3.6-2.048-8.179-.792-10.229 2.808-24.01 42.176-64.868 72.796-112.097 84.008l-8.176 1.941c32.309-26.804 54.279-64.151 61.839-106.468 2.831-15.849 3.511-31.742 2.168-47.335 18.788-11.393 40.22-17.395 62.271-17.395h43.892c6.867 0 13.49-2.053 19.154-5.937l1.399-.959v22.851c0 30.739-8.528 60.732-24.663 86.737-2.184 3.52-1.101 8.144 2.419 10.327 1.231.764 2.597 1.128 3.947 1.128 2.509 0 4.96-1.258 6.38-3.547 17.609-28.382 26.917-61.11 26.917-94.646v-24.412c0-5.277-2.9-10.083-7.569-12.543s-10.274-2.135-14.626.851l-2.687 1.842c-3.155 2.164-6.846 3.307-10.671 3.307h-34.881l1.852-10.034c2.811-15.226 3.308-30.743 1.478-46.119l-3.626-30.468c-.892-7.501-7.487-13.005-15.037-12.538-34.222 2.136-66.648 15.633-92.232 38.211-2.584-3.373-5.283-6.679-8.125-9.895l-4.787-5.417c-2.744-3.104-7.484-3.398-10.586-.654-3.104 2.743-3.396 7.483-.654 10.586l4.787 5.417c33.499 37.904 47.609 88.204 38.713 138.001-8.896 49.798-39.55 92.101-84.101 116.062-.888.477-1.801.882-2.729 1.227v-232.119c0-4.142-3.358-7.5-7.5-7.5s-7.5 3.358-7.5 7.5v232.121c-.929-.345-1.842-.75-2.729-1.227-23.19-12.472-42.459-29.622-57.271-50.972-2.36-3.403-7.033-4.248-10.437-1.887-3.403 2.361-4.249 7.034-1.887 10.437 9.273 13.367 20.154 25.21 32.512 35.454l-8.121-1.928c-47.228-11.212-88.086-41.832-112.096-84.008-2.049-3.6-6.628-4.856-10.229-2.808-3.6 2.049-4.856 6.629-2.808 10.229 24.096 42.327 63.83 73.916 110.204 88.06h-2.843c-90.857 0-164.775-73.917-164.775-164.774v-22.851l1.399.959c5.664 3.883 12.287 5.936 19.154 5.936h43.892c22.063 0 43.508 6.008 62.303 17.414-2.62 30.346 2.445 60.884 14.864 88.882 1.241 2.798 3.984 4.461 6.86 4.461 1.016 0 2.049-.208 3.037-.646 3.787-1.68 5.494-6.111 3.815-9.897-12.574-28.346-16.959-59.527-12.681-90.174 4.447-31.857 18.182-61.579 39.721-85.949l54.104-61.219c.498-.563 1.098-.682 1.513-.682s1.015.118 1.513.682l28.111 31.808c2.742 3.103 7.481 3.396 10.586.653 3.104-2.743 3.396-7.482.653-10.586l-28.111-31.808c-3.229-3.653-7.876-5.748-12.752-5.748s-9.523 2.095-12.752 5.748l-54.104 61.219c-2.838 3.211-5.549 6.51-8.136 9.886-25.583-22.573-58.005-36.066-92.222-38.202-7.533-.474-14.144 5.036-15.036 12.537l-3.626 30.469c-1.83 15.376-1.333 30.893 1.478 46.119l1.852 10.034h-34.88c-3.826 0-7.516-1.144-10.671-3.307l-2.688-1.843c-4.353-2.984-9.957-3.31-14.626-.85-4.668 2.459-7.569 7.266-7.569 12.543v24.412c0 62.779 32.354 118.135 81.256 150.298l-8.85 1.662c-18.341 3.444-35.805 11.342-50.505 22.84l-20.27 15.854c-3.267 2.556-4.722 6.655-3.797 10.698s4.017 7.103 8.071 7.984l2.733.594c5.938 1.292 11.17 4.714 14.731 9.637l8.905 12.31c22.458 31.045 57.886 48.475 94.704 48.473 11.873 0 23.894-1.813 35.666-5.567l17.38-5.541c13.553 17.308 30.232 32.24 49.447 43.88l5.847 3.542c5.447 3.3 11.555 4.95 17.663 4.95s12.215-1.65 17.663-4.95l5.847-3.542c19.309-11.698 36.059-26.719 49.648-44.135l18.18 5.796c11.775 3.754 23.791 5.567 35.666 5.567 36.814-.001 72.247-17.43 94.704-48.473l8.905-12.31c3.562-4.923 8.793-8.346 14.73-9.637l2.735-.595c4.053-.881 7.146-3.94 8.07-7.983s-.531-8.142-3.799-10.698zm-168.688-270.196c23.104-20.889 52.596-33.449 83.778-35.555l3.542 29.761c1.651 13.878 1.203 27.882-1.334 41.624l-2.384 12.919c-20.414.943-40.212 6.471-58.117 16.192-4.105-22.991-12.709-45.027-25.485-64.941zm-254.643-5.794 3.542-29.762c31.178 2.107 60.674 14.656 83.776 35.54-12.693 19.784-21.354 41.79-25.48 64.96-17.906-9.723-37.705-15.252-58.12-16.195l-2.384-12.919c-2.536-13.742-2.985-27.746-1.334-41.624zm76.089 345.827c-42.092 13.42-87.766-1.613-113.66-37.407l-8.905-12.309c-4.504-6.227-10.669-10.961-17.742-13.71l13.361-10.451c12.816-10.024 28.042-16.91 44.032-19.913l26.238-4.927c12.626 6.141 26.075 10.838 40.131 13.894l2.227 12.502c4.384 24.617 13.694 47.779 27.068 68.256zm110.63 39.801-5.847 3.542c-6.101 3.695-13.68 3.695-19.78 0l-5.847-3.542c-41.509-25.147-70.196-66.973-78.706-114.752l-1.278-7.173c7.377.926 14.891 1.407 22.515 1.407h146.411c7.565 0 15.085-.491 22.52-1.436l-1.283 7.203c-8.509 47.779-37.196 89.604-78.705 114.751zm202.721-89.517-8.905 12.31c-25.893 35.794-71.568 50.825-113.66 37.407l-13.576-4.328c13.281-20.412 22.528-43.482 26.893-67.993l2.235-12.548c13.97-3.056 27.51-7.767 40.329-13.997l27.032 5.076c15.99 3.003 31.216 9.889 44.032 19.913l13.361 10.451c-7.072 2.748-13.237 7.483-17.741 13.709z"/></g></g></svg>