<svg xmlns:xlink="http://www.w3.org/1999/xlink" xmlns="http://www.w3.org/2000/svg" id="Layer_1" data-name="Layer 1" viewBox="0 0 512 512" width="512" height="512"><title>college map location</title><path d="M333.124,140.687l-75-31.228a6,6,0,0,0-4.613,0l-75,31.228a6,6,0,0,0,0,11.078l25.654,10.681v29.4a6,6,0,0,0,6,6h3.249c10.471,0,21.813,10.349,29.317,17.2,5.62,5.128,8.715,7.953,12.556,7.953,3.806,0,6.708-2.661,12.489-7.962,7.465-6.844,18.746-17.189,28.855-17.189h3.86a6,6,0,0,0,6-6V162.854l4.957-2.064v16.715a6,6,0,0,0,12,0V155.793l9.676-4.028a6,6,0,0,0,0-11.078ZM255.817,121.5l59.391,24.729-49.579,20.642c-5.226,2.178-14.4,2.176-19.625,0l-49.577-20.642Zm38.674,64.43c-13.922,1.094-26.418,12.552-34.825,20.26-1.454,1.333-3.139,2.877-4.405,3.937-1.274-1.059-2.974-2.609-4.441-3.947-8.331-7.6-20.662-18.856-34.655-20.2V167.443l25.227,10.5a42.435,42.435,0,0,0,28.85,0l24.249-10.1Z" fill="#0C2188"></path><path d="M441.378,296.68a6,6,0,0,0-5.727-4.212h-101.9l34.618-46.279c21.435-28.58,31.977-62.944,29.686-96.749A147.427,147.427,0,0,0,355.6,55.006a138.546,138.546,0,0,0-196.4,0,147.418,147.418,0,0,0-42.453,94.425c-2.208,33.116,8.318,67.456,29.68,96.752l34.623,46.285H81.937a6,6,0,0,0-5.679,4.063L10.321,489.872A6,6,0,0,0,16,497.809H496a6,6,0,0,0,5.728-7.788Zm7.394,63.961H355.564l-8.988-56.173h84.662ZM128.716,150.22a135.417,135.417,0,0,1,38.99-86.753,126.542,126.542,0,0,1,179.382,0,135.427,135.427,0,0,1,38.991,86.769c2.1,30.953-7.6,62.473-27.317,88.759L257.4,374.505,156.075,239.054C136.411,212.087,126.7,180.542,128.716,150.22ZM86.23,304.468H190.021l62.571,83.647a6,6,0,0,0,9.61,0l62.57-83.647h9.651l10.1,63.121a6,6,0,0,0,5.925,5.052h102.07l15.091,48.348H255.8a6,6,0,0,0-6,6v58.82H180.233l5.482-97.038a6,6,0,0,0-5.99-6.338H59.641ZM55.548,394.433H173.376l-5.162,91.376H24.386ZM261.8,485.809v-52.82H471.355l16.487,52.82Z" fill="#0C2188"></path><path d="M360.182,157.818A104.182,104.182,0,1,0,256,262,104.3,104.3,0,0,0,360.182,157.818ZM256,250a92.182,92.182,0,1,1,92.182-92.182A92.287,92.287,0,0,1,256,250Z" fill="#0C2188"></path></svg>