<svg xmlns:xlink="http://www.w3.org/1999/xlink" xmlns="http://www.w3.org/2000/svg" id="Capa_1" enable-background="new 0 0 511.969 511.969" height="512" viewBox="0 0 511.969 511.969" width="512"><g fill="#0C2188"><path d="m507.698 91.522c-2.634-1.521-5.907-1.521-8.543 0-63.24 36.511-44.487 25.684-108.549 62.67-3.5 2.021-4.99 6.102-3.949 9.737l-36.62 21.095c-10.445 6.03-23.423 6.03-33.87-.002l-34.034-19.65c-15.265-8.815-34.234-8.814-49.5 0l-46.703 26.964c-8.003-.518-15.867-2.899-22.866-6.938l-37.688-21.719c.909-3.61-.634-7.537-4.013-9.487l-41.339-23.867c-3.588-2.07-8.174-.843-10.245 2.745-2.071 3.587-.842 8.174 2.745 10.245l3.658 2.112-33.762 58.478c-2.071 3.587-.842 8.174 2.745 10.245 3.571 2.061 8.165.858 10.245-2.745l33.762-58.478 19.098 11.027-65.171 112.881-28.099-16.223v-150.508l26.328 15.2c3.586 2.069 8.174.842 10.245-2.745s.842-8.174-2.745-10.245l-36.015-20.792c-2.635-1.521-5.908-1.521-8.543 0-2.634 1.521-4.27 4.356-4.27 7.398v165.42c0 3.039 1.634 5.872 4.271 7.398l36.917 21.314c1.317.761 2.778 1.149 4.26 1.149 2.138 0 4.326-.812 5.976-2.423l26.263 15.135c-3.111 7.339-2.715 15.689 1.378 22.781l6.8 11.778c4.122 7.141 11.111 11.512 18.733 12.545-.812 5.497.152 11.293 3.14 16.468l6.8 11.777c5.803 10.053 17.505 14.715 28.332 11.998.219 3.942 1.361 7.807 3.393 11.326l6.8 11.778c3.41 5.906 8.915 10.131 15.502 11.896 5.554 1.49 11.482 1.113 16.928-1.306.334 3.623 1.451 7.163 3.325 10.408l6.8 11.778c3.41 5.906 8.916 10.131 15.502 11.896 6.567 1.761 13.454.867 19.374-2.551l12.603-7.276c3.365-1.943 6.299-4.423 8.713-7.324l26.587 15.35c5.993 3.461 12.955 4.337 19.606 2.488 6.658-1.852 12.166-6.203 15.509-12.254l6.577-11.907c1.727-3.126 2.72-6.479 3.036-9.849l3.82 2.206c5.985 3.455 12.947 4.339 19.606 2.487 6.658-1.852 12.165-6.203 15.508-12.253l6.577-11.907c2.011-3.642 3.026-7.589 3.137-11.516 10.078 1.824 21.002-2.607 26.641-12.374l6.801-11.778c2.761-4.781 3.794-10.095 3.294-15.212 1.777-.12 3.558-.429 5.316-.928 6.699-1.903 12.207-6.329 15.507-12.463l6.445-11.98c4.756-8.84 3.848-19.135-1.559-26.787l25.836-14.952c2.592 2.998 7.073 3.904 10.724 1.797l24.698-14.26.551.954c1.915 3.319 5.857 4.988 9.609 3.981 3.729-.999 6.332-4.392 6.332-8.251v-176.557c.001-3.042-1.636-5.877-4.27-7.398zm-10.729 18.583v141.272l-61.174-105.955zm-398.113 223.867-6.8-11.778c-2.423-4.197-1.614-9.314 1.531-12.571 2.031-2.051 1.697-1.281 30.29-17.96 2.723-1.571 5.698-2.318 8.636-2.318 5.994 0 11.832 3.108 15.038 8.662 4.778 8.275 1.932 18.896-6.344 23.675-2.888 1.668-25.695 14.835-27.966 16.146-2.436 1.407-5.272 1.78-7.99 1.052-2.718-.729-4.988-2.471-6.395-4.908zm28.673 40.79-6.8-11.777c-2.903-5.028-1.174-11.482 3.854-14.386 10.903-6.295 7.009-4.047 19.023-10.983 8.277-4.762 18.882-1.913 23.654 6.355 4.778 8.276 1.932 18.896-6.343 23.675l-19.003 10.972c-5.028 2.904-11.481 1.175-14.385-3.856zm44.919 40.009c-2.717-.728-4.988-2.47-6.395-4.906l-6.8-11.778c-1.406-2.436-1.78-5.274-1.052-7.991.727-2.715 2.468-4.985 4.902-6.391.142-.082-1.064.614 17.728-10.236 8.242-4.757 18.875-1.968 23.675 6.344 4.778 8.275 1.932 18.896-6.344 23.675l-17.724 10.232c-2.435 1.405-5.274 1.779-7.99 1.051zm63.149 24.447-12.603 7.276c-2.437 1.406-5.274 1.78-7.991 1.052s-4.988-2.471-6.395-4.906l-6.8-11.778c-1.406-2.437-1.78-5.274-1.052-7.991s2.47-4.987 4.906-6.394l12.603-7.276c4.017-2.319 8.687-2.929 13.151-1.731 4.471 1.198 8.208 4.065 10.523 8.075 4.798 8.306 1.941 18.892-6.342 23.673zm233.611-162.579c-.37-.542-.801-1.021-1.278-1.434l-13.264-22.975c-2.07-3.588-6.66-4.814-10.245-2.745-3.587 2.071-4.816 6.658-2.745 10.245l10.746 18.613-30.851 17.854-56.571-32.66c-3.589-2.071-8.175-.843-10.245 2.745-2.071 3.587-.842 8.174 2.745 10.245 6.51 3.759 55.197 31.868 61.061 35.253 4.962 2.865 6.723 9.062 4.008 14.108l-6.445 11.98c-1.361 2.53-3.633 4.355-6.396 5.141-2.765.787-5.657.427-8.144-1.011-35.722-20.63-14.698-8.482-60.493-34.922-3.589-2.07-8.175-.843-10.245 2.745-2.071 3.587-.842 8.174 2.745 10.245l54.865 31.676c4.962 2.927 6.656 9.336 3.77 14.335l-6.801 11.778c-1.406 2.437-3.677 4.179-6.394 4.906-2.716.728-5.555.354-7.991-1.052-33.829-19.531-19.345-11.168-54.779-31.627-3.586-2.07-8.175-.843-10.245 2.745-2.071 3.587-.842 8.174 2.745 10.245 6.303 3.639 36.49 21.069 42.793 24.708 4.935 2.85 6.708 9.225 3.953 14.212l-6.576 11.906c-1.379 2.495-3.65 4.29-6.397 5.054-2.745.766-5.617.4-8.087-1.025l-20.111-11.611c-.007-.004-.015-.009-.022-.013-.315-.182-20.17-11.645-20.521-11.848l-2.507-1.447c-3.589-2.071-8.175-.843-10.245 2.745-2.071 3.587-.842 8.174 2.745 10.245 4.791 2.766 14.164 8.178 19.222 11.098 4.935 2.849 6.707 9.224 3.952 14.212l-6.577 11.906c-1.378 2.496-3.65 4.291-6.396 5.055-2.747.766-5.617.4-8.087-1.026l-27.446-15.843c1.828-7.98.593-16.228-3.523-23.356-4.318-7.479-11.29-12.829-19.632-15.064-4.547-1.218-9.204-1.431-13.711-.674.808-6.703-.464-13.711-4.091-19.994-6.893-11.938-20.302-17.819-33.167-15.751 1.943-15.725-7.809-30.556-23.116-34.971 4.909-9.473 5.045-21.178-.674-31.083-8.914-15.438-28.725-20.748-44.165-11.834-30.332 17.513-28.2 16.273-28.782 16.638l-28.395-16.364 58.957-102.116 37.413 21.562c3.526 2.035 7.225 3.742 11.04 5.106-6.906 4.263-9.221 13.305-5.136 20.377l2.445 4.234c12.319 21.338 39.704 28.675 61.045 16.356l10.716-6.186c1.606-.928 3.638-.676 4.83.6 7.429 7.954 17.93 12.516 28.809 12.516 10.032 0 19.453-3.722 26.671-10.383l30.581 17.656c3.583 2.067 8.172.847 10.245-2.745 2.071-3.587.842-8.174-2.745-10.245l-29.122-16.814c1.113-2.346 1.991-4.804 2.625-7.358.998-4.021-1.452-8.089-5.472-9.087-4.023-.999-8.089 1.451-9.087 5.472-.815 3.286-2.284 6.314-4.365 9.004-.025.032-.051.065-.075.098-4.669 5.977-11.682 9.403-19.256 9.403-6.838 0-13.176-2.754-17.847-7.754-6-6.425-15.576-7.804-23.291-3.353l-10.715 6.186c-14.178 8.186-32.373 3.312-40.556-10.865l-2.445-4.235c-.023-.041-.009-.094.032-.117 7.857-4.536 57.776-33.356 65.637-37.896 10.64-6.145 23.859-6.145 34.5 0l34.034 19.65c15.072 8.701 33.796 8.703 48.862.007l36.408-20.973 30.205 52.314c2.082 3.605 6.675 4.806 10.245 2.745 3.587-2.071 4.816-6.658 2.745-10.245l-32.722-56.675c-.091-.474-.229-.944-.416-1.403l18.811-10.861 65.172 112.881z" fill="#0C2188"></path><path d="m170.422 104.92 8.785 4.393c10.004 5.002 18.268 13.267 23.271 23.271l4.392 8.784c1.469 2.938 4.421 4.763 7.705 4.763 3.281 0 6.237-1.822 7.705-4.763l4.393-8.784c5.002-10.005 13.267-18.27 23.271-23.271l8.785-4.393c2.936-1.468 4.761-4.418 4.762-7.7.001-3.285-1.822-6.239-4.763-7.71l-8.784-4.392c-10.004-5.002-18.268-13.267-23.271-23.271l-4.393-8.785c-1.468-2.937-4.419-4.761-7.703-4.762-3.293 0-6.24 1.83-7.708 4.763l-4.392 8.784c-5.002 10.005-13.267 18.27-23.27 23.271l-8.789 4.394c-2.937 1.471-4.76 4.424-4.759 7.709.003 3.282 1.828 6.234 4.763 7.699zm81.602-13.419c-.001 0-.004.002-.007.004.003-.002.005-.002.007-.004zm-37.449-20.445c6.071 10.938 15.219 20.087 26.158 26.158-10.938 6.072-20.087 15.221-26.158 26.159-6.071-10.938-15.22-20.087-26.158-26.158 10.938-6.072 20.087-15.219 26.158-26.159z" fill="#0C2188"></path><path d="m280.759 125.461 7.32 3.66c8.097 4.049 14.785 10.736 18.834 18.832l3.662 7.326c1.438 2.871 4.326 4.655 7.537 4.655s6.1-1.784 7.539-4.66l3.66-7.32c4.049-8.097 10.737-14.784 18.834-18.833.106-.053 7.427-3.714 7.324-3.662 2.871-1.438 4.655-4.326 4.655-7.537s-1.784-6.1-4.659-7.539l-7.32-3.66c-8.097-4.049-14.785-10.737-18.834-18.834l-3.662-7.324c-1.438-2.871-4.326-4.655-7.537-4.655s-6.1 1.784-7.539 4.659l-3.66 7.32c-4.049 8.097-10.737 14.785-18.834 18.834l-7.324 3.662c-2.871 1.438-4.655 4.326-4.655 7.537s1.784 6.1 4.659 7.539zm37.353-26.849c4.772 7.867 11.443 14.538 19.311 19.311-7.866 4.772-14.538 11.443-19.311 19.31-4.772-7.865-11.444-14.537-19.311-19.31 7.868-4.773 14.539-11.444 19.311-19.311z" fill="#0C2188"></path></g></svg>