<svg xmlns:xlink="http://www.w3.org/1999/xlink" xmlns="http://www.w3.org/2000/svg" id="Line" viewBox="0 0 64 64" width="512" height="512"><path d="M60,22.41992V11a7.00818,7.00818,0,0,0-7-7H11a7.00818,7.00818,0,0,0-7,7V22.41992a1,1,0,0,0,2,0V11a5.00588,5.00588,0,0,1,5-5H31V58H11a5.00588,5.00588,0,0,1-5-5V41.58008a1,1,0,0,0-2,0V53a7.00818,7.00818,0,0,0,7,7H53a7.00818,7.00818,0,0,0,7-7V41.58008a1,1,0,0,0-2,0V53a5.00588,5.00588,0,0,1-5,5H33V6H53a5.00588,5.00588,0,0,1,5,5V22.41992a1,1,0,1,0,2,0Z" fill="#0C2188"></path><path d="M15.81836,22.48926A.99989.99989,0,1,0,14.4043,21.0752L6.59473,28.88477a4.41052,4.41052,0,0,0,0,6.23046L14.4043,42.9248a.99989.99989,0,1,0,1.41406-1.41406L8.00879,33.70117A2.37955,2.37955,0,0,1,7.53094,33h20.348a1,1,0,1,0,0-2H7.53094a2.37955,2.37955,0,0,1,.47785-.70117Z" fill="#0C2188"></path><path d="M48.18164,41.51074A.99989.99989,0,1,0,49.5957,42.9248l7.80957-7.80957a4.41052,4.41052,0,0,0,0-6.23046L49.5957,21.0752a.99989.99989,0,0,0-1.41406,1.41406l7.80957,7.80957A2.37955,2.37955,0,0,1,56.46906,31h-20.348a1,1,0,0,0,0,2h20.348a2.37955,2.37955,0,0,1-.47785.70117Z" fill="#0C2188"></path></svg>