<svg xmlns:xlink="http://www.w3.org/1999/xlink" xmlns="http://www.w3.org/2000/svg" height="512" viewBox="0 0 74 74" width="512"><g id="Numbers" fill="#0C2188"><text font-family="ArialMT, Arial" font-size="18" transform="translate(30.995 -141.877)" fill="#0C2188">1<tspan letter-spacing="-.074em" x="-4.337" y="124" fill="#0C2188">1</tspan><tspan x="4.337" y="124" fill="#0C2188">1</tspan><tspan x="-5.005" y="248" fill="#0C2188">21</tspan><tspan x="-5.005" y="372" fill="#0C2188">31</tspan><tspan x="-5.005" y="496" fill="#0C2188">41</tspan><tspan x="-5.005" y="620" fill="#0C2188">51</tspan><tspan x="-5.005" y="744" fill="#0C2188">61</tspan><tspan x="-5.005" y="868" fill="#0C2188">71</tspan><tspan x="-5.005" y="992" fill="#0C2188">81</tspan><tspan x="-5.005" y="1116" fill="#0C2188">91</tspan><tspan x="-10.011" y="1240" fill="#0C2188">101</tspan><tspan letter-spacing="-.074em" x="-8.675" y="1364" fill="#0C2188">11</tspan><tspan x="8.675" y="1364" fill="#0C2188">1</tspan><tspan x="-10.011" y="1488" fill="#0C2188">121</tspan><tspan x="-10.011" y="1612" fill="#0C2188">131</tspan><tspan x="-10.011" y="1736" fill="#0C2188">141</tspan><tspan x="-10.011" y="1860" fill="#0C2188">151</tspan><tspan x="-10.011" y="1984" fill="#0C2188">161</tspan><tspan x="-10.011" y="2108" fill="#0C2188">171</tspan><tspan x="-10.011" y="2232" fill="#0C2188">181</tspan><tspan x="-10.011" y="2356" fill="#0C2188">191</tspan><tspan x="-10.011" y="2480" fill="#0C2188">201</tspan><tspan x="-9.343" y="2604" fill="#0C2188">2</tspan><tspan letter-spacing="-.074em" x=".668" y="2604" fill="#0C2188">1</tspan><tspan x="9.343" y="2604" fill="#0C2188">1</tspan><tspan x="-10.011" y="2728" fill="#0C2188">221</tspan><tspan x="-10.011" y="2852" fill="#0C2188">231</tspan><tspan x="-10.011" y="2976" fill="#0C2188">241</tspan><tspan x="-10.011" y="3100" fill="#0C2188">251</tspan><tspan x="-10.011" y="3224" fill="#0C2188">261</tspan><tspan x="-10.011" y="3348" fill="#0C2188">271</tspan><tspan x="-10.011" y="3472" fill="#0C2188">281</tspan><tspan x="-10.011" y="3596" fill="#0C2188">291</tspan></text></g><g id="Icons" fill="#0C2188"><path d="m19.409 72a1 1 0 0 1 -.96-1.282l14.063-47.818a1 1 0 0 1 1.919.564l-14.063 47.818a1 1 0 0 1 -.959.718z" fill="#0C2188"></path><path d="m54.591 72a1 1 0 0 1 -.959-.718l-14.063-47.817a1 1 0 0 1 1.919-.564l14.063 47.817a1 1 0 0 1 -.96 1.282z" fill="#0C2188"></path><path d="m37 25.435a6.585 6.585 0 1 1 6.585-6.585 6.592 6.592 0 0 1 -6.585 6.585zm0-11.17a4.585 4.585 0 1 0 4.585 4.585 4.59 4.59 0 0 0 -4.585-4.585z" fill="#0C2188"></path><path d="m50.213 57.13a.989.989 0 0 1 -.488-.13l-13.148-7.374a.879.879 0 0 1 -.087-.043l-9.458-5.309a1 1 0 1 1 .979-1.744l9.382 5.27c.029.013.058.027.086.043l13.221 7.415a1 1 0 0 1 -.49 1.872z" fill="#0C2188"></path><path d="m27.708 43.792a1 1 0 0 1 -.621-1.784l15.077-11.931a1 1 0 0 1 1.241 1.569l-15.077 11.93a.99.99 0 0 1 -.62.216z" fill="#0C2188"></path><path d="m20.981 66.651a1 1 0 0 1 -.294-1.956l29.366-9.075a1 1 0 0 1 .591 1.911l-29.367 9.075a1.008 1.008 0 0 1 -.296.045z" fill="#0C2188"></path><path d="m53.019 66.661a1.008 1.008 0 0 1 -.3-.045l-29.363-9.075a1 1 0 0 1 .59-1.911l29.367 9.075a1 1 0 0 1 -.294 1.956z" fill="#0C2188"></path><path d="m23.787 57.109a1 1 0 0 1 -.49-1.872l13.193-7.4c.03-.017.059-.031.089-.045l9.4-5.284a1 1 0 1 1 .98 1.743l-9.478 5.33c-.03.016-.06.031-.091.045l-13.115 7.355a.989.989 0 0 1 -.488.128z" fill="#0C2188"></path><path d="m46.3 43.823a1 1 0 0 1 -.62-.216l-15.1-11.951a1 1 0 1 1 1.24-1.569l15.1 11.953a1 1 0 0 1 -.622 1.783z" fill="#0C2188"></path><path d="m62.49 11.55a1 1 0 0 1 -.935-.647 20.263 20.263 0 0 0 -4.662-7.2 1 1 0 0 1 1.414-1.414 22.244 22.244 0 0 1 5.119 7.9 1 1 0 0 1 -.936 1.354z" fill="#0C2188"></path><path d="m57.6 34.45a1 1 0 0 1 -.709-1.705 20.456 20.456 0 0 0 4.034-5.72 1 1 0 0 1 1.81.85 22.432 22.432 0 0 1 -4.426 6.28.994.994 0 0 1 -.709.295z" fill="#0C2188"></path><path d="m63.792 21.45c-.036 0-.07 0-.105 0a1 1 0 0 1 -.892-1.1 20.545 20.545 0 0 0 .1-2.766 1 1 0 0 1 .969-1.031.985.985 0 0 1 1.03.969 22.553 22.553 0 0 1 -.114 3.035 1 1 0 0 1 -.988.893z" fill="#0C2188"></path><path d="m52.671 29.527a1 1 0 0 1 -.707-1.707 13.584 13.584 0 0 0 0-19.187 1 1 0 0 1 1.414-1.414 15.586 15.586 0 0 1 0 22.015 1 1 0 0 1 -.707.293z" fill="#0C2188"></path><path d="m47.745 24.6a1 1 0 0 1 -.707-1.707 6.608 6.608 0 0 0 0-9.334 1 1 0 0 1 1.414-1.414 8.61 8.61 0 0 1 0 12.162 1 1 0 0 1 -.707.293z" fill="#0C2188"></path><path d="m16.4 34.453a1 1 0 0 1 -.707-.293 22.558 22.558 0 0 1 0-31.867 1 1 0 0 1 1.417 1.414 20.557 20.557 0 0 0 0 29.039 1 1 0 0 1 -.707 1.707z" fill="#0C2188"></path><path d="m21.329 29.527a1 1 0 0 1 -.707-.293 15.586 15.586 0 0 1 0-22.015 1 1 0 0 1 1.414 1.414 13.584 13.584 0 0 0 0 19.187 1 1 0 0 1 -.707 1.707z" fill="#0C2188"></path><path d="m26.255 24.6a1 1 0 0 1 -.707-.293 8.61 8.61 0 0 1 0-12.162 1 1 0 0 1 1.414 1.414 6.608 6.608 0 0 0 0 9.334 1 1 0 0 1 -.707 1.707z" fill="#0C2188"></path></g></svg>