<svg xmlns:xlink="http://www.w3.org/1999/xlink" xmlns="http://www.w3.org/2000/svg" id="Capa_1" enable-background="new 0 0 462.769 462.769" height="512" viewBox="0 0 462.769 462.769" width="512"><g fill="#0C2188"><g id="_x32_70_x2C__System_x2C__Faq_x2C__Info_x2C__Information" fill="#0C2188"><g fill="#0C2188"><circle cx="231.385" cy="364.306" r="9.846" fill="#0C2188"></circle><circle cx="435.692" cy="415.998" r="7.385" fill="#0C2188"></circle><circle cx="110.769" cy="430.767" r="7.385" fill="#0C2188"></circle><circle cx="17.231" cy="415.998" r="7.385" fill="#0C2188"></circle><path d="m64 423.385c-10.858 0-19.692 8.834-19.692 19.692 0 10.857 8.834 19.692 19.692 19.692s19.692-8.835 19.692-19.692c0-10.858-8.834-19.692-19.692-19.692zm0 29.538c-5.429 0-9.846-4.417-9.846-9.846 0-5.43 4.417-9.846 9.846-9.846s9.846 4.416 9.846 9.846c0 5.429-4.417 9.846-9.846 9.846z" fill="#0C2188"></path><path d="m391.385 408.615c-14.93 0-27.077 12.146-27.077 27.077 0 14.93 12.147 27.077 27.077 27.077s27.077-12.147 27.077-27.077-12.148-27.077-27.077-27.077zm0 44.308c-9.501 0-17.231-7.73-17.231-17.231 0-9.502 7.73-17.231 17.231-17.231s17.231 7.729 17.231 17.231c-.001 9.501-7.731 17.231-17.231 17.231z" fill="#0C2188"></path><path d="m374.154 285.538h-298.503c-3.71 0-6.728-3.019-6.728-6.728v-139.16c0-3.71 3.018-6.729 6.728-6.729h17.888c2.719 0 4.923-2.205 4.923-4.923s-2.205-4.923-4.923-4.923h-17.888c-9.139 0-16.574 7.435-16.574 16.575v139.16c0 9.138 7.435 16.574 16.574 16.574h298.503c2.72 0 4.923-2.205 4.923-4.923 0-2.719-2.204-4.923-4.923-4.923z" fill="#0C2188"></path><path d="m78.769 64c10.858 0 19.692-8.834 19.692-19.692s-8.834-19.692-19.692-19.692-19.692 8.834-19.692 19.692c0 10.857 8.834 19.692 19.692 19.692zm0-29.539c5.429 0 9.846 4.417 9.846 9.846s-4.417 9.846-9.846 9.846-9.846-4.417-9.846-9.846 4.417-9.846 9.846-9.846z" fill="#0C2188"></path><path d="m413.538 49.231c13.573 0 24.615-11.042 24.615-24.615s-11.042-24.616-24.615-24.616-24.615 11.042-24.615 24.615 11.043 24.616 24.615 24.616zm0-39.386c8.144 0 14.769 6.625 14.769 14.769s-6.625 14.769-14.769 14.769c-8.145 0-14.769-6.625-14.769-14.769s6.625-14.769 14.769-14.769z" fill="#0C2188"></path><circle cx="445.538" cy="56.613" r="7.385" fill="#0C2188"></circle><circle cx="130.462" cy="22.152" r="7.385" fill="#0C2188"></circle><circle cx="27.077" cy="51.69" r="7.385" fill="#0C2188"></circle><path d="m187.077 260.923h-98.462c-2.719 0-4.923 2.204-4.923 4.923s2.205 4.923 4.923 4.923h98.462c2.719 0 4.923-2.205 4.923-4.923 0-2.719-2.205-4.923-4.923-4.923z" fill="#0C2188"></path><path d="m187.077 241.231h-98.462c-2.719 0-4.923 2.204-4.923 4.923s2.205 4.923 4.923 4.923h98.462c2.719 0 4.923-2.205 4.923-4.923 0-2.72-2.205-4.923-4.923-4.923z" fill="#0C2188"></path><path d="m83.692 226.461c0 2.719 2.205 4.924 4.923 4.924h98.462c2.719 0 4.923-2.205 4.923-4.924s-2.205-4.923-4.923-4.923h-98.462c-2.718-.001-4.923 2.204-4.923 4.923z" fill="#0C2188"></path><path d="m422.728 73.846h-28.265c-12.741-42.658-52.333-73.846-99.078-73.846s-86.337 31.188-99.078 73.846h-156.266c-16.65 0-30.195 13.545-30.195 30.195v264.534c0 16.649 13.545 30.194 30.195 30.194h128.619l-28.719 49.231h-11.941c-2.719 0-4.923 2.204-4.923 4.923s2.205 4.923 4.923 4.923h14.769 192c2.72 0 4.923-2.205 4.923-4.923 0-2.72-2.204-4.923-4.923-4.923h-11.941l-28.717-49.231h128.618c16.649 0 30.194-13.546 30.194-30.195v-264.533c0-16.649-13.545-30.195-30.195-30.195zm-373.497 241.231h364.308v14.769h-364.308zm364.307-9.846h-364.307v-192.001h143.249c3.284 34.582 23.555 64.415 52.895 80.652l-13.417 25.353c-.945 1.785-.704 3.966.609 5.501 1.307 1.53 3.423 2.115 5.34 1.458l56.673-19.432c52.404.751 98.605-39.65 103.72-93.532h15.24v192.001zm-118.153-295.386c51.577 0 93.538 41.961 93.538 93.538 0 52.56-43.353 94.436-95.045 93.519-1.635-.021.557-.39-47.4 15.943l9.914-18.733c1.298-2.451.313-5.497-2.181-6.722-32.299-15.861-52.365-48.05-52.365-84.006 0-51.577 41.962-93.539 93.539-93.539zm16.044 438.155h-160.089l28.718-49.231h102.652zm131.648-79.426c0 11.221-9.128 20.349-20.348 20.349-18.497 0-347.021 0-382.688 0-11.221 0-20.349-9.128-20.349-20.348v-264.534c0-11.221 9.128-20.349 20.349-20.349h153.848c-1.234 6.378-1.889 12.96-1.889 19.693h-147.692c-2.719 0-4.923 2.205-4.923 4.923v226.462c0 2.719 2.205 4.923 4.923 4.923h374.154c2.72 0 4.923-2.205 4.923-4.923v-226.463c0-2.719-2.204-4.923-4.923-4.923h-19.692c0-6.733-.655-13.315-1.889-19.692h25.848c11.22 0 20.349 9.128 20.349 20.349v264.533z" fill="#0C2188"></path><path d="m271.652 177.23h55.148c2.72 0 4.923-2.205 4.923-4.923v-19.977c0-2.719-2.204-4.923-4.923-4.923h-11.724v-73.846c0-2.719-2.204-4.923-4.923-4.923h-38.501c-2.719 0-4.923 2.205-4.923 4.923v19.977c0 2.719 2.204 4.923 4.923 4.923h11.724v48.946h-11.724c-2.719 0-4.923 2.205-4.923 4.923v19.977c0 2.719 2.205 4.923 4.923 4.923zm4.924-19.976h11.724c2.72 0 4.923-2.205 4.923-4.923v-58.793c0-2.719-2.204-4.923-4.923-4.923h-11.724v-10.13h28.655v73.846c0 2.719 2.204 4.923 4.923 4.923h11.724v10.131h-45.302z" fill="#0C2188"></path><path d="m290.178 59.36h19.976c2.72 0 4.923-2.205 4.923-4.923v-19.976c0-2.719-2.204-4.923-4.923-4.923h-19.976c-2.719 0-4.923 2.205-4.923 4.923v19.977c0 2.718 2.203 4.922 4.923 4.922zm4.923-19.975h10.13v10.13h-10.13z" fill="#0C2188"></path></g></g></g></svg>