<svg xmlns:xlink="http://www.w3.org/1999/xlink" xmlns="http://www.w3.org/2000/svg" id="Capa_1" enable-background="new 0 0 512 512" height="512" viewBox="0 0 512 512" width="512"><g fill="#0C2188"><g fill="#0C2188"><g fill="#0C2188"><path d="m278.675 207.448c-.025-.067-.051-.133-.078-.2-1.354-3.296-4.531-5.424-8.094-5.424-.002 0-.005 0-.008 0-3.566.003-6.742 2.138-8.093 5.439-.023.056-.045.111-.066.167l-23.227 60.985c-1.445 3.794.459 8.04 4.253 9.485 3.792 1.446 8.04-.459 9.485-4.253l3.982-10.454h27.173l3.938 10.433c1.11 2.944 3.908 4.758 6.877 4.757 5.103 0 8.698-5.119 6.876-9.947zm-16.248 41.044 8.05-21.135 7.976 21.135z" fill="#0C2188"></path><path d="m349.256 202.739h-17.001c-4.063 0-7.358 3.3-7.35 7.364v.047.002 58.989c0 5.278 3.495 8.325 7.472 8.325h.028c.514-.002 12.635-.049 17.477-.133 17.943-.314 30.966-15.971 30.966-37.231-.001-22.348-12.697-37.363-31.592-37.363zm.369 59.896c-2.277.04-6.319.072-9.923.094-.023-7.095-.07-37.907-.083-45.289h9.638c12.453 0 16.89 11.707 16.89 22.663-.001 15.365-8.298 22.388-16.522 22.532z" fill="#0C2188"></path><path d="m433.334 233.694c-7.662-2.826-14.79-5.906-16.91-6.834-2.985-2.345-2.344-7.917 3.495-9.676 8.928-2.686 17.153 3.828 17.375 4.006 3.106 2.578 7.718 2.169 10.32-.927 2.612-3.107 2.211-7.744-.897-10.356-.578-.486-14.339-11.83-31.038-6.798-19.652 5.919-19.904 30.624-5.879 36.898.358.159 8.865 3.946 18.446 7.48 2.802 1.034 9.225 3.965 8.353 8.847-1.646 9.216-18.72 10.05-27.29.593-2.727-3.008-7.374-3.237-10.382-.511s-3.237 7.374-.511 10.382c16.445 18.147 48.678 14.395 52.655-7.88 1.513-8.473-2.352-19.548-17.737-25.224z" fill="#0C2188"></path><path d="m186.516 48.772h28.421c4.059 0 7.35-3.291 7.35-7.35s-3.291-7.35-7.35-7.35h-28.421c-4.059 0-7.35 3.291-7.35 7.35s3.291 7.35 7.35 7.35z" fill="#0C2188"></path><path d="m425.377 139.066h-160.745c-35.665 0-64.68 29.015-64.68 64.68v68.873c0 30.172 20.487 56.063 49.82 62.963 4.325 1.017 7.465 5.092 7.465 9.688v50.365c0 12.177 15.607 17.199 22.736 7.393l44.8-61.599c1.881-2.586 4.912-4.129 8.109-4.129h92.495c35.665 0 64.68-29.016 64.68-64.681v-68.873c0-35.665-29.015-64.68-64.68-64.68zm49.98 133.553c0 27.559-22.421 49.98-49.98 49.98h-92.495c-7.884 0-15.36 3.807-19.998 10.183l-40.947 56.302v-43.814c0-11.526-7.73-21.394-18.799-23.998-22.66-5.33-38.486-25.336-38.486-48.653v-68.873c0-27.559 22.421-49.98 49.98-49.98h160.745c27.559 0 49.98 22.421 49.98 49.98z" fill="#0C2188"></path><path d="m372.159 356.962c-4.06 0-7.35 3.291-7.35 7.35v74.961h-328.166v-355.11h328.166v27.914c0 4.059 3.29 7.35 7.35 7.35s7.35-3.291 7.35-7.35v-77.82c.001-18.889-15.367-34.257-34.256-34.257h-289.053c-18.89 0-34.257 15.368-34.257 34.258v443.485c0 18.889 15.368 34.257 34.257 34.257h289.053c18.89 0 34.257-15.368 34.257-34.258v-113.43c0-4.059-3.291-7.35-7.351-7.35zm-315.959-342.262h289.053c10.783 0 19.557 8.773 19.557 19.557v35.206h-328.167v-35.205c0-10.784 8.773-19.558 19.557-19.558zm289.053 482.6h-289.053c-10.784 0-19.557-8.773-19.557-19.557v-23.769h328.166v23.769c0 10.783-8.773 19.557-19.556 19.557z" fill="#0C2188"></path></g></g></g></svg>