<svg xmlns="http://www.w3.org/2000/svg" xmlns:xlink="http://www.w3.org/1999/xlink" version="1.1" id="Capa_1" x="0px" y="0px" viewBox="0 0 512.002 512.002" class="page_speed_891197809" xml:space="preserve" width="512.002"  height="512.002" >
                            <g fill="#0C2188"><g fill="#0C2188"><path d="M511.937,302.651c-0.598-10.733-5.893-20.562-14.526-26.968c-13.972-10.366-33.354-9.285-46.087,2.572l-55.327,51.526    V185.419c11.018-2.452,19.283-12.298,19.283-24.042v-48.727c0-13.584-11.052-24.635-24.635-24.635h-64.61    c12.986-5.551,22.599-16.646,26.217-30.61c4.12-15.896-0.354-32.321-11.967-43.934C328.639,1.824,312.175-2.636,296.24,1.531    c-15.933,4.172-28.099,16.13-32.545,31.988L256,60.967l-7.695-27.447c-4.446-15.859-16.612-27.816-32.545-31.988    c-15.936-4.169-32.399,0.292-44.045,11.938c-11.613,11.612-16.087,28.036-11.967,43.934c3.618,13.964,13.232,25.059,26.217,30.61    h-64.61c-13.584,0-24.635,11.052-24.635,24.635v48.727c0,11.746,8.265,21.591,19.283,24.042v93.761l-50.687,25.758    c-9.88-5.252-22.445-3.725-30.76,4.589l-31.62,31.62c-3.905,3.905-3.905,10.237,0,14.143c3.905,3.904,10.237,3.904,14.143,0    l31.619-31.62c2.392-2.394,6.284-2.394,8.676,0l130.966,130.966c1.159,1.158,1.797,2.699,1.797,4.338s-0.638,3.18-1.797,4.338    l-31.62,31.62c-3.905,3.905-3.905,10.237,0,14.143c1.953,1.952,4.512,2.929,7.071,2.929c2.559,0,5.119-0.977,7.071-2.929    l31.62-31.62c4.937-4.937,7.655-11.499,7.655-18.479c0-3.852-0.832-7.575-2.403-10.97h15.268c5.523,0,10-4.478,10-10    s-4.477-10-10-10h-33.008L81.26,319.27l64.43-32.742c13.113-6.665,27.819-10.188,42.529-10.188    c23.16,0,45.415,8.515,62.661,23.975l43.645,39.125c3.778,3.387,5.702,8.229,5.278,13.285c-0.424,5.057-3.126,9.511-7.416,12.222    c-5.054,3.195-11.411,3.321-16.589,0.333L217,331.344c-4.783-2.76-10.898-1.121-13.66,3.662    c-2.761,4.784-1.121,10.899,3.663,13.66l58.797,33.935c5.601,3.232,11.814,4.843,18.02,4.843c6.33,0,12.643-1.696,18.294-5.033    c0.373,0.042,0.75,0.069,1.134,0.069h21.623c28.3,0,55.291-10.622,76.002-29.909l64.08-59.678    c5.675-5.284,14.314-5.768,20.54-1.146c3.848,2.854,6.208,7.235,6.474,12.02c0.267,4.783-1.592,9.399-5.099,12.664l-91.937,85.586    c-18.002,16.76-41.462,25.988-66.058,25.988h-30.375c-5.523,0-10,4.478-10,10s4.477,10,10,10h30.375    c29.669,0,57.969-11.134,79.685-31.35l91.936-85.586C508.365,323.741,512.534,313.386,511.937,302.651z M282.952,38.918    c2.507-8.943,9.368-15.688,18.352-18.038c2.217-0.581,4.451-0.864,6.659-0.864c6.742,0,13.233,2.648,18.18,7.597    c6.548,6.549,9.071,15.811,6.749,24.774c-2.323,8.966-9.027,15.838-17.931,18.381l-44.502,12.715L282.952,38.918z M179.109,52.387    c-2.323-8.965,0.2-18.226,6.749-24.774c4.948-4.948,11.438-7.597,18.179-7.597c2.207,0,4.442,0.284,6.659,0.864    c8.985,2.352,15.845,9.096,18.352,18.038l12.494,44.564L197.04,70.768C188.136,68.224,181.433,61.353,179.109,52.387z     M375.996,346.851c-15.02,10.139-32.729,15.627-51.124,15.627h-6.747c0.828-2.587,1.373-5.294,1.607-8.082    c0.952-11.36-3.37-22.238-11.858-29.848l-43.646-39.125c-20.92-18.753-47.915-29.082-76.011-29.082    c-17.843,0-35.683,4.273-51.589,12.357l-0.625,0.317v-83.005h191.494v62.665c0,5.522,4.477,10,10,10s10-4.478,10-10v-62.665    h28.499V346.851z M395.28,161.376c0,2.557-2.08,4.636-4.636,4.636h-4.648H126.005h-4.648c-2.556,0-4.636-2.079-4.636-4.636    v-48.727c0-2.557,2.08-4.636,4.636-4.636h269.288c2.556,0,4.636,2.079,4.636,4.636V161.376z" fill="#0C2188"></path></g>
                            </g><g fill="#0C2188"><g fill="#0C2188"><path d="M267.57,430.933c-1.86-1.86-4.44-2.93-7.07-2.93c-2.63,0-5.21,1.069-7.07,2.93c-1.86,1.86-2.93,4.44-2.93,7.07    s1.07,5.21,2.93,7.069c1.86,1.86,4.44,2.931,7.07,2.931c2.63,0,5.21-1.07,7.07-2.931c1.86-1.859,2.93-4.439,2.93-7.069    S269.43,432.793,267.57,430.933z" fill="#0C2188"></path></g>
                            </g><g fill="#0C2188"><g fill="#0C2188"><path d="M501.993,51.015h-14v-14c0-5.522-4.477-10-10-10c-5.523,0-10,4.478-10,10v14h-14c-5.523,0-10,4.478-10,10    c0,5.522,4.477,10,10,10h14v14c0,5.522,4.477,10,10,10c5.523,0,10-4.478,10-10v-14h14c5.523,0,10-4.478,10-10    S507.516,51.015,501.993,51.015z" fill="#0C2188"></path></g>
                            </g><g fill="#0C2188"><g fill="#0C2188"><path d="M58.007,182.011h-14v-14c0-5.522-4.477-10-10-10s-10,4.478-10,10v14h-14c-5.523,0-10,4.478-10,10s4.477,10,10,10h14v14    c0,5.522,4.477,10,10,10s10-4.478,10-10v-14h14c5.523,0,10-4.478,10-10S63.529,182.011,58.007,182.011z" fill="#0C2188"></path></g>
                            </g><g fill="#0C2188"><g fill="#0C2188"><path d="M344.568,281.268c-1.86-1.86-4.44-2.93-7.07-2.93c-2.63,0-5.21,1.069-7.07,2.93c-1.86,1.86-2.93,4.44-2.93,7.07    c0,2.64,1.07,5.21,2.93,7.069c1.86,1.87,4.44,2.931,7.07,2.931c2.63,0,5.21-1.061,7.07-2.931c1.86-1.859,2.93-4.43,2.93-7.069    C347.498,285.708,346.428,283.128,344.568,281.268z" fill="#0C2188"></path></g></g><g fill="#0C2188"></g><g fill="#0C2188"></g><g fill="#0C2188"></g><g fill="#0C2188"></g><g fill="#0C2188"></g><g fill="#0C2188"></g><g fill="#0C2188"></g><g fill="#0C2188"></g><g fill="#0C2188"></g><g fill="#0C2188"></g><g fill="#0C2188"></g><g fill="#0C2188"></g><g fill="#0C2188"></g><g fill="#0C2188"></g><g fill="#0C2188"></g></svg>