<svg xmlns:xlink="http://www.w3.org/1999/xlink" xmlns="http://www.w3.org/2000/svg" id="Layer_1" enable-background="new 0 0 512 512" height="512" viewBox="0 0 512 512" width="512"><path d="m512 256c0-68.38-26.629-132.667-74.981-181.02-48.352-48.351-112.639-74.98-181.019-74.98s-132.667 26.629-181.019 74.98c-48.352 48.353-74.981 112.64-74.981 181.02s26.629 132.667 74.98 181.019c48.353 48.352 112.64 74.981 181.02 74.981 21.393 0 42.641-2.66 63.245-7.899 14.283 5.108 29.657 7.899 45.673 7.899 74.991 0 136.001-61.01 136.001-136 0-11.409-1.42-22.491-4.079-33.087 10.058-27.847 15.16-57.057 15.16-86.913zm-59.552 16h26.986c-.611 8.678-1.724 17.276-3.329 25.772-6.755-9.573-14.716-18.235-23.657-25.772zm-196.448 208c-23.985 0-49.58-31.894-66.578-85.057h40.822c4.417 31.552 19.697 59.666 41.932 80.43-5.411 3.068-10.818 4.627-16.176 4.627zm-26.452-117.057h-48.696c-5.933-26.851-9.81-57.47-10.755-90.943h107.292c-26.489 22.329-44.36 54.565-47.841 90.943zm-196.97-90.943h105.511c.865 31.854 4.305 62.608 10.093 90.943h-88.961c-14.939-27.378-24.321-58.2-26.643-90.943zm26.643-122.944h88.96c-5.788 28.335-9.228 59.09-10.093 90.944h-105.51c2.322-32.743 11.704-63.566 26.643-90.944zm196.779-117.056c23.985 0 49.579 31.894 66.578 85.056h-133.156c16.999-53.162 42.593-85.056 66.578-85.056zm75.148 117.056c5.933 26.851 9.81 57.471 10.755 90.944h-171.806c.945-33.474 4.822-64.093 10.755-90.944zm148.274 90.944h-105.511c-.865-31.854-4.305-62.609-10.093-90.944h88.96c14.94 27.378 24.322 58.201 26.644 90.944zm-47.85-122.944h-75.591c-3.793-13.13-8.146-25.532-13.038-37.026-6.189-14.544-13.088-27.245-20.566-37.989 43.571 13.544 81.477 40.065 109.195 75.015zm-241.949-75.016c-7.478 10.744-14.376 23.445-20.566 37.989-4.892 11.495-9.244 23.896-13.038 37.026h-75.591c27.718-34.949 65.624-61.47 109.195-75.015zm-109.196 352.903h75.592c3.793 13.131 8.146 25.532 13.038 37.027 6.189 14.544 13.088 27.245 20.566 37.989-43.572-13.544-81.478-40.065-109.196-75.016zm284.491 85.057c-57.346 0-104-46.654-104-104s46.654-104 104-104c57.347 0 104.001 46.654 104.001 104s-46.654 104-104.001 104zm62.861-104c0 8.837-7.163 16-16 16h-30.861v30.861c0 8.837-7.163 16-16 16s-16-7.163-16-16v-30.861h-30.861c-8.837 0-16-7.163-16-16s7.163-16 16-16h30.861v-30.861c0-8.837 7.163-16 16-16s16 7.163 16 16v30.861h30.861c8.837 0 16 7.163 16 16z" fill="#0C2188"></path></svg>