<svg xmlns:xlink="http://www.w3.org/1999/xlink" xmlns="http://www.w3.org/2000/svg" id="Capa_1" enable-background="new 0 0 512 512" height="512" viewBox="0 0 512 512" width="512"><g fill="#0C2188"><path d="m433.259 300.044h-205.607c-4.142 0-7.5 3.358-7.5 7.5s3.358 7.5 7.5 7.5h205.607c4.142 0 7.5-3.358 7.5-7.5s-3.358-7.5-7.5-7.5z" fill="#0C2188"></path><path d="m433.259 361.932h-205.607c-4.142 0-7.5 3.358-7.5 7.5s3.358 7.5 7.5 7.5h205.607c4.142 0 7.5-3.358 7.5-7.5s-3.358-7.5-7.5-7.5z" fill="#0C2188"></path><path d="m96.435 142.029c0-4.142-3.358-7.5-7.5-7.5s-7.5 3.358-7.5 7.5c0 4.142 3.358 7.5 7.5 7.5s7.5-3.358 7.5-7.5z" fill="#0C2188"></path><path d="m189.044 142.029c0-4.142-3.358-7.5-7.5-7.5s-7.5 3.358-7.5 7.5c0 4.142 3.358 7.5 7.5 7.5 4.143 0 7.5-3.358 7.5-7.5z" fill="#0C2188"></path><path d="m281.654 142.029c0-4.142-3.358-7.5-7.5-7.5s-7.5 3.358-7.5 7.5c0 4.142 3.358 7.5 7.5 7.5s7.5-3.358 7.5-7.5z" fill="#0C2188"></path><path d="m67.689 403.826c-15.68 0-28.436 12.756-28.436 28.436s12.756 28.436 28.436 28.436 28.437-12.756 28.437-28.436c0-15.679-12.756-28.436-28.437-28.436zm0 41.873c-7.409 0-13.436-6.027-13.436-13.436s6.027-13.436 13.436-13.436 13.437 6.028 13.437 13.436-6.028 13.436-13.437 13.436z" fill="#0C2188"></path><path d="m444.31 108.178c15.68 0 28.436-12.756 28.436-28.436s-12.756-28.437-28.436-28.437-28.436 12.756-28.436 28.437c0 15.679 12.756 28.436 28.436 28.436zm0-41.873c7.409 0 13.436 6.028 13.436 13.437s-6.027 13.436-13.436 13.436-13.436-6.027-13.436-13.436 6.028-13.437 13.436-13.437z" fill="#0C2188"></path><path d="m230.176 433.739h-48.765c-9.649 0-17.5-7.851-17.5-17.5v-112.177c0-.032-.004-.062-.005-.094l20.012-20.013c.472-.472 1.1-.732 1.768-.732h144.902c17.101 0 31.15-13.28 32.399-30.068h70.271c4.142 0 7.5-3.358 7.5-7.5s-3.358-7.5-7.5-7.5h-70.17v-56.807h31.131c4.142 0 7.5-3.358 7.5-7.5s-3.358-7.5-7.5-7.5h-31.131v-133.014c0-17.92-14.58-32.5-32.5-32.5h-298.088c-17.92 0-32.5 14.58-32.5 32.5v36.737c0 4.142 3.358 7.5 7.5 7.5s7.5-3.358 7.5-7.5v-36.737c0-9.649 7.851-17.5 17.5-17.5h298.089c9.649 0 17.5 7.851 17.5 17.5v217.39c0 9.649-7.851 17.5-17.5 17.5h-144.903c-4.674 0-9.069 1.82-12.374 5.126l-53.76 53.76v-41.385c0-9.649-7.851-17.5-17.5-17.5h-69.552c-9.649 0-17.5-7.851-17.5-17.5v-147.968c0-4.142-3.358-7.5-7.5-7.5s-7.5 3.358-7.5 7.5v147.967c0 17.92 14.58 32.5 32.5 32.5h69.553c1.378 0 2.5 1.122 2.5 2.5v47.421c0 5.074 3.029 9.607 7.716 11.548 1.556.645 3.184.958 4.796.958 3.246-.001 6.429-1.271 8.826-3.668l23.02-23.02v97.275c0 17.92 14.58 32.5 32.5 32.5h48.765c4.142 0 7.5-3.358 7.5-7.5 0-4.141-3.358-7.499-7.5-7.499z" fill="#0C2188"></path><path d="m479.5 166.349h-52.593c-4.142 0-7.5 3.358-7.5 7.5s3.358 7.5 7.5 7.5h52.593c9.649 0 17.5 7.851 17.5 17.5v217.39c0 9.649-7.851 17.5-17.5 17.5h-69.553c-9.649 0-17.5 7.851-17.5 17.5v41.385l-53.759-53.759c-3.305-3.306-7.7-5.126-12.375-5.126h-63.451c-4.142 0-7.5 3.358-7.5 7.5s3.358 7.5 7.5 7.5h63.451c.668 0 1.295.26 1.768.732l58.027 58.027c2.397 2.398 5.58 3.668 8.826 3.668 1.612 0 3.24-.313 4.796-.958 4.688-1.941 7.717-6.475 7.717-11.549v-47.421c0-1.378 1.121-2.5 2.5-2.5h69.553c17.92 0 32.5-14.58 32.5-32.5v-217.39c0-17.919-14.58-32.499-32.5-32.499z" fill="#0C2188"></path></g></svg>