<svg xmlns:xlink="http://www.w3.org/1999/xlink" xmlns="http://www.w3.org/2000/svg" id="Слой_1" height="512" viewBox="0 0 128 128" width="512"><path d="m127.08 44.32-62-40a2 2 0 0 0 -2.16 0l-62 40a2 2 0 0 0 2.16 3.36l4.92-3.17v77.49a2 2 0 0 0 2 2h108a2 2 0 0 0 2-2v-77.49l4.92 3.17a1.94 1.94 0 0 0 1.08.32 2 2 0 0 0 1.08-3.68zm-11.08-2.32v78h-104v-78s0 0 0-.07l52-33.55 52 33.55s0 .07 0 .07z" fill="#0C2188"></path><path d="m73 85a10 10 0 0 0 10-10 2 2 0 0 0 -2-2h-8a2 2 0 0 0 0 4h5.66a6 6 0 1 1 -5.66-8 5.92 5.92 0 0 1 2.59.59 2 2 0 1 0 1.73-3.59 9.9 9.9 0 0 0 -4.32-1 10 10 0 0 0 0 20z" fill="#0C2188"></path><path d="m38 81h-10v-14a2 2 0 0 0 -4 0v16a2 2 0 0 0 2 2h12a2 2 0 0 0 0-4z" fill="#0C2188"></path><path d="m50 65a10 10 0 1 0 10 10 10 10 0 0 0 -10-10zm0 16a6 6 0 1 1 6-6 6 6 0 0 1 -6 6z" fill="#0C2188"></path><path d="m96 85a10 10 0 1 0 -10-10 10 10 0 0 0 10 10zm0-16a6 6 0 1 1 -6 6 6 6 0 0 1 6-6z" fill="#0C2188"></path></svg>