<svg xmlns:xlink="http://www.w3.org/1999/xlink" xmlns="http://www.w3.org/2000/svg" id="Capa_1" enable-background="new 0 0 512 512" height="512" viewBox="0 0 512 512" width="512"><g fill="#0C2188"><g fill="#0C2188"><path d="m484.5 48h-37v-30.5c0-9.649-7.851-17.5-17.5-17.5h-20c-9.649 0-17.5 7.851-17.5 17.5v30.5h-293v-30.5c0-9.649-7.851-17.5-17.5-17.5h-20c-9.649 0-17.5 7.851-17.5 17.5v30.5h-17c-15.164 0-27.5 12.337-27.5 27.5v123.73c0 4.143 3.358 7.5 7.5 7.5s7.5-3.357 7.5-7.5v-40.23h482v180.14c0 4.143 3.358 7.5 7.5 7.5s7.5-3.357 7.5-7.5v-263.64c0-15.163-12.336-27.5-27.5-27.5zm-77-30.5c0-1.379 1.122-2.5 2.5-2.5h20c1.378 0 2.5 1.121 2.5 2.5v76c0 1.379-1.122 2.5-2.5 2.5h-20c-1.378 0-2.5-1.121-2.5-2.5zm-348 0c0-1.379 1.122-2.5 2.5-2.5h20c1.378 0 2.5 1.121 2.5 2.5v76c0 1.379-1.122 2.5-2.5 2.5h-20c-1.378 0-2.5-1.121-2.5-2.5zm-44.5 126.5v-68.5c0-6.893 5.607-12.5 12.5-12.5h17v30.5c0 9.649 7.851 17.5 17.5 17.5h20c9.649 0 17.5-7.851 17.5-17.5v-30.5h293v30.5c0 9.649 7.851 17.5 17.5 17.5h20c9.649 0 17.5-7.851 17.5-17.5v-30.5h37c6.893 0 12.5 5.607 12.5 12.5v68.5z" fill="#0C2188"></path><path d="m504.5 366.64c-4.142 0-7.5 3.357-7.5 7.5v26.08c0 .261-.023.521-.039.78h-68.461c-15.164 0-27.5 12.337-27.5 27.5v68.461c-.26.017-.519.039-.78.039h-372.72c-6.893 0-12.5-5.607-12.5-12.5v-250.27c0-4.143-3.358-7.5-7.5-7.5s-7.5 3.357-7.5 7.5v250.27c0 15.163 12.336 27.5 27.5 27.5h372.72c7.236-.006 14.323-2.948 19.443-8.057 0 0 84.28-84.279 84.28-84.279 5.109-5.12 8.05-12.208 8.057-19.444v-26.08c0-4.143-3.358-7.5-7.5-7.5zm-88.5 119.753v-57.893c0-6.893 5.607-12.5 12.5-12.5h57.893z" fill="#0C2188"></path><path d="m264.676 420.5c4.142 0 7.5-3.357 7.5-7.5s-3.358-7.5-7.5-7.5h-22.753c-4.142 0-7.5 3.357-7.5 7.5v54c0 4.143 3.358 7.5 7.5 7.5h22.753c4.142 0 7.5-3.357 7.5-7.5s-3.358-7.5-7.5-7.5h-15.253v-12h13.576c4.142 0 7.5-3.357 7.5-7.5s-3.358-7.5-7.5-7.5h-13.576v-12z" fill="#0C2188"></path><path d="m174.822 405.5c-1.992 0-3.902.792-5.309 2.202s-2.195 3.321-2.191 5.313l.109 54c.004 1.991.8 3.899 2.212 5.303 1.405 1.397 3.307 2.182 5.288 2.182h.029c.462-.002 11.372-.044 15.734-.12 16.646-.29 28.729-14.749 28.729-34.38 0-20.636-11.777-34.5-29.307-34.5zm29.6 34.5c0 13.221-7.026 19.261-13.99 19.382-1.857.032-5.024.06-8.016.079l-.079-38.961h7.779c13.275 0 14.306 14.926 14.306 19.5z" fill="#0C2188"></path><path d="m320.168 420.5c3.908 0 7.677 1.15 10.898 3.326 3.432 2.318 8.095 1.416 10.413-2.017 2.319-3.433 1.416-8.095-2.017-10.413-5.71-3.857-12.382-5.896-19.294-5.896-19.023 0-34.5 15.477-34.5 34.5s15.477 34.5 34.5 34.5c7.624 0 14.473-2.511 19.805-7.259 1.044-.93 2.037-1.953 2.951-3.044 2.662-3.173 2.247-7.903-.926-10.565-3.174-2.662-7.904-2.247-10.566.927-.448.533-.93 1.031-1.434 1.479-2.579 2.297-5.887 3.462-9.83 3.462-10.752 0-19.5-8.748-19.5-19.5s8.748-19.5 19.5-19.5z" fill="#0C2188"></path><path d="m358.79 252.82c4.142 0 7.5-3.357 7.5-7.5v-41.82c0-12.958-10.542-23.5-23.5-23.5h-34.2c-12.958 0-23.5 10.542-23.5 23.5s10.542 23.5 23.5 23.5h10.7v136.5c0 12.958 10.542 23.5 23.5 23.5s23.5-10.542 23.5-23.5v-83.18c0-4.143-3.358-7.5-7.5-7.5s-7.5 3.357-7.5 7.5v83.18c0 4.687-3.813 8.5-8.5 8.5s-8.5-3.813-8.5-8.5v-144c0-4.143-3.358-7.5-7.5-7.5h-18.2c-4.687 0-8.5-3.813-8.5-8.5s3.813-8.5 8.5-8.5h34.2c4.687 0 8.5 3.813 8.5 8.5v41.82c0 4.143 3.358 7.5 7.5 7.5z" fill="#0C2188"></path><path d="m209.21 340c-8.188 0-15.212-6.091-16.34-14.17-.106-.761-.16-1.545-.16-2.33 0-12.958-10.542-23.5-23.5-23.5s-23.5 10.542-23.5 23.5c0 2.947.206 5.917.611 8.828 4.35 31.168 31.387 54.672 62.889 54.672 35.014 0 63.5-28.486 63.5-63.5 0-14.757-4.998-28.716-14.202-40 9.205-11.284 14.202-25.243 14.202-40 0-35.014-28.486-63.5-63.5-63.5-30.275 0-56.48 21.54-62.309 51.218-2.498 12.715 5.815 25.092 18.533 27.59 12.712 2.488 25.089-5.821 27.586-18.531 1.511-7.692 8.32-13.276 16.19-13.276 9.098 0 16.5 7.402 16.5 16.5s-7.402 16.5-16.5 16.5c-12.958 0-23.5 10.542-23.5 23.5s10.542 23.5 23.5 23.5c9.098 0 16.5 7.402 16.5 16.5s-7.402 16.499-16.5 16.499zm0-48c-4.687 0-8.5-3.813-8.5-8.5s3.813-8.5 8.5-8.5c17.369 0 31.5-14.131 31.5-31.5s-14.131-31.5-31.5-31.5c-15.021 0-28.02 10.676-30.909 25.386-.903 4.598-5.378 7.604-9.979 6.702-2.228-.438-4.152-1.717-5.417-3.602-1.266-1.885-1.722-4.149-1.285-6.378 4.451-22.661 24.465-39.108 47.59-39.108 26.743 0 48.5 21.757 48.5 48.5 0 13.126-5.183 25.428-14.593 34.641-1.441 1.411-2.253 3.343-2.253 5.359s.812 3.948 2.253 5.359c9.41 9.213 14.593 21.515 14.593 34.641 0 26.743-21.757 48.5-48.5 48.5-24.062 0-44.711-17.946-48.033-41.744-.31-2.226-.467-4.498-.467-6.756 0-4.687 3.813-8.5 8.5-8.5s8.5 3.813 8.5 8.5c0 1.477.103 2.959.304 4.404 2.155 15.448 15.567 27.096 31.196 27.096 17.369 0 31.5-14.131 31.5-31.5s-14.131-31.5-31.5-31.5z" fill="#0C2188"></path></g></g></svg>