<svg xmlns:xlink="http://www.w3.org/1999/xlink" xmlns="http://www.w3.org/2000/svg" id="Capa_1" enable-background="new 0 0 512 512" height="512" viewBox="0 0 512 512" width="512"><g fill="#0C2188"><path d="m210.875 60.25h90.25v30h-90.25z" fill="#0C2188"></path><path d="m210.875 421.75h90.25v30h-90.25z" fill="#0C2188"></path><path d="m150.625 120.5h210.75v30h-210.75z" fill="#0C2188"></path><path d="m150.625 361.497h210.75v30h-210.75z" fill="#0C2188"></path><path d="m178.625 331.251c-24.882 0-45.125-20.243-45.125-45.125v-60.253c0-24.882 20.243-45.125 45.125-45.125s45.125 20.243 45.125 45.125v60.253c0 24.882-20.243 45.125-45.125 45.125zm0-120.502c-8.34 0-15.125 6.785-15.125 15.125v60.253c0 8.34 6.785 15.125 15.125 15.125s15.125-6.785 15.125-15.125v-60.253c0-8.34-6.785-15.125-15.125-15.125z" fill="#0C2188"></path><path d="m127.375 331.251h-60.125v-150.5h30v120.5h30.125z" fill="#0C2188"></path><path d="m289.125 331.251c-24.882 0-45.125-20.243-45.125-45.125v-60.253c0-24.882 20.243-45.125 45.125-45.125s45.125 20.243 45.125 45.125h-30c0-8.34-6.785-15.125-15.125-15.125s-15.125 6.786-15.125 15.126v60.253c0 8.34 6.785 15.125 15.125 15.125s15.125-6.785 15.125-15.125v-15.127h-15.125v-30h45.125v45.126c0 24.882-20.243 45.125-45.125 45.125z" fill="#0C2188"></path><path d="m399.625 331.251c-24.882 0-45.125-20.243-45.125-45.125v-60.253c0-24.882 20.243-45.125 45.125-45.125s45.125 20.243 45.125 45.125v60.253c0 24.882-20.243 45.125-45.125 45.125zm0-120.502c-8.34 0-15.125 6.785-15.125 15.125v60.253c0 8.34 6.785 15.125 15.125 15.125s15.125-6.785 15.125-15.125v-60.253c0-8.34-6.785-15.125-15.125-15.125z" fill="#0C2188"></path><path d="m256 512c-68.38 0-132.667-26.629-181.02-74.98-48.351-48.353-74.98-112.64-74.98-181.02s26.629-132.667 74.98-181.02c48.353-48.351 112.64-74.98 181.02-74.98s132.667 26.629 181.02 74.98c48.351 48.353 74.98 112.64 74.98 181.02s-26.629 132.667-74.98 181.02c-48.353 48.351-112.64 74.98-181.02 74.98zm0-482c-60.367 0-117.12 23.508-159.806 66.194s-66.194 99.439-66.194 159.806 23.508 117.12 66.194 159.806 99.439 66.194 159.806 66.194 117.12-23.508 159.806-66.194 66.194-99.439 66.194-159.806-23.508-117.12-66.194-159.806-99.439-66.194-159.806-66.194z" fill="#0C2188"></path></g></svg>