<svg xmlns:xlink="http://www.w3.org/1999/xlink" xmlns="http://www.w3.org/2000/svg" enable-background="new 0 0 32 32" height="512" viewBox="0 0 32 32" width="512"><g id="Layer_12" fill="#0C2188"><path d="m25.42 3.885h-.115v-.114c0-1.238-1.008-2.246-2.246-2.246h-16.479c-1.238 0-2.246 1.008-2.246 2.246v22.096c0 1.238 1.008 2.246 2.246 2.246h.115v.117c0 1.238 1.007 2.245 2.245 2.245h16.48c1.238 0 2.245-1.007 2.245-2.245v-22.1c0-1.238-1.007-2.245-2.245-2.245zm-20.136 21.982v-22.096c0-.715.581-1.296 1.296-1.296h16.479c.715 0 1.296.581 1.296 1.296v22.096c0 .715-.581 1.296-1.296 1.296h-16.479c-.715 0-1.296-.581-1.296-1.296zm21.431 2.363c0 .714-.581 1.295-1.295 1.295h-16.48c-.714 0-1.295-.581-1.295-1.295v-.117h15.414c1.238 0 2.246-1.008 2.246-2.246v-21.032h.115c.714 0 1.295.581 1.295 1.295z" fill="#0C2188"></path><path d="m21.926 15.327h-10.801c-.262 0-.475.213-.475.475s.213.475.475.475h10.801c.262 0 .475-.213.475-.475s-.213-.475-.475-.475z" fill="#0C2188"></path><path d="m21.926 19.006h-10.801c-.262 0-.475.213-.475.475s.213.475.475.475h10.801c.262 0 .475-.213.475-.475s-.213-.475-.475-.475z" fill="#0C2188"></path><path d="m21.926 22.686h-10.801c-.262 0-.475.213-.475.475s.213.475.475.475h10.801c.262 0 .475-.213.475-.475s-.213-.475-.475-.475z" fill="#0C2188"></path><path d="m16.07 8.023h3.769c.262 0 .475-.213.475-.475s-.213-.475-.475-.475h-3.769c-.262 0-.475.213-.475.475s.213.475.475.475z" fill="#0C2188"></path><path d="m22.479 10.04h-6.409c-.262 0-.475.213-.475.475s.213.475.475.475h6.409c.262 0 .475-.213.475-.475s-.212-.475-.475-.475z" fill="#0C2188"></path><path d="m11.913 3.398h-2.871c-.262 0-.475.213-.475.475s.213.476.475.476h2.871c.262 0 .475-.213.475-.475s-.213-.476-.475-.476z" fill="#0C2188"></path><path d="m7.504 3.398h-.675c-.262 0-.475.213-.475.475s.213.475.475.475h.676c.262 0 .475-.213.475-.475s-.213-.475-.476-.475z" fill="#0C2188"></path><path d="m9.041 14.937-.713.722-.305-.305c-.186-.186-.486-.186-.672 0s-.186.486 0 .672l.643.643c.089.089.21.139.336.139h.001c.126 0 .248-.051.336-.141l1.049-1.062c.185-.187.183-.487-.004-.672-.186-.184-.486-.182-.671.004z" fill="#0C2188"></path><path d="m9.041 18.617-.713.722-.305-.305c-.186-.186-.486-.186-.672 0s-.186.486 0 .672l.643.643c.089.089.21.139.336.139h.001c.126 0 .248-.051.336-.141l1.049-1.062c.185-.187.183-.487-.004-.672-.186-.184-.486-.182-.671.004z" fill="#0C2188"></path><path d="m9.041 22.296-.713.721-.305-.305c-.186-.186-.486-.186-.672 0s-.186.486 0 .672l.643.643c.089.089.21.139.336.139h.001c.126 0 .248-.051.336-.141l1.049-1.061c.185-.187.183-.487-.004-.672-.186-.183-.486-.182-.671.004z" fill="#0C2188"></path><path d="m10.559 5.156c-2.137 0-3.875 1.738-3.875 3.875s1.738 3.875 3.875 3.875 3.875-1.738 3.875-3.875-1.739-3.875-3.875-3.875zm0 6.8c-1.613 0-2.925-1.312-2.925-2.925s1.312-2.925 2.925-2.925 2.925 1.312 2.925 2.925-1.313 2.925-2.925 2.925z" fill="#0C2188"></path><path d="m10.985 6.971c-.16-.324-.692-.324-.853 0l-1.569 3.188c-.116.235-.019.52.216.636.237.115.52.018.636-.216l.346-.704h1.594l.346.704c.083.168.251.265.427.265.07 0 .142-.016.209-.049.235-.116.332-.401.216-.636zm-.755 1.953.329-.668.329.668z" fill="#0C2188"></path></g></svg>