<svg xmlns:xlink="http://www.w3.org/1999/xlink" xmlns="http://www.w3.org/2000/svg" id="office_location" enable-background="new 0 0 128 128" height="512" viewBox="0 0 128 128" width="512"><g fill="#0C2188"><path id="_x36_" d="m49.914 117.728c0 1.104-.877 2.009-1.981 2.009s-2.009-.905-2.009-2.009v-25.16c0-1.697.735-3.226 1.924-4.329 1.161-1.075 2.718-1.726 4.444-1.726h23.404c1.726 0 3.311.65 4.442 1.726 1.188 1.104 1.926 2.632 1.926 4.329v25.16c0 1.104-.878 2.009-1.982 2.009s-2.009-.905-2.009-2.009v-25.16c0-.537-.227-1.047-.623-1.414-.452-.396-1.047-.651-1.754-.651h-9.708v27.226c0 1.104-.876 2.009-1.98 2.009-1.103 0-2.009-.905-2.009-2.009v-27.227h-9.707c-.679 0-1.274.256-1.726.651-.396.367-.651.877-.651 1.414v25.161z" fill="#0C2188"></path><path id="_x35_" d="m44.283 59.684h13.074c1.104 0 1.981.878 1.981 1.981v12.17c0 1.104-.877 1.979-1.981 1.979h-13.074c-1.104 0-1.981-.876-1.981-1.979v-12.17c-.001-1.103.877-1.981 1.981-1.981zm0-24.197h13.074c1.104 0 1.981.878 1.981 1.981v12.169c0 1.104-.877 1.981-1.981 1.981h-13.074c-1.104 0-1.981-.878-1.981-1.981v-12.168c-.001-1.104.877-1.982 1.981-1.982zm11.065 3.992h-9.056v8.149h9.056zm21.847 8.149c1.104 0 1.98.906 1.98 2.01s-.877 1.981-1.98 1.981h-6.537c-1.104 0-2.01-.878-2.01-1.981v-12.169c0-1.104.905-1.981 2.01-1.981 1.104 0 1.981.878 1.981 1.981v10.159zm-6.537 12.056h13.046c1.104 0 2.009.878 2.009 1.981v12.17c0 1.104-.905 1.979-2.009 1.979h-13.046c-1.104 0-2.01-.876-2.01-1.979v-12.17c0-1.103.906-1.981 2.01-1.981zm11.066 3.991h-9.084v8.15h9.084zm-26.376 0h-9.056v8.15h9.056z" fill="#0C2188"></path><path id="_x34_" d="m97.627 61.298c-.565.934-1.781 1.273-2.716.707-.312-.198-.566-.452-.736-.735l-17.15-29.065c-.878-1.5-1.613-3.424-2.065-5.122-.454-1.755-.68-3.565-.68-5.434 0-5.972 2.406-11.376 6.339-15.311 3.906-3.904 9.311-6.338 15.311-6.338 5.971 0 11.376 2.434 15.31 6.339 3.905 3.935 6.34 9.339 6.34 15.311 0 1.868-.255 3.679-.707 5.434-.454 1.812-1.162 3.509-2.038 5.094zm-1.697-4.925 15.451-26.178c.708-1.273 1.274-2.66 1.642-4.103.367-1.416.565-2.887.565-4.443 0-4.868-1.979-9.282-5.178-12.48-3.198-3.197-7.613-5.179-12.48-5.179-4.896 0-9.311 1.981-12.508 5.179-3.171 3.198-5.151 7.612-5.151 12.48 0 1.557.197 3.027.538 4.443.367 1.414.933 2.773 1.612 4.046z" fill="#0C2188"></path><path id="_x33_" d="m95.93 10.103c3.17 0 6.056 1.303 8.149 3.396 2.095 2.066 3.397 4.952 3.397 8.15 0 3.197-1.303 6.085-3.397 8.179-2.094 2.066-4.979 3.367-8.149 3.367-3.198 0-6.085-1.301-8.179-3.367-2.094-2.094-3.367-4.981-3.367-8.179s1.273-6.084 3.367-8.15c2.094-2.094 4.98-3.396 8.179-3.396zm5.32 6.198c-1.359-1.358-3.254-2.207-5.32-2.207-2.094 0-3.991.849-5.349 2.207-1.359 1.387-2.207 3.254-2.207 5.349 0 2.094.848 3.99 2.207 5.349 1.357 1.358 3.255 2.207 5.349 2.207 2.066 0 3.961-.849 5.32-2.207 1.386-1.358 2.235-3.255 2.235-5.349 0-2.095-.849-3.962-2.235-5.349z" fill="#0C2188"></path><path id="_x32_" d="m105.154 97.21c-1.104 0-1.979-.905-1.979-2.009s.876-1.982 1.979-1.982h7.245c2.491 0 4.699 1.444 5.661 3.736l9.367 22.81c.396.962.537 1.925.424 2.887-.198 1.953-1.501 3.763-3.227 4.669-.877.453-1.839.68-2.857.68h-115.519c-1.019 0-1.981-.227-2.858-.68-1.755-.906-3.028-2.716-3.254-4.669-.085-.962.056-1.925.424-2.887l9.396-22.81c.962-2.292 3.169-3.736 5.66-3.736h7.188c1.104 0 1.981.879 1.981 1.982s-.877 2.009-1.981 2.009h-7.188c-.877 0-1.642.424-1.981 1.273l-9.367 22.809c-.142.313-.198.623-.17.935.085.651.538 1.245 1.104 1.557.311.142.65.227 1.047.227h115.52c.396 0 .735-.085 1.019-.227.595-.312 1.047-.905 1.104-1.557.028-.312 0-.622-.142-.935l-9.367-22.809c-.34-.85-1.104-1.273-1.981-1.273z" fill="#0C2188"></path><path id="_x31_" d="m93.921 69.872c0-1.104.905-2.01 2.009-2.01s1.981.906 1.981 2.01v47.855c0 1.104-.878 2.009-1.981 2.009h-63.845c-1.104 0-1.981-.905-1.981-2.009v-87.474c0-1.698.736-3.227 1.925-4.33 1.132-1.076 2.717-1.755 4.443-1.755h31.497c1.104 0 1.981.905 1.981 2.01 0 1.104-.878 2.009-1.981 2.009h-31.497c-.708 0-1.302.227-1.754.651-.396.367-.623.877-.623 1.415v85.492h59.827v-45.873z" fill="#0C2188"></path></g></svg>