<svg xmlns:xlink="http://www.w3.org/1999/xlink" xmlns="http://www.w3.org/2000/svg" id="Capa_1" enable-background="new 0 0 511.996 511.996" height="512" viewBox="0 0 511.996 511.996" width="512"><g fill="#0C2188"><g fill="#0C2188"><path d="m454.969 206.239c-.025-.06-.045-.12-.072-.18-8.276-18.704-18.962-35.896-31.812-51.218.051-.079.108-.167.156-.244.009-.014.02-.026.029-.04 10.132-16.071 15.487-34.643 15.487-53.704.002-55.611-45.24-100.853-100.851-100.853-.001 0-.002 0-.004 0-.001 0-.002 0-.003 0-.017 0-.035.001-.052.001-24.163.014-47.529 8.703-65.801 24.472-16.029 13.833-27.255 32.321-32.171 52.695-112.291 8.841-201.362 104.364-201.362 217.099 0 118.467 98.806 217.729 217.49 217.729 38.259 0 75.892-10.094 108.83-29.19 4.778-2.771 6.405-8.889 3.636-13.667-2.77-4.777-8.89-6.405-13.667-3.636-29.895 17.332-64.059 26.493-98.799 26.493-38.062 0-73.635-10.847-103.82-29.6v-4.82c0-3.582 1.447-7.085 3.977-9.614l13.025-13.044c6.338-6.338 9.828-14.776 9.828-23.762v-71.97c0-18.521-15.055-33.59-33.56-33.59h-17.25c-3.628 0-7.034-1.411-9.595-3.977l-54.415-54.479c10.41-42.599 34.756-80.781 69.743-108.324 2.196 6.222 5.827 11.941 10.49 16.606l45.31 45.369c8.386 8.398 19.535 13.024 31.396 13.024 13.449 0 24.391 10.964 24.391 24.44v56.51c0 6.523-2.54 12.663-7.144 17.281-16.828 16.839-17.533 46.461.222 63.062l26.817 25.222c17.116 16.993 45.629 16.924 62.682-.12l60.459-60.54c8.386-8.397 13.004-19.559 13.004-31.426v-29.609c0-6.531 2.541-12.673 7.156-17.294l33.379-33.425c7.56 21.212 11.385 43.467 11.385 66.349 0 41.888-12.927 81.919-37.384 115.765-3.234 4.476-2.228 10.728 2.249 13.962 4.477 3.235 10.728 2.228 13.962-2.249 26.936-37.275 41.173-81.357 41.173-127.478 0-30.626-6.23-60.24-18.514-88.026zm-350.515 109.511c6.336 6.35 14.771 9.847 23.749 9.847h17.25c7.477 0 13.56 6.097 13.56 13.59v71.97c0 3.643-1.41 7.059-3.976 9.625l-13.025 13.044c-4.214 4.214-7.212 9.526-8.72 15.253-53.145-42.317-81.357-110.485-73.425-177.969zm233.449-295.75c16.797.002 30.463 13.668 30.463 30.466v12.894c0 10.899-5.757 20.475-14.385 25.86-9.658 6.052-22.291 6.094-31.994.107-8.722-5.365-14.552-14.997-14.552-25.967v-12.894c0-16.781 13.639-30.436 30.414-30.465.017 0 .035-.001.054-.001zm8.049 207.203c-5.426 4.602-13.964 3.531-18.117-2.221l-51.539-71.351c6.087-2.453 12.268-4.652 18.433-6.9 7.831 7.529 24.091 20.497 43.191 20.497 19.092 0 35.322-12.96 43.147-20.499 0 0 15.887 5.863 18.45 6.904l-51.629 71.453c-.572.791-1.223 1.497-1.936 2.117zm-18.439-114.457c7.783 1.614 15.973 1.403 23.65-.679l.805 10.296c.484 6.037 3.918 11.914 8.615 15.637-6.073 4.622-14.239 9.228-22.663 9.228-8.115 0-16.344-4.467-22.692-9.233 4.697-3.718 8.135-9.594 8.61-15.631l.805-10.292c.957.225 1.913.45 2.87.674zm91.246-11.893c0 12.438-2.841 24.611-8.275 35.653-3.68-1.531-36.592-13.677-36.592-13.677-1.045-.379-1.803-1.285-2.013-2.389l-1.449-18.539c10.959-9.264 17.936-23.099 17.936-38.54v-12.895c0-4.991-.739-9.811-2.095-14.367 19.709 14.758 32.488 38.292 32.488 64.754zm-133.646-61.239c1.431-1.235 2.912-2.399 4.418-3.525-1.358 4.559-2.098 9.382-2.098 14.376v12.895c0 15.444 6.98 29.282 17.944 38.546l-1.451 18.548c-.203 1.09-.964 1.99-2.038 2.378 0 0-35.432 13.213-36.468 13.644-7.363-14.781-9.934-31.951-7.382-48.261 2.95-18.818 12.566-36.078 27.075-48.601zm96.45 239.023v29.609c0 6.53-2.542 12.673-7.156 17.294l-60.454 60.534c-9.826 9.826-24.937 8.934-34.728-.213l-25.205-23.705c-10.562-9.308-11.585-25.872-1.485-35.979 8.376-8.401 12.988-19.557 12.988-31.41v-56.51c0-24.505-19.913-44.44-44.391-44.44-6.513 0-12.636-2.541-17.243-7.156l-45.311-45.37c-3.97-3.97-6.492-9.266-7.038-14.856 25.831-16.147 55.278-25.919 85.565-28.954-.566 23.078 6.53 44.908 19.91 63.622l54.673 75.694c12.771 17.681 39.777 17.557 52.53-.103l46.849-64.86c8.836 11.184 16.442 23.334 22.667 36.156l-39.167 39.221c-8.385 8.396-13.004 19.558-13.004 31.426z" fill="#0C2188"></path><path d="m404.718 444.228c-3.446-8.265-15.615-7.986-18.646.456-3.087 8.597 6.537 16.56 14.403 12.031 4.286-2.468 6.146-7.916 4.243-12.487z" fill="#0C2188"></path></g></g></svg>