<svg xmlns:xlink="http://www.w3.org/1999/xlink" xmlns="http://www.w3.org/2000/svg" id="Capa_1" enable-background="new 0 0 512 512" height="512" viewBox="0 0 512 512" width="512"><g fill="#0C2188"><path d="m454.675 72.567-78.114-70.014c-1.835-1.644-4.212-2.553-6.675-2.553h-244.653c-11.62 0-21.074 9.445-21.074 21.055v29.146h-29.113c-11.605 0-21.046 9.458-21.046 21.083v419.633c0 11.625 9.441 21.083 21.046 21.083h311.721c11.604 0 21.046-9.458 21.046-21.083v-29.146h29.113c11.62 0 21.074-9.445 21.074-21.055v-360.702c0-2.842-1.209-5.55-3.325-7.447zm-74.789-40.175 41.975 37.622h-40.901c-.563 0-1.074-.516-1.074-1.083zm58.114 408.324c0 .532-.532 1.055-1.074 1.055h-134.335c-5.522 0-10 4.477-10 10s4.478 10 10 10h85.222v29.146c0 .567-.498 1.083-1.046 1.083h-311.721c-.548 0-1.046-.516-1.046-1.083v-419.633c0-.567.498-1.083 1.046-1.083h29.113v370.516c0 11.609 9.454 21.055 21.074 21.055h87.603c5.522 0 10-4.477 10-10s-4.478-10-10-10h-87.603c-.572 0-1.074-.493-1.074-1.055v-419.662c0-.552.512-1.055 1.074-1.055h234.652v48.931c0 11.625 9.454 21.083 21.074 21.083h57.041z" fill="#0C2188"></path><path d="m281.065 254.534c49.805 0 90.323-40.548 90.323-90.389s-40.519-90.389-90.323-90.389-90.323 40.548-90.323 90.389 40.519 90.389 90.323 90.389zm0-160.778c38.776 0 70.323 31.577 70.323 70.389s-31.547 70.389-70.323 70.389-70.323-31.577-70.323-70.389 31.547-70.389 70.323-70.389z" fill="#0C2188"></path><path d="m281.065 211.845c5.522 0 10-4.477 10-10v-37.473c0-5.523-4.478-10-10-10s-10 4.477-10 10v37.473c0 5.523 4.478 10 10 10z" fill="#0C2188"></path><path d="m281.065 136.473c5.522 0 10-4.477 10-10v-.028c0-5.523-4.478-9.986-10-9.986s-10 4.491-10 10.014 4.478 10 10 10z" fill="#0C2188"></path><path d="m164.999 301.815h32.741c5.522 0 10-4.477 10-10s-4.478-10-10-10h-32.741c-5.522 0-10 4.477-10 10s4.478 10 10 10z" fill="#0C2188"></path><path d="m241.809 291.815c0 5.523 4.478 10 10 10h145.323c5.522 0 10-4.477 10-10s-4.478-10-10-10h-145.323c-5.523 0-10 4.477-10 10z" fill="#0C2188"></path><path d="m320.352 334.929c0-5.523-4.478-10-10-10h-145.353c-5.522 0-10 4.477-10 10s4.478 10 10 10h145.353c5.522 0 10-4.477 10-10z" fill="#0C2188"></path><path d="m397.132 324.929h-32.712c-5.522 0-10 4.477-10 10s4.478 10 10 10h32.712c5.522 0 10-4.477 10-10s-4.478-10-10-10z" fill="#0C2188"></path><path d="m197.74 368.015h-32.741c-5.522 0-10 4.477-10 10s4.478 10 10 10h32.741c5.522 0 10-4.477 10-10s-4.477-10-10-10z" fill="#0C2188"></path><path d="m397.132 368.015h-145.323c-5.522 0-10 4.477-10 10s4.478 10 10 10h145.323c5.522 0 10-4.477 10-10s-4.478-10-10-10z" fill="#0C2188"></path><path d="m257.728 441.771c-5.522 0-10 4.477-10 10s4.478 10 10 10h.028c5.522 0 9.985-4.477 9.985-10s-4.491-10-10.013-10z" fill="#0C2188"></path></g></svg>