<svg xmlns:xlink="http://www.w3.org/1999/xlink" xmlns="http://www.w3.org/2000/svg" id="Icons" viewBox="0 0 60 60" width="512" height="512"><path d="M2,45h9.824L9.178,51.614A2.469,2.469,0,0,0,11.471,55h1.383a3.122,3.122,0,0,0,2.913-1.972L18.978,45H23V57a3,3,0,0,0,3,3H56a3,3,0,0,0,3-3V42.919a2.5,2.5,0,0,0,1-2V36a3,3,0,0,0-3-3H51V3a3,3,0,0,0-3-3H4A3,3,0,0,0,1,3V39.278A1.993,1.993,0,0,0,0,41v2A2,2,0,0,0,2,45Zm11.91,7.285A1.132,1.132,0,0,1,12.854,53H11.471a.469.469,0,0,1-.436-.644L13.978,45h2.846ZM2,43V41H22.006A2.492,2.492,0,0,0,23,42.918V43ZM56,58H26a1,1,0,0,1-1-1V43.72l12,4V49a3,3,0,0,0,3,3h2a3,3,0,0,0,3-3V47.72l12-4V57A1,1,0,0,1,56,58ZM39,48h4v1a1,1,0,0,1-1,1H40a1,1,0,0,1-1-1ZM58,36v4.919a.5.5,0,0,1-.342.475L43.838,46H38.162l-13.82-4.606A.5.5,0,0,1,24,40.919V36a1,1,0,0,1,1-1H57A1,1,0,0,1,58,36ZM31.029,28.711A1.97,1.97,0,0,1,30,29a2,2,0,0,1,0-4,1.976,1.976,0,0,1,1.929,1.468A3.955,3.955,0,0,0,31.029,28.711ZM45,33H37V31h8Zm4,0H47V31a2,2,0,0,0-2-2H37a2,2,0,0,0-2,2v2H33V29a2,2,0,0,1,2-2H47a2,2,0,0,1,2,2ZM4,2H48a1,1,0,0,1,1,1V25.556A3.959,3.959,0,0,0,47,25H35a3.967,3.967,0,0,0-1.4.266A4.041,4.041,0,1,0,31,30.857V33H25a3,3,0,0,0-3,3v3H3V3A1,1,0,0,1,4,2Z" fill="#0C2188"></path><path d="M7.4,35.8A.989.989,0,0,0,8,36a1,1,0,0,0,.8-.4c.141-.188,14.04-18.377,33.323-25.852l-.766,1.714a1,1,0,0,0,.505,1.321.989.989,0,0,0,.408.087,1,1,0,0,0,.914-.592l1.731-3.873a1,1,0,0,0-.5-1.321L40.535,5.355a1,1,0,0,0-.816,1.827l1.624.726c-19.8,7.7-34,26.3-34.141,26.489A1,1,0,0,0,7.4,35.8Z" fill="#0C2188"></path><path d="M6.293,20.707a1,1,0,0,0,1.414,0L9,19.414l1.293,1.293a1,1,0,0,0,1.414-1.414L10.414,18l1.293-1.293a1,1,0,0,0-1.414-1.414L9,16.586,7.707,15.293a1,1,0,0,0-1.414,1.414L7.586,18,6.293,19.293A1,1,0,0,0,6.293,20.707Z" fill="#0C2188"></path><path d="M41.707,15.293a1,1,0,0,0-1.414,0L39,16.586l-1.293-1.293a1,1,0,0,0-1.414,1.414L37.586,18l-1.293,1.293a1,1,0,1,0,1.414,1.414L39,19.414l1.293,1.293a1,1,0,0,0,1.414-1.414L40.414,18l1.293-1.293A1,1,0,0,0,41.707,15.293Z" fill="#0C2188"></path><path d="M20,14a4,4,0,1,0-4-4A4,4,0,0,0,20,14Zm0-6a2,2,0,1,1-2,2A2,2,0,0,1,20,8Z" fill="#0C2188"></path></svg>