<svg xmlns:xlink="http://www.w3.org/1999/xlink" xmlns="http://www.w3.org/2000/svg" viewBox="0 0 60 54" width="60"  height="54" ><g id="Page-1" fill-rule="evenodd" fill="#0C2188"><g id="040---Computer-Cleaner" fill-rule="nonzero" fill="#0C2188"><path id="Shape" d="m58 42v-31c-.0033061-2.76005315-2.2399468-4.99669388-5-5h-7.059l-.461-.461c-.6468114-.65277308-1.6621039-.76410083-2.435-.267l-3.36 2.158c-1.4937394-.88315034-3.107961-1.54440178-4.792-1.963l-.874-3.934c-.1962402-.89826323-.9935603-1.53720293-1.913-1.533h-4.212c-.9198755-.00448425-1.7175115.63512559-1.913 1.534l-.849 3.9c-1.6798749.43457463-3.2876771 1.11097666-4.773 2.008l-3.4-2.166c-.7733423-.49739183-1.789288-.38562113-2.436.268l-.46.46h-7.063c-2.76005315.00330612-4.99669388 2.23994685-5 5v30.996c-1.1045695 0-2 .8954305-2 2v3c.00440864 3.8641657 3.13583434 6.9955914 7 7h46c3.8641657-.0044086 6.9955914-3.1358343 7-7v-3c0-1.1045695-.8954305-2-2-2zm-54-31c0-1.65685425 1.34314575-3 3-3h5.059l-.519.519c-.6532556.64688863-.7649966 1.6625647-.268 2.436l2.159 3.36c-.8839033 1.4937207-1.5451981 3.1083849-1.963 4.793l-3.936.874c-.89792414.1958807-1.53659619.9929701-1.532 1.912v4.212c-.00449493.9193322.63467816 1.7165266 1.533 1.912l4.508 1c.5393061.1198458 1.0736542-.2201939 1.1935-.7595s-.2201939-1.0736542-.7595-1.1935l-4.475-.959-.033-4.172 3.933-.874c.7167811-.1606061 1.2826037-.710196 1.464-1.422.3963044-1.5122343.9986089-2.9628124 1.79-4.311.3762611-.6316518.3650469-1.4212879-.029-2.042l-2.172-3.352 2.108-2.141c.0837923-.0617951.1573558-.13637099.218-.221l.6-.611 3.4 2.165c.6209869.39369351 1.4103541.40567118 2.043.031 1.3480829-.79184108 2.7986777-1.39448903 4.311-1.791.714035-.18022269 1.2660976-.74658939 1.428-1.465l.833-3.9 4.171-.033.874 3.933c.1614049.71670307.7111695 1.28230769 1.423 1.464 1.5125786.39668912 2.9634799.99932463 4.312 1.791.6316543.37531439 1.4206494.3637172 2.041-.03l3.352-2.172.706.695c.0305806.03597689.0640231.06941942.1.1l2.165 2.132-2.165 3.4c-.394766.6207633-.4063688 1.4109132-.03 2.043.7914714 1.3486217 1.3940949 2.7994942 1.791 4.312.1803248.7137481.7474253 1.2649883 1.466 1.425l3.9.834.033 4.172-4.508 1c-.4973261.1109624-.8316854.5781287-.7763149 1.084666.0553704.5065373.482761.8904354.9923149.891334.0732835.0002179.1463755-.0074936.218-.023l4.509-1c.8982927-.1959585 1.5370698-.9935959 1.532-1.913v-4.212c.0044949-.9193322-.6346782-1.7165266-1.533-1.912l-3.9-.851c-.4350819-1.6793883-1.1114567-3.2867891-2.008-4.772l2.166-3.4c.4969966-.7734353.3852556-1.78911137-.268-2.436l-.516-.523h5.059c1.6568542 0 3 1.34314575 3 3v31h-52zm17 33h18v1c0 1.1045695-.8954305 2-2 2h-14c-1.1045695 0-2-.8954305-2-2zm37 3c-.0033061 2.7600532-2.2399468 4.9966939-5 5h-46c-2.76005315-.0033061-4.99669388-2.2399468-5-5v-3h17v1c0 2.209139 1.790861 4 4 4h14c2.209139 0 4-1.790861 4-4v-1h17z" fill="#0C2188"></path><path id="Shape" d="m15 46h-3c-.5522847 0-1 .4477153-1 1s.4477153 1 1 1h3c.5522847 0 1-.4477153 1-1s-.4477153-1-1-1z" fill="#0C2188"></path><circle id="Oval" cx="6" cy="47" r="1" fill="#0C2188"></circle><circle id="Oval" cx="9" cy="47" r="1" fill="#0C2188"></circle><path id="Shape" d="m42 40c1.1045695 0 2-.8954305 2-2v-8c-.0033061-2.7600532-2.2399468-4.9966939-5-5h-4v-7c0-2.7614237-2.2385763-5-5-5s-5 2.2385763-5 5v7h-4c-2.7600532.0033061-4.9966939 2.2399468-5 5v8c0 1.1045695.8954305 2 2 2zm-17-6v4h-2v-4zm4 0v4h-2v-4zm4 0v4h-2v-4zm4 0v4h-2v-4zm2 4v-4h3v4zm-12-20c0-1.6568542 1.3431458-3 3-3s3 1.3431458 3 3v7h-6zm-9 12c0-1.6568542 1.3431458-3 3-3h18c1.6568542 0 3 1.3431458 3 3v2h-24zm0 4h3v4h-3z" fill="#0C2188"></path><path id="Shape" d="m17 24c0-7.1797017 5.8202983-13 13-13s13 5.8202983 13 13c0 .5522847.4477153 1 1 1s1-.4477153 1-1c0-8.2842712-6.7157288-15-15-15s-15 6.7157288-15 15c0 .5522847.4477153 1 1 1s1-.4477153 1-1z" fill="#0C2188"></path></g></g></svg>