<svg xmlns:xlink="http://www.w3.org/1999/xlink" xmlns="http://www.w3.org/2000/svg" id="_x33_0" enable-background="new 0 0 64 64" height="512" viewBox="0 0 64 64" width="512"><g fill="#0C2188"><path d="m63 33c0-3.309-2.691-6-6-6-.962 0-1.833.355-2.524.923-1.252-.594-2.619-.923-4.01-.923-2.502 0-4.855.975-6.625 2.744l-.362.362c-.323.096-.632.224-.932.369-1.101-3.181-4.119-5.475-7.67-5.475h-4.715c-2.178 0-4.119 1.301-4.958 3.28l-1.414.707c-1.189.595-2.057 1.609-2.486 2.811-1.997-1.772-4.596-2.798-7.304-2.798-6.065 0-11 4.935-11 11v6.757c0 2.36.744 4.649 2.11 6.552-2.54 2.084-4.11 5.233-4.11 8.691v1h62v-1c0-5.067-3.366-9.479-8.224-10.833l-.286-.858c1.215-.706 2.119-1.89 2.408-3.31h.102c2.206 0 4-1.794 4-4 0-1.349-.676-2.539-1.702-3.264 2.222-1.422 3.702-3.906 3.702-6.735zm-18.757-1.03.269-.067.745-.745c1.391-1.391 3.241-2.158 5.209-2.158.967 0 1.924.192 2.813.559-.174.448-.279.932-.279 1.441 0 2.206 1.794 4 4 4v-2c-1.103 0-2-.897-2-2s.897-2 2-2c2.206 0 4 1.794 4 4 0 3.309-2.691 6-6 6s-6-2.691-6-6h-2c0 .718.104 1.41.282 2.073-2.086.304-3.764 1.88-4.181 3.927h-.101c0-.815-.248-1.572-.668-2.205l.425-1.701c.161-.643.243-1.306.243-1.971 0-.194-.016-.383-.029-.574.393-.254.81-.463 1.272-.579zm.981 19.197c-.859.239-1.671.603-2.446 1.035-1.436-2.171-3.496-3.925-5.977-4.961l-.311-.933c1.215-.706 2.119-1.89 2.408-3.31h.102c0 2.206 1.794 4 4 4h.101c.289 1.419 1.193 2.604 2.408 3.31zm-33.701 5.833h4.953c-.501 1.409-1.352 2.681-2.477 3.692-1.123-1.011-1.975-2.283-2.476-3.692zm2.477-8c-2.757 0-5-2.243-5-5v-3.838c0-1.221.65-2.323 1.673-2.922 1.431 1.762 3.485 2.935 5.751 3.259 1.468.21 2.576 1.487 2.576 2.97v.531c0 2.757-2.243 5-5 5zm0 2c.77 0 1.508-.13 2.202-.36l.798 1.596v1.764c0 .336-.022.669-.059 1h-5.881c-.038-.331-.06-.664-.06-1v-1.764l.798-1.596c.694.23 1.432.36 2.202.36zm5 3v-.651c.433.162.854.351 1.258.576-.81 1.73-1.258 3.641-1.258 5.619v1.456h-2.523c1.607-1.953 2.523-4.433 2.523-7zm6-13c-1.103 0-2-.897-2-2s.897-2 2-2zm.101 2c.289 1.419 1.193 2.604 2.408 3.31l-.311.933c-.836.349-1.619.785-2.352 1.286.094-.585.154-1.175.154-1.772v-3.757zm2.862 6.1 1.96.98-2.458 1.475-.787-1.823c.411-.238.841-.446 1.285-.632zm8.074 0c.444.186.874.394 1.285.632l-.787 1.823-2.458-1.475zm-1.26-1.607-2.777 1.389-2.777-1.388.184-.553c.197.023.39.059.593.059h4c.203 0 .396-.036.593-.06zm-.777-2.493h-4c-1.654 0-3-1.346-3-3v-6.043c0-1.079.878-1.957 1.957-1.957h6.087c1.078 0 1.956.878 1.956 1.957v6.043c0 1.654-1.346 3-3 3zm-13 14.544c0-3.37 1.527-6.511 4.011-8.629l1.524 3.53 5.465-3.279 5.465 3.279 1.524-3.53c2.484 2.118 4.011 5.259 4.011 8.629v1.456h-22zm18-22.544c1.103 0 2 .897 2 2s-.897 2-2 2zm4 4v4c-1.103 0-2-.897-2-2 0-.213.044-.417.109-.616.517-.324.952-.758 1.276-1.276.198-.064.402-.108.615-.108zm-18.315-10.224 2.133-1.067.131-.393c.462-1.385 1.753-2.316 3.213-2.316h4.715c3.376 0 6.123 2.747 6.123 6.123 0 .501-.062 1-.183 1.485l-.187.747c-.499-.224-1.048-.355-1.63-.355h-.13c-.431-1.718-1.976-3-3.826-3h-6.087c-1.85 0-3.396 1.282-3.826 3h-.131c-.582 0-1.131.131-1.63.356l-.279-1.116c-.06-.24-.091-.489-.091-.739 0-1.161.646-2.206 1.685-2.725zm-19.685 15.981v-6.757c0-4.962 4.038-9 9-9 2.813 0 5.388 1.275 7.108 3.493.016.077.024.156.043.232l.517 2.069c-.42.634-.668 1.391-.668 2.206 0 1.474.81 2.75 2 3.444v4.314c0 1.714-.476 3.392-1.375 4.852l.014.009c-.138.186-.276.372-.404.565-.801-.447-1.652-.797-2.545-1.039l-.7-1.4c1.817-1.267 3.01-3.368 3.01-5.745v-.531c0-2.472-1.845-4.6-4.292-4.95-1.985-.284-3.761-1.403-4.875-3.074l-.424-.636-.725.242c-2.204.735-3.684 2.789-3.684 5.111v3.838c0 2.377 1.193 4.478 3.01 5.744l-.7 1.4c-.906.245-1.759.597-2.551 1.038-1.139-1.572-1.759-3.469-1.759-5.425zm4 6.608v.635c0 2.567.916 5.047 2.523 7h-8.469c.373-3.47 2.682-6.411 5.946-7.635zm51.946 7.635h-15.946v-1.456c0-1.969-.445-3.873-1.248-5.596.621-.346 1.275-.625 1.961-.82l.166.166c1.1 1.1 2.564 1.706 4.121 1.706s3.021-.606 4.121-1.707l.166-.166c3.641 1.039 6.259 4.155 6.659 7.873zm-8.09-9.27-.149.149c-1.446 1.446-3.968 1.446-5.414 0l-.149-.149.263-.79c.197.024.39.06.593.06h4c.203 0 .396-.036.593-.06zm2.144-5.73c0 1.654-1.346 3-3 3h-4c-1.654 0-3-1.346-3-3v-6c0-1.654 1.346-3 3-3h.082c1.386 2.387 3.964 4 6.918 4zm2-1v-4c1.103 0 2 .897 2 2s-.897 2-2 2z" fill="#0C2188"></path><path d="m54.613 11c-4.54-3.67-9.913-6.176-15.613-7.302v-2.698h-14v2.703c-6.735 1.327-12.891 4.521-17.88 9.297h-6.12v14h14v-14h-4.909c4.302-3.635 9.399-6.102 14.909-7.254v9.254h14v-9.26c4.39.92 8.563 2.712 12.263 5.26h-2.263v14h14v-14zm-51.613 14v-10h8.796l-4.845 5.537-1.244-1.244-1.414 1.414 2.756 2.756 5.951-6.802v8.339zm24-12v-10h8.796l-4.845 5.537-1.244-1.244-1.414 1.414 2.756 2.756 5.951-6.802v8.339zm24 10v-10h8.796l-4.845 5.537-1.244-1.244-1.414 1.414 2.756 2.756 5.951-6.802v8.339z" fill="#0C2188"></path><path d="m31 19h2v2h-2z" fill="#0C2188"></path><path d="m35 19h2v2h-2z" fill="#0C2188"></path><path d="m27 19h2v2h-2z" fill="#0C2188"></path></g></svg>