<svg xmlns:xlink="http://www.w3.org/1999/xlink" xmlns="http://www.w3.org/2000/svg" clip-rule="evenodd" fill-rule="evenodd" height="512" image-rendering="optimizeQuality" shape-rendering="geometricPrecision" text-rendering="geometricPrecision" viewBox="0 0 43.3492 43.3492" width="512"><g id="Layer_x0020_1" fill="#0C2188"><g id="_217887424" fill="#0C2188"><path id="_217889704" d="m36.8436 39.2559c-.1213 0-.2427-.0463-.3354-.139l-19.765-19.765c-.1843-.1844-.1844-.4841 0-.6694.1844-.1844.4841-.1844.6694 0l19.7651 19.7659c.1843.1844.1843.4841 0 .6685-.0925.0926-.214.139-.3341.139z" fill="#0C2188"></path><path id="_217889032" d="m13.4829 33.0842h-11.0704c-.2613 0-.4733-.2119-.4733-.4732l.0002-32.1378c0-.2613.2117-.4732.473-.4732h24.4085c.2613 0 .4733.212.4733.4732l.0001 14.453c0 .2613-.2121.4733-.4734.4733-.261 0-.4732-.212-.4732-.4732l.0001-13.9799h-23.4621v31.1914h10.5972c.2624 0 .4732.212.4732.4732.0002.2613-.211.4733-.4732.4732z" fill="#0C2188"></path><path id="_217888384" d="m5.458 6.8765h18.3177v-3.3579h-18.3177zm18.7909.9465h-19.2643c-.2611 0-.4732-.212-.4732-.4732v-4.3044c0-.2613.2119-.4732.4731-.4732l19.2644-.0001c.2613 0 .473.212.473.4733l.0001 4.3043c0 .2613-.212.4733-.4731.4733z" fill="#0C2188"></path><path id="_217888816" d="m23.7984 11.1799h-18.3642c-.2613 0-.4733-.2119-.4733-.4732.0002-.2613.2119-.4732.4732-.4732l18.3643-.0001c.2611 0 .473.212.473.4733.0001.2612-.2119.4732-.473.4732z" fill="#0C2188"></path><path id="_217888768" d="m21.018 14.3288h-15.5838c-.2613 0-.4733-.211-.4733-.4732.0002-.2613.2119-.4722.4732-.4722h15.5839c.2613 0 .4732.211.4732.4722.0002.2622-.2119.4732-.4732.4732z" fill="#0C2188"></path><path id="_217888888" d="m16.6931 17.4787h-11.2589c-.2613 0-.4733-.212-.4733-.4732.0002-.2623.2119-.4732.4732-.4732h11.259c.2611 0 .4731.211.4731.4732.0001.2612-.212.4732-.4731.4732z" fill="#0C2188"></path><path id="_217888792" d="m13.132 20.6276h-7.6978c-.2613 0-.4733-.2119-.4733-.4732.0002-.2613.2119-.4732.4732-.4732h7.6979c.2613 0 .4731.212.4731.4732.0002.2612-.2119.4732-.4731.4732z" fill="#0C2188"></path><path id="_217888312" d="m11.2234 23.7765h-5.7892c-.2613 0-.4733-.2119-.4733-.4732.0002-.2613.2119-.4732.4732-.4732h5.7893c.2613 0 .4731.212.4731.4732 0 .2613-.212.4732-.4731.4732z" fill="#0C2188"></path><path id="_217888648" d="m10.2711 26.9254h-4.8369c-.2613 0-.4733-.2119-.4733-.4732.0002-.2612.2119-.4732.4732-.4732l4.837-.0001c.2622 0 .473.2121.473.4733.0002.2613-.211.4733-.473.4732z" fill="#0C2188"></path><path id="_217888600" d="m26.9609 15.3975c-7.4462 0-13.5036 6.0573-13.5036 13.5027.0001 7.4453 6.0573 13.5026 13.5036 13.5026 7.4455 0 13.5027-6.0572 13.5027-13.5026.0002-7.4454-6.0573-13.5027-13.5027-13.5027zm0 27.9517c-7.9677 0-14.4501-6.4821-14.4501-14.449.0001-7.968 6.4822-14.4491 14.4501-14.4491 7.967-.0001 14.4491 6.4812 14.4491 14.4491.0001 7.9669-6.4821 14.4491-14.4491 14.449z" fill="#0C2188"></path><path id="_217888552" d="m34.4468 24.859c-.0561 0-.1135-.0098-.1696-.0315-.4209-.1617-.8321-.4131-1.2669-.6803-1.1278-.6921-2.5317-1.5527-5.1788-1.5764-.2621-.002-.4723-.2159-.4693-.4772.002-.2612.2189-.4692.4771-.4692 2.9106.0256 4.5026 1.0026 5.6659 1.7164.4141.2533.771.4732 1.1111.6033.2435.0937.3658.3668.2721.6113-.0718.1883-.2514.3037-.4416.3036z" fill="#0C2188"></path><path id="_217888456" d="m26.96 17.2776c-.2868 0-.5216.2337-.5216.5215.0001.2879.2347.5216.5215.5216.2881 0 .5226-.2337.5226-.5216.0002-.2879-.2347-.5215-.5225-.5215zm0 1.9895c-.8094 0-1.468-.6586-1.468-1.468s.6585-1.4679 1.4679-1.4679c.8104-.0001 1.469.6585 1.469 1.4679s-.6586 1.468-1.4689 1.468z" fill="#0C2188"></path><path id="_217888240" d="m25.1726 29.1131c-.146 0-.2692.1233-.2692.2702.0001.1458.1232.2691.2691.2691l3.5759-.0001c.1459 0 .2691-.1231.2691-.269.0002-.147-.1232-.2702-.2692-.2702zm3.5758 1.4857h-3.5758c-.6704 0-1.2157-.5451-1.2157-1.2155.0001-.6705.5452-1.2166 1.2156-1.2166l3.5759-.0001c.6705 0 1.2155.5462 1.2155 1.2167.0001.6703-.5452 1.2156-1.2155 1.2155z" fill="#0C2188"></path><path id="_217888192" d="m27.6925 38.7747c-.2613 0-.4733-.2119-.4733-.4731l.0001-2.521c0-.6595.1173-1.3693.2306-2.0555.2031-1.2304.4131-2.5032-.0848-3.3619-.1309-.2258-.0542-.5156.1716-.6467.2268-.1312.5156-.0542.6467.1725.6686 1.1525.4309 2.5948.2002 3.9899-.1124.6792-.2179 1.3201-.2179 1.9018l.0002 2.5208c0 .2613-.2122.4733-.4734.4732z" fill="#0C2188"></path><path id="_217887544" d="m29.4682 38.7747h.0009zm-4.9542.565h4.893v-.565h-4.893zm4.9542.9464h-5.0152c-.488 0-.8855-.3973-.8855-.8853l.0002-.6872c0-.488.3971-.8853.8851-.8853h5.0154c.488 0 .8852.3973.8852.8853l.0001.6872c0 .488-.3975.8853-.8853.8853z" fill="#0C2188"></path><path id="_217887856" d="m26.0856 29.1131c-.2613 0-.4734-.212-.4734-.4732v-7.9945c0-.2613.212-.4723.4733-.4723.2614 0 .4732.211.4732.4723v7.9945c0 .2612-.212.4732-.4731.4732zm1.75 0c-.2613 0-.4734-.212-.4734-.4732v-7.9945c0-.2613.212-.4723.4732-.4723.2613 0 .4732.211.4732.4723l.0001 7.9945c0 .2612-.212.4732-.4731.4732z" fill="#0C2188"></path><path id="_217888144" d="m35.4188 24.2724c-.3449 0-.626.281-.626.6261.0001.346.281.627.626.627.3461 0 .6271-.281.6271-.627 0-.3451-.281-.6261-.6271-.6261zm0 2.1985c-.8664 0-1.5725-.7048-1.5725-1.5724 0-.8667.7059-1.5725 1.5725-1.5725.8676 0 1.5735.7059 1.5735 1.5725.0002.8675-.7059 1.5724-1.5735 1.5724z" fill="#0C2188"></path><path id="_217888072" d="m19.4741 24.859c-.1901 0-.3697-.1153-.4417-.3036-.0935-.2446.0277-.5176.2722-.6113.3392-.1302.697-.3499 1.111-.6033 1.1634-.7138 2.7556-1.6908 5.6659-1.7164.0021-.0001.0029 0 .004 0 .2603-.0001.4712.209.4732.4692.0032.2612-.2071.4752-.4693.4772-2.6471.0236-4.051.8843-5.1789 1.5764-.4346.2672-.8458.5186-1.2668.6803-.056.0217-.1134.0316-.1696.0315z" fill="#0C2188"></path><path id="_217888024" d="m18.5021 24.2724c-.3461 0-.6271.281-.6271.6261 0 .346.281.627.627.627.3453 0 .626-.281.626-.627.0001-.3451-.2809-.6261-.6259-.6261zm0 2.1985c-.8676 0-1.5735-.7048-1.5735-1.5724.0001-.8667.7059-1.5725 1.5734-1.5725.8668 0 1.5725.7059 1.5725 1.5725.0001.8675-.7059 1.5724-1.5724 1.5724z" fill="#0C2188"></path><path id="_217887784" d="m32.8113 32.3842c.2928.845 1.3515 1.473 2.6075 1.473 1.2571 0 2.3159-.628 2.6077-1.4729zm2.6075 2.4194c-2.0033 0-3.6339-1.2974-3.6339-2.8925 0-.2613.2119-.4733.4732-.4733h6.3226c.2611 0 .4731.212.4731.4733.0001 1.5951-1.6307 2.8925-3.635 2.8925z" fill="#0C2188"></path><path id="_217887472" d="m15.8946 32.3842c.2916.845 1.3504 1.473 2.6074 1.473 1.2561 0 2.3149-.628 2.6077-1.4729zm2.6075 2.4194c-2.0042 0-3.635-1.2974-3.635-2.8925 0-.2613.2119-.4733.4732-.4733h6.3226c.2613 0 .4731.212.4731.4733 0 1.5951-1.6307 2.8925-3.6339 2.8925z" fill="#0C2188"></path><path id="_217887640" d="m38.5807 32.3842c-.1686 0-.3324-.0906-.4172-.2503l-2.7447-5.1316-2.7435 5.1315c-.1233.2307-.4103.3175-.64.1943-.2306-.1233-.3175-.4101-.1942-.6398l3.1607-5.9134c.083-.1538.2425-.2494.417-.2494.1755 0 .3352.0956.418.2494l3.1609 5.9134c.1231.2297.0364.5165-.1943.6398-.0709.0384-.1469.0562-.2227.0561z" fill="#0C2188"></path><path id="_217887976" d="m21.6629 32.3842c-.1686 0-.3324-.0906-.4172-.2503l-2.7436-5.1316-2.7446 5.1315c-.1234.2307-.4093.3175-.64.1943-.2307-.1233-.3174-.4101-.1942-.6398l3.1609-5.9134c.0827-.1538.2423-.2494.4178-.2494.1747 0 .3343.0956.4171.2494l3.1608 5.9134c.1233.2297.0364.5165-.1943.6398-.071.0384-.1469.0562-.2227.0561z" fill="#0C2188"></path><path id="_217887064" d="m26.2285 38.7747c-.2612 0-.4733-.2119-.4733-.4731l.0001-2.521c0-.5816-.1056-1.2225-.218-1.9017-.2305-1.3951-.4683-2.8374.2001-3.9899.1312-.2268.42-.3036.6468-.1725.2258.1311.3027.421.1715.6467-.4978.8587-.2878 2.1315-.0848 3.3619.1136.6861.2307 1.396.2307 2.0556l.0002 2.5208c0 .2613-.2121.4733-.4733.4732z" fill="#0C2188"></path><path id="_217887208" d="m28.2131 21.1186h-2.505c-.6389 0-1.1587-.489-1.1587-1.0914.0001-.4781.3264-.8971.8105-1.0411.1638-.0483.208-.135.2957-.5767.0099-.0454.0188-.0907.0276-.1361.0543-.2553.3056-.418.561-.3647.2564.0542.42.3056.3657.5609-.0088.0424-.0177.0838-.0256.1252-.0857.4299-.2159 1.0786-.9543 1.2985-.0779.0236-.1341.0798-.1341.134.0001.069.0907.1459.212.1459h2.5052c.1214 0 .2118-.0768.2118-.1459 0-.0542-.0562-.1104-.134-.134-.7384-.2199-.8686-.8686-.9543-1.2985-.0079-.0414-.0168-.0828-.0257-.1252-.0541-.2553.1094-.5067.3648-.5609.2564-.0533.5077.1094.5609.3647.01.0454.0188.0908.0286.1361.0879.4417.1322.5284.2958.5767.4842.1439.8104.563.8104 1.0411.0001.6024-.5195 1.0914-1.1583 1.0914z" fill="#0C2188"></path><path id="_217887448" d="m18.5021 32.3842c-.2622 0-.4733-.2119-.4733-.4731l.0001-5.9134c0-.2612.2109-.4722.4731-.4722.2614 0 .4733.211.4733.4723v5.9132c0 .2613-.212.4733-.4732.4732z" fill="#0C2188"></path><path id="_217887160" d="m35.4188 32.3842c-.261 0-.4732-.2119-.4732-.4731l.0001-5.9134c.0009-.2612.2119-.4722.4731-.4722.2625 0 .4742.211.4732.4723l.0002 5.9132c0 .2613-.2121.4733-.4734.4732z" fill="#0C2188"></path></g></g></svg>