<svg xmlns:xlink="http://www.w3.org/1999/xlink" xmlns="http://www.w3.org/2000/svg" id="Capa_1" enable-background="new 0 0 512.028 512.028" height="512" viewBox="0 0 512.028 512.028" width="512"><g fill="#0C2188"><path d="m478.806.014h-382.836c-18.319 0-33.223 14.903-33.223 33.222v67.895c0 4.143 3.357 7.5 7.5 7.5s7.5-3.357 7.5-7.5v-67.895c0-10.048 8.175-18.222 18.223-18.222h382.836c10.048 0 18.223 8.174 18.223 18.222v255.22c0 7.748-4.793 14.398-11.706 17.021-3.327-6.289-10.26-10.637-18.28-10.637h-8.617c-4.886 0-9.373 1.612-12.888 4.292-3.515-2.68-8.002-4.292-12.888-4.292h-8.617c-4.886 0-9.373 1.612-12.888 4.292-3.515-2.68-8.003-4.292-12.888-4.292h-8.616c-1.868 0-3.669.255-5.389.695v-8.1h84.635c4.907 0 8.9-4.027 8.9-8.979v-235.22c0-4.951-3.993-8.979-8.9-8.979h-352.092c-4.906 0-8.898 4.027-8.898 8.979v223.358l-28.01 30.375c-1.375-2.599-2.14-5.51-2.14-8.513v-156.554c0-4.143-3.357-7.5-7.5-7.5s-7.5 3.357-7.5 7.5v48.451l-51.097 79.273c-15.909 24.681-15.494 56.3 1.057 80.555l32.527 47.668c4.576 6.706 7.155 14.539 7.457 22.651l1.991 53.38c.151 4.045 3.477 7.221 7.49 7.221.094 0 .189-.002.284-.005 4.14-.154 7.37-3.636 7.216-7.774l-1.991-53.38c-.408-10.94-3.886-21.504-10.057-30.548l-32.527-47.668c-13.145-19.262-13.474-44.373-.84-63.973l38.489-59.714v80.416c0 7.236 2.367 14.208 6.632 19.908l-5.088 5.518c-2.808 3.045-2.615 7.79.43 10.598 3.044 2.808 7.789 2.617 10.598-.43l78.795-85.448c3.911-4.24 10.479-4.322 14.515-.378 3.248 3.174 3.98 8.167 1.782 12.141l-47.369 85.583c-3.301 5.962-2.635 13.214 1.695 18.475 9.419 11.442 12.235 27.242 7.349 41.233-2.319 6.643-3.579 13.579-3.743 20.615l-.91 39.144c-.097 4.142 3.183 7.576 7.323 7.673.06.001.119.002.178.002 4.062 0 7.4-3.244 7.495-7.325l.91-39.144c.127-5.468 1.106-10.857 2.909-16.02 6.601-18.903 2.797-40.251-9.93-55.712-.393-.478-.453-1.135-.153-1.677l11.918-21.533h186.775v35.635l-23.874-11.624c-9.307-4.529-20.295-2.261-27.344 5.648-9.023 10.126-8.892 25.853.299 35.805l44.932 48.646c3.805 4.119 5.987 9.904 5.987 15.871v52.855c0 4.143 3.357 7.5 7.5 7.5s7.5-3.357 7.5-7.5v-52.855c0-9.839-3.54-19.09-9.968-26.049l-44.932-48.646c-3.88-4.2-3.935-11.366-.119-15.647 2.57-2.884 6.329-3.724 9.578-2.142l34.657 16.874c4.989 2.441 10.783-1.264 10.783-6.743v-128.319c0-6.311 4.351-11.445 9.697-11.445s9.696 5.135 9.696 11.445v128.319c0 4.143 3.357 7.5 7.5 7.5s7.5-3.357 7.5-7.5v-55.47c0-2.166 2.468-3.996 5.389-3.996h8.616c2.921 0 5.389 1.83 5.389 3.996v55.47c0 4.143 3.357 7.5 7.5 7.5s7.5-3.357 7.5-7.5v-55.47c0-2.166 2.467-3.996 5.388-3.996h8.617c2.921 0 5.388 1.83 5.388 3.996v55.47c0 4.143 3.357 7.5 7.5 7.5s7.5-3.357 7.5-7.5v-55.47c0-2.166 2.468-3.996 5.389-3.996h8.617c2.921 0 5.388 1.83 5.388 3.996v55.47c0 .773.17 1.747.408 2.439l7.056 20.514c1.646 4.788 2.292 10.02 1.866 15.129-.343 4.128 2.725 7.753 6.853 8.097.212.018.422.025.631.025 3.859 0 7.14-2.962 7.466-6.878.596-7.164-.313-14.514-2.632-21.252l-6.647-19.327v-47.508c14.335-3.808 24.598-16.783 24.598-32.09v-255.219c-.001-18.319-14.904-33.222-33.223-33.222zm-322.421 306.664 10.651-19.243h167.822v19.243zm203.17-92.136c-13.174 0-23.97 11.102-24.661 25.026h-24.082c-2.965 0-5.377-2.412-5.377-5.377v-32.312c0-2.965 2.412-5.377 5.377-5.377h33.748c4.143 0 7.5-3.357 7.5-7.5s-3.357-7.5-7.5-7.5h-33.748c-11.236 0-20.377 9.141-20.377 20.377v32.312c0 11.236 9.141 20.377 20.377 20.377h24.045v17.867h-159.519l8.196-14.808c5.458-9.864 3.64-22.255-4.423-30.133-10.109-9.879-26.399-9.502-36.025.938l-20.189 21.894v-201.069h339.89v223.178h-78.535v-17.867h27.243c11.236 0 20.377-9.141 20.377-20.377v-32.312c0-11.236-9.141-20.377-20.377-20.377h-36.946c-4.143 0-7.5 3.357-7.5 7.5s3.357 7.5 7.5 7.5h36.946c2.965 0 5.377 2.412 5.377 5.377v32.312c0 2.965-2.412 5.377-5.377 5.377h-27.28c-.692-13.925-11.488-25.026-24.66-25.026z" fill="#0C2188"></path><path d="m100.542 166.946v-12.199c0-4.143-3.357-7.5-7.5-7.5s-7.5 3.357-7.5 7.5v12.199c0 4.143 3.357 7.5 7.5 7.5s7.5-3.358 7.5-7.5z" fill="#0C2188"></path><path d="m481.121 430.199c-3.512-2.198-8.139-1.133-10.337 2.378l-9.194 14.689c-4.158 6.64-6.355 14.393-6.355 22.418v34.83c0 4.143 3.357 7.5 7.5 7.5s7.5-3.357 7.5-7.5v-34.83c0-5.207 1.407-10.207 4.069-14.459l9.195-14.689c2.197-3.511 1.133-8.139-2.378-10.337z" fill="#0C2188"></path><path d="m305.795 105.826-79.599-43.802c-2.809-1.544-6.162-1.542-8.975.002l-79.596 43.801c-2.973 1.637-4.819 4.763-4.819 8.156s1.847 6.52 4.821 8.158l24.646 13.562v52.033c0 6.308 3.768 11.96 9.599 14.401 33.071 13.838 66.606 13.839 99.68-.001 5.83-2.44 9.597-8.093 9.597-14.4v-52.033l24.646-13.563c2.975-1.637 4.822-4.763 4.822-8.157s-1.847-6.521-4.822-8.157zm-39.647 81.91c0 .244-.153.465-.389.563-29.639 12.404-58.457 12.405-88.096.001-.237-.1-.391-.321-.391-.564v-43.779l39.944 21.98c1.407.775 2.951 1.163 4.495 1.163 1.542 0 3.084-.387 4.488-1.16l18.695-10.288v16.157c0 4.143 3.357 7.5 7.5 7.5s7.5-3.357 7.5-7.5v-24.411l6.252-3.44v43.778zm-12.578-53.979-26.709-25.227c-3.011-2.844-7.758-2.71-10.602.303-2.845 3.011-2.709 7.758.303 10.602l23.205 21.917-18.057 9.936c-18.638-10.256-46.548-25.614-67.794-37.306l67.794-37.306 67.795 37.306c-8.864 4.879-27.119 14.924-35.935 19.775z" fill="#0C2188"></path><path d="m337.789 114.395h56.158c4.143 0 7.5-3.357 7.5-7.5s-3.357-7.5-7.5-7.5h-56.158c-4.143 0-7.5 3.357-7.5 7.5s3.358 7.5 7.5 7.5z" fill="#0C2188"></path><path d="m441.447 141.303c0-4.143-3.357-7.5-7.5-7.5h-96.158c-4.143 0-7.5 3.357-7.5 7.5s3.357 7.5 7.5 7.5h96.158c4.143 0 7.5-3.357 7.5-7.5z" fill="#0C2188"></path></g></svg>