<svg xmlns:xlink="http://www.w3.org/1999/xlink" xmlns="http://www.w3.org/2000/svg" id="icon" height="512" viewBox="0 0 340 340" width="512"><path d="m193.571 320.715a3.721 3.721 0 0 0 0-7.442 3.721 3.721 0 0 0 0 7.442z" fill="#0C2188"></path><path d="m265.456 209.436c-4.6.078-4.6 6.922 0 7h6.521a3.5 3.5 0 0 0 0-7z" fill="#0C2188"></path><path d="m263.514 232.242c1.375.714 6.993 5.249 8.459 4.935a3.512 3.512 0 0 0 1.945-6.412l-6.521-4.347a3.5 3.5 0 0 0 -3.883 5.824z" fill="#0C2188"></path><path d="m274.889 190.252a3.5 3.5 0 0 0 -4.854-.97l-6.521 4.347a3.5 3.5 0 0 0 3.883 5.824l6.521-4.347a3.5 3.5 0 0 0 .971-4.854z" fill="#0C2188"></path><path d="m305.718 116.647h-84.49a3.5 3.5 0 0 0 0 7h84.49a8.471 8.471 0 0 1 8.461 8.461v153.332h-122.5a24.618 24.618 0 0 0 -17.7 7.494v-62.6a3.5 3.5 0 0 0 -7 0v79.8a24.723 24.723 0 0 0 24.7 24.695h126a3.5 3.5 0 0 0 3.5-3.5v-199.221a15.478 15.478 0 0 0 -15.461-15.461zm8.461 183.129h-121.024a3.5 3.5 0 0 0 0 7h121.024v6.718h-105.144a3.5 3.5 0 1 0 0 7h105.144v7.336h-122.5a17.7 17.7 0 1 1 0-35.39h122.5z" fill="#0C2188"></path><path d="m229.062 230.485h9.338l10.691 9.107a3.523 3.523 0 0 0 5.77-2.664v-47.984a3.523 3.523 0 0 0 -5.77-2.664l-10.691 9.106h-9.333a8.883 8.883 0 0 0 -8.873 8.873v17.354a8.883 8.883 0 0 0 8.868 8.872zm-1.873-26.226a1.875 1.875 0 0 1 1.873-1.873h10.622a3.5 3.5 0 0 0 2.27-.836l5.9-5.027v32.826l-5.9-5.028a3.5 3.5 0 0 0 -2.27-.836h-10.622a1.875 1.875 0 0 1 -1.873-1.872z" fill="#0C2188"></path><path d="m206.434 128.189c8.746-33.516 13.184-130.334-56.761-122.579-56.831 2.19-99.935 37.52-100.495 100.799-43.7 20.81-39.27 88.322 7.165 102.3 22.914 18.8 56.317 11.5 71.652-13.164a52.517 52.517 0 0 0 42.544 21.643c46.989.086 70.033-57.44 35.895-88.999zm-56.2-115.6c16.261-1.663 29.054 2.788 38.031 13.229 20.425 23.757 17.34 73.145 12.112 97.5a52.475 52.475 0 0 0 -8.58-4.79c6.4-28.56 12.166-96.933-37.8-97.69-37.843.04-52.178 41.765-45.786 89.3a47.789 47.789 0 0 0 -8.359-3.466c-5.3-33.252-2.215-89.705 50.377-94.086zm34.9 103.522a50.361 50.361 0 0 0 -16.355-1.987q-1.05-.195-2.114-.342c9.327-15.18 20.089-63.384 1.781-82.672 28.212 14.041 20.268 65.949 16.688 84.998zm-116.597-59.145a78.85 78.85 0 0 1 46.333-37.834c-25.579 19.775-25.591 65.454-22.315 85.934a46.2 46.2 0 0 0 -5.72-.435 48.881 48.881 0 0 0 -30.613-.921 103.834 103.834 0 0 1 12.315-46.744zm-42.9 99.226c0-26.2 19.959-47.521 44.493-47.521 59.023 2.6 59 92.449 0 95.04-24.53 0-44.488-21.317-44.488-47.519zm60.617 56.183a39.7 39.7 0 0 1 -12-1.854c44.846-3.843 63.116-62.621 31.221-93.921 41.325 22.668 29.311 94.57-19.216 95.775zm45.456-23.457a62.249 62.249 0 0 0 6.042-26.918 63.172 63.172 0 0 0 -1.432-13.36c12.169-19.854 40.777-10.327 40.79 12.76 0 13-9.942 23.578-22.163 23.578a20.852 20.852 0 0 1 -9.583-2.313 3.5 3.5 0 0 0 -4.71 1.523c-2.733 6.172 10.322 7.735 14.293 7.79 16.08 0 29.163-13.718 29.163-30.578.062-27.1-31.889-41.1-50.218-21.121a57.227 57.227 0 0 0 -18.009-25.13c-6.407-44.784 1.8-85.6 37.235-87.347 30.35 13.724 16.535 69.338 5.629 85.6a44.5 44.5 0 0 0 -22.735 7.413 3.5 3.5 0 1 0 3.867 5.834c25.905-17.416 60.182 3.339 59.8 34.751.099 36.851-43.779 55.517-67.964 27.518zm30.4 20.485c41.258-1.474 59.393-54.415 30.147-82.876a44.509 44.509 0 0 1 23.54 39.089c.33 27.6-26.388 49.212-53.684 43.784z" fill="#0C2188"></path></svg>