<svg xmlns:xlink="http://www.w3.org/1999/xlink" xmlns="http://www.w3.org/2000/svg" id="Capa_1" enable-background="new 0 0 512 512" height="512" viewBox="0 0 512 512" width="512"><g fill="#0C2188"><path d="m52.913 29.514c-12.391 0-22.472 10.094-22.472 22.5s10.081 22.5 22.472 22.5 22.471-10.094 22.471-22.5-10.08-22.5-22.471-22.5zm0 30c-4.12 0-7.472-3.364-7.472-7.5s3.352-7.5 7.472-7.5c4.119 0 7.471 3.364 7.471 7.5s-3.352 7.5-7.471 7.5z" fill="#0C2188"></path><path d="m117.788 29.514c-12.391 0-22.472 10.094-22.472 22.5s10.081 22.5 22.472 22.5 22.471-10.094 22.471-22.5-10.08-22.5-22.471-22.5zm0 30c-4.12 0-7.472-3.364-7.472-7.5s3.352-7.5 7.472-7.5c4.119 0 7.471 3.364 7.471 7.5s-3.352 7.5-7.471 7.5z" fill="#0C2188"></path><path d="m180.792 29.514c-12.391 0-22.472 10.094-22.472 22.5s10.081 22.5 22.472 22.5 22.471-10.094 22.471-22.5-10.08-22.5-22.471-22.5zm0 30c-4.12 0-7.472-3.364-7.472-7.5s3.352-7.5 7.472-7.5c4.119 0 7.471 3.364 7.471 7.5s-3.352 7.5-7.471 7.5z" fill="#0C2188"></path><path d="m457.385 29.514h-209.597c-12.391 0-22.472 10.094-22.472 22.5s10.081 22.5 22.472 22.5h209.597c12.391 0 22.472-10.094 22.472-22.5s-10.082-22.5-22.472-22.5zm0 30h-209.597c-4.12 0-7.472-3.364-7.472-7.5s3.352-7.5 7.472-7.5h209.597c4.12 0 7.472 3.364 7.472 7.5s-3.352 7.5-7.472 7.5z" fill="#0C2188"></path><path d="m41.323 411.293h39.658c4.143 0 7.5-3.357 7.5-7.5s-3.357-7.5-7.5-7.5h-39.658c-4.143 0-7.5 3.357-7.5 7.5s3.358 7.5 7.5 7.5z" fill="#0C2188"></path><path d="m40.683 443.947h71.813c4.143 0 7.5-3.357 7.5-7.5s-3.357-7.5-7.5-7.5h-71.813c-4.143 0-7.5 3.357-7.5 7.5s3.357 7.5 7.5 7.5z" fill="#0C2188"></path><path d="m220.734 411.293h39.658c4.143 0 7.5-3.357 7.5-7.5s-3.357-7.5-7.5-7.5h-39.658c-4.143 0-7.5 3.357-7.5 7.5s3.358 7.5 7.5 7.5z" fill="#0C2188"></path><path d="m220.094 443.947h71.813c4.143 0 7.5-3.357 7.5-7.5s-3.357-7.5-7.5-7.5h-71.813c-4.143 0-7.5 3.357-7.5 7.5s3.357 7.5 7.5 7.5z" fill="#0C2188"></path><path d="m400.146 411.293h39.657c4.143 0 7.5-3.357 7.5-7.5s-3.357-7.5-7.5-7.5h-39.657c-4.143 0-7.5 3.357-7.5 7.5s3.358 7.5 7.5 7.5z" fill="#0C2188"></path><path d="m399.505 443.947h71.813c4.143 0 7.5-3.357 7.5-7.5s-3.357-7.5-7.5-7.5h-71.813c-4.143 0-7.5 3.357-7.5 7.5s3.357 7.5 7.5 7.5z" fill="#0C2188"></path><path d="m474.5 214.014c20.678 0 37.5-16.822 37.5-37.5v-139c0-20.678-16.822-37.5-37.5-37.5h-437c-20.678 0-37.5 16.822-37.5 37.5v139c0 20.678 16.822 37.5 37.5 37.5h31.589v33.127c-10.412 3.21-18 12.922-18 24.373s7.588 21.162 18 24.373v31.942h-46.02c-12.72-.001-23.069 10.139-23.069 22.603v10.582c0 4.143 3.357 7.5 7.5 7.5s7.5-3.357 7.5-7.5v-10.582c0-4.192 3.62-7.604 8.069-7.604h76.635c1.144 0 2.251.439 3.061 1.226l34.272 33.039c.735.716 1.141 1.647 1.141 2.625v109.665c0 4.192-3.62 7.604-8.069 7.604h-107.04c-4.449 0-8.069-3.411-8.069-7.604v-94.241c0-4.143-3.357-7.5-7.5-7.5s-7.5 3.357-7.5 7.5v94.241c0 12.464 10.349 22.604 23.069 22.604h107.039c12.721 0 23.069-10.14 23.069-22.604v-109.665c0-4.989-2.071-9.865-5.706-13.4l-34.274-33.041c-3.615-3.514-8.407-5.448-13.493-5.448h-15.615v-31.942c10.412-3.21 18-12.922 18-24.373s-7.588-21.162-18-24.373v-33.127h42.5c4.143 0 7.5-3.357 7.5-7.5s-3.357-7.5-7.5-7.5h-89.089c-12.406 0-22.5-10.094-22.5-22.5v-72h482v72c0 12.406-10.094 22.5-22.5 22.5h-312.911c-4.143 0-7.5 3.357-7.5 7.5s3.357 7.5 7.5 7.5h86.911v113.814h-46.02c-12.721 0-23.069 10.14-23.069 22.604v138.951c0 12.464 10.349 22.604 23.069 22.604h40.52c4.143 0 7.5-3.357 7.5-7.5s-3.357-7.5-7.5-7.5h-40.52c-4.449 0-8.069-3.411-8.069-7.604v-138.951c0-4.192 3.62-7.604 8.069-7.604h76.636c1.143 0 2.251.439 3.061 1.226l34.272 33.04c.735.715 1.14 1.646 1.14 2.624v109.665c0 4.192-3.62 7.604-8.069 7.604h-31.52c-4.143 0-7.5 3.357-7.5 7.5s3.357 7.5 7.5 7.5h31.52c12.721 0 23.069-10.14 23.069-22.604v-109.665c0-4.99-2.071-9.867-5.706-13.4l-34.275-33.043c-3.615-3.512-8.406-5.446-13.491-5.446h-15.617v-113.815h164.411v33.127c-10.412 3.21-18 12.922-18 24.373s7.588 21.162 18 24.373v31.942h-46.02c-12.721 0-23.069 10.14-23.069 22.604v138.951c0 12.464 10.349 22.604 23.069 22.604h107.039c12.721 0 23.069-10.14 23.069-22.604v-21.369c0-4.143-3.357-7.5-7.5-7.5s-7.5 3.357-7.5 7.5v21.369c0 4.192-3.62 7.604-8.069 7.604h-107.038c-4.449 0-8.069-3.411-8.069-7.604v-138.952c0-4.192 3.62-7.604 8.069-7.604h76.636c1.144 0 2.251.439 3.061 1.226l34.272 33.04c.735.715 1.14 1.646 1.14 2.624v53.296c0 4.143 3.357 7.5 7.5 7.5s7.5-3.357 7.5-7.5v-53.296c0-4.99-2.071-9.867-5.706-13.4l-34.273-33.041c-3.615-3.514-8.407-5.448-13.493-5.448h-15.616v-31.942c10.412-3.21 18-12.922 18-24.373s-7.588-21.162-18-24.373v-33.127zm-397.911 68c-5.79 0-10.5-4.71-10.5-10.5s4.71-10.5 10.5-10.5 10.5 4.71 10.5 10.5-4.71 10.5-10.5 10.5zm-61.589-192.5v-52c0-12.406 10.094-22.5 22.5-22.5h437c12.406 0 22.5 10.094 22.5 22.5v52zm420.411 192.5c-5.79 0-10.5-4.71-10.5-10.5s4.71-10.5 10.5-10.5 10.5 4.71 10.5 10.5-4.71 10.5-10.5 10.5z" fill="#0C2188"></path></g></svg>