<svg xmlns:xlink="http://www.w3.org/1999/xlink" xmlns="http://www.w3.org/2000/svg" id="Layer_1" enable-background="new 0 0 512 512" height="512" viewBox="0 0 512 512" width="512"><g fill="#0C2188"><g fill="#0C2188"><path d="m485.038 443.716c17.669-18.378 26.962-39.775 26.962-62.275 0-30.55-17.139-59-48.258-80.11-29.932-20.303-69.538-31.485-111.521-31.485-2.667 0-5.33.057-7.988.147 19.214-35.56 26.876-77.652 18.923-120.399-3.153-16.823-8.56-33.001-16.071-48.084-2.461-4.943-8.464-6.957-13.409-4.493-4.943 2.462-6.955 8.465-4.493 13.409 6.687 13.428 11.504 27.845 14.314 42.839 16.455 88.439-42.085 173.773-130.503 190.225-29.524 5.513-59.914 2.791-87.887-7.876-2.627-1.002-5.556-.851-8.068.416-25.745 12.993-61.924 19.966-91.218 18.186 14.982-29.852 19.169-54.585 21.293-76.999.211-2.22-.327-4.446-1.527-6.326-11.267-17.642-18.939-37.114-22.804-57.874-16.459-88.437 42.082-173.772 130.495-190.222 41.782-7.786 84.335.848 119.813 24.305 4.607 3.047 10.81 1.783 13.858-2.826 3.046-4.606 1.78-10.811-2.826-13.857-39.828-26.335-87.6-36.024-134.505-27.285-99.254 18.468-164.974 114.264-146.501 213.546 4.121 22.139 12.106 42.98 23.749 62.002-2.694 25.687-8.344 49.227-25.508 78.709-1.642 2.819-1.805 6.262-.438 9.224 1.368 2.962 4.095 5.07 7.305 5.649 8.383 1.511 17.503 2.238 26.997 2.238 28.98 0 61.423-6.773 86.862-18.687 23.08 8.171 47.513 11.575 71.869 10.114-1.006 5.114-1.513 10.297-1.513 15.514 0 30.552 17.135 59.002 48.247 80.11 29.928 20.303 69.538 31.485 111.532 31.485 26.822 0 53.166-4.663 76.494-13.513l69.131 31.573c1.333.609 2.748.904 4.151.904 2.632 0 5.223-1.04 7.146-3.001 2.948-3.009 3.694-7.542 1.867-11.337zm-51.875 15.852c-2.504-1.145-5.37-1.204-7.921-.167-21.94 8.92-47.19 13.635-73.022 13.635-38.033 0-73.655-9.957-100.304-28.036-25.456-17.27-39.476-39.842-39.476-63.559 0-6.093.935-12.14 2.764-18.042.484-.086.969-.156 1.452-.247 47.797-8.894 87.811-35.725 114.397-72.239 6.949-.695 14.044-1.067 21.166-1.067 38.022 0 73.64 9.957 100.294 28.036 25.464 17.273 39.487 39.845 39.487 63.559 0 18.936-8.943 37.195-25.863 52.801-3.232 2.982-4.138 7.726-2.23 11.689l17.081 35.478z" fill="#0C2188"></path><path d="m284.105 370.251c-5.523 0-10 4.505-10 10.028s4.478 10 10 10 10-4.477 10-10v-.057c0-5.523-4.477-9.971-10-9.971z" fill="#0C2188"></path><path d="m352.22 370.251c-5.522 0-10 4.505-10 10.028s4.478 10 10 10c5.523 0 10-4.477 10-10v-.057c0-5.523-4.478-9.971-10-9.971z" fill="#0C2188"></path><path d="m420.307 370.251c-5.523 0-10 4.505-10 10.028s4.478 10 10 10 10-4.477 10-10v-.057c0-5.523-4.478-9.971-10-9.971z" fill="#0C2188"></path><path d="m312.912 78.355c1.503 0 3.029-.34 4.464-1.058 4.94-2.47 6.942-8.477 4.473-13.417l-.028-.057c-2.472-4.94-8.466-6.914-13.402-4.444-4.94 2.47-6.928 8.505-4.458 13.445 1.751 3.505 5.282 5.531 8.951 5.531z" fill="#0C2188"></path><path d="m203.801 78.28c-18.919 0-25.817 18.122-28.758 25.85l-11.175 29.267c-2.75 7.233-5.613 10.089-9.381 11.217-1.907-9.433-10.259-16.558-20.246-16.558h-35.915c-11.391 0-20.658 9.267-20.658 20.658v102.019c0 11.391 9.268 20.658 20.658 20.658h35.914c7.702 0 14.421-4.245 17.973-10.51 9.728 4.359 21.976 7.052 33.872 7.052h45.183c31.382 0 56.913-25.531 56.913-56.914v-32.825c0-22.129-18.016-40.133-40.16-40.133h-14.775v-30.366c0-16.218-13.209-29.415-29.445-29.415zm-68.903 172.455c0 .332-.325.658-.657.658h-35.915c-.345 0-.658-.314-.658-.658v-102.019c0-.344.313-.658.658-.658h35.914c.332 0 .657.326.657.658v102.019zm113.123-92.672c11.116 0 20.159 9.031 20.159 20.133v32.825c0 20.354-16.559 36.913-36.912 36.913h-45.183c-12.911 0-25.378-4.335-31.187-8.294v-74.773c9.381-1.306 20.749-6.174 27.659-24.349l11.173-29.263c4.557-11.972 7.588-12.975 10.07-12.975 5.208 0 9.445 4.225 9.445 9.417v40.366c0 5.523 4.478 10 10 10z" fill="#0C2188"></path></g></g></svg>