<svg xmlns:xlink="http://www.w3.org/1999/xlink" xmlns="http://www.w3.org/2000/svg" id="Capa_1" enable-background="new 0 0 512.29 512.29" height="512" viewBox="0 0 512.29 512.29" width="512"><g fill="#0C2188"><path d="m158.329 115.771h127.732c4.142 0 7.5-3.357 7.5-7.5s-3.358-7.5-7.5-7.5h-127.732c-2.035 0-3.691-1.655-3.691-3.69v-42.625c0-2.035 1.656-3.691 3.691-3.691h16.997c6.109 0 11.842-2.993 15.336-8.007l18.236-26.177c.69-.99 1.822-1.581 3.029-1.581h87.445c1.207 0 2.339.591 3.029 1.581l18.237 26.178c3.494 5.013 9.227 8.006 15.336 8.006h15.54c2.035 0 3.691 1.656 3.691 3.691v42.624c0 2.035-1.656 3.69-3.691 3.69h-33.491c-4.142 0-7.5 3.357-7.5 7.5s3.358 7.5 7.5 7.5h33.491c10.306 0 18.691-8.385 18.691-18.69v-42.624c0-10.307-8.385-18.691-18.691-18.691h-15.54c-1.207 0-2.339-.592-3.029-1.581l-18.236-26.177c-3.493-5.014-9.226-8.007-15.336-8.007h-87.445c-6.11 0-11.844 2.993-15.336 8.007l-18.236 26.176c-.69.99-1.823 1.582-3.029 1.582h-16.997c-10.306 0-18.691 8.385-18.691 18.691v42.624c-.001 10.306 8.383 18.691 18.69 18.691z" fill="#0C2188"></path><path d="m291.043 42.113h-69.787c-9.129 0-16.557 7.428-16.557 16.558v11.473c0 9.13 7.428 16.558 16.557 16.558h69.787c9.129 0 16.557-7.428 16.557-16.558v-11.473c.001-9.13-7.427-16.558-16.557-16.558zm1.558 28.031c0 .858-.699 1.558-1.557 1.558h-69.787c-.858 0-1.557-.699-1.557-1.558v-11.473c0-.858.699-1.558 1.557-1.558h69.787c.858 0 1.557.699 1.557 1.558z" fill="#0C2188"></path><path d="m50.686 277.049c4.142 0 7.5-3.357 7.5-7.5v-183.702c0-6.717 5.464-12.182 12.181-12.182h46.771c4.142 0 7.5-3.357 7.5-7.5s-3.358-7.5-7.5-7.5h-46.772c-14.987 0-27.181 12.193-27.181 27.182v183.702c.001 4.142 3.358 7.5 7.501 7.5z" fill="#0C2188"></path><path d="m392.705 73.665h49.229c6.716 0 12.181 5.465 12.181 12.182v178.103c0 4.143 3.358 7.5 7.5 7.5s7.5-3.357 7.5-7.5v-178.103c0-14.988-12.193-27.182-27.181-27.182h-49.229c-4.142 0-7.5 3.357-7.5 7.5s3.358 7.5 7.5 7.5z" fill="#0C2188"></path><path d="m461.614 367.098c-4.142 0-7.5 3.357-7.5 7.5v110.511c0 6.717-5.464 12.182-12.181 12.182h-371.567c-6.716 0-12.181-5.465-12.181-12.182v-116.11c0-4.143-3.358-7.5-7.5-7.5s-7.5 3.357-7.5 7.5v116.109c0 14.988 12.193 27.182 27.181 27.182h371.567c14.987 0 27.181-12.193 27.181-27.182v-110.51c0-4.143-3.358-7.5-7.5-7.5z" fill="#0C2188"></path><path d="m138.997 148.479c9.65-6.384 20.882-9.759 32.48-9.759 32.509 0 58.957 26.448 58.957 58.957s-26.448 58.956-58.957 58.956-58.957-26.447-58.957-58.956c0-9.813 2.457-19.524 7.105-28.085 1.977-3.641.628-8.193-3.012-10.17-3.642-1.979-8.193-.628-10.17 3.012-5.838 10.751-8.924 22.938-8.924 35.243 0 40.779 33.177 73.956 73.957 73.956s73.957-33.177 73.957-73.956c0-40.78-33.177-73.957-73.957-73.957-14.55 0-28.644 4.235-40.756 12.249-3.455 2.285-4.402 6.938-2.117 10.393 2.287 3.455 6.94 4.403 10.394 2.117z" fill="#0C2188"></path><path d="m266.866 197.676c0 40.78 33.177 73.957 73.957 73.957s73.957-33.177 73.957-73.957c0-40.779-33.177-73.956-73.957-73.956-40.781 0-73.957 33.176-73.957 73.956zm73.957-58.956c32.509 0 58.957 26.447 58.957 58.956s-26.448 58.957-58.957 58.957-58.957-26.448-58.957-58.957 26.448-58.956 58.957-58.956z" fill="#0C2188"></path><path d="m164.293 226.733c.049.001.098.001.147.001 2.109 0 4.124-.889 5.547-2.453l36.954-40.615c2.788-3.063 2.564-7.807-.5-10.595-3.063-2.786-7.806-2.563-10.595.501l-31.184 34.273-6.8-8.087c-2.666-3.17-7.398-3.581-10.567-.913-3.17 2.666-3.58 7.396-.914 10.567l12.317 14.648c1.394 1.657 3.433 2.63 5.595 2.673z" fill="#0C2188"></path><path d="m330.216 197.746-13.728 13.911c-2.909 2.948-2.878 7.697.07 10.606 1.461 1.442 3.365 2.162 5.268 2.162 1.936 0 3.872-.745 5.339-2.231l13.729-13.912 13.911 13.728c1.461 1.442 3.365 2.162 5.268 2.162 1.936 0 3.872-.745 5.339-2.231 2.909-2.948 2.878-7.697-.07-10.606l-13.911-13.729 13.728-13.911c2.909-2.948 2.878-7.697-.07-10.606-2.949-2.91-7.698-2.879-10.606.069l-13.729 13.912-13.911-13.728c-2.949-2.911-7.697-2.878-10.606.069-2.909 2.948-2.878 7.697.07 10.606z" fill="#0C2188"></path><path d="m484.479 286.45h-414.003c-.953 0-1.896.182-2.781.534l-59.69 23.833c-3.48 1.39-5.729 4.709-5.729 8.456 0 3.748 2.249 7.067 5.73 8.458l59.69 23.832c.885.353 1.829.534 2.781.534h267.288c4.142 0 7.5-3.357 7.5-7.5s-3.358-7.5-7.5-7.5h-259.789v-35.647h328.173v35.647h-36.423c-4.142 0-7.5 3.357-7.5 7.5s3.358 7.5 7.5 7.5h114.753c14.081 0 25.536-11.455 25.536-25.536v-14.574c0-14.081-11.455-25.537-25.536-25.537zm-421.503 18.571v28.507l-35.7-14.253zm358.173-3.571h14.495v35.647h-14.495zm73.866 25.112c0 5.81-4.727 10.536-10.536 10.536h-33.835v-35.648h33.835c5.81 0 10.536 4.727 10.536 10.537z" fill="#0C2188"></path><path d="m377.555 437.951c8.482 0 15.383-6.9 15.383-15.383v-20.996c0-8.482-6.901-15.383-15.383-15.383h-242.81c-8.482 0-15.383 6.9-15.383 15.383v20.996c0 8.482 6.901 15.383 15.383 15.383zm-243.193-15.383v-20.996c0-.211.172-.383.383-.383h242.81c.211 0 .383.172.383.383v20.996c0 .211-.172.383-.383.383h-242.81c-.211 0-.383-.172-.383-.383z" fill="#0C2188"></path></g></svg>