<svg xmlns:xlink="http://www.w3.org/1999/xlink" xmlns="http://www.w3.org/2000/svg" id="Слой_1" height="512" viewBox="0 0 128 128" width="512"><path d="m83.32 80.49a48.07 48.07 0 0 0 8.4-52.36 46.63 46.63 0 0 0 -3.56-6.45 48.42 48.42 0 0 0 -6.22-7.62 47.86 47.86 0 0 0 -14.7-10.06 46.36 46.36 0 0 0 -8.56-2.81 48 48 0 0 0 -10.68-1.19 48.54 48.54 0 0 0 -9.13.86 47.92 47.92 0 0 0 -14.57 5.37 48.61 48.61 0 0 0 -5.62 3.77 48 48 0 0 0 -4.62 4.08 48.68 48.68 0 0 0 -4.67 5.41 47.33 47.33 0 0 0 -7.8 16.2 47.86 47.86 0 0 0 12.47 46.25 47.9 47.9 0 0 0 66.43 1.38l44.1 44.09a2 2 0 0 0 2.82-2.82zm-66.43-1.38a44.11 44.11 0 0 1 -11.24-43.11 43.29 43.29 0 0 1 4-9.59 44.08 44.08 0 1 1 7.25 52.7z" fill="#0C2188"></path><circle cx="116" cy="48" r="2" fill="#0C2188"></circle><circle cx="108" cy="48" r="2" fill="#0C2188"></circle><path d="m121 36h-20a2 2 0 0 0 0 4h20a3 3 0 0 1 3 3v13h-23a2 2 0 0 0 0 4h23v52a2 2 0 0 0 4 0v-69a7 7 0 0 0 -7-7z" fill="#0C2188"></path><path d="m112 124-104.76-.24a3 3 0 0 1 -3-3l-.24-42.76a2 2 0 0 0 -2-2 2 2 0 0 0 -2 2l.24 42.75a7 7 0 0 0 7 7l104.76.25a2 2 0 0 0 0-4z" fill="#0C2188"></path><path d="m70 20a2 2 0 0 0 0-4h-40a14 14 0 0 0 -14 14v40a2 2 0 0 0 4 0v-40a10 10 0 0 1 10-10z" fill="#0C2188"></path><path d="m46.36 53.07a7.79 7.79 0 1 0 -7.79-7.78 7.79 7.79 0 0 0 7.79 7.78zm0-11.57a3.79 3.79 0 1 1 -3.79 3.79 3.79 3.79 0 0 1 3.79-3.79z" fill="#0C2188"></path><path d="m74 28h-44a2 2 0 0 0 -2 2v35.21a1.83 1.83 0 0 0 0 .66v8.13a2 2 0 0 0 2 2h44a2 2 0 0 0 2-2v-44a2 2 0 0 0 -2-2zm-20.79 32.14 8.09-5.88 10.7 4.11v10.5zm18.79-28.14v22.09l-10.28-4a2 2 0 0 0 -1.9.25l-10.76 7.87-4.75-2.21a2 2 0 0 0 -1.84.07l-10.47 6v-30.07zm-40 34.68 11.56-6.61 25.69 11.93h-37.25z" fill="#0C2188"></path></svg>