<svg xmlns:xlink="http://www.w3.org/1999/xlink" xmlns="http://www.w3.org/2000/svg" height="512" viewBox="0 0 64 64" width="512"><g id="gradient" fill="#0C2188"><path d="m50 63h-46a1 1 0 0 1 -1-1v-60a1 1 0 0 1 1-1h33a1 1 0 0 1 .707.293l13 13a1 1 0 0 1 .293.707v27a1 1 0 0 1 -2 0v-26.586l-12.414-12.414h-31.586v58h45a1 1 0 0 1 0 2z" fill="#0C2188"></path><path d="m50 16h-13a1 1 0 0 1 -1-1v-13a1 1 0 0 1 1.707-.707l13 13a1 1 0 0 1 -.707 1.707zm-12-2h9.586l-9.586-9.586z" fill="#0C2188"></path><path d="m40 22h-19a1 1 0 0 1 0-2h19a1 1 0 0 1 0 2z" fill="#0C2188"></path><path d="m40 31h-19a1 1 0 0 1 0-2h19a1 1 0 0 1 0 2z" fill="#0C2188"></path><path d="m40 40h-19a1 1 0 0 1 0-2h19a1 1 0 0 1 0 2z" fill="#0C2188"></path><path d="m33 49h-12a1 1 0 0 1 0-2h12a1 1 0 0 1 0 2z" fill="#0C2188"></path><path d="m17 24h-4a1 1 0 0 1 -1-1v-4a1 1 0 0 1 1-1h4a1 1 0 0 1 1 1v4a1 1 0 0 1 -1 1zm-3-2h2v-2h-2z" fill="#0C2188"></path><path d="m17 33h-4a1 1 0 0 1 -1-1v-4a1 1 0 0 1 1-1h4a1 1 0 0 1 1 1v4a1 1 0 0 1 -1 1zm-3-2h2v-2h-2z" fill="#0C2188"></path><path d="m17 42h-4a1 1 0 0 1 -1-1v-4a1 1 0 0 1 1-1h4a1 1 0 0 1 1 1v4a1 1 0 0 1 -1 1zm-3-2h2v-2h-2z" fill="#0C2188"></path><path d="m17 51h-4a1 1 0 0 1 -1-1v-4a1 1 0 0 1 1-1h4a1 1 0 0 1 1 1v4a1 1 0 0 1 -1 1zm-3-2h2v-2h-2z" fill="#0C2188"></path><path d="m49 56a1 1 0 0 1 -.707-.293l-4-4a1 1 0 0 1 1.414-1.414l3.293 3.293 6.293-6.293a1 1 0 0 1 1.414 1.414l-7 7a1 1 0 0 1 -.707.293z" fill="#0C2188"></path><path d="m50 63a11 11 0 1 1 11-11 11.012 11.012 0 0 1 -11 11zm0-20a9 9 0 1 0 9 9 9.01 9.01 0 0 0 -9-9z" fill="#0C2188"></path></g></svg>