<svg xmlns:xlink="http://www.w3.org/1999/xlink" xmlns="http://www.w3.org/2000/svg" id="Layer_6" enable-background="new 0 0 64 64" height="512" viewBox="0 0 64 64" width="512"><g fill="#0C2188"><path d="m43.069 5.97-9.054-2.716c-.668-.201-1.358-.272-2.041-.246v-.022h-10.946l-20.053-2.111v15.11l14.586.001 3 3-1.673 1.672c-.58.581-.913 1.385-.913 2.207 0 1.684 1.342 3.051 3.011 3.11.058 1.632 1.369 2.942 3 3 .058 1.632 1.369 2.942 3 3 .059 1.669 1.427 3.011 3.11 3.011.822 0 1.627-.333 2.207-.914l1.672-1.672.672.671c.581.581 1.386.915 2.208.915 1.683 0 3.05-1.342 3.109-3.011 1.632-.058 2.942-1.368 3-3 1.632-.058 2.942-1.368 3-3 1.669-.059 3.012-1.426 3.012-3.11 0-.144-.022-.284-.041-.424l2.455-2.455 13.586-.001v-15.11zm-40.094-2.873 16.515 1.738-4.16 9.151-12.355-.001zm15 19.768c0-.295.12-.584.328-.793l1.758-1.757c.209-.209.498-.329.793-.329.618 0 1.121.503 1.121 1.121 0 .295-.119.584-.328.793l-1.759 1.758c-.208.208-.496.328-.792.328-.618 0-1.121-.503-1.121-1.121zm3 3c0-.295.12-.584.328-.793l1.758-1.757c.209-.209.498-.329.793-.329.618 0 1.121.503 1.121 1.121 0 .295-.119.584-.328.793l-1.759 1.758c-.208.208-.496.328-.792.328-.618 0-1.121-.503-1.121-1.121zm3 3c0-.295.12-.584.328-.793l1.758-1.757c.209-.209.498-.329.793-.329.618 0 1.121.503 1.121 1.121 0 .295-.119.584-.328.793l-1.759 1.758c-.208.208-.496.328-.792.328-.618 0-1.121-.503-1.121-1.121zm6.671 2.035-1.759 1.758c-.208.208-.496.328-.792.328-.618 0-1.121-.503-1.121-1.121 0-.295.12-.584.328-.793l1.758-1.757c.209-.209.498-.329.793-.329.618 0 1.121.503 1.121 1.121.001.295-.119.584-.328.793zm13.208-7.915c-.296 0-.585-.119-.793-.328l-8.379-8.379-.001.001-1.414 1.414 8.379 8.378c.209.208.328.498.328.793 0 .618-.503 1.121-1.12 1.121-.296 0-.584-.12-.793-.328l-8.38-8.379-1.414 1.414 8.379 8.378c.209.208.328.498.328.793 0 .618-.503 1.121-1.12 1.121-.296 0-.584-.12-.793-.328l-8.38-8.379-1.414 1.414 8.379 8.378c.209.208.328.498.328.793 0 .618-.503 1.121-1.12 1.121-.296 0-.584-.12-.793-.329l-1.129-1.128c.019-.14.042-.28.042-.422 0-1.684-1.342-3.051-3.011-3.11-.058-1.632-1.369-2.942-3-3-.058-1.632-1.369-2.942-3-3-.059-1.669-1.427-3.011-3.11-3.011-.142 0-.282.023-.422.042l-3.259-3.26 4.446-9.783h5.943l-3.673 3.672c-.58.581-.913 1.385-.913 2.207 0 1.721 1.4 3.121 3.121 3.121.822 0 1.627-.333 2.207-.914l2.651-2.651c.539-.54 1.496-.56 2.06-.044l2.338 2.143c.776.713 1.64 1.305 2.563 1.769l6.732 6.781c.212.213.329.496.329.794 0 .622-.503 1.125-1.122 1.125zm2.122-3.415-4.11-4.141c.367.036.737.057 1.109.057v-2c-2.329 0-4.557-.867-6.271-2.44l-2.338-2.143c-1.321-1.212-3.563-1.162-4.826.105l-2.651 2.65c-.208.208-.496.328-.792.328-.618 0-1.121-.503-1.121-1.121 0-.295.12-.584.328-.793l3.813-3.813c1.12-1.119 2.802-1.547 4.324-1.089l8.854 2.656 5.444 9.982zm14.999-2.585-11.406.001-4.999-9.163 16.404-1.727v10.889z" fill="#0C2188"></path><path d="m17.781 51.09-.122-.489c1.363-.638 2.315-2.013 2.315-3.615 2.206 0 4-1.794 4-4 0-.738-.215-1.421-.564-2.015.367-.939.564-1.915.564-2.915 0-4.45-3.621-8.071-8.071-8.071h-3.856c-4.451 0-8.072 3.621-8.072 8.071 0 1 .197 1.976.564 2.914-.35.594-.564 1.277-.564 2.015 0 2.206 1.794 4 4 4 0 1.602.952 2.977 2.316 3.615l-.122.488c-5.284.897-9.193 5.473-9.193 10.896v1h26v-1c-.001-5.413-3.896-9.982-9.195-10.894zm-2.086-.104.21.84-1.93 3.216-1.93-3.216.21-.84zm4.28-6v-4c1.103 0 2 .897 2 2s-.898 2-2 2zm-14-2c0-1.103.897-2 2-2v4c-1.103 0-2-.897-2-2zm3-4h-1c-.663 0-1.28.178-1.831.464-.11-.457-.169-.922-.169-1.394 0-3.348 2.724-6.071 6.072-6.071h3.856c3.348 0 6.071 2.723 6.071 6.071 0 .471-.059.937-.169 1.394-.551-.287-1.168-.464-1.831-.464h-1c-1.008 0-1.994-.409-2.706-1.122l-2.294-2.292-2.293 2.293c-.711.712-1.699 1.121-2.706 1.121zm1 1.912c1.173-.207 2.274-.772 3.121-1.619l.879-.879.88.879c.847.847 1.947 1.412 3.12 1.619v6.088c0 1.103-.897 2-2 2h-4c-1.103 0-2-.897-2-2zm-6.946 20.087c.435-3.958 3.426-7.18 7.433-7.909l3.512 5.854 3.513-5.855c3.977.695 6.996 3.93 7.432 7.911h-21.89z" fill="#0C2188"></path><path d="m53.781 51.09-.122-.488c1.364-.638 2.316-2.013 2.316-3.616 2.206 0 3.999-1.795 3.999-4 0-.738-.215-1.421-.564-2.015.367-.939.564-1.915.564-2.915 0-4.45-3.621-8.071-8.071-8.071h-3.581c-1.806 0-3.48.897-4.481 2.399l-.519.777c-2.017.823-3.348 2.784-3.348 4.986v1.021c0 .688.151 1.385.431 2.048-.267.536-.431 1.131-.431 1.769 0 2.206 1.794 4 4 4h.001c0 1.602.952 2.976 2.315 3.615l-.122.488c-5.284.897-9.193 5.473-9.193 10.896v1h26v-1c0-5.413-3.895-9.982-9.194-10.894zm-2.086-.104.173.693-1.893 1.893-1.893-1.893.173-.693zm-3.134 4-1.847 1.847-.465-3.718c.124-.025.251-.043.376-.064zm1.414 1.414 4.585 4.585h-9.17zm1.414-1.414 1.936-1.936c.126.02.253.034.377.058l-.465 3.725zm4.587-10v-4c1.102 0 1.999.897 1.999 2s-.897 1.999-1.999 2zm-7.654-13h3.581c3.348 0 6.071 2.723 6.071 6.071 0 .471-.059.937-.169 1.394-.551-.287-1.167-.464-1.83-.464h-.001-1-.636c-1.874 0-3.71-.76-5.036-2.086-.371-.372-.838-.628-1.339-.774-.385-1.264-1.561-2.101-2.491-2.583l.032-.048c.631-.946 1.684-1.51 2.818-1.51zm-4.347 13c-1.103 0-2-.897-2-2s.897-2 2-2h.001zm.013-6h-.013c-.713 0-1.373.203-1.954.531-.013-.116-.046-.232-.046-.348v-1.021c0-1.351.802-2.548 2.018-3.087.523.216 1.371.651 1.814 1.212-1.042.476-1.772 1.506-1.819 2.713zm1.988.121c0-.618.503-1.121 1.12-1.121.296 0 .584.12.792.328h.001c1.638 1.637 3.787 2.575 6.087 2.665v6.007c0 1.103-.897 2-2 2h-4c-1.103 0-2-.897-2-2zm-1.663 14.639.904 7.24h-6.187c.352-3.211 2.389-5.934 5.283-7.24zm10.419 7.239.906-7.25c2.878 1.294 4.928 4.027 5.281 7.25z" fill="#0C2188"></path></g></svg>