<svg xmlns:xlink="http://www.w3.org/1999/xlink" xmlns="http://www.w3.org/2000/svg" height="512" viewBox="0 0 512 512" width="512"><path d="m501.621094 211.730469-26.945313-8.726563c-5.472656-22.691406-14.402343-44.21875-26.636719-64.195312l12.296876-24.59375c2.886718-5.773438 1.753906-12.75-2.808594-17.3125l-42.425782-42.425782c-4.566406-4.566406-11.542968-5.699218-17.316406-2.8125l-24.59375 12.296876c-19.976562-12.230469-41.503906-21.164063-64.195312-26.636719l-8.726563-26.945313c-2.003906-6.1875-7.765625-10.378906-14.269531-10.378906h-60c-6.503906 0-12.265625 4.191406-14.269531 10.378906l-8.726563 26.945313c-22.691406 5.472656-44.21875 14.40625-64.195312 26.636719l-24.59375-12.296876c-5.773438-2.886718-12.75-1.753906-17.3125 2.8125l-42.425782 42.421876c-4.566406 4.566406-5.699218 11.542968-2.8125 17.316406l12.296876 24.589844c-12.230469 19.976562-21.164063 41.503906-26.636719 64.199218l-26.945313 8.726563c-6.1875 2.003906-10.378906 7.765625-10.378906 14.269531v60c0 6.503906 4.191406 12.265625 10.378906 14.269531l26.945313 8.726563c5.472656 22.691406 14.402343 44.214844 26.636719 64.195312l-12.296876 24.589844c-2.886718 5.777344-1.753906 12.75 2.8125 17.316406l42.421876 42.425782c4.566406 4.566406 11.542968 5.699218 17.316406 2.8125l24.59375-12.296876c19.976562 12.230469 41.503906 21.164063 64.195312 26.636719l8.726563 26.945313c2.003906 6.1875 7.765625 10.378906 14.269531 10.378906h60c6.503906 0 12.265625-4.191406 14.269531-10.378906l8.726563-26.945313c22.691406-5.472656 44.21875-14.40625 64.195312-26.636719l24.59375 12.296876c5.773438 2.886718 12.75 1.753906 17.316406-2.8125l42.421876-42.425782c4.566406-4.566406 5.699218-11.539062 2.8125-17.3125l-12.296876-24.59375c12.230469-19.976562 21.164063-41.503906 26.636719-64.191406l26.945313-8.726562c6.1875-2.007813 10.378906-7.769532 10.378906-14.273438v-60c0-6.503906-4.191406-12.265625-10.378906-14.269531zm-19.621094 63.359375-24.742188 8.015625c-5.167968 1.671875-9.023437 6.003906-10.085937 11.328125-4.976563 24.902344-14.679687 48.296875-28.835937 69.535156-2.984376 4.480469-3.339844 10.214844-.933594 15.027344l11.265625 22.535156-27.136719 27.136719-22.53125-11.269531c-4.816406-2.40625-10.550781-2.046876-15.027344.9375-21.238281 14.15625-44.632812 23.855468-69.535156 28.832031-5.324219 1.066406-9.660156 4.921875-11.332031 10.089843l-8.015625 24.742188h-38.179688l-8.015625-24.742188c-1.671875-5.167968-6.003906-9.023437-11.328125-10.085937-24.90625-4.980469-48.300781-14.679687-69.535156-28.835937-4.480469-2.984376-10.214844-3.339844-15.027344-.933594l-22.535156 11.265625-27.136719-27.136719 11.265625-22.535156c2.410156-4.8125 2.050782-10.546875-.933594-15.027344-14.15625-21.238281-23.855468-44.632812-28.832031-69.535156-1.066406-5.324219-4.921875-9.65625-10.089843-11.328125l-24.742188-8.015625v-38.179688l24.742188-8.015625c5.167968-1.671875 9.023437-6.003906 10.085937-11.328125 4.980469-24.90625 14.679687-48.300781 28.835937-69.535156 2.984376-4.480469 3.339844-10.214844.933594-15.027344l-11.265625-22.535156 27.136719-27.136719 22.535156 11.265625c4.8125 2.410156 10.546875 2.050782 15.023438-.933594 21.238281-14.15625 44.636718-23.855468 69.539062-28.832031 5.324219-1.066406 9.65625-4.921875 11.328125-10.089843l8.015625-24.742188h38.179688l8.015625 24.742188c1.671875 5.167968 6.003906 9.023437 11.328125 10.089843 24.902344 4.976563 48.296875 14.675781 69.539062 28.832031 4.476563 2.984376 10.210938 3.34375 15.023438.933594l22.535156-11.265625 27.136719 27.136719-11.265625 22.535156c-2.40625 4.8125-2.050782 10.546875.933594 15.027344 14.15625 21.234375 23.855468 44.628906 28.835937 69.535156 1.0625 5.324219 4.921875 9.65625 10.085937 11.328125l24.742188 8.015625zm0 0" fill="#0C2188"></path><path d="m256 91c-90.980469 0-165 74.019531-165 165s74.019531 165 165 165 165-74.019531 165-165-74.019531-165-165-165zm0 300c-74.4375 0-135-60.5625-135-135s60.5625-135 135-135 135 60.5625 135 135-60.5625 135-135 135zm0 0" fill="#0C2188"></path><path d="m255.839844 215.394531c8.269531 0 15 6.726563 15 15 0 8.28125 6.714844 15 15 15 8.28125 0 15-6.71875 15-15 0-19.496093-12.464844-36.128906-29.839844-42.367187v-22.027344c0-8.285156-6.714844-15-15-15s-15 6.714844-15 15v21.917969c-17.542969 6.148437-30.160156 22.859375-30.160156 42.476562 0 24.8125 20.1875 45 45 45 8.269531 0 15 6.726563 15 15 0 8.269531-6.730469 15-15 15-8.273438 0-15-6.730469-15-15 0-8.285156-6.71875-15-15-15-8.285156 0-15 6.714844-15 15 0 19.613281 12.617187 36.324219 30.160156 42.472657v13.132812c0 8.285156 6.714844 15 15 15s15-6.714844 15-15v-13.242188c17.375-6.234374 29.839844-22.867187 29.839844-42.363281 0-24.8125-20.1875-45-45-45-8.273438 0-15-6.730469-15-15 0-8.273437 6.726562-15 15-15zm0 0" fill="#0C2188"></path></svg>