<svg xmlns:xlink="http://www.w3.org/1999/xlink" xmlns="http://www.w3.org/2000/svg" id="Layer_1" data-name="Layer 1" viewBox="0 0 512 512" width="512" height="512"><path d="M108.965,122.572a12,12,0,0,0-10.045,11.84v19.831L32.087,199.01a12,12,0,0,0-5.321,9.932l-.912,291.021a12,12,0,0,0,12,12.037H474.146a12,12,0,0,0,12-12.037l-.912-291.021a12,12,0,0,0-5.321-9.932L413.08,154.243V134.412a12,12,0,0,0-10.045-11.84l-36.976-6.1q-1.593-4.311-3.521-8.49L384.37,77.512A12,12,0,0,0,383.1,62.037L351.043,29.979a12,12,0,0,0-15.475-1.269L305.1,50.546q-4.176-1.927-8.485-3.521l-6.105-36.98A12,12,0,0,0,278.668,0H233.332a12,12,0,0,0-11.84,10.045l-6.1,36.98q-4.306,1.59-8.487,3.52L176.432,28.71a12,12,0,0,0-15.475,1.269L128.9,62.037a12,12,0,0,0-1.268,15.475l21.831,30.464q-1.928,4.177-3.523,8.492ZM128.9,252.124l32.059,32.058a12,12,0,0,0,15.475,1.268L206.9,263.614q4.175,1.926,8.485,3.521l6.1,36.979a12,12,0,0,0,11.84,10.046h45.336a12,12,0,0,0,11.84-10.046l6.1-36.975q4.311-1.593,8.49-3.522l30.466,21.833a12,12,0,0,0,15.475-1.268L383.1,252.124a12,12,0,0,0,1.268-15.476l-21.836-30.471q1.928-4.174,3.521-8.485l36.98-6.1a12,12,0,0,0,9.634-8.733l42.184,28.256L256,376.857,57.147,211.111l42.184-28.256a12,12,0,0,0,9.634,8.733l36.976,6.1q1.593,4.311,3.521,8.49L127.63,236.648A12,12,0,0,0,128.9,252.124Zm-78.22-15.161,141,117.527L49.94,472.632ZM210.423,370.112,248.317,401.7a12,12,0,0,0,15.367,0l37.894-31.585L443.014,488H68.987ZM462.06,472.632,320.32,354.49l141-117.527ZM173.188,99.882l-20.12-28.074,17.66-17.66L198.81,74.272a12,12,0,0,0,12.717.789,92.875,92.875,0,0,1,17.93-7.436,12,12,0,0,0,8.431-9.548L243.513,24h24.974l5.625,34.074a12,12,0,0,0,8.431,9.551,92.9,92.9,0,0,1,17.928,7.438,12,12,0,0,0,12.72-.791l28.081-20.124,17.66,17.66L338.81,99.886a12,12,0,0,0-.788,12.72,92.8,92.8,0,0,1,7.437,17.933,12,12,0,0,0,9.55,8.43l34.071,5.624v24.973l-34.074,5.625a12,12,0,0,0-9.551,8.432,92.836,92.836,0,0,1-7.437,17.927,12,12,0,0,0,.789,12.719l20.125,28.083-17.66,17.66L313.2,239.892a12,12,0,0,0-12.722-.79,92.947,92.947,0,0,1-17.934,7.438,12,12,0,0,0-8.43,9.552l-5.623,34.068H243.513l-5.625-34.077a12,12,0,0,0-8.43-9.547,92.968,92.968,0,0,1-17.929-7.438,11.994,11.994,0,0,0-12.722.791l-28.079,20.123-17.66-17.66,20.122-28.078a12,12,0,0,0,.788-12.72,92.881,92.881,0,0,1-7.437-17.934,12,12,0,0,0-9.55-8.429l-34.071-5.625V144.593l34.064-5.623a12,12,0,0,0,9.554-8.432,92.846,92.846,0,0,1,7.439-17.933A12,12,0,0,0,173.188,99.882ZM256,231.463a74.384,74.384,0,1,0-74.384-74.383A74.467,74.467,0,0,0,256,231.463ZM256,106.7a50.384,50.384,0,1,1-50.384,50.384A50.441,50.441,0,0,1,256,106.7Z" fill="#0C2188"></path></svg>