<svg xmlns:xlink="http://www.w3.org/1999/xlink" xmlns="http://www.w3.org/2000/svg" id="_x3C_Layer_x3E_" height="512" viewBox="0 0 32 32" width="512"><g id="Dismissal_x2C__employee_x2C__exit_x2C__layoff_x2C__person_x2C__leave_x2C__go_out" fill="#0C2188"><path d="m30.5 31h-15c-.276 0-.5-.224-.5-.5s.224-.5.5-.5h14.5v-28h-15c-.276 0-.5-.224-.5-.5s.224-.5.5-.5h15.5c.276 0 .5.224.5.5v29c0 .276-.224.5-.5.5z" fill="#0C2188"></path><g id="XMLID_5332_" fill="#0C2188"><g id="XMLID_5336_" fill="#0C2188"><g id="XMLID_5337_" fill="#0C2188"><g id="XMLID_5344_" fill="#0C2188"><path d="m3.785 31c-.043 0-.087-.006-.131-.018-.267-.071-.424-.346-.353-.612l2.748-10.188c.072-.269.344-.426.613-.353.267.071.424.346.353.612l-2.748 10.189c-.06.224-.262.37-.482.37z" fill="#0C2188"></path></g><g fill="#0C2188"><path d="m11 7c-1.654 0-3-1.346-3-3s1.346-3 3-3 3 1.346 3 3-1.345 3-3 3zm0-5c-1.103 0-2 .897-2 2s.897 2 2 2 2-.897 2-2-.896-2-2-2z" fill="#0C2188"></path></g></g></g><g fill="#0C2188"><path d="m9.046 20.171-3.614 10.165c-.092.261.043.547.304.639.055.021.112.029.167.029.206 0 .398-.128.471-.332l3.443-9.683z" fill="#0C2188"></path><path d="m13.568 31.004c-.234 0-.443-.165-.49-.403l-1.211-6.153c-.092-.458-.31-.881-.632-1.223l-3.699-3.928c-.667-.707-1.011-1.669-.945-2.64l.36-5.23-2.169.677-.821 3.204c-.169.767-.969 1.294-1.782 1.125-.811-.181-1.322-.983-1.144-1.79l1.003-3.981c.102-.451.422-.842.855-1.032l4.505-2.004c.229-.102.481-.145.73-.121l4.44.402c1.02.093 1.945.624 2.538 1.458l1.921 2.703 3.035-.362c.38-.064.776.037 1.099.276.322.237.533.586.594.982.061.395-.036.79-.273 1.113s-.587.534-.983.595l-3.75.692c-.497.094-1.001-.069-1.351-.432l-1.107-1.145c-.192-.198-.187-.515.012-.707.199-.191.515-.187.707.012l1.107 1.145c.117.121.287.177.449.145l3.767-.695c.148-.023.265-.094.344-.201s.111-.239.091-.37c-.021-.133-.091-.249-.198-.329-.108-.078-.239-.109-.371-.091l-3.346.4c-.188.027-.361-.058-.467-.206l-2.093-2.945c-.423-.597-1.084-.976-1.812-1.042l-4.442-.402c-.079-.005-.161.006-.235.039l-4.507 2.004c-.145.063-.251.193-.286.349l-1.003 3.979c-.056.255.114.523.384.583.252.057.538-.117.596-.38l.895-3.49c.043-.168.17-.302.335-.354l3.133-.978c.157-.048.33-.017.459.085.129.103.2.262.189.427l-.41 5.96c-.048.693.198 1.381.674 1.886l3.7 3.928c.45.478.756 1.07.885 1.713l1.211 6.155c.053.271-.123.534-.394.587-.032.007-.065.01-.097.01z" fill="#0C2188"></path><path d="m15.583 31.004c-.26 0-.479-.201-.498-.465l-.504-7.125c-.025-.353-.123-.689-.289-1.002l-2.232-4.177c-.044-.082-.064-.175-.058-.268l.471-7.224c.018-.275.246-.497.532-.467.275.018.484.256.466.531l-.462 7.082 2.165 4.051c.233.437.37.908.404 1.402l.504 7.125c.02.275-.188.515-.463.534-.012.003-.024.003-.036.003z" fill="#0C2188"></path></g></g><g id="XMLID_5408_" fill="#0C2188"><g fill="#0C2188"><path d="m26.5 6h-9c-.276 0-.5-.224-.5-.5s.224-.5.5-.5h9c.276 0 .5.224.5.5s-.224.5-.5.5z" fill="#0C2188"></path></g><path d="m24.5 8c-.128 0-.256-.049-.354-.146-.195-.195-.195-.512 0-.707l1.647-1.647-1.646-1.646c-.195-.195-.195-.512 0-.707s.512-.195.707 0l2 2c.195.195.195.512 0 .707l-2 2c-.098.097-.226.146-.354.146z" fill="#0C2188"></path></g><g fill="#0C2188"><path d="m26.5 17c-.827 0-1.5-.673-1.5-1.5s.673-1.5 1.5-1.5 1.5.673 1.5 1.5-.673 1.5-1.5 1.5zm0-2c-.276 0-.5.225-.5.5s.224.5.5.5.5-.225.5-.5-.224-.5-.5-.5z" fill="#0C2188"></path></g></g></svg>