<svg xmlns:xlink="http://www.w3.org/1999/xlink" xmlns="http://www.w3.org/2000/svg" id="Line_copy" height="512" viewBox="0 0 256 256" width="512" data-name="Line copy"><path d="m219.849 46.1924a21.2368 21.2368 0 0 0 -21.2129 21.2134v15.05h-25.0554a45.7907 45.7907 0 0 0 3.573-15.5444q.0615-1.1917.0615-2.3979c0-25.6743-21.1484-46.5615-47.1436-46.5615s-47.1435 20.8869-47.1435 46.5612q0 1.2063.0615 2.3989a45.7905 45.7905 0 0 0 3.573 15.5435h-25.0544v-15.05a21.2139 21.2139 0 0 0 -42.4277 0v151.1315h.0232a21.2274 21.2274 0 0 0 20.4856 20.7349v.0117h180.26a21.2269 21.2269 0 0 0 21.19-20.7466h.0237v-151.1313a21.2376 21.2376 0 0 0 -21.214-21.2134zm-89.7773-22.2407c22.6865 0 41.1436 18.1958 41.1436 40.5615q0 1.0525-.0537 2.09a39.7784 39.7784 0 0 1 -3.1748 13.6895c-.9854 2.0654-22.3086 39.5762-37.915 66.9448-15.6065-27.3684-36.9288-64.8767-37.8937-66.8975a39.825 39.825 0 0 1 -3.1963-13.7358q-.0527-1.0393-.0537-2.0913c0-22.3654 18.4571-40.5612 41.1436-40.5612zm-22.8 130.2905c0 7.5254 9.8018 13.2 22.8 13.2s22.8-5.6748 22.8-13.2c0-5.4782-5.1973-9.9729-13.0376-12.0145q.9994-1.7534 2.0742-3.64c12.4094 2.4667 21.4634 8.6393 21.4634 15.6548 0 9.1064-15.249 16.8-33.3 16.8s-33.3-7.6934-33.3-16.8c0-7.0155 9.054-13.1881 21.4634-15.6548q1.0737 1.8845 2.0742 3.64c-7.8401 2.0416-13.0374 6.5363-13.0374 12.0145zm16.144-6.5644c1.7429 3.0571 3.1445 5.5142 4.05 7.102h5.2109c.9058-1.5878 2.3074-4.0449 4.05-7.102 6.4033 1.2832 10.144 4.2674 10.144 6.5644 0 3.0063-6.3916 7.2-16.8 7.2s-16.8-4.1938-16.8-7.2c.0013-2.297 3.742-5.2812 10.1453-6.5644zm-61.9075-59.2222h19.0056l-19.0056 7.2754zm0 13.7 29.624-11.34c1.093 1.9462 2.3474 4.1718 3.72 6.6017l-33.344 12.7642zm0 14.45 36.3308-13.9078c5.3093 9.3771 11.6941 20.6066 17.2712 30.4022-14.4075 3.35-24.3384 11.4473-24.3384 21.1423 0 12.7852 17.2627 22.8 39.3 22.8s39.3-10.0146 39.3-22.8c0-9.695-9.9309-17.7922-24.3384-21.1423 8.949-15.7181 19.9819-35.1346 25.3005-44.6443h28.3025v73.9475l-110.5784 42.3292-26.55-69.3554zm-36.4282-49.1998a15.2139 15.2139 0 0 1 30.4277 0v136.3618a21.1818 21.1818 0 0 0 -30.4277 0zm15.2144 165.8779a14.9818 14.9818 0 1 1 15.2139-14.7466h6v-28.6285l16.6042 43.3751zm58.6934 0-3.96-10.3442 39.1182-14.9746 9.6921 25.3188zm51.2751 0-11.5857-30.2656-3.874-1.729-44.7217 17.12-1.7295 3.8745 4.2109 11h-8.0259l-19.097-49.8876-3.874-1.7295-.0576.022v-29.5285l22.0186 57.5191 3.874 1.729 111.2354-42.5809v11.1728l-.0352.0787.0352.0919v20.9659l-7.0352-18.3781-3.874-1.7295-40.32 15.4351-1.7295 3.874 12.6116 32.9453zm14.45 0-12.36-32.2886 34.7168-13.29 11.5665 30.2149v.6169h.2361l5.645 14.7466zm46.229 0-6.2288-16.2712a15.172 15.172 0 0 1 4.4651-9.3019l9.7893 25.5731zm14.0942-.93-10.7095-27.9767a14.9839 14.9839 0 1 1 10.7095 27.9767zm10.0266-28.586a21.1807 21.1807 0 0 0 -30.4268 0v-136.3619a15.2134 15.2134 0 1 1 30.4268 0z" fill="#0C2188"></path><path d="m130.0717 93.5234a29.0121 29.0121 0 1 0 -29.3574-29.01 29.2187 29.2187 0 0 0 29.3574 29.01zm0-52.02a23.0126 23.0126 0 1 1 -23.3574 23.01 23.2122 23.2122 0 0 1 23.3574-23.01z" fill="#0C2188"></path></svg>