<svg xmlns:xlink="http://www.w3.org/1999/xlink" xmlns="http://www.w3.org/2000/svg" id="Capa_1" enable-background="new 0 0 512 512" height="512" viewBox="0 0 512 512" width="512"><g fill="#0C2188"><path d="m136.032 0c-57.897 0-105 47.103-105 105v407h390v-242.664c20.512-4.069 38.214-16.499 49.49-35.075 14.423-23.76 13.866-55.407-1.387-78.75-11.828-18.101-28.717-29.964-48.103-33.976v-121.535c-24.95 0-272.831 0-285 0zm-15 31.507v58.493h-58.494c5.981-29.342 29.152-52.512 58.494-58.493zm270 450.493h-330v-362h90v-90h240v91.737c-14.035 3.1-27.272 10.371-38.13 21.23-13.448 13.448-21.163 31.373-21.725 50.474-.267 9.087-4.968 18.646-13.237 26.914l-28.677 28.677c-5.849 5.849-15.365 5.848-21.213 0-17.545-17.545-46.094-17.545-63.639 0l-31.82 31.82 148.493 148.492 31.82-31.82c17.544-17.545 17.544-46.094 0-63.64-5.849-5.848-5.849-15.365 0-21.213l31.479-31.48c1.933-1.933 4.153-3.61 6.651-5.027v205.836zm-59.344-126.902c5.849 5.849 5.849 15.365 0 21.213l-10.607 10.607-106.066-106.065 10.606-10.607c5.848-5.848 15.364-5.849 21.213 0 .001 0 84.854 84.852 84.854 84.852zm112.333-183.175c9.069 13.879 9.413 32.675.856 46.771-7.86 12.948-20.772 20.961-35.424 21.985-18.979 1.326-34.984 8-46.285 19.3l-31.48 31.48c-3.718 3.718-6.64 7.934-8.782 12.431l-24.862-24.862c4.497-2.142 8.713-5.064 12.431-8.782l28.677-28.677c13.701-13.701 21.518-30.48 22.012-47.246.336-11.423 4.935-22.127 12.951-30.143 20.837-20.838 52.438-18.989 69.906 7.743z" fill="#0C2188"></path><path d="m151.032 331c-33.084 0-60 26.916-60 60s26.916 60 60 60 60-26.916 60-60-26.916-60-60-60zm0 90c-16.542 0-30-13.458-30-30s13.458-30 30-30 30 13.458 30 30-13.458 30-30 30z" fill="#0C2188"></path><path d="m390.934 181h30v30h-30z" transform="matrix(.707 -.707 .707 .707 -19.697 344.448)" fill="#0C2188"></path></g></svg>