<svg xmlns:xlink="http://www.w3.org/1999/xlink" xmlns="http://www.w3.org/2000/svg" width="512" height="512" viewBox="0 0 128 128"><g fill="#0C2188"><path d="M10.4,39.053H59.906a1.751,1.751,0,0,0,1.75-1.75V18.815a1.751,1.751,0,0,0-1.75-1.75H10.4a1.751,1.751,0,0,0-1.75,1.75V37.3A1.751,1.751,0,0,0,10.4,39.053Zm1.75-18.488H58.156V35.553H12.148Z" fill="#0C2188"></path><path d="M28.612,43.282H10.4a1.75,1.75,0,0,0-1.75,1.75V61.57a1.75,1.75,0,0,0,1.75,1.75H28.612a1.75,1.75,0,0,0,1.75-1.75V45.032A1.75,1.75,0,0,0,28.612,43.282ZM26.862,59.82H12.148V46.782H26.862Z" fill="#0C2188"></path><path d="M13.962,54.675l3.7,2.919a1.749,1.749,0,0,0,2.4-.217l5.216-5.919a1.75,1.75,0,0,0-2.626-2.314l-4.12,4.676-2.4-1.893a1.75,1.75,0,0,0-2.167,2.748Z" fill="#0C2188"></path><path d="M28.612,67.549H10.4a1.751,1.751,0,0,0-1.75,1.75V85.838a1.751,1.751,0,0,0,1.75,1.75H28.612a1.751,1.751,0,0,0,1.75-1.75V69.3A1.751,1.751,0,0,0,28.612,67.549Zm-1.75,16.539H12.148V71.049H26.862Z" fill="#0C2188"></path><path d="M13.962,78.943l3.7,2.919a1.752,1.752,0,0,0,2.4-.217l5.216-5.919a1.75,1.75,0,1,0-2.626-2.314L18.53,78.087l-2.4-1.893a1.75,1.75,0,1,0-2.167,2.749Z" fill="#0C2188"></path><path d="M28.612,91.817H10.4a1.751,1.751,0,0,0-1.75,1.75v16.538a1.75,1.75,0,0,0,1.75,1.75H28.612a1.75,1.75,0,0,0,1.75-1.75V93.567A1.751,1.751,0,0,0,28.612,91.817Zm-1.75,16.538H12.148V95.317H26.862Z" fill="#0C2188"></path><path d="M68.769,105.005h-32.1a1.75,1.75,0,1,0,0,3.5h32.1a1.75,1.75,0,0,0,0-3.5Z" fill="#0C2188"></path><path d="M126.221,22.825s-7.325-7.311-7.48-7.438a6.073,6.073,0,0,0-7.694,0c-6.24,6.122-15.251,15.247-21.5,21.459V22.275a1.858,1.858,0,0,0-.513-1.237L76.925,8.931a1.86,1.86,0,0,0-1.238-.513H1.75A1.751,1.751,0,0,0,0,10.168V117.832a1.751,1.751,0,0,0,1.75,1.75H87.8a1.75,1.75,0,0,0,1.75-1.75V68.09l36.676-36.676a6.073,6.073,0,0,0,0-8.589ZM50.689,82.53a13.151,13.151,0,0,1,8.987,9.548l-12.12,2.379,2.379-12.12C50.188,82.4,50.44,82.458,50.689,82.53Zm12.038,7.428A16.862,16.862,0,0,0,52.055,79.287l48.62-48.621,10.673,10.672L69.164,83.521Zm51.1-51.095L103.15,28.191l2.417-2.417,10.672,10.672ZM76.377,13.333l8.193,8.192L71.7,25.916ZM86.045,71.59v44.492H3.5V11.918H73.169l-6.04,16.235a1.749,1.749,0,0,0,2.2,2.266l16.711-5.7V40.346L79.67,46.721a1.738,1.738,0,0,0-.523-.088H36.665a1.75,1.75,0,0,0,0,3.5H76.258l-6.591,6.591a1.737,1.737,0,0,0-.9-.255h-32.1a1.75,1.75,0,0,0,0,3.5H66.422L55.491,70.9H36.665a1.75,1.75,0,1,0,0,3.5H51.991L47.31,79.081a2.985,2.985,0,0,0-.628,1.656H36.665a1.75,1.75,0,1,0,0,3.5H46L43.85,95.168H36.665a1.75,1.75,0,1,0,0,3.5H79.147a1.75,1.75,0,0,0,0-3.5H62.081a1.815,1.815,0,0,0,.851-.465Zm37.7-42.65-5.032,5.031L108.042,23.3l5.032-5.032a2.579,2.579,0,0,1,3.64,0l7.032,7.032A2.579,2.579,0,0,1,123.746,28.94Z" fill="#0C2188"></path></g></svg>