<svg xmlns:xlink="http://www.w3.org/1999/xlink" xmlns="http://www.w3.org/2000/svg" height="512" viewBox="-8 0 512 512" width="512"><path d="m483.691406 176.5625c-2.886718-4.675781-6.257812-9.082031-10.015625-13.101562l-10.976562 10.269531c3.082031 3.289062 5.84375 6.898437 8.207031 10.730469zm0 0" fill="#0C2188"></path><path d="m490.914062 191.40625-14.105468 5.1875c2.738281 7.457031 4.128906 15.308594 4.128906 23.335938 0 37.292968-30.335938 67.632812-67.628906 67.632812-37.292969 0-67.632813-30.339844-67.632813-67.632812 0-37.292969 30.339844-67.632813 67.632813-67.632813 14.167968 0 27.734375 4.335937 39.226562 12.53125l8.730469-12.234375c-7.796875-5.5625-16.371094-9.660156-25.414063-12.214844v-140.378906h-339.664062v15.03125h49.097656v15.027344h-75.148437v373.730468h-15.027344v-388.757812h26.050781v-15.03125h-41.082031v403.789062h-40.078125v35.570313c0 22.636719 17.757812 41.199219 40.078125 42.5v30.140625h395.773437v-212.558594c34.652344-9.839844 60.117188-41.75 60.117188-79.511718 0-9.804688-1.703125-19.398438-5.054688-28.523438zm-160.269531-176.375h90.175781v122.585938c-2.484374-.222657-4.988281-.347657-7.511718-.347657-2.535156 0-5.039063.128907-7.515625.355469v-107.566406h-75.148438zm-170.332031 0h155.304688v22.542969c0 12.429687-10.113282 22.542969-22.542969 22.542969h-110.21875c-12.429688 0-22.542969-10.113282-22.542969-22.542969zm-145.28125 424.328125v-20.542969h111.214844v-15.027344h-41.078125v-358.699218h60.871093c3.492188 17.128906 18.671876 30.058594 36.816407 30.058594h110.21875c18.144531 0 33.324219-12.929688 36.816406-30.058594h60.871094v95.328125c-34.652344 9.839843-60.117188 41.746093-60.117188 79.511719 0 37.761718 25.464844 69.671874 60.117188 79.511718v139.917969c0 15.191406-12.359375 27.550781-27.550781 27.550781-15.195313 0-27.554688-12.359375-27.554688-27.550781v-35.570313h-194.378906v15.027344h179.347656v20.542969c0 10.5 3.820312 20.121094 10.140625 27.550781h-288.183594c-15.191406 0-27.550781-12.359375-27.550781-27.550781zm405.789062 57.609375h-365.710937v-15.027344h308.101563c23.480468 0 42.582031-19.101562 42.582031-42.582031v-137.125c2.476562.222656 4.980469.355469 7.515625.355469s5.035156-.132813 7.511718-.355469zm0 0" fill="#0C2188"></path><path d="m185.363281 100.195312h-75.148437v75.148438h75.148437zm-15.03125 60.117188h-45.085937v-45.085938h45.085937zm0 0" fill="#0C2188"></path><path d="m185.363281 200.390625h-75.148437v75.148437h75.148437zm-15.03125 60.117187h-45.085937v-45.085937h45.085937zm0 0" fill="#0C2188"></path><path d="m185.363281 300.585938h-75.148437v75.148437h75.148437zm-15.03125 60.117187h-45.085937v-45.085937h45.085937zm0 0" fill="#0C2188"></path><path d="m230.449219 30.058594h15.03125v15.03125h-15.03125zm0 0" fill="#0C2188"></path><path d="m260.507812 30.058594h15.03125v15.03125h-15.03125zm0 0" fill="#0C2188"></path><path d="m200.390625 30.058594h15.03125v15.03125h-15.03125zm0 0" fill="#0C2188"></path><path d="m45.589844 433.847656h40.078125v15.027344h-40.078125zm0 0" fill="#0C2188"></path><path d="m100.695312 433.847656h15.03125v15.027344h-15.03125zm0 0" fill="#0C2188"></path><path d="m202.894531 113.222656h90.179688v15.027344h-90.179688zm0 0" fill="#0C2188"></path><path d="m202.894531 147.289062h60.121094v15.027344h-60.121094zm0 0" fill="#0C2188"></path><path d="m278.042969 147.289062h15.03125v15.027344h-15.03125zm0 0" fill="#0C2188"></path><path d="m202.894531 213.417969h90.179688v15.027343h-90.179688zm0 0" fill="#0C2188"></path><path d="m202.894531 247.484375h60.121094v15.027344h-60.121094zm0 0" fill="#0C2188"></path><path d="m278.042969 247.484375h15.03125v15.027344h-15.03125zm0 0" fill="#0C2188"></path><path d="m202.894531 313.613281h90.179688v15.027344h-90.179688zm0 0" fill="#0C2188"></path><path d="m202.894531 347.679688h60.121094v15.027343h-60.121094zm0 0" fill="#0C2188"></path><path d="m278.042969 347.679688h15.03125v15.027343h-15.03125zm0 0" fill="#0C2188"></path><path d="m429.203125 222.398438c7.773437-5.496094 12.117187-14.464844 11.621094-23.980469-.703125-13.414063-12.628907-25.339844-26.042969-26.042969-7.636719-.402344-14.898438 2.269531-20.4375 7.523438-5.460938 5.183593-8.589844 12.46875-8.589844 19.992187h15.03125c0-3.46875 1.386719-6.699219 3.902344-9.089844 2.519531-2.386719 5.828125-3.601562 9.308594-3.417969 5.773437.304688 11.515625 6.050782 11.820312 11.820313.226563 4.339844-1.75 8.421875-5.289062 10.921875-9.226563 6.527344-14.734375 16.933594-14.734375 27.839844h15.027343c0-6.035156 3.132813-11.855469 8.382813-15.566406zm0 0" fill="#0C2188"></path><path d="m405.792969 252.992188h15.027343v15.03125h-15.027343zm0 0" fill="#0C2188"></path><path d="m140.273438 130.753906h15.03125v15.03125h-15.03125zm0 0" fill="#0C2188"></path></svg>