<svg xmlns:xlink="http://www.w3.org/1999/xlink" xmlns="http://www.w3.org/2000/svg" id="Capa_1" enable-background="new 0 0 512.008 512.008" height="512" viewBox="0 0 512.008 512.008" width="512"><g fill="#0C2188"><path d="m504.504 497.008h-18.318v-141.288c0-4.142-3.357-7.5-7.5-7.5s-7.5 3.358-7.5 7.5v141.288h-140.212v-319.937h140.212v143.649c0 4.142 3.357 7.5 7.5 7.5s7.5-3.358 7.5-7.5v-145.757c0-7.109-5.783-12.893-12.893-12.893h-21.152v-18.058c0-7.109-5.783-12.893-12.893-12.893h-30.668v-11.961c0-4.142-3.357-7.5-7.5-7.5s-7.5 3.358-7.5 7.5v11.961h-30.668c-7.109 0-12.894 5.784-12.894 12.893v18.058h-19.045v-145.246c0-12.268-12.724-20.392-23.847-15.259l-59.092 27.275-59.092-27.274c-11.136-5.142-23.847 3.008-23.847 15.258v47.594h-123.625c-8.628 0-15.647 7.02-15.647 15.648v416.942h-18.319c-4.143 0-7.5 3.358-7.5 7.5s3.357 7.5 7.5 7.5h497c4.143 0 7.5-3.358 7.5-7.5s-3.357-7.5-7.5-7.5zm-139.485-350.888h72.122v15.951h-72.122zm-184.924-129.296c0-1.303 1.333-2.206 2.562-1.639l47.48 21.915-50.042 23.097zm-138.625 62.594h123.625v42.24h-124.272v-41.591c0-.358.29-.649.647-.649zm-.647 107.653h44.636c4.143 0 7.5-3.358 7.5-7.5s-3.357-7.5-7.5-7.5h-44.636v-35.413h124.272v35.413h-44.637c-4.143 0-7.5 3.358-7.5 7.5s3.357 7.5 7.5 7.5h44.637v309.938h-124.272zm139.272-110.354 133.317-61.532c1.204-.555 2.562.312 2.562 1.639v480.184h-135.879c0-3.814 0-416.484 0-420.291z" fill="#0C2188"></path><path d="m290.542 100.675h-85.016c-4.143 0-7.5 3.358-7.5 7.5s3.357 7.5 7.5 7.5h85.016c4.143 0 7.5-3.358 7.5-7.5s-3.357-7.5-7.5-7.5z" fill="#0C2188"></path><path d="m290.542 133.539h-85.016c-4.143 0-7.5 3.358-7.5 7.5s3.357 7.5 7.5 7.5h85.016c4.143 0 7.5-3.358 7.5-7.5s-3.357-7.5-7.5-7.5z" fill="#0C2188"></path><path d="m290.542 232.129h-85.016c-4.143 0-7.5 3.358-7.5 7.5s3.357 7.5 7.5 7.5h85.016c4.143 0 7.5-3.358 7.5-7.5s-3.357-7.5-7.5-7.5z" fill="#0C2188"></path><path d="m290.542 166.402h-85.016c-4.143 0-7.5 3.358-7.5 7.5s3.357 7.5 7.5 7.5h85.016c4.143 0 7.5-3.358 7.5-7.5s-3.357-7.5-7.5-7.5z" fill="#0C2188"></path><path d="m290.542 264.993h-85.016c-4.143 0-7.5 3.358-7.5 7.5s3.357 7.5 7.5 7.5h85.016c4.143 0 7.5-3.358 7.5-7.5s-3.357-7.5-7.5-7.5z" fill="#0C2188"></path><path d="m290.542 199.266h-85.016c-4.143 0-7.5 3.358-7.5 7.5s3.357 7.5 7.5 7.5h85.016c4.143 0 7.5-3.358 7.5-7.5s-3.357-7.5-7.5-7.5z" fill="#0C2188"></path><path d="m290.542 462.175h-85.016c-4.143 0-7.5 3.358-7.5 7.5s3.357 7.5 7.5 7.5h85.016c4.143 0 7.5-3.358 7.5-7.5s-3.357-7.5-7.5-7.5z" fill="#0C2188"></path><path d="m290.542 396.448h-85.016c-4.143 0-7.5 3.358-7.5 7.5s3.357 7.5 7.5 7.5h85.016c4.143 0 7.5-3.358 7.5-7.5s-3.357-7.5-7.5-7.5z" fill="#0C2188"></path><path d="m290.542 297.857h-85.016c-4.143 0-7.5 3.358-7.5 7.5s3.357 7.5 7.5 7.5h85.016c4.143 0 7.5-3.358 7.5-7.5s-3.357-7.5-7.5-7.5z" fill="#0C2188"></path><path d="m290.542 429.312h-85.016c-4.143 0-7.5 3.358-7.5 7.5s3.357 7.5 7.5 7.5h85.016c4.143 0 7.5-3.358 7.5-7.5s-3.357-7.5-7.5-7.5z" fill="#0C2188"></path><path d="m290.542 330.72h-85.016c-4.143 0-7.5 3.358-7.5 7.5s3.357 7.5 7.5 7.5h85.016c4.143 0 7.5-3.358 7.5-7.5s-3.357-7.5-7.5-7.5z" fill="#0C2188"></path><path d="m290.542 363.584h-85.016c-4.143 0-7.5 3.358-7.5 7.5s3.357 7.5 7.5 7.5h85.016c4.143 0 7.5-3.358 7.5-7.5s-3.357-7.5-7.5-7.5z" fill="#0C2188"></path><path d="m365.987 232.129h-10.742c-4.143 0-7.5 3.358-7.5 7.5s3.357 7.5 7.5 7.5h10.742c4.143 0 7.5-3.358 7.5-7.5s-3.358-7.5-7.5-7.5z" fill="#0C2188"></path><path d="m365.987 264.993h-10.742c-4.143 0-7.5 3.358-7.5 7.5s3.357 7.5 7.5 7.5h10.742c4.143 0 7.5-3.358 7.5-7.5s-3.358-7.5-7.5-7.5z" fill="#0C2188"></path><path d="m365.987 199.266h-10.742c-4.143 0-7.5 3.358-7.5 7.5s3.357 7.5 7.5 7.5h10.742c4.143 0 7.5-3.358 7.5-7.5s-3.358-7.5-7.5-7.5z" fill="#0C2188"></path><path d="m365.987 462.175h-10.742c-4.143 0-7.5 3.358-7.5 7.5s3.357 7.5 7.5 7.5h10.742c4.143 0 7.5-3.358 7.5-7.5s-3.358-7.5-7.5-7.5z" fill="#0C2188"></path><path d="m365.987 396.448h-10.742c-4.143 0-7.5 3.358-7.5 7.5s3.357 7.5 7.5 7.5h10.742c4.143 0 7.5-3.358 7.5-7.5s-3.358-7.5-7.5-7.5z" fill="#0C2188"></path><path d="m365.987 297.857h-10.742c-4.143 0-7.5 3.358-7.5 7.5s3.357 7.5 7.5 7.5h10.742c4.143 0 7.5-3.358 7.5-7.5s-3.358-7.5-7.5-7.5z" fill="#0C2188"></path><path d="m365.987 429.312h-10.742c-4.143 0-7.5 3.358-7.5 7.5s3.357 7.5 7.5 7.5h10.742c4.143 0 7.5-3.358 7.5-7.5s-3.358-7.5-7.5-7.5z" fill="#0C2188"></path><path d="m365.987 330.72h-10.742c-4.143 0-7.5 3.358-7.5 7.5s3.357 7.5 7.5 7.5h10.742c4.143 0 7.5-3.358 7.5-7.5s-3.358-7.5-7.5-7.5z" fill="#0C2188"></path><path d="m365.987 363.584h-10.742c-4.143 0-7.5 3.358-7.5 7.5s3.357 7.5 7.5 7.5h10.742c4.143 0 7.5-3.358 7.5-7.5s-3.358-7.5-7.5-7.5z" fill="#0C2188"></path><path d="m406.451 232.129h-10.742c-4.143 0-7.5 3.358-7.5 7.5s3.357 7.5 7.5 7.5h10.742c4.143 0 7.5-3.358 7.5-7.5s-3.357-7.5-7.5-7.5z" fill="#0C2188"></path><path d="m406.451 264.993h-10.742c-4.143 0-7.5 3.358-7.5 7.5s3.357 7.5 7.5 7.5h10.742c4.143 0 7.5-3.358 7.5-7.5s-3.357-7.5-7.5-7.5z" fill="#0C2188"></path><path d="m406.451 199.266h-10.742c-4.143 0-7.5 3.358-7.5 7.5s3.357 7.5 7.5 7.5h10.742c4.143 0 7.5-3.358 7.5-7.5s-3.357-7.5-7.5-7.5z" fill="#0C2188"></path><path d="m406.451 462.175h-10.742c-4.143 0-7.5 3.358-7.5 7.5s3.357 7.5 7.5 7.5h10.742c4.143 0 7.5-3.358 7.5-7.5s-3.357-7.5-7.5-7.5z" fill="#0C2188"></path><path d="m406.451 396.448h-10.742c-4.143 0-7.5 3.358-7.5 7.5s3.357 7.5 7.5 7.5h10.742c4.143 0 7.5-3.358 7.5-7.5s-3.357-7.5-7.5-7.5z" fill="#0C2188"></path><path d="m406.451 297.857h-10.742c-4.143 0-7.5 3.358-7.5 7.5s3.357 7.5 7.5 7.5h10.742c4.143 0 7.5-3.358 7.5-7.5s-3.357-7.5-7.5-7.5z" fill="#0C2188"></path><path d="m406.451 429.312h-10.742c-4.143 0-7.5 3.358-7.5 7.5s3.357 7.5 7.5 7.5h10.742c4.143 0 7.5-3.358 7.5-7.5s-3.357-7.5-7.5-7.5z" fill="#0C2188"></path><path d="m406.451 330.72h-10.742c-4.143 0-7.5 3.358-7.5 7.5s3.357 7.5 7.5 7.5h10.742c4.143 0 7.5-3.358 7.5-7.5s-3.357-7.5-7.5-7.5z" fill="#0C2188"></path><path d="m406.451 363.584h-10.742c-4.143 0-7.5 3.358-7.5 7.5s3.357 7.5 7.5 7.5h10.742c4.143 0 7.5-3.358 7.5-7.5s-3.357-7.5-7.5-7.5z" fill="#0C2188"></path><path d="m446.915 232.129h-10.742c-4.143 0-7.5 3.358-7.5 7.5s3.357 7.5 7.5 7.5h10.742c4.143 0 7.5-3.358 7.5-7.5s-3.357-7.5-7.5-7.5z" fill="#0C2188"></path><path d="m446.915 264.993h-10.742c-4.143 0-7.5 3.358-7.5 7.5s3.357 7.5 7.5 7.5h10.742c4.143 0 7.5-3.358 7.5-7.5s-3.357-7.5-7.5-7.5z" fill="#0C2188"></path><path d="m446.915 199.266h-10.742c-4.143 0-7.5 3.358-7.5 7.5s3.357 7.5 7.5 7.5h10.742c4.143 0 7.5-3.358 7.5-7.5s-3.357-7.5-7.5-7.5z" fill="#0C2188"></path><path d="m446.915 462.175h-10.742c-4.143 0-7.5 3.358-7.5 7.5s3.357 7.5 7.5 7.5h10.742c4.143 0 7.5-3.358 7.5-7.5s-3.357-7.5-7.5-7.5z" fill="#0C2188"></path><path d="m446.915 396.448h-10.742c-4.143 0-7.5 3.358-7.5 7.5s3.357 7.5 7.5 7.5h10.742c4.143 0 7.5-3.358 7.5-7.5s-3.357-7.5-7.5-7.5z" fill="#0C2188"></path><path d="m446.915 297.857h-10.742c-4.143 0-7.5 3.358-7.5 7.5s3.357 7.5 7.5 7.5h10.742c4.143 0 7.5-3.358 7.5-7.5s-3.357-7.5-7.5-7.5z" fill="#0C2188"></path><path d="m446.915 429.312h-10.742c-4.143 0-7.5 3.358-7.5 7.5s3.357 7.5 7.5 7.5h10.742c4.143 0 7.5-3.358 7.5-7.5s-3.357-7.5-7.5-7.5z" fill="#0C2188"></path><path d="m446.915 330.72h-10.742c-4.143 0-7.5 3.358-7.5 7.5s3.357 7.5 7.5 7.5h10.742c4.143 0 7.5-3.358 7.5-7.5s-3.357-7.5-7.5-7.5z" fill="#0C2188"></path><path d="m446.915 363.584h-10.742c-4.143 0-7.5 3.358-7.5 7.5s3.357 7.5 7.5 7.5h10.742c4.143 0 7.5-3.358 7.5-7.5s-3.357-7.5-7.5-7.5z" fill="#0C2188"></path></g></svg>