<svg xmlns:xlink="http://www.w3.org/1999/xlink" xmlns="http://www.w3.org/2000/svg" id="Capa_1" enable-background="new 0 0 512 512" height="512" viewBox="0 0 512 512" width="512"><g fill="#0C2188"><path d="m255.855 275.255c67.201 0 121.873-54.746 121.873-122.037.001-23.096-6.502-45.597-18.807-65.071-2.214-3.503-6.847-4.546-10.347-2.335-3.502 2.213-4.547 6.845-2.335 10.347 10.788 17.073 16.489 36.805 16.488 57.06 0 59.021-47.943 107.037-106.873 107.037-58.931 0-106.874-48.017-106.874-107.037 0-59.018 47.943-107.032 106.874-107.032 25.231 0 49.739 9.01 69.011 25.371 3.157 2.68 7.89 2.295 10.571-.864 2.681-3.157 2.294-7.891-.864-10.571-21.979-18.659-49.935-28.936-78.718-28.936-67.201 0-121.874 54.743-121.874 122.032.001 67.29 54.674 122.036 121.875 122.036z" fill="#0C2188"></path><path d="m321.745 191.053v-17.898-27.025-42.381-1.184c0-16.648-13.545-30.193-30.193-30.193h-71.104c-16.648 0-30.193 13.545-30.193 30.193v1.184 42.381 27.024 17.898c0 9.483 6.659 17.426 15.542 19.438l-8.211 15.819c-2.59 4.991 1.05 10.957 6.651 10.957 2.71 0 5.328-1.475 6.663-4.047l.763-1.471h88.673l.763 1.471c1.906 3.669 6.424 5.113 10.112 3.202 3.677-1.908 5.11-6.436 3.202-10.112l-2.919-5.625c-.003-.005-.005-.01-.008-.015l-5.283-10.179c8.883-2.012 15.542-9.955 15.542-19.437zm-101.297-103.681h71.104c6.123 0 11.397 3.647 13.801 8.877h-98.705c2.403-5.229 7.678-8.877 13.8-8.877zm-15.193 66.258h13.217v12.024h-13.217zm14.194 63.119 2.986-5.753h67.13l2.986 5.753zm87.296-25.696c0 2.726-2.218 4.943-4.944 4.943h-91.602c-2.727 0-4.944-2.218-4.944-4.943v-10.398h14.712c7.446 0 13.505-6.059 13.505-13.505v-13.52h45.057v13.52c0 7.446 6.059 13.505 13.505 13.505h14.712v10.398zm0-25.399h-13.217v-12.024h13.217zm0-27.024c-13.428 0-91.164 0-101.49 0v-27.381h101.49z" fill="#0C2188"></path><path d="m509.058 486.323c-.641-6.941-22.785-246.674-23.422-253.57-1.123-12.173-11.189-21.353-23.414-21.353h-65.33c12.327-31.214 12.329-39.589 12.329-58.182 0-84.623-68.465-153.218-153.22-153.218-.058 0-.122 0-.18 0-84.434.097-152.98 70.783-153.041 154.825-.012 17.448-.018 25.353 12.382 56.575h-65.384c-12.225 0-22.291 9.18-23.414 21.352-.707 7.655-15.327 165.929-16.025 173.488-.382 4.124 2.653 7.776 6.778 8.157 4.123.406 7.776-2.652 8.157-6.778l7.451-80.667h95.06l-59.064 170.048h-42.364c-4.696 0-8.517-3.81-8.517-8.492 0-.268.013-.536.037-.806l4.169-45.131c.382-4.125-2.653-7.777-6.777-8.158-4.125-.395-7.777 2.652-8.158 6.777l-4.169 45.125c-.067.724-.102 1.461-.102 2.192 0 12.954 10.55 23.492 23.517 23.492h459.285c12.967 0 23.517-10.538 23.517-23.491 0-.73-.034-1.467-.101-2.185zm-111.829-259.923h64.992c4.427 0 8.071 3.324 8.479 7.731l15.594 168.834h-89.065zm-279.449-71.565c.054-75.712 63.277-139.749 138.059-139.835h.162c76.336 0 138.22 61.758 138.22 138.219 0 18.085-.002 25.489-15.038 61.991-1.085 2.466-46.39 104.885-105.718 237.633-3.596 8.045-11.363 12.089-19.585 11.202-.123-.012-.246-.023-.368-.038-6.237-.789-12.015-4.54-14.976-11.165-120.727-270.114-120.78-264.271-120.756-298.007zm221.409 188.115v60.016h-26.947c9.527-21.238 17.81-39.673 26.947-60.016zm-139.431 60.016h-36.934l16.112-46.382c6.384 14.213 13.312 29.638 20.822 46.382zm-158.458-168.834c.407-4.407 4.052-7.731 8.479-7.731h71.454c4.774 11.389 10.819 25.27 18.457 42.512h-101.603zm72.983 262.868h-29.682l57.583-165.781c1.537-4.427.833-9.35-1.883-13.168-2.716-3.819-7.136-6.099-11.821-6.099h-94.368c2.395-25.936 1.816-19.672 2.589-28.04h109.656c6.762 15.168 14.585 32.607 23.624 52.735l-21.554 62.053c-1.537 4.426-.833 9.349 1.883 13.167 2.716 3.819 7.136 6.099 11.821 6.099h44.353c4.469 9.972 12.476 27.843 12.564 28.04h-76.734c-6.172 0-11.679 3.917-13.703 9.747zm224.906 0h-209.026l12.502-35.994h83.177c6.18 11.752 17.956 18.159 30.157 18.159h.001s.001 0 .001 0h.002c12.887 0 24.243-6.904 30.161-18.159h53.026v35.994zm43.04-36.487v36.487h-28.04v-36.487c0-7.999-6.508-14.507-14.507-14.507h-46.722c4.347-9.715 8.53-19.057 12.557-28.04h34.165c7.999 0 14.507-6.508 14.507-14.507v-93.932c8.495-18.953 19.653-43.897 28.04-63.183v157.114c0 7.999 6.507 14.507 14.506 14.507h90.945l2.59 28.04h-93.535c-7.999.001-14.506 6.509-14.506 14.508zm103.414 36.487h-88.413v-35.994h94.426l2.466 26.703c.024.263.037.532.037.8 0 4.681-3.82 8.491-8.516 8.491z" fill="#0C2188"></path></g></svg>