<svg xmlns:xlink="http://www.w3.org/1999/xlink" xmlns="http://www.w3.org/2000/svg" id="Capa_1" enable-background="new 0 0 512.002 512.002" height="512" viewBox="0 0 512.002 512.002" width="512"><g fill="#0C2188"><path d="m432.001 296.16v-246.159c0-13.413-5.263-26.026-14.819-35.515-9.415-9.35-21.838-14.486-34.947-14.486-.118 0-.236 0-.354.001h-331.881c-27.57 0-50 22.43-50 50v19.999c0 5.522 4.477 10 10 10h70v342.002c0 27.57 22.43 50 50 50h187.21c20.193 24.417 50.706 40 84.792 40 60.654 0 110-49.346 110-110 0-50.258-33.88-92.752-80.001-105.842zm-352.001-236.16h-60v-9.999c0-16.542 13.458-30 30-30s30 13.458 30 30zm80 342.003v19.999c0 16.542-13.458 30-30 30s-30-13.458-30-30v-372.001c0-11.247-3.733-21.638-10.024-30h291.975c.071-.001.141-.001.212-.001 7.862 0 15.287 3.077 20.927 8.678 5.747 5.706 8.911 13.279 8.911 21.323v242.452c-3.294-.298-6.63-.451-10-.451s-6.706.153-10 .451v-222.453c0-5.522-4.477-10-10-10h-252.001c-5.523 0-10 4.478-10 10v292.003c0 5.522 4.477 10 10 10h166.159c-1.83 6.447-3.085 13.134-3.707 20h-122.452c-5.523 0-10 4.477-10 10zm144.035-50h-164.035v-272.003h232.001v216.16c-29.609 8.404-54.173 28.927-67.966 55.843zm-134.059 99.999c6.291-8.362 10.023-18.754 10.023-30v-9.999h112.453c1.294 14.291 5.332 27.801 11.583 39.999zm232.025 40c-49.626 0-90-40.374-90-90s40.374-90 90-90 90 40.374 90 90-40.373 90-90 90z" fill="#0C2188"></path><path d="m432.61 392.002h-20.609v-51.219c0-5.522-4.477-10-10-10s-10 4.478-10 10v61.219c0 5.522 4.477 10 10 10h30.609c5.523 0 10-4.478 10-10s-4.477-10-10-10z" fill="#0C2188"></path><path d="m335.688 392.002h-.007c-5.523 0-9.997 4.478-9.997 10s4.481 10 10.004 10 10-4.478 10-10-4.477-10-10-10z" fill="#0C2188"></path><path d="m402.001 458.315c-5.523 0-10 4.478-10 10v.007c0 5.522 4.477 9.997 10 9.997s10-4.481 10-10.004-4.477-10-10-10z" fill="#0C2188"></path><path d="m468.314 392.002c-5.523 0-10 4.478-10 10s4.477 10 10 10h.007c5.523 0 9.997-4.478 9.997-10s-4.481-10-10.004-10z" fill="#0C2188"></path><path d="m214.501 128.667h121.499c5.523 0 10-4.478 10-10s-4.477-10-10-10h-121.499c-5.523 0-10 4.478-10 10s4.478 10 10 10z" fill="#0C2188"></path><path d="m176.001 177.334h160c5.523 0 10-4.478 10-10s-4.477-10-10-10h-160c-5.523 0-10 4.478-10 10s4.477 10 10 10z" fill="#0C2188"></path><path d="m176.001 226.001h160c5.523 0 10-4.478 10-10s-4.477-10-10-10h-160c-5.523 0-10 4.478-10 10s4.477 10 10 10z" fill="#0C2188"></path><path d="m336 254.668h-121.499c-5.523 0-10 4.478-10 10s4.477 10 10 10h121.499c5.523 0 10-4.478 10-10s-4.477-10-10-10z" fill="#0C2188"></path><path d="m287 303.335h-111c-5.523 0-10 4.478-10 10s4.477 10 10 10h111c5.523 0 10-4.478 10-10s-4.477-10-10-10z" fill="#0C2188"></path></g></svg>