<svg xmlns:xlink="http://www.w3.org/1999/xlink" xmlns="http://www.w3.org/2000/svg" id="Layer_3" enable-background="new 0 0 64 64" height="512" viewBox="0 0 64 64" width="512"><g fill="#0C2188"><path d="m60 1h-56c-1.654 0-3 1.346-3 3v42c0 1.654 1.346 3 3 3h21.465l1.148 1.723c.253.38.387.821.387 1.277s-.134.897-.387 1.277l-1.148 1.723h-2.465c-2.757 0-5 2.243-5 5v2c0 .553.448 1 1 1h26c.552 0 1-.447 1-1v-2c0-2.757-2.243-5-5-5h-2.465l-1.148-1.723c-.253-.38-.387-.821-.387-1.277s.134-.897.387-1.277l1.148-1.723h21.465c1.654 0 3-1.346 3-3v-42c0-1.654-1.346-3-3-3zm-56 2h56c.551 0 1 .449 1 1v35h-2v-33c0-.552-.448-1-1-1h-52c-.552 0-1 .448-1 1v33h-2v-35c0-.551.449-1 1-1zm53 36h-50v-32h50zm-13 21v1h-24v-1c0-1.654 1.346-3 3-3h18c1.654 0 3 1.346 3 3zm-8.277-5.613.409.613h-8.263l.409-.613c.472-.71.722-1.535.722-2.387s-.25-1.677-.723-2.387l-.409-.613h8.263l-.409.613c-.472.71-.722 1.535-.722 2.387s.25 1.677.723 2.387zm24.277-7.387h-56c-.551 0-1-.448-1-1v-5h58v5c0 .552-.449 1-1 1z" fill="#0C2188"></path><circle cx="32" cy="44" r="2" fill="#0C2188"></circle><path d="m10 37h24c.552 0 1-.447 1-1v-4c0-.552-.448-1-1-1h-1v-11c0-.552-.448-1-1-1h-4c-.552 0-1 .448-1 1v11h-2v-16c0-.552-.448-1-1-1h-4c-.552 0-1 .448-1 1v16h-2v-21c0-.552-.448-1-1-1h-4c-.552 0-1 .448-1 1v21h-1c-.552 0-1 .448-1 1v4c0 .553.448 1 1 1zm19-16h2v10h-2zm-8-5h2v15h-2zm-8-5h2v20h-2zm-2 22h22v2h-22z" fill="#0C2188"></path><path d="m38 37h16c.552 0 1-.447 1-1v-8c0-.552-.448-1-1-1h-16c-.552 0-1 .448-1 1v8c0 .553.448 1 1 1zm1-8h14v6h-14z" fill="#0C2188"></path><path d="m46 25c4.411 0 8-3.589 8-8s-3.589-8-8-8-8 3.589-8 8 3.589 8 8 8zm0-2c-1.294 0-2.49-.416-3.471-1.115l3.885-3.885h5.496c-.479 2.833-2.943 5-5.91 5zm5.91-7h-4.91v-4.91c2.507.424 4.486 2.403 4.91 4.91zm-6.91-4.91v5.496l-3.885 3.885c-.699-.981-1.115-2.177-1.115-3.471 0-2.967 2.167-5.431 5-5.91z" fill="#0C2188"></path><path d="m41 31h10v2h-10z" fill="#0C2188"></path></g></svg>