<svg xmlns:xlink="http://www.w3.org/1999/xlink" xmlns="http://www.w3.org/2000/svg" height="512" viewBox="0 0 512 512" width="512"><g id="Outline" fill="#0C2188"><path d="m464 48h-8a32.034 32.034 0 0 0 -32-32h-240a32.034 32.034 0 0 0 -32 32h-8a32.034 32.034 0 0 0 -32 32v32h16v-32a16.019 16.019 0 0 1 16-16h8v16h16v-32a16.019 16.019 0 0 1 16-16h240a16.019 16.019 0 0 1 16 16v208h16v-192h8a16.019 16.019 0 0 1 16 16v192h-144v16h144v16a16.019 16.019 0 0 1 -16 16h-128v16h2.457l18 48h-20.457v16h56v-16h-18.453l-18-48h108.453a32.034 32.034 0 0 0 32-32v-224a32.034 32.034 0 0 0 -32-32z" fill="#0C2188"></path><path d="m184 48h16v16h-16z" fill="#0C2188"></path><path d="m216 48h16v16h-16z" fill="#0C2188"></path><path d="m248 48h16v16h-16z" fill="#0C2188"></path><path d="m208 96h16v16h-16z" fill="#0C2188"></path><path d="m240 104h16v16h-16z" fill="#0C2188"></path><path d="m336 144v112h80v-160h-16v144h-16v-112h-16v112h-16v-96z" fill="#0C2188"></path><path d="m32 464v-304a16.019 16.019 0 0 1 16-16h36.451a31.631 31.631 0 0 0 -4.451 16h-24a8 8 0 0 0 -8 8v288a8 8 0 0 0 8 8h184v-16h-176v-16h160a8.033 8.033 0 0 0 5.656-2.344l42.344-42.344v44.688h16v-264a8.277 8.277 0 0 0 -8.32-8h-23.68a31.631 31.631 0 0 0 -4.451-16h36.451a16.019 16.019 0 0 1 16 16v272h16v-272a32.034 32.034 0 0 0 -32-32h-88a32 32 0 0 0 -64 0h-88a32.034 32.034 0 0 0 -32 32v304a32.034 32.034 0 0 0 32 32h200v-16h-200a16.019 16.019 0 0 1 -16-16zm200-59.312v-28.688h28.688zm40-228.688v184h-48a8 8 0 0 0 -8 8v48h-152v-240h16v8a8 8 0 0 0 8 8h160a8 8 0 0 0 8-8v-8zm-128-32a8 8 0 0 0 8-8v-8a16 16 0 0 1 32 0v8a8 8 0 0 0 8 8h32a16.019 16.019 0 0 1 16 16v16h-144v-16a16.019 16.019 0 0 1 16-16z" fill="#0C2188"></path><path d="m144 216h112v16h-112z" fill="#0C2188"></path><path d="m144 248h64v16h-64z" fill="#0C2188"></path><path d="m144 280h112v16h-112z" fill="#0C2188"></path><path d="m144 312h40v16h-40z" fill="#0C2188"></path><path d="m120 344h-32a8 8 0 0 0 -8 8v32a8 8 0 0 0 8 8h32a8 8 0 0 0 8-8v-32a8 8 0 0 0 -8-8zm-8 32h-16v-16h16z" fill="#0C2188"></path><path d="m144 344h56v16h-56z" fill="#0C2188"></path><path d="m144 376h56v16h-56z" fill="#0C2188"></path><path d="m116.688 216h-28.688a8 8 0 0 0 -8 8v32a8 8 0 0 0 8 8h32a8 8 0 0 0 8-8v-28.688l13.656-13.656-11.312-11.312zm-4.688 32h-16v-16h4.688l-2.344 2.344 11.312 11.312 2.344-2.344z" fill="#0C2188"></path><path d="m130.344 266.344-13.656 13.656h-28.688a8 8 0 0 0 -8 8v32a8 8 0 0 0 8 8h32a8 8 0 0 0 8-8v-28.688l13.656-13.656zm-18.344 45.656h-16v-16h4.688l-2.344 2.344 11.312 11.312 2.344-2.344z" fill="#0C2188"></path><path d="m470.629 448h-8v-8a24.027 24.027 0 0 0 -24-24h-56v16h56a8.008 8.008 0 0 1 8 8v8h-144a62.231 62.231 0 0 0 -44.285 18.344 8 8 0 0 0 0 11.312 62.231 62.231 0 0 0 44.285 18.344h168a24 24 0 0 0 0-48zm-194.141 24a46.308 46.308 0 0 1 26.141-8h144v16h-144a46.308 46.308 0 0 1 -26.141-8zm194.141 8h-8v-16h8a8 8 0 0 1 0 16z" fill="#0C2188"></path></g></svg>