<svg xmlns:xlink="http://www.w3.org/1999/xlink" xmlns="http://www.w3.org/2000/svg" height="512" viewBox="-8 0 512 512" width="512"><path d="m480.453125 497h-8.53125v-313.144531c0-4.140625-3.359375-7.5-7.5-7.5h-80.164063c-4.140624 0-7.5 3.359375-7.5 7.5v16.03125c0 4.140625 3.359376 7.5 7.5 7.5 4.144532 0 7.5-3.359375 7.5-7.5v-8.53125h65.164063v305.644531h-65.164063v-265.046875c0-4.140625-3.355468-7.5-7.5-7.5-4.140624 0-7.5 3.359375-7.5 7.5v265.046875h-25.078124v-232.984375c0-4.140625-3.359376-7.5-7.5-7.5h-80.164063c-4.140625 0-7.5 3.359375-7.5 7.5v232.984375h-25.078125v-152.824219c0-4.140625-3.359375-7.5-7.5-7.5h-80.164062c-4.140626 0-7.5 3.359375-7.5 7.5v152.824219h-25.078126v-24.566406c0-4.140625-3.359374-7.5-7.5-7.5-4.144531 0-7.5 3.359375-7.5 7.5v24.566406h-65.164062v-65.160156h65.160156v8.527344c0 4.144531 3.359375 7.5 7.5 7.5 4.144532 0 7.5-3.355469 7.5-7.5v-16.027344c0-4.144532-3.355468-7.5-7.5-7.5h-80.160156c-4.140625 0-7.5 3.355468-7.5 7.5v72.660156h-8.53125c-4.140625 0-7.5 3.359375-7.5 7.5s3.359375 7.5 7.5 7.5h472.953125c4.140625 0 7.5-3.359375 7.5-7.5s-3.359375-7.5-7.5-7.5zm-208.9375-225.484375h65.160156v225.484375h-65.160156zm-120.242187 80.160156h65.164062v145.324219h-65.164062zm0 0" fill="#0C2188"></path><path d="m488.46875 16.03125h-24.566406v-8.53125c0-4.140625-3.355469-7.5-7.5-7.5h-64.128906c-4.140626 0-7.5 3.359375-7.5 7.5v8.53125h-24.5625c-4.144532 0-7.5 3.359375-7.5 7.5v8.015625c0 19.464844 14.128906 35.675781 32.667968 38.949219 2.816406 16.117187 15.429688 28.902344 31.460938 31.96875v41.824218h-16.546875c-4.144531 0-7.5 3.359376-7.5 7.5 0 4.144532 3.355469 7.5 7.5 7.5h48.097656c4.140625 0 7.5-3.355468 7.5-7.5 0-4.140624-3.359375-7.5-7.5-7.5h-16.550781v-41.824218c16.03125-3.066406 28.644531-15.851563 31.464844-31.96875 18.535156-3.273438 32.664062-19.484375 32.664062-38.949219v-8.015625c0-4.140625-3.359375-7.5-7.5-7.5zm-120.757812 15.515625v-.515625h17.0625v23.90625c-9.886719-3.175781-17.0625-12.460938-17.0625-23.390625zm81.191406 32.128906c0 13.511719-10.992188 24.5-24.5 24.5h-.128906c-13.507813 0-24.5-10.988281-24.5-24.5v-48.675781h49.128906zm32.066406-32.128906c0 10.929687-7.179688 20.210937-17.066406 23.390625v-23.90625h17.066406zm0 0" fill="#0C2188"></path><path d="m23.539062 345.667969c1.429688 0 2.875-.410157 4.152344-1.261719l315.171875-210.113281-16.957031 33.09375c-1.886719 3.6875-.429688 8.207031 3.253906 10.09375 1.097656.5625 2.265625.828125 3.414063.828125 2.726562 0 5.355469-1.492188 6.683593-4.082032l29.46875-57.519531c1.226563-2.394531 1.078126-5.265625-.394531-7.519531-1.46875-2.253906-4.035156-3.546875-6.722656-3.386719l-64.515625 3.8125c-4.132812.242188-7.289062 3.792969-7.042969 7.929688.242188 4.132812 3.785157 7.277343 7.929688 7.042969l35.550781-2.101563-314.160156 209.441406c-3.445313 2.296875-4.378906 6.953125-2.078125 10.398438 1.445312 2.167969 3.820312 3.34375 6.246093 3.34375zm0 0" fill="#0C2188"></path></svg>