<svg xmlns:xlink="http://www.w3.org/1999/xlink" xmlns="http://www.w3.org/2000/svg" id="Capa_1" enable-background="new 0 0 512 512" height="512" viewBox="0 0 512 512" width="512"><g fill="#0C2188"><g id="Page-1_39_" fill="#0C2188"><g id="_x30_40---Marketing-Website" fill="#0C2188"><path id="Shape_172_" d="m460.8 0h-409.6c-28.265.028-51.172 22.935-51.2 51.2v409.6c.028 28.265 22.935 51.172 51.2 51.2h409.6c28.265-.028 51.172-22.935 51.2-51.2v-409.6c-.028-28.265-22.935-51.172-51.2-51.2zm-409.6 17.067h409.6c18.851 0 34.133 15.282 34.133 34.133v51.2h-477.866v-51.2c0-18.851 15.282-34.133 34.133-34.133zm409.6 477.866h-409.6c-18.851 0-34.133-15.282-34.133-34.133v-341.333h477.867v341.333c-.001 18.851-15.283 34.133-34.134 34.133z" fill="#0C2188"></path><path id="Shape_171_" d="m59.733 85.333c14.138 0 25.6-11.462 25.6-25.6s-11.462-25.6-25.6-25.6-25.6 11.462-25.6 25.6 11.462 25.6 25.6 25.6zm0-34.133c4.713 0 8.533 3.821 8.533 8.533s-3.821 8.533-8.533 8.533-8.533-3.82-8.533-8.533 3.821-8.533 8.533-8.533z" fill="#0C2188"></path><path id="Shape_170_" d="m128 85.333c14.139 0 25.6-11.462 25.6-25.6s-11.462-25.6-25.6-25.6-25.6 11.462-25.6 25.6 11.462 25.6 25.6 25.6zm0-34.133c4.713 0 8.533 3.821 8.533 8.533s-3.821 8.533-8.533 8.533c-4.713 0-8.533-3.821-8.533-8.533s3.82-8.533 8.533-8.533z" fill="#0C2188"></path><path id="Shape_169_" d="m196.267 85.333c14.138 0 25.6-11.462 25.6-25.6s-11.462-25.6-25.6-25.6-25.6 11.462-25.6 25.6 11.461 25.6 25.6 25.6zm0-34.133c4.713 0 8.533 3.821 8.533 8.533s-3.821 8.533-8.533 8.533-8.533-3.821-8.533-8.533 3.82-8.533 8.533-8.533z" fill="#0C2188"></path><path id="Shape_168_" d="m366.933 85.333h85.333c14.138 0 25.6-11.462 25.6-25.6s-11.462-25.6-25.6-25.6h-85.333c-14.138 0-25.6 11.462-25.6 25.6s11.462 25.6 25.6 25.6zm0-34.133h85.333c4.713 0 8.533 3.821 8.533 8.533s-3.82 8.533-8.533 8.533h-85.333c-4.713 0-8.533-3.821-8.533-8.533s3.821-8.533 8.533-8.533z" fill="#0C2188"></path><path id="Shape_167_" d="m452.267 145.067h-392.534c-14.138 0-25.6 11.462-25.6 25.6v170.667c0 14.138 11.462 25.6 25.6 25.6h392.533c14.138 0 25.6-11.462 25.6-25.6v-170.667c.001-14.139-11.461-25.6-25.599-25.6zm-392.534 17.066h392.533c4.713 0 8.533 3.821 8.533 8.533v79.403l-65.98-66.065c-3.078-3.089-7.262-4.818-11.622-4.804h-.051c-4.308-.002-8.435 1.73-11.452 4.804l-59.212 59.196-33.749-33.749c-6.167-6.159-16.156-6.159-22.323 0l-72.209 72.149h-133.001v-110.933c0-4.713 3.821-8.534 8.533-8.534zm392.534 187.734h-392.534c-4.713 0-8.533-3.821-8.533-8.533v-42.667h221.867c4.713 0 8.533-3.821 8.533-8.533 0-4.713-3.82-8.533-8.533-8.533h-64.725l59.221-59.204 73.771 73.771c3.348 3.234 8.671 3.188 11.962-.104 3.292-3.292 3.338-8.614.104-11.962l-28.86-28.86 58.675-58.684 77.585 77.652v67.123c0 4.713-3.82 8.534-8.533 8.534z" fill="#0C2188"></path><g clip-rule="evenodd" fill-rule="evenodd" fill="#0C2188"><circle id="Oval_23_" cx="256" cy="324.267" r="8.533" fill="#0C2188"></circle><circle id="Oval_22_" cx="213.333" cy="324.267" r="8.533" fill="#0C2188"></circle><circle id="Oval_21_" cx="298.667" cy="324.267" r="8.533" fill="#0C2188"></circle></g><path id="Shape_166_" d="m106.667 247.467c12.08 0 22.97-7.277 27.593-18.437s2.068-24.007-6.474-32.548c-8.542-8.542-21.388-11.097-32.548-6.474-11.161 4.622-18.438 15.512-18.438 27.592 0 16.495 13.372 29.867 29.867 29.867zm0-42.667c7.069 0 12.8 5.731 12.8 12.8s-5.731 12.8-12.8 12.8-12.8-5.731-12.8-12.8 5.73-12.8 12.8-12.8z" fill="#0C2188"></path><path id="Shape_165_" d="m76.8 384c-14.138 0-25.6 11.462-25.6 25.6v51.2c0 4.713 3.821 8.533 8.533 8.533s8.533-3.82 8.533-8.533v-17.067h17.067v17.067c0 4.713 3.821 8.533 8.533 8.533 4.713 0 8.533-3.82 8.533-8.533v-51.2c.001-14.138-11.461-25.6-25.599-25.6zm-8.533 42.667v-17.067c0-4.713 3.821-8.533 8.533-8.533 4.713 0 8.533 3.821 8.533 8.533v17.067z" fill="#0C2188"></path><path id="Shape_164_" d="m145.067 384h-8.533c-9.426 0-17.067 7.641-17.067 17.067v51.2c0 9.426 7.641 17.067 17.067 17.067h8.533c14.138 0 25.6-11.462 25.6-25.6v-34.134c0-14.138-11.462-25.6-25.6-25.6zm8.533 59.733c0 4.713-3.821 8.533-8.533 8.533h-8.533v-51.2h8.533c4.713 0 8.533 3.821 8.533 8.533z" fill="#0C2188"></path><path id="Path_138_" clip-rule="evenodd" d="m204.8 401.067h34.133c4.713 0 8.533-3.82 8.533-8.533s-3.82-8.534-8.533-8.534h-34.133c-4.713 0-8.533 3.82-8.533 8.533s3.82 8.534 8.533 8.534z" fill-rule="evenodd" fill="#0C2188"></path><path id="Path_137_" clip-rule="evenodd" d="m452.267 418.133h-247.467c-4.713 0-8.533 3.82-8.533 8.533s3.821 8.533 8.533 8.533h247.467c4.713 0 8.533-3.82 8.533-8.533s-3.82-8.533-8.533-8.533z" fill-rule="evenodd" fill="#0C2188"></path><path id="Path_136_" clip-rule="evenodd" d="m375.467 452.267h-170.667c-4.713 0-8.533 3.82-8.533 8.533s3.821 8.533 8.533 8.533h170.667c4.713 0 8.533-3.82 8.533-8.533s-3.82-8.533-8.533-8.533z" fill-rule="evenodd" fill="#0C2188"></path></g></g></g></svg>