<svg xmlns:xlink="http://www.w3.org/1999/xlink" xmlns="http://www.w3.org/2000/svg" id="Capa_1" enable-background="new 0 0 512 512" height="512" viewBox="0 0 512 512" width="512"><g fill="#0C2188"><path d="m360.209 280.564c-4.142 0-7.5 3.358-7.5 7.5s3.358 7.5 7.5 7.5c11.335 0 20.557 9.222 20.557 20.557s-9.222 20.557-20.557 20.557h-4.008c-4.142 0-7.5 3.357-7.5 7.5 0 66.586-54.172 120.758-120.758 120.758s-120.758-54.172-120.758-120.758c0-4.143-3.358-7.5-7.5-7.5h-4.008c-11.334 0-20.556-9.222-20.556-20.557s9.222-20.557 20.556-20.557c4.142 0 7.5-3.358 7.5-7.5s-3.358-7.5-7.5-7.5c-1.533 0-3.041.108-4.524.298v-32.878c0-52.312 33.363-98.425 83.019-114.746 3.935-1.293 6.077-5.532 4.783-9.467-1.294-3.936-5.534-6.077-9.467-4.783-55.827 18.349-93.335 70.189-93.335 128.996v38.442c-9.649 6.365-16.032 17.296-16.032 29.695 0 18.495 14.193 33.737 32.261 35.405 1.634 30.453 13.356 58.269 31.868 80.168v72.806c0 4.142 3.358 7.5 7.5 7.5s7.5-3.358 7.5-7.5v-57.627c23.808 20.591 54.821 33.062 88.693 33.062s64.886-12.472 88.694-33.062v57.627c0 4.142 3.358 7.5 7.5 7.5s7.5-3.358 7.5-7.5v-72.805c18.513-21.9 30.234-49.716 31.868-80.168 18.067-1.668 32.261-16.91 32.261-35.405 0-19.607-15.951-35.558-35.557-35.558z" fill="#0C2188"></path><path d="m412.314 112.226c-2.892 0-5.741.322-8.532.962v-41.559c0-12.976-10.557-23.532-23.532-23.532h-16.033c-4.142 0-7.5 3.358-7.5 7.5s3.358 7.5 7.5 7.5h16.033c4.705 0 8.532 3.828 8.532 8.532v52.544c0 2.684 1.435 5.164 3.761 6.502 2.327 1.338 5.191 1.33 7.511-.02 3.91-2.275 8.034-3.429 12.26-3.429 13.545 0 24.564 11.02 24.564 24.564s-11.02 24.564-24.564 24.564c-4.225 0-8.35-1.153-12.26-3.429-2.321-1.351-5.185-1.357-7.511-.02-2.327 1.338-3.761 3.818-3.761 6.501v52.544c0 4.705-3.828 8.532-8.532 8.532h-41.559c.641-2.792.962-5.64.962-8.532 0-21.816-17.749-39.564-39.564-39.564s-39.564 17.749-39.564 39.564c0 2.892.322 5.741.962 8.532h-41.56c-4.705 0-8.532-3.828-8.532-8.532v-41.559c2.792.64 5.64.962 8.532.962 21.816 0 39.564-17.748 39.564-39.564 0-21.815-17.749-39.564-39.564-39.564-2.892 0-5.741.322-8.532.962v-41.558c0-4.705 3.828-8.532 8.532-8.532h52.544c2.684 0 5.164-1.435 6.501-3.761 1.338-2.327 1.331-5.191-.02-7.511-2.275-3.91-3.429-8.035-3.429-12.26 0-13.545 11.02-24.564 24.564-24.564s24.564 11.02 24.564 24.564c0 4.225-1.154 8.35-3.43 12.259-2.083 3.58-.871 8.171 2.709 10.255 3.579 2.083 8.17.871 10.255-2.709 3.627-6.231 5.466-12.894 5.466-19.805.002-21.816-17.746-39.565-39.562-39.565s-39.564 17.749-39.564 39.564c0 2.892.322 5.741.962 8.532h-41.56c-12.976 0-23.532 10.557-23.532 23.532v52.544c0 2.684 1.435 5.164 3.761 6.502s5.191 1.33 7.511-.02c3.91-2.275 8.034-3.429 12.26-3.429 13.545 0 24.564 11.02 24.564 24.564s-11.02 24.564-24.564 24.564c-4.225 0-8.35-1.153-12.26-3.429-2.321-1.351-5.185-1.357-7.511-.02-2.327 1.338-3.761 3.818-3.761 6.501v52.544c0 12.976 10.557 23.532 23.532 23.532h52.544c2.684 0 5.164-1.434 6.501-3.761 1.338-2.327 1.331-5.191-.02-7.511-2.275-3.91-3.429-8.035-3.429-12.26 0-13.545 11.02-24.564 24.564-24.564s24.564 11.02 24.564 24.564c0 4.225-1.154 8.35-3.43 12.259-1.35 2.32-1.358 5.185-.02 7.512s3.818 3.761 6.502 3.761h52.544c12.976 0 23.532-10.556 23.532-23.532v-41.559c2.792.64 5.64.962 8.532.962 21.816 0 39.564-17.748 39.564-39.564.004-21.813-17.745-39.562-39.561-39.562z" fill="#0C2188"></path></g></svg>