<svg xmlns:xlink="http://www.w3.org/1999/xlink" xmlns="http://www.w3.org/2000/svg" height="512" viewBox="0 0 64 64" width="512"><g id="Weight_Scale" data-name="Weight Scale" fill="#0C2188"><path d="m58.3379 27.707a1.0006 1.0006 0 0 0 -.8076-.6025l-15.764-1.8015 1.013-8.8645a.9983.9983 0 0 0 -.88-1.1065l-24.6351-2.8142.3378-2.9565a4.9776 4.9776 0 1 0 -5.9279-.6922l-6.0841 53.25a.9977.9977 0 0 0 .88 1.1065l3.9434.45a.8939.8939 0 0 0 .1142.0068.9988.9988 0 0 0 .9922-.8867l3.265-28.5777 12.799 1.4626-1.0125 8.8643a1.0113 1.0113 0 0 0 .88 1.1065l27.6 3.1533a.89.89 0 0 0 .1133.0068 1 1 0 0 0 .91-1.414l-4.54-9.9864 6.6767-8.705a1.0011 1.0011 0 0 0 .1266-.9991zm-46.2-22.7578a2.9689 2.9689 0 1 1 2.6131 3.2871 2.9732 2.9732 0 0 1 -2.6133-3.2871zm-2.4914 56.626-1.9565-.2227 5.8661-51.34a6.8766 6.8766 0 0 0 .966.2106h.0009a4.8625 4.8625 0 0 0 .9893.0127l-.3482 3.0475v.0013l-1.0013 8.7646zm7.3047-46.3178.086-.7525 23.6415 2.7-2.0254 17.7277-23.6406-2.7012zm19.8988 21.4826-8.0351 5.785.7554-6.6168zm12.7324-.07a.9992.9992 0 0 0 -.1162 1.0225l4.0567 8.9248-23.2755-2.659 9.87-7.1067a1.1113 1.1113 0 0 0 .4092-.6983l1.0126-8.8633 14.01 1.6006z" fill="#0C2188"></path></g></svg>