<svg xmlns:xlink="http://www.w3.org/1999/xlink" xmlns="http://www.w3.org/2000/svg" id="Capa_1" enable-background="new 0 0 512 512" height="512" viewBox="0 0 512 512" width="512"><g fill="#0C2188"><path d="m502 237.213h-21.312l7.734-68.071h11.481c5.523 0 10-4.477 10-10v-36.566c0-24.574-13.136-47.034-33.749-59.387 3.378-5.955 5.318-12.829 5.318-20.151 0-22.598-18.385-40.982-40.982-40.982s-40.982 18.384-40.982 40.982c0 7.322 1.939 14.196 5.318 20.151-20.612 12.353-33.749 34.814-33.749 59.388v36.566c0 5.523 4.477 10 10 10h11.484l7.756 68.071h-21.338c-5.523 0-10 4.477-10 10v47.457h-112.993c-5.523 0-10 4.477-10 10v47.457h-112.993c-5.523 0-10 4.477-10 10v47.458h-112.993c-5.523 0-10 4.477-10 10v80.36c0 5.523 4.477 10 10 10h122.993 122.993 122.993 123.021c5.523 0 10-4.477 10-10v-252.733c0-5.523-4.477-10-10-10zm-61.511-215.158c11.57 0 20.982 9.413 20.982 20.982s-9.413 20.982-20.982 20.982-20.982-9.413-20.982-20.982 9.413-20.982 20.982-20.982zm-29.068 135.955c-.576-5.052-4.851-8.868-9.936-8.868h-10.409v-26.566c0-19.083 11.161-36.373 28.225-44.471 6.187 3.752 13.439 5.915 21.188 5.915s15.002-2.163 21.188-5.915c17.064 8.099 28.225 25.388 28.225 44.471v26.566h-10.409c-5.086 0-9.362 3.817-9.936 8.871l-8.998 79.2h-40.114zm-391.421 271.574h102.993v60.36h-102.993zm122.993-57.457h102.993v117.818h-102.993zm122.993-57.457h102.993v175.275h-102.993zm226.014 175.275h-103.021v-232.732h103.021z" fill="#0C2188"></path><path d="m31.046 341.9c1.853 3.208 5.213 5.001 8.669 5.001 1.696 0 3.417-.432 4.991-1.341l214.767-124.005 11.665 20.176c1.915 3.312 5.562 5.242 9.366 4.97 3.815-.271 7.142-2.695 8.569-6.244l38.097-94.732c1.146-2.85.919-6.069-.617-8.73s-4.209-4.468-7.25-4.901l-101.11-14.4c-3.791-.542-7.551 1.128-9.694 4.298-2.143 3.169-2.291 7.283-.379 10.597l11.647 20.199-214.767 124.004c-2.296 1.326-3.973 3.511-4.659 6.072-.687 2.562-.327 5.292.999 7.588zm207.377-176.791c4.781-2.761 6.42-8.873 3.663-13.655l-6.381-11.065 68.152 9.706-25.678 63.853-6.392-11.056c-2.764-4.78-8.876-6.415-13.658-3.655l-214.763 124.002-19.706-34.128z" fill="#0C2188"></path></g></svg>