<svg xmlns:xlink="http://www.w3.org/1999/xlink" xmlns="http://www.w3.org/2000/svg" id="Layer_1" enable-background="new 0 0 512 512" height="512" viewBox="0 0 512 512" width="512"><path d="m512 226.939v58.12c0 14.72-11.976 26.694-26.694 26.694h-39.271c-3.981 13.582-9.43 26.717-16.253 39.18l27.786 27.785c10.407 10.408 10.407 27.344 0 37.752l-41.097 41.098c-.241.24-.485.476-.733.705-1.54 1.427-3.49 2.133-5.437 2.133-2.149 0-4.293-.861-5.869-2.562-3.003-3.24-2.812-8.302.429-11.306.1-.093.199-.188.296-.285l41.097-41.098c4.17-4.169 4.17-10.954 0-15.123l-32.095-32.095c-2.578-2.579-3.087-6.575-1.235-9.718 8.577-14.563 15.063-30.198 19.275-46.472.914-3.529 4.099-5.995 7.745-5.995h45.361c5.896 0 10.694-4.798 10.694-10.694v-58.12c0-5.896-4.798-10.693-10.694-10.693h-45.361c-3.646 0-6.83-2.465-7.744-5.994-4.22-16.289-10.706-31.925-19.276-46.474-1.852-3.142-1.343-7.139 1.235-9.718l32.096-32.094c4.169-4.17 4.169-10.955-.001-15.124l-41.097-41.097c-2.006-2.006-4.69-3.11-7.562-3.11s-5.558 1.104-7.563 3.11l-32.094 32.095c-2.579 2.577-6.572 3.088-9.718 1.235-14.563-8.577-30.198-15.063-46.472-19.275-3.529-.914-5.995-4.099-5.995-7.745v-45.36c0-5.896-4.797-10.694-10.693-10.694h-58.121c-5.896 0-10.693 4.798-10.693 10.694v45.361c0 3.646-2.465 6.83-5.993 7.744-16.29 4.22-31.926 10.706-46.474 19.276-3.144 1.851-7.14 1.342-9.718-1.235l-32.095-32.095c-2.005-2.006-4.691-3.11-7.563-3.11s-5.556 1.104-7.561 3.109l-41.098 41.098c-4.17 4.169-4.17 10.954 0 15.125l32.095 32.093c2.578 2.579 3.087 6.575 1.236 9.717-8.578 14.564-15.064 30.2-19.276 46.474-.914 3.529-4.099 5.995-7.745 5.995h-45.36c-5.896 0-10.694 4.797-10.694 10.693v58.12c0 5.896 4.798 10.694 10.694 10.694h45.361c3.646 0 6.83 2.465 7.744 5.994 4.22 16.289 10.706 31.925 19.276 46.473 1.852 3.142 1.343 7.139-1.235 9.718l-32.095 32.095c-4.17 4.169-4.17 10.954 0 15.123l41.098 41.098c.107.108.2.198.295.285 3.24 3.004 3.432 8.065.429 11.306-3.004 3.24-8.064 3.432-11.306.429-.253-.235-.504-.476-.748-.722l-41.082-41.081c-10.407-10.408-10.407-27.344 0-37.752l27.786-27.785c-6.819-12.454-12.267-25.588-16.252-39.18h-39.271c-14.718 0-26.694-11.975-26.694-26.694v-58.12c0-14.719 11.976-26.693 26.694-26.693h39.271c3.98-13.582 9.43-26.717 16.253-39.18l-27.786-27.785c-10.407-10.409-10.407-27.345 0-37.753l41.098-41.097c5.027-5.026 11.73-7.796 18.875-7.796s13.849 2.769 18.876 7.796l27.786 27.786c12.454-6.819 25.588-12.267 39.18-16.252v-39.272c-.001-14.719 11.974-26.694 26.692-26.694h58.121c14.719 0 26.693 11.975 26.693 26.694v39.271c13.582 3.98 26.717 9.43 39.18 16.253l27.785-27.786c5.028-5.027 11.732-7.796 18.877-7.796s13.848 2.77 18.875 7.797l41.098 41.096c10.407 10.408 10.407 27.344 0 37.752l-27.786 27.785c6.819 12.455 12.267 25.588 16.252 39.181h39.271c14.719-.001 26.695 11.974 26.695 26.692zm-158.588 112.486c1.443 1.089 3.135 1.615 4.813 1.614 2.424 0 4.818-1.097 6.392-3.181 17.914-23.736 27.384-52.043 27.384-81.858 0-74.991-61.01-136.001-136.001-136.001s-136.001 61.01-136.001 136.001c0 29.815 9.47 58.122 27.384 81.858 2.662 3.526 7.68 4.227 11.205 1.566 3.526-2.662 4.228-7.679 1.566-11.205-15.803-20.938-24.155-45.911-24.155-72.22 0-66.169 53.832-120.001 120.001-120.001s120.001 53.833 120.001 120.002c0 26.309-8.353 51.282-24.155 72.22-2.661 3.526-1.96 8.543 1.566 11.205zm16.108 25.732c14.562 15.843 22.581 36.351 22.581 57.746v81.097c0 4.418-3.582 8-8 8h-256.202c-4.418 0-8-3.582-8-8v-81.097c0-21.396 8.02-41.903 22.581-57.746 14.468-15.74 34.056-25.465 55.155-27.382 3.578-.334 6.951 1.787 8.216 5.161l14.555 38.861 10.831 28.436 5.67-30.038-16.786-30.958c-1.344-2.479-1.283-5.482.159-7.906 1.442-2.423 4.054-3.907 6.874-3.907h57.691c2.82 0 5.432 1.484 6.874 3.907 1.442 2.424 1.503 5.427.159 7.906l-16.786 30.958 5.67 30.038 10.847-28.479 14.538-38.819c1.265-3.375 4.625-5.484 8.216-5.161 21.101 1.918 40.689 11.643 55.157 27.383zm-122.738 130.843-41.344-108.549-12.334-32.931c-32.523 5.89-57.205 34.83-57.205 68.383v73.097zm9.218-20.751 13.876-36.431-11.033-58.45c-.341-1.808-.049-3.679.828-5.297l11.737-21.646h-30.816l11.737 21.646c.877 1.618 1.169 3.489.828 5.297l-11.033 58.45zm120.101-52.346c0-33.553-24.682-62.493-57.205-68.383l-12.317 32.889-41.361 108.591h110.883zm-120.101-239.583c40.652 0 73.726 33.073 73.726 73.727s-33.074 73.726-73.726 73.726c-40.653 0-73.727-33.073-73.727-73.727s33.074-73.726 73.727-73.726zm0 16c-31.83 0-57.727 25.896-57.727 57.727s25.897 57.726 57.727 57.726 57.726-25.896 57.726-57.727-25.896-57.726-57.726-57.726z" fill="#0C2188"></path></svg>