<svg xmlns:xlink="http://www.w3.org/1999/xlink" xmlns="http://www.w3.org/2000/svg" id="Capa_1" enable-background="new 0 0 512 512" height="512" viewBox="0 0 512 512" width="512"><g fill="#0C2188"><g id="Page-1_37_" fill="#0C2188"><g id="_x30_38---Reward-Points-Calendar" fill="#0C2188"><path id="Shape_236_" d="m469.333 51.2h-25.6v-8.533c0-23.564-19.102-42.667-42.666-42.667s-42.667 19.103-42.667 42.667v8.533h-59.733v-8.533c0-23.564-19.103-42.667-42.667-42.667s-42.667 19.103-42.667 42.667v8.533h-59.733v-8.533c0-23.564-19.103-42.667-42.667-42.667s-42.666 19.103-42.666 42.667v8.533h-25.6c-23.553.028-42.639 19.114-42.667 42.667v375.467c.028 23.552 19.114 42.638 42.667 42.666h426.667c23.552-.028 42.638-19.114 42.667-42.667v-375.466c-.029-23.553-19.115-42.639-42.668-42.667zm-93.866-8.533c0-14.138 11.462-25.6 25.6-25.6s25.6 11.462 25.6 25.6v51.2c0 14.138-11.462 25.6-25.6 25.6s-25.6-11.462-25.6-25.6zm-145.067 0c0-14.138 11.462-25.6 25.6-25.6 14.139 0 25.6 11.462 25.6 25.6v51.2c0 14.138-11.461 25.6-25.6 25.6-14.138 0-25.6-11.462-25.6-25.6zm-145.067 0c0-14.138 11.462-25.6 25.6-25.6s25.6 11.462 25.6 25.6v51.2c0 14.138-11.462 25.6-25.6 25.6s-25.6-11.462-25.6-25.6zm-42.666 25.6h25.6v25.6c0 23.564 19.103 42.667 42.667 42.667s42.666-19.103 42.666-42.667v-25.6h59.733v25.6c0 23.564 19.103 42.667 42.667 42.667s42.667-19.103 42.667-42.667v-25.6h59.733v25.6c0 23.564 19.103 42.667 42.667 42.667s42.667-19.103 42.667-42.667v-25.6h25.6c14.138 0 25.6 11.462 25.6 25.6v59.733h-477.867v-59.733c0-14.139 11.461-25.6 25.6-25.6zm426.666 426.666h-426.666c-14.138 0-25.6-11.462-25.6-25.6v-298.666h477.867v298.667c-.001 14.138-11.462 25.599-25.601 25.599z" fill="#0C2188"></path><path id="Shape_235_" d="m346.197 381.73c-.72-4.149.579-8.392 3.499-11.426l42.752-43.324c7.994-8.133 10.716-20.081 7.031-30.874-3.292-10.334-12.131-17.929-22.844-19.627l-59.588-8.994c-3.795-.652-7.018-3.146-8.602-6.656l-26.845-56.575c-4.529-10.079-14.55-16.562-25.6-16.562s-21.071 6.483-25.6 16.562l-26.863 56.576c-1.583 3.51-4.807 6.004-8.602 6.656l-59.571 8.994c-10.712 1.698-19.551 9.292-22.844 19.627-3.684 10.796-.963 22.745 7.031 30.882l42.752 43.358c2.921 3.037 4.22 7.283 3.499 11.435l-10.146 61.44c-1.993 11.319 2.686 22.777 12.032 29.466 8.644 6.18 20.07 6.843 29.372 1.707l53.82-29.406c3.189-1.752 7.051-1.752 10.24 0l53.82 29.466c9.302 5.135 20.727 4.471 29.372-1.707 9.346-6.689 14.025-18.147 12.032-29.466zm-16.81 2.782 10.138 61.44c.921 4.889-1.056 9.871-5.077 12.8-3.309 2.425-7.73 2.692-11.307.683l-53.828-29.423c-8.28-4.548-18.31-4.548-26.59 0l-53.845 29.423c-3.576 2.013-7.999 1.746-11.307-.683-4.038-2.918-6.031-7.902-5.12-12.8l10.138-61.44c1.609-9.541-1.432-19.276-8.183-26.206l-42.743-43.315c-3.462-3.58-4.617-8.803-2.987-13.508 1.253-4.251 4.827-7.41 9.199-8.132l59.588-9.003c9.411-1.49 17.461-7.569 21.47-16.213l26.863-56.576c1.714-4.098 5.721-6.765 10.163-6.765s8.449 2.668 10.163 6.765l26.863 56.576c4.008 8.644 12.059 14.723 21.47 16.213l59.588 9.003c4.372.722 7.946 3.882 9.199 8.132 1.63 4.706.476 9.929-2.987 13.508l-42.701 43.324c-6.745 6.93-9.779 16.662-8.167 26.197z" fill="#0C2188"></path><path id="Shape_234_" d="m180.634 226.603c2.616 3.921 7.915 4.979 11.836 2.364s4.979-7.915 2.364-11.836l-17.067-25.6c-2.616-3.921-7.915-4.979-11.836-2.364-3.921 2.616-4.979 7.915-2.364 11.836z" fill="#0C2188"></path><path id="Shape_233_" d="m148.864 254.566c3.921 2.616 9.22 1.557 11.836-2.364s1.557-9.22-2.364-11.836l-25.6-17.067c-3.921-2.616-9.22-1.557-11.836 2.364s-1.557 9.22 2.364 11.836z" fill="#0C2188"></path><path id="Shape_232_" d="m324.267 230.4c2.856.003 5.523-1.422 7.108-3.797l17.067-25.6c2.616-3.921 1.557-9.22-2.364-11.836s-9.22-1.557-11.836 2.364l-17.067 25.6c-1.746 2.617-1.911 5.983-.428 8.758 1.484 2.775 4.373 4.508 7.52 4.511z" fill="#0C2188"></path><path id="Shape_231_" d="m358.4 256c1.683-.001 3.327-.5 4.727-1.434l25.6-17.067c2.536-1.692 3.978-4.609 3.781-7.651s-2.002-5.749-4.736-7.1-5.98-1.14-8.517.552l-25.6 17.067c-3.13 2.087-4.524 5.978-3.431 9.578s4.414 6.06 8.176 6.055z" fill="#0C2188"></path><path id="Shape_230_" d="m130.5 395.034-25.6 25.6c-2.218 2.143-3.108 5.315-2.327 8.299.781 2.983 3.111 5.314 6.094 6.094 2.984.781 6.156-.109 8.299-2.327l25.6-25.6c3.234-3.348 3.188-8.671-.104-11.962-3.291-3.292-8.613-3.338-11.962-.104z" fill="#0C2188"></path><path id="Shape_229_" d="m127.744 364.86c-1.145-4.567-5.774-7.343-10.342-6.204l-34.133 8.533c-4.178 1.047-6.92 5.043-6.395 9.318s4.153 7.488 8.46 7.493c.699.003 1.396-.083 2.074-.256l34.133-8.533c4.571-1.146 7.348-5.78 6.203-10.351z" fill="#0C2188"></path><path id="Shape_228_" d="m381.5 395.034c-3.348-3.234-8.671-3.188-11.962.104-3.292 3.292-3.338 8.614-.104 11.962l25.6 25.6c3.348 3.234 8.671 3.188 11.962-.104 3.292-3.292 3.338-8.614.104-11.962z" fill="#0C2188"></path><path id="Shape_227_" d="m428.732 367.189-34.133-8.533c-2.986-.819-6.18.044-8.348 2.254s-2.969 5.421-2.093 8.39 3.291 5.231 6.311 5.911l34.133 8.533c.675.172 1.369.258 2.065.256 4.305-.009 7.93-3.224 8.452-7.497.523-4.273-2.22-8.267-6.396-9.314z" fill="#0C2188"></path></g></g></g></svg>