<svg xmlns:xlink="http://www.w3.org/1999/xlink" xmlns="http://www.w3.org/2000/svg" id="Capa_1" enable-background="new 0 0 512 512" height="512" viewBox="0 0 512 512" width="512"><g fill="#0C2188"><path d="m512 330.882h-46.17c-.15-41.312-33.783-74.877-75.11-74.877s-74.96 33.565-75.11 74.877h-120.294c-.15-41.312-33.783-74.877-75.111-74.877-41.327 0-74.96 33.565-75.11 74.877h-45.095v45.066h15.579v136.052h15.004v-136.051h15.068v136.051h15.004v-136.051h315.06v-15.012h-360.711v-15.043h481.991v15.043h-76.267v15.012h29.976v135.731h15.004v-135.731h15.069v136.051h15.004v-136.051h16.219zm-121.28-59.865c33.054 0 59.956 26.831 60.106 59.865h-120.212c.15-33.034 27.052-59.865 60.106-59.865zm-270.515 0c33.054 0 59.956 26.831 60.106 59.865h-120.212c.15-33.034 27.052-59.865 60.106-59.865z" fill="#0C2188"></path><path d="m390.72 360.937h15.004v15.012h-15.004z" fill="#0C2188"></path><path d="m75.639 390.907h15.004v15.012h-15.004z" fill="#0C2188"></path><path d="m105.648 390.907h15.004v15.012h-15.004z" fill="#0C2188"></path><path d="m76.086 113.194h45.013v15.012h-45.013z" fill="#0C2188"></path><path d="m96.455 57.397h15.012v45.014h-15.012z" transform="matrix(.259 -.966 .966 .259 -.138 159.629)" fill="#0C2188"></path><path d="m112.195 19.38h15.01v45.018h-15.01z" transform="matrix(.5 -.866 .866 .5 23.556 124.588)" fill="#0C2188"></path><path d="m207.956 62.333-9.583-11.552c-4.197 3.485-8.092 7.382-11.577 11.583l11.546 9.587c2.895-3.488 6.129-6.725 9.614-9.618z" fill="#0C2188"></path><path d="m211.834 41.516 7.347 13.089c3.957-2.223 8.137-4.092 12.425-5.554l-4.84-14.209c-5.154 1.757-10.177 4.003-14.932 6.674z" fill="#0C2188"></path><path d="m159.633 191.077 12.038-8.961c-13.494-18.146-20.627-39.73-20.627-62.418 0-57.724 46.94-104.687 104.637-104.687s104.637 46.962 104.637 104.687c.105 51.9-38.147 95.997-89.294 103.633l-15.342 30.7-15.343-30.7c-21.408-3.325-41.318-12.893-57.026-28.026l-10.379 10.841c16.03 15.36 35.772 25.867 57.299 30.53l25.449 50.922 25.449-50.921c54.804-11.858 94.192-60.458 94.192-116.978-.001-66.003-53.672-119.699-119.642-119.699s-119.642 53.696-119.642 119.698c0 25.941 8.159 50.624 23.594 71.379z" fill="#0C2188"></path><path d="m263.183 139.834c18.754-3.28 31.933-21.2 31.84-40.797-.097-20.54-17.986-37.32-38.533-37.32-22.113 0-40.37 17.563-40.206 39.407h15.004c-.11-13.526 11.005-24.398 24.899-24.398 12.718 0 23.851 10.382 23.851 23.09 0 13.378-10.928 25.712-24.358 25.712h-7.502v40.873h15.004v-26.567z" fill="#0C2188"></path><path d="m248.178 180.746h15.004v15.012h-15.004z" fill="#0C2188"></path></g></svg>