<svg xmlns:xlink="http://www.w3.org/1999/xlink" xmlns="http://www.w3.org/2000/svg" id="Layer_1" enable-background="new 0 0 1600 1600" height="512" viewBox="0 0 1600 1600" width="512"><g fill="#0C2188"><g fill="#0C2188"><g fill="#0C2188"><path d="m1478.7 1427.8h-1357.4c-49.2 0-89.3-40-89.3-89.3v-1077c0-49.2 40-89.3 89.3-89.3h1357.5c49.2 0 89.3 40 89.3 89.3v1077c-.1 49.2-40.2 89.3-89.4 89.3zm-1357.4-1207.6c-22.8 0-41.3 18.5-41.3 41.3v1077c0 22.8 18.5 41.3 41.3 41.3h1357.5c22.8 0 41.3-18.5 41.3-41.3v-1077c0-22.8-18.5-41.3-41.3-41.3z" fill="#0C2188"></path><path d="m1544 435h-1488c-13.3 0-24-10.7-24-24s10.7-24 24-24h1488c13.3 0 24 10.7 24 24s-10.7 24-24 24z" fill="#0C2188"></path><path d="m1397 327.6h-649.3c-13.3 0-24-10.7-24-24s10.7-24 24-24h649.3c13.3 0 24 10.7 24 24s-10.7 24-24 24z" fill="#0C2188"></path></g><g fill="#0C2188"><circle cx="235.1" cy="303.6" r="32.1" fill="#0C2188"></circle><circle cx="369.4" cy="303.6" r="32.1" fill="#0C2188"></circle><circle cx="503.7" cy="303.6" r="32.1" fill="#0C2188"></circle></g></g><g fill="#0C2188"><g fill="#0C2188"><path d="m911.6 1056.9c-9.9 0-19.1-6.1-22.6-15.9-12.7-35.6-46.7-59.6-84.6-59.6h-8.9c-37.9 0-71.9 23.9-84.6 59.6-4.5 12.5-18.2 19-30.7 14.5s-19-18.2-14.5-30.7c19.5-54.7 71.7-91.5 129.8-91.5h8.9c58.1 0 110.3 36.8 129.8 91.5 4.5 12.5-2.1 26.2-14.5 30.7-2.7.9-5.4 1.4-8.1 1.4z" fill="#0C2188"></path><path d="m800 981.3c-47.8 0-86.6-38.9-86.6-86.6s38.9-86.6 86.6-86.6c47.8 0 86.6 38.9 86.6 86.6s-38.8 86.6-86.6 86.6zm0-125.2c-21.3 0-38.6 17.3-38.6 38.6s17.3 38.6 38.6 38.6 38.6-17.3 38.6-38.6-17.3-38.6-38.6-38.6z" fill="#0C2188"></path></g><path d="m800 1102.4c-107.5 0-195-87.5-195-195s87.5-195 195-195 195 87.5 195 195-87.5 195-195 195zm0-342c-81.1 0-147 65.9-147 147s65.9 147 147 147 147-65.9 147-147-65.9-147-147-147z" fill="#0C2188"></path></g><path d="m800 1286c-53.8 0-105.7-11-154.4-32.8-47-21-88.7-51-123.8-89-9-9.7-8.4-24.9 1.3-33.9s24.9-8.4 33.9 1.3c62.5 67.6 151 106.4 243 106.4 182.3 0 330.6-148.3 330.6-330.6s-148.3-330.6-330.6-330.6c-182.2 0-330.5 148.3-330.6 330.5 0 13.3-10.8 24-24 24-13.3 0-24-10.8-24-24 0-51.1 10-100.7 29.8-147.3 19.1-45.1 46.4-85.5 81.1-120.3 34.8-34.7 75.2-62 120.3-81.1 46.7-19.7 96.3-29.8 147.3-29.8 51.1 0 100.7 10 147.4 29.8 45.1 19.1 85.6 46.4 120.3 81.1 34.8 34.8 62.1 75.2 81.1 120.3 19.7 46.7 29.8 96.3 29.8 147.4s-10 100.7-29.8 147.4c-19.1 45.1-46.4 85.6-81.1 120.3-34.8 34.8-75.2 62.1-120.3 81.1-46.6 19.8-96.2 29.8-147.3 29.8z" fill="#0C2188"></path><path d="m445.4 931.4c-7 0-13.9-3.1-18.7-8.9l-82.5-102.2c-8.3-10.3-6.7-25.4 3.6-33.8 10.3-8.3 25.4-6.7 33.8 3.6l67.4 83.5 83.5-67.4c10.3-8.3 25.4-6.7 33.7 3.6s6.7 25.4-3.6 33.7l-102.2 82.5c-4.4 3.6-9.7 5.4-15 5.4z" fill="#0C2188"></path></g></svg>