<svg xmlns="http://www.w3.org/2000/svg" xmlns:xlink="http://www.w3.org/1999/xlink" version="1.1" id="Capa_1" x="0px" y="0px" viewBox="0 0 512.005 512.005" class="page_speed_400137924" xml:space="preserve" width="512.005"  height="512.005" >
                            <g fill="#0C2188"><g fill="#0C2188"><g fill="#0C2188"><path d="M409.602,244.089V102.4c0-0.187-0.094-0.343-0.106-0.527c-0.112-2.057-0.957-4.006-2.384-5.493l-0.013-0.016     L313.238,2.503l-0.016-0.012c-0.713-0.689-1.541-1.247-2.446-1.649c-0.249-0.116-0.508-0.182-0.769-0.274     c-0.746-0.265-1.526-0.422-2.316-0.468C307.519,0.088,307.375,0,307.202,0H59.735c-14.132,0.015-25.585,11.468-25.6,25.6v426.667     c0.015,14.132,11.468,25.585,25.6,25.6h179.78c41.477,34.978,99.017,43.859,149.109,23.013     c50.092-20.845,84.345-67.925,88.763-122.001C481.805,324.802,455.647,272.788,409.602,244.089z M315.735,29.133l64.733,64.733     h-56.2c-4.71-0.006-8.527-3.823-8.533-8.533V29.133z M59.735,460.8c-4.71-0.006-8.527-3.823-8.533-8.533V25.6     c0.006-4.71,3.823-8.527,8.533-8.533h238.933v68.267c0.015,14.132,11.468,25.585,25.6,25.6h68.267v123.953     c-34.107-15.643-72.996-17.254-108.281-4.486h-96.519c-14.111,0.066-25.534,11.489-25.6,25.6     c0.015,14.132,11.468,25.585,25.6,25.6h28.011c-7.674,10.495-13.898,21.976-18.505,34.133h-9.506     c-14.111,0.066-25.534,11.489-25.6,25.6c0.015,14.132,11.468,25.585,25.6,25.6c-0.009,34.421,12.284,67.712,34.661,93.867H59.735     z M250.691,247.467c-7.352,5.05-14.227,10.763-20.538,17.067h-42.418c-4.71-0.006-8.527-3.823-8.533-8.533     c-0.007-2.298,0.937-4.497,2.608-6.075c1.558-1.592,3.698-2.479,5.925-2.458H250.691z M191.959,332.8     c-1.386,5.621-2.43,11.32-3.128,17.067h-1.096c-4.71-0.006-8.527-3.823-8.533-8.533c-0.007-2.298,0.937-4.497,2.608-6.075     c1.558-1.592,3.698-2.479,5.925-2.458H191.959z M332.802,494.933c-70.692,0-128-57.308-128-128s57.308-128,128-128     s128,57.308,128,128C460.722,437.593,403.461,494.853,332.802,494.933z" fill="#0C2188"></path><path d="M332.802,256c-61.267,0-110.933,49.667-110.933,110.933s49.667,110.933,110.933,110.933S443.735,428.2,443.735,366.933     C443.667,305.695,394.04,256.068,332.802,256z M332.802,460.8c-51.841,0-93.867-42.026-93.867-93.867     s42.025-93.867,93.867-93.867s93.867,42.026,93.867,93.867C426.61,418.75,384.619,460.741,332.802,460.8z" fill="#0C2188"></path><path d="M341.335,363.4v-64.733c0-4.713-3.82-8.533-8.533-8.533s-8.533,3.82-8.533,8.533v68.267c0.001,2.263,0.9,4.433,2.5,6.033     l42.667,42.667c3.341,3.281,8.701,3.256,12.012-0.054c3.311-3.311,3.335-8.671,0.054-12.012L341.335,363.4z" fill="#0C2188"></path><path d="M119.468,59.733h-17.067c-14.132,0.015-25.585,11.468-25.6,25.6V102.4c0.015,14.132,11.468,25.585,25.6,25.6h17.067     c14.132-0.015,25.585-11.468,25.6-25.6V85.333C145.053,71.201,133.601,59.749,119.468,59.733z M128.002,102.4     c-0.006,4.71-3.823,8.527-8.533,8.533h-17.067c-4.71-0.006-8.527-3.823-8.533-8.533V85.333c0.006-4.71,3.823-8.527,8.533-8.533     h17.067c4.71,0.006,8.527,3.823,8.533,8.533V102.4z" fill="#0C2188"></path><path d="M187.735,110.933h68.267c14.138,0,25.6-11.462,25.6-25.6s-11.461-25.6-25.6-25.6h-68.267     c-14.138,0-25.6,11.461-25.6,25.6S173.597,110.933,187.735,110.933z M187.735,76.8h68.267c4.713,0,8.533,3.82,8.533,8.533     s-3.82,8.533-8.533,8.533h-68.267c-4.713,0-8.533-3.821-8.533-8.533S183.022,76.8,187.735,76.8z" fill="#0C2188"></path><path d="M119.468,145.067h-17.067c-14.132,0.015-25.585,11.468-25.6,25.6v17.067c0.015,14.132,11.468,25.585,25.6,25.6h17.067     c14.132-0.015,25.585-11.468,25.6-25.6v-17.067C145.053,156.535,133.601,145.082,119.468,145.067z M128.002,187.733     c-0.006,4.71-3.823,8.527-8.533,8.533h-17.067c-4.71-0.006-8.527-3.823-8.533-8.533v-17.067c0.006-4.71,3.823-8.527,8.533-8.533     h17.067c4.71,0.006,8.527,3.823,8.533,8.533V187.733z" fill="#0C2188"></path><path d="M187.735,196.267h162.133c14.138,0,25.6-11.461,25.6-25.6s-11.462-25.6-25.6-25.6H187.735     c-14.138,0-25.6,11.462-25.6,25.6S173.597,196.267,187.735,196.267z M187.735,162.133h162.133c4.713,0,8.533,3.82,8.533,8.533     s-3.821,8.533-8.533,8.533H187.735c-4.713,0-8.533-3.82-8.533-8.533S183.022,162.133,187.735,162.133z" fill="#0C2188"></path><path d="M119.468,230.4h-17.067c-14.132,0.015-25.585,11.468-25.6,25.6v17.067c0.015,14.132,11.468,25.585,25.6,25.6h17.067     c14.132-0.015,25.585-11.468,25.6-25.6V256C145.053,241.868,133.601,230.415,119.468,230.4z M128.002,273.067     c-0.006,4.71-3.823,8.527-8.533,8.533h-17.067c-4.71-0.006-8.527-3.823-8.533-8.533V256c0.006-4.71,3.823-8.527,8.533-8.533     h17.067c4.71,0.006,8.527,3.823,8.533,8.533V273.067z" fill="#0C2188"></path><path d="M119.468,315.733h-17.067c-14.132,0.015-25.585,11.468-25.6,25.6V358.4c0.015,14.132,11.468,25.585,25.6,25.6h17.067     c14.132-0.015,25.585-11.468,25.6-25.6v-17.067C145.053,327.201,133.601,315.749,119.468,315.733z M128.002,358.4     c-0.006,4.71-3.823,8.527-8.533,8.533h-17.067c-4.71-0.006-8.527-3.823-8.533-8.533v-17.067c0.006-4.71,3.823-8.527,8.533-8.533     h17.067c4.71,0.006,8.527,3.823,8.533,8.533V358.4z" fill="#0C2188"></path></g></g></g><g fill="#0C2188"></g><g fill="#0C2188"></g><g fill="#0C2188"></g><g fill="#0C2188"></g><g fill="#0C2188"></g><g fill="#0C2188"></g><g fill="#0C2188"></g><g fill="#0C2188"></g><g fill="#0C2188"></g><g fill="#0C2188"></g><g fill="#0C2188"></g><g fill="#0C2188"></g><g fill="#0C2188"></g><g fill="#0C2188"></g><g fill="#0C2188"></g></svg>