<svg xmlns:xlink="http://www.w3.org/1999/xlink" xmlns="http://www.w3.org/2000/svg" id="Layer_1" enable-background="new 0 0 512 512" height="512" viewBox="0 0 512 512" width="512"><g id="XMLID_1_" fill="#0C2188"><g id="XMLID_3379_" fill="#0C2188"><g id="XMLID_1060_" fill="#0C2188"><g id="XMLID_1061_" fill="#0C2188"><g id="XMLID_1063_" fill="#0C2188"><path id="XMLID_2353_" d="m215 354c-14.6 0-29.2-5.6-40.3-16.7-22.2-22.2-22.2-58.4 0-80.6l25.1-25.1c6.1-6.1 13.3-10.6 21.4-13.5l3.3 9.4c-6.7 2.3-12.6 6.1-17.6 11.1l-25.1 25.1c-18.3 18.3-18.3 48.1 0 66.5 18.3 18.3 48.1 18.3 66.5 0l25.1-25.1c10.3-10.3 15.2-24.5 13.4-39l9.9-1.2c2.2 17.6-3.8 34.8-16.2 47.3l-25.1 25.1c-11.2 11.1-25.8 16.7-40.4 16.7zm0-20c-9.5 0-19-3.6-26.2-10.8-14.4-14.4-14.4-37.9 0-52.3l25.1-25.1c1.1-1.1 2.2-2 3.3-3l6.2 7.9c-.9.7-1.7 1.4-2.4 2.2l-25.1 25.1c-10.5 10.5-10.5 27.7 0 38.2s27.7 10.5 38.2 0l25.1-25.1c10.5-10.5 10.5-27.7 0-38.2-5.1-5.1-11.9-7.9-19.1-7.9v-10c9.9 0 19.2 3.8 26.2 10.8 14.4 14.4 14.4 37.9 0 52.3l-25.1 25.1c-7.3 7.2-16.7 10.8-26.2 10.8zm65.2-86.6c-1.9-3.2-4.2-6.1-6.9-8.7-7.4-7.4-16.8-12-27.2-13.4l1.3-9.9c12.6 1.6 24 7.2 33 16.2 3.2 3.2 6 6.8 8.3 10.6z" fill="#0C2188"></path></g></g><g id="XMLID_1059_" fill="#0C2188"><g id="XMLID_1066_" fill="#0C2188"><path id="XMLID_2354_" d="m264.6 296.6c-12.6-1.6-24-7.2-33-16.2-10.8-10.8-16.7-25.1-16.7-40.3s5.9-29.6 16.7-40.3l25.1-25.1c22.2-22.2 58.4-22.2 80.6 0s22.2 58.4 0 80.6l-25.1 25.1c-6.1 6.1-13.3 10.6-21.4 13.5l-3.3-9.4c6.7-2.3 12.6-6.1 17.6-11.1l25.1-25.1c18.3-18.3 18.3-48.1 0-66.5-18.3-18.3-48.1-18.3-66.5 0l-25.1 25.1c-8.9 8.9-13.7 20.7-13.7 33.2 0 12.6 4.9 24.4 13.7 33.2 7.4 7.4 16.8 12 27.2 13.4zm7.3-19.5c-9.9 0-19.2-3.8-26.2-10.8-14.4-14.4-14.4-37.9 0-52.3l25.1-25.1c14.4-14.4 37.9-14.4 52.3 0s14.4 37.9 0 52.3l-25.1 25.1c-1.1 1.1-2.2 2-3.3 3l-2.9-3.7-5.1.6v-.2c-.2-1.7.5-3.5 1.9-4.5.9-.7 1.7-1.4 2.4-2.2l25.1-25.1c10.5-10.5 10.5-27.7 0-38.2s-27.7-10.5-38.2 0l-25.1 25c-10.5 10.5-10.5 27.7 0 38.2 5.1 5.1 11.9 7.9 19.1 7.9z" fill="#0C2188"></path></g></g></g><g id="XMLID_740_" fill="#0C2188"><path id="XMLID_2349_" d="m222.5 133h-184c-2.8 0-5-2.2-5-5v-46.2c0-2.8 2.2-5 5-5h184c2.8 0 5 2.2 5 5v46.2c0 2.8-2.2 5-5 5zm-179-10h174v-36.2h-174z" fill="#0C2188"></path></g><g id="XMLID_1098_" fill="#0C2188"><path id="XMLID_2346_" d="m256 60h-251c-2.8 0-5-2.2-5-5v-50c0-2.8 2.2-5 5-5h251c2.8 0 5 2.2 5 5v50c0 2.8-2.2 5-5 5zm-246-10h241v-40h-241z" fill="#0C2188"></path></g><g id="XMLID_1096_" fill="#0C2188"><path id="XMLID_2345_" d="m226 25h10v10h-10z" fill="#0C2188"></path></g><g id="XMLID_1095_" fill="#0C2188"><path id="XMLID_2344_" d="m196 25h10v10h-10z" fill="#0C2188"></path></g><g id="XMLID_1094_" fill="#0C2188"><path id="XMLID_2340_" d="m166 25h10v10h-10z" fill="#0C2188"></path></g><g id="XMLID_759_" fill="#0C2188"><path id="XMLID_2337_" d="m476.5 396h-81.5c-2.8 0-5-2.2-5-5v-60.6c0-2.8 2.2-5 5-5h81.5c2.8 0 5 2.2 5 5v60.6c0 2.8-2.2 5-5 5zm-76.5-10h71.5v-50.6h-71.5z" fill="#0C2188"></path></g><g id="XMLID_779_" fill="#0C2188"><path id="XMLID_2336_" d="m512 306h-10v-45h-118v-10h123c2.8 0 5 2.2 5 5z" fill="#0C2188"></path></g><g id="XMLID_746_" fill="#0C2188"><path id="XMLID_2335_" d="m477 276h10v10h-10z" fill="#0C2188"></path></g><g id="XMLID_742_" fill="#0C2188"><path id="XMLID_2334_" d="m447 276h10v10h-10z" fill="#0C2188"></path></g><g id="XMLID_741_" fill="#0C2188"><path id="XMLID_2333_" d="m417 276h10v10h-10z" fill="#0C2188"></path></g><g id="XMLID_743_" fill="#0C2188"><path id="XMLID_2332_" d="m38 157h132v10h-132z" fill="#0C2188"></path></g><g id="XMLID_744_" fill="#0C2188"><path id="XMLID_2331_" d="m38 190h105v10h-105z" fill="#0C2188"></path></g><g id="XMLID_745_" fill="#0C2188"><path id="XMLID_2330_" d="m38 224h93v10h-93z" fill="#0C2188"></path></g><g id="XMLID_1125_" fill="#0C2188"><path id="XMLID_2327_" d="m327 356h41v10h-41z" fill="#0C2188"></path></g><g id="XMLID_1126_" fill="#0C2188"><path id="XMLID_2326_" d="m286 386h82v10h-82z" fill="#0C2188"></path></g><g id="XMLID_1127_" fill="#0C2188"><path id="XMLID_2324_" d="m286 417h190v10h-190z" fill="#0C2188"></path></g><g id="XMLID_1128_" fill="#0C2188"><path id="XMLID_2323_" d="m286 447h190v10h-190z" fill="#0C2188"></path></g><g id="XMLID_1129_" fill="#0C2188"><path id="XMLID_2322_" d="m286 478h190v10h-190z" fill="#0C2188"></path></g><g id="XMLID_393_" fill="#0C2188"><path id="XMLID_1146_" d="m507 512h-251c-2.8 0-5-2.2-5-5v-123h10v118h241v-191h-128.1v-10h133.1c2.8 0 5 2.2 5 5v201c0 2.8-2.2 5-5 5z" fill="#0C2188"></path></g><g id="XMLID_399_" fill="#0C2188"><path id="XMLID_1130_" d="m256 389c-31.9 0-62.7-11.5-86.8-32.3-23.9-20.6-39.7-49-44.5-80l9.9-1.6c9.3 60.3 60.4 103.9 121.4 103.9 67.8 0 123-55.2 123-123s-55.2-123-123-123-123 55.2-123 123c0 2.8-2.2 5-5 5h-123c-2.8 0-5-2.2-5-5v-201c0-2.8 2.2-5 5-5h251c2.8 0 5 2.2 5 5v68.1c71 2.6 128 61.2 128 132.9 0 73.3-59.7 133-133 133zm-246-138h113.1c2.6-69.4 58.5-125.3 127.9-127.9v-63.1h-241z" fill="#0C2188"></path></g></g></g></svg>