<svg xmlns:xlink="http://www.w3.org/1999/xlink" class="w_15" xmlns="http://www.w3.org/2000/svg" viewBox="0 0 64 64" width="512" height="512"><g id="Appointment-Calendar-Month-Organization-Date" fill="#0C2188"><path d="M57,5H53V2H51V5H43V2H41V5H33V2H31V5H23V2H21V5H13V2H11V5H7a5,5,0,0,0-5,5V50a4.982,4.982,0,0,0,.67,2.5l1.73-1A3.006,3.006,0,0,1,4,50V15H60V50a3.009,3.009,0,0,1-3,3H31v2H57a5,5,0,0,0,5-5V10A5,5,0,0,0,57,5Zm3,8H4V10A3.009,3.009,0,0,1,7,7h4v3h2V7h8v3h2V7h8v3h2V7h8v3h2V7h8v3h2V7h4a3.009,3.009,0,0,1,3,3Z" fill="#0C2188"></path><path d="M29,27h6a1,1,0,0,0,1-1V20a1,1,0,0,0-1-1H29a1,1,0,0,0-1,1v6A1,1,0,0,0,29,27Zm1-6h4v4H30Z" fill="#0C2188"></path><path d="M39,27h6a1,1,0,0,0,1-1V20a1,1,0,0,0-1-1H39a1,1,0,0,0-1,1v6A1,1,0,0,0,39,27Zm1-6h4v4H40Z" fill="#0C2188"></path><path d="M49,27h6a1,1,0,0,0,1-1V20a1,1,0,0,0-1-1H49a1,1,0,0,0-1,1v6A1,1,0,0,0,49,27Zm1-6h4v4H50Z" fill="#0C2188"></path><path d="M16,24V20a1,1,0,0,0-1-1H9a1,1,0,0,0-1,1v6a1,1,0,0,0,1,1h3V25H10V21h4v3Z" fill="#0C2188"></path><path d="M22,25v2h3a1,1,0,0,0,1-1V20a1,1,0,0,0-1-1H19a1,1,0,0,0-1,1v4h2V21h4v4Z" fill="#0C2188"></path><path d="M28,37a1,1,0,0,0,1,1h6a1,1,0,0,0,1-1V31a1,1,0,0,0-1-1H29a1,1,0,0,0-1,1Zm2-5h4v4H30Z" fill="#0C2188"></path><path d="M38,37a1,1,0,0,0,1,1h6a1,1,0,0,0,1-1V31a1,1,0,0,0-1-1H39a1,1,0,0,0-1,1Zm2-5h4v4H40Z" fill="#0C2188"></path><path d="M48,37a1,1,0,0,0,1,1h6a1,1,0,0,0,1-1V31a1,1,0,0,0-1-1H49a1,1,0,0,0-1,1Zm2-5h4v4H50Z" fill="#0C2188"></path><path d="M28,48a1,1,0,0,0,1,1h6a1,1,0,0,0,1-1V42a1,1,0,0,0-1-1H29a1,1,0,0,0-1,1Zm2-5h4v4H30Z" fill="#0C2188"></path><path d="M38,48a1,1,0,0,0,1,1h6a1,1,0,0,0,1-1V42a1,1,0,0,0-1-1H39a1,1,0,0,0-1,1Zm2-5h4v4H40Z" fill="#0C2188"></path><path d="M48,48a1,1,0,0,0,1,1h6a1,1,0,0,0,1-1V42a1,1,0,0,0-1-1H49a1,1,0,0,0-1,1Zm2-5h4v4H50Z" fill="#0C2188"></path><path d="M24.06,48.71,21,47.35V44.74A7.073,7.073,0,0,0,23.71,41H24a3,3,0,0,0,0-6V33a7,7,0,0,0-14,0v2a3,3,0,0,0,0,6h.29A7.073,7.073,0,0,0,13,44.74v2.61L9.93,48.71A10.021,10.021,0,0,0,4,57.85V61a1,1,0,0,0,1,1H29a1,1,0,0,0,1-1V57.85A10.013,10.013,0,0,0,24.06,48.71ZM24,37a1,1,0,0,1,0,2ZM10,39a1,1,0,0,1,0-2ZM21.8,49.89l-.46,2.3-1.65-1.33.78-1.56ZM12,33a5,5,0,0,1,10,0v.07A7.718,7.718,0,0,0,21,33a10.362,10.362,0,0,0-4.39,1.08A8.622,8.622,0,0,1,13,35a5.022,5.022,0,0,1-1-.09Zm0,6V36.93A7.718,7.718,0,0,0,13,37a10.362,10.362,0,0,0,4.39-1.08A8.622,8.622,0,0,1,21,35a5.022,5.022,0,0,1,1,.09V39a5,5,0,0,1-10,0Zm7,6.71v2.05l-2,4-2-4V45.71a7.042,7.042,0,0,0,4,0ZM13.53,49.3l.78,1.56-1.65,1.33-.46-2.3ZM28,60H6V57.85a8,8,0,0,1,4.33-7.09l.69,3.44a1,1,0,0,0,.64.74A.974.974,0,0,0,12,55a1.048,1.048,0,0,0,.63-.22l2.6-2.09.88,1.76a1,1,0,0,0,1.78,0l.88-1.76,2.6,2.09A1.048,1.048,0,0,0,22,55a.974.974,0,0,0,.34-.06,1,1,0,0,0,.64-.74l.69-3.44A8,8,0,0,1,28,57.85Z" fill="#0C2188"></path></g></svg>