<svg xmlns:xlink="http://www.w3.org/1999/xlink" xmlns="http://www.w3.org/2000/svg" viewBox="0 0 64 64" width="512" height="512"><path d="M53.78,13.11a2,2,0,0,0-1.11-1.79L30.45.21a2,2,0,0,0-1.79,0L6.45,11.32a2,2,0,0,0-1.1,1.79V19A54.15,54.15,0,0,0,25.78,61.53l2.53,2a2,2,0,0,0,1.25.44,2,2,0,0,0,1.25-.44l2.54-2c.66-.53,1.3-1.07,1.92-1.61A13.66,13.66,0,1,0,50.42,37.8,54.14,54.14,0,0,0,53.78,19Zm.87,37.22A9.67,9.67,0,1,1,45,40.66,9.68,9.68,0,0,1,54.65,50.33ZM45,36.66A13.68,13.68,0,0,0,31.32,50.33a13.53,13.53,0,0,0,1.57,6.34q-1,.88-2,1.74l-1.29,1-1.28-1A50.19,50.19,0,0,1,9.35,19V14.35L29.56,4.24,49.78,14.35V19a49.92,49.92,0,0,1-3.25,17.75A13.13,13.13,0,0,0,45,36.66Z" fill="#0C2188"></path><path d="M39.4,50.42a2,2,0,1,0-2.83,2.82l4.5,4.5a2,2,0,0,0,1.42.59h0a2,2,0,0,0,1.43-.63l8.5-9A2,2,0,0,0,49.53,46l-7.09,7.5Z" fill="#0C2188"></path></svg>