<svg xmlns:xlink="http://www.w3.org/1999/xlink" xmlns="http://www.w3.org/2000/svg" height="512" viewBox="0 0 64 64" width="512"><g id="Outline" fill="#0C2188"><path d="m38.917 18.844a1 1 0 0 0 1.381-.307l9.546-15a1 1 0 1 0 -1.688-1.074l-9.546 15a1 1 0 0 0 .307 1.381z" fill="#0C2188"></path><path d="m44.623 40.879a1 1 0 0 0 -.558 1.3 13.03 13.03 0 1 1 -1.86-3.215 1 1 0 1 0 1.57-1.238 15.1 15.1 0 0 0 -1.622-1.726h.847a1 1 0 0 0 1-1v-11a1 1 0 0 0 -1-1h-.542l12.386-19.463a1 1 0 1 0 -1.688-1.074l-13.068 20.537h-.175l-4.227-6.642 8.158-12.821a1 1 0 1 0 -1.688-1.074l-7.656 12.037-1.315-2.067 5.658-8.892a1 1 0 1 0 -1.688-1.074l-5.155 8.1-5.157-8.1a1 1 0 0 0 -1.688 1.074l13.023 20.459h-2.629l-13.705-21.537a1 1 0 0 0 -1.688 1.074l13.022 20.463h-3.629l-5.7-8.966a1 1 0 0 0 -1.688 1.074l5.017 7.892h-2.629l-13.705-21.537a1 1 0 0 0 -1.688 1.074l12.386 19.463h-.542a1 1 0 0 0 -1 1v11a1 1 0 0 0 1 1h.836a14.993 14.993 0 1 0 24.087 5.436 1 1 0 0 0 -1.3-.557zm-21.467-15.342a1 1 0 0 0 .844.463h16a1 1 0 0 0 .844-.463l.342-.537h.814v3h-20v-3h.814zm-1.156 8.463v-4h20v4h-2.559a14.863 14.863 0 0 0 -14.893 0z" fill="#0C2188"></path><path d="m23.776 54.289a11.008 11.008 0 1 0 -2.2-3.809 1 1 0 1 0 1.9-.632 9.032 9.032 0 1 1 1.8 3.114 1 1 0 1 0 -1.5 1.327z" fill="#0C2188"></path><path d="m39.462 44.575a1 1 0 0 0 -.808-.68l-3.978-.579-1.776-3.605a1.041 1.041 0 0 0 -1.792 0l-1.78 3.605-3.978.579a1 1 0 0 0 -.555 1.7l2.879 2.807-.68 3.963a1 1 0 0 0 1.451 1.054l3.555-1.866 3.559 1.871a1 1 0 0 0 1.451-1.054l-.68-3.963 2.879-2.807a1 1 0 0 0 .253-1.025zm-4.9 2.767a1 1 0 0 0 -.287.885l.425 2.483-2.231-1.172a1 1 0 0 0 -.93 0l-2.239 1.172.425-2.483a1 1 0 0 0 -.287-.885l-1.8-1.759 2.494-.363a1 1 0 0 0 .753-.547l1.115-2.259 1.115 2.259a1 1 0 0 0 .753.547l2.494.363z" fill="#0C2188"></path><path d="m20.156 12.966a1 1 0 0 0 1.688-1.074l-6-9.429a1 1 0 0 0 -1.688 1.074z" fill="#0C2188"></path><path d="m52.758 43a1 1 0 0 0 2 0 3.246 3.246 0 0 1 3.242-3.243 1 1 0 0 0 0-2 3.245 3.245 0 0 1 -3.242-3.242 1 1 0 0 0 -2 0 3.246 3.246 0 0 1 -3.243 3.242 1 1 0 0 0 0 2 3.247 3.247 0 0 1 3.243 3.243zm1-5.409a5.264 5.264 0 0 0 1.166 1.166 5.307 5.307 0 0 0 -1.166 1.166 5.307 5.307 0 0 0 -1.166-1.166 5.264 5.264 0 0 0 1.166-1.166z" fill="#0C2188"></path><path d="m61 55.757a3.245 3.245 0 0 1 -3.242-3.242 1 1 0 0 0 -2 0 3.246 3.246 0 0 1 -3.243 3.242 1 1 0 0 0 0 2 3.247 3.247 0 0 1 3.243 3.243 1 1 0 0 0 2 0 3.246 3.246 0 0 1 3.242-3.243 1 1 0 0 0 0-2zm-4.242 2.166a5.307 5.307 0 0 0 -1.166-1.166 5.264 5.264 0 0 0 1.166-1.166 5.264 5.264 0 0 0 1.166 1.166 5.307 5.307 0 0 0 -1.166 1.166z" fill="#0C2188"></path><path d="m13.485 55.757a3.246 3.246 0 0 1 -3.243-3.242 1 1 0 0 0 -2 0 3.245 3.245 0 0 1 -3.242 3.242 1 1 0 0 0 0 2 3.246 3.246 0 0 1 3.242 3.243 1 1 0 0 0 2 0 3.247 3.247 0 0 1 3.243-3.243 1 1 0 0 0 0-2zm-4.243 2.166a5.307 5.307 0 0 0 -1.166-1.166 5.264 5.264 0 0 0 1.166-1.166 5.264 5.264 0 0 0 1.166 1.166 5.307 5.307 0 0 0 -1.166 1.166z" fill="#0C2188"></path><path d="m18.485 37.243a1 1 0 0 0 -1-1 3.247 3.247 0 0 1 -3.243-3.243 1 1 0 0 0 -2 0 3.246 3.246 0 0 1 -3.242 3.243 1 1 0 0 0 0 2 3.245 3.245 0 0 1 3.242 3.242 1 1 0 0 0 2 0 3.246 3.246 0 0 1 3.243-3.242 1 1 0 0 0 1-1zm-5.243 1.166a5.264 5.264 0 0 0 -1.166-1.166 5.307 5.307 0 0 0 1.166-1.166 5.307 5.307 0 0 0 1.166 1.166 5.264 5.264 0 0 0 -1.166 1.166z" fill="#0C2188"></path></g></svg>