<svg xmlns:xlink="http://www.w3.org/1999/xlink" xmlns="http://www.w3.org/2000/svg" height="512" viewBox="0 -17 512 512" width="512"><path d="m272.675781 0c-129.425781 0-235.183593 103.28125-239.203125 231.75h-25.898437c-2.738281 0-5.265625 1.476562-6.605469 3.863281-1.339844 2.390625-1.285156 5.316407.140625 7.652344l54.625 89.566406c1.375 2.253907 3.824219 3.628907 6.464844 3.628907s5.089843-1.375 6.464843-3.628907l54.628907-89.566406c1.425781-2.335937 1.476562-5.261719.136719-7.652344-1.339844-2.386719-3.863282-3.863281-6.605469-3.863281h-23.382813c3.980469-95.421875 82.855469-171.820312 179.238282-171.820312 98.914062 0 179.390624 80.476562 179.390624 179.394531 0 16.265625-2.1875 32.394531-6.5 47.929687-1.121093 4.03125 1.242188 8.207032 5.273438 9.324219 4.03125 1.121094 8.203125-1.238281 9.320312-5.269531 4.683594-16.859375 7.054688-34.347656 7.054688-51.988282 0-107.269531-87.269531-194.539062-194.539062-194.539062-107.269532 0-194.542969 87.273438-194.542969 194.542969 0 4.183593 3.390625 7.574219 7.574219 7.574219h17.625l-41.136719 67.445312-41.132813-67.445312h19.863282c4.179687 0 7.574218-3.390626 7.574218-7.574219 0-123.609375 100.5625-224.175781 224.171875-224.175781s224.175781 100.566406 224.175781 224.175781c0 121.074219-96.484374 220.039062-216.601562 224.046875v-29.652344c34.203125-1.328125 67.339844-11.613281 96.28125-29.953125 30.226562-19.152344 54.597656-46.179687 70.488281-78.160156 1.859375-3.746094.332031-8.289063-3.414062-10.152344-3.75-1.863281-8.292969-.332031-10.152344 3.414063-30.601563 61.589843-92.207031 99.847656-160.773437 99.847656-4.183594 0-7.574219 3.390625-7.574219 7.574218v44.78125c0 4.183594 3.390625 7.574219 7.574219 7.574219 131.960937 0 239.320312-107.359375 239.320312-239.320312 0-131.964844-107.359375-239.324219-239.324219-239.324219zm0 0" fill="#0C2188"></path><path d="m346.414062 382.21875h.019532c19.324218-.023438 35.042968-15.75 35.042968-35.082031v-123.800781c0-4.183594-3.390624-7.574219-7.574218-7.574219s-7.574219 3.390625-7.574219 7.574219v123.800781c0 10.992187-8.941406 19.933593-19.933594 19.933593-10.992187 0-19.933593-8.941406-19.933593-19.933593 0-4.183594-3.390626-7.574219-7.574219-7.574219h-141.667969v-66.15625c0-4.183594-3.390625-7.574219-7.574219-7.574219-4.183593 0-7.574219 3.390625-7.574219 7.574219v66.15625h-19.933593c-4.183594 0-7.574219 3.390625-7.574219 7.574219 0 19.34375 15.738281 35.082031 35.082031 35.082031h176.75zm-176.769531-15.148438c-8.308593 0-15.449219-5.113281-18.4375-12.359374h160.929688c.996093 4.503906 2.855469 8.6875 5.402343 12.359374zm0 0" fill="#0C2188"></path><path d="m373.902344 195.226562c4.183594 0 7.574218-3.390624 7.574218-7.574218v-70.523438c0-4.183594-3.390624-7.574218-7.574218-7.574218h-204.257813c-4.183593 0-7.574219 3.390624-7.574219 7.574218v120.742188c0 4.183594 3.390626 7.574218 7.574219 7.574218 4.183594 0 7.574219-3.390624 7.574219-7.574218v-113.167969h189.109375v62.949219c0 4.183594 3.390625 7.574218 7.574219 7.574218zm0 0" fill="#0C2188"></path><path d="m337.75 180.558594h-131.953125c-4.183594 0-7.574219 3.390625-7.574219 7.574218 0 4.183594 3.390625 7.574219 7.574219 7.574219h131.953125c4.183594 0 7.574219-3.390625 7.574219-7.574219 0-4.183593-3.390625-7.574218-7.574219-7.574218zm0 0" fill="#0C2188"></path><path d="m337.75 217.949219h-131.953125c-4.183594 0-7.574219 3.390625-7.574219 7.574219 0 4.179687 3.390625 7.574218 7.574219 7.574218h131.953125c4.183594 0 7.574219-3.394531 7.574219-7.574218 0-4.183594-3.390625-7.574219-7.574219-7.574219zm0 0" fill="#0C2188"></path><path d="m337.75 255.335938h-131.953125c-4.183594 0-7.574219 3.390624-7.574219 7.574218s3.390625 7.574219 7.574219 7.574219h131.953125c4.183594 0 7.574219-3.390625 7.574219-7.574219s-3.390625-7.574218-7.574219-7.574218zm0 0" fill="#0C2188"></path><path d="m337.75 292.726562h-131.953125c-4.183594 0-7.574219 3.390626-7.574219 7.574219 0 4.179688 3.390625 7.570313 7.574219 7.570313h131.953125c4.183594 0 7.574219-3.390625 7.574219-7.570313 0-4.183593-3.390625-7.574219-7.574219-7.574219zm0 0" fill="#0C2188"></path></svg>