<svg xmlns:xlink="http://www.w3.org/1999/xlink" xmlns="http://www.w3.org/2000/svg" id="Layer_1" height="512" viewBox="0 0 64 64" width="512" data-name="Layer 1"><path d="m61 30h-30v-6a1 1 0 0 0 -1-1h-18a1 1 0 0 0 -1 1v6h-8a1 1 0 0 0 -1 1v6a1 1 0 0 0 1 1h1v23a1 1 0 0 0 1 1h4a1 1 0 0 0 1-1v-23h1v2a1 1 0 0 0 1 1h3v2h-3a1 1 0 0 0 -1 1v4a1 1 0 0 0 1 1h2.86l-1.86 12.72 2 .28 1.89-13h8.24l1.87 13 2-.28-1.86-12.72h2.86a1 1 0 0 0 1-1v-4a1 1 0 0 0 -1-1h-3v-2h3a1 1 0 0 0 1-1v-2h23v23a1 1 0 0 0 1 1h4a1 1 0 0 0 1-1v-23h1a1 1 0 0 0 1-1v-6a1 1 0 0 0 -1-1zm-53 30h-2v-22h2zm-4-24v-4h7v4zm25 11h-16v-2h16zm-4-4h-8v-2h8zm4-4h-16v-14h16zm29 21h-2v-22h2zm2-24h-29v-4h29z" fill="#0C2188"></path><path d="m42.59 24 3.7 3.71a1 1 0 0 0 1.42 0l3.7-3.71h8.59a1 1 0 0 0 1-1v-20a1 1 0 0 0 -1-1h-26a1 1 0 0 0 -1 1v20a1 1 0 0 0 1 1zm-7.59-20h24v18h-8a1 1 0 0 0 -.71.29l-3.29 3.3-3.29-3.3a1 1 0 0 0 -.71-.29h-8z" fill="#0C2188"></path><path d="m46 6h2v3h-2z" fill="#0C2188"></path><path d="m46 11h2v9h-2z" fill="#0C2188"></path></svg>