<svg xmlns:xlink="http://www.w3.org/1999/xlink" xmlns="http://www.w3.org/2000/svg" id="Layer_3" enable-background="new 0 0 64 64" height="512" viewBox="0 0 64 64" width="512"><g fill="#0C2188"><path d="m62 1h-60c-.552 0-1 .447-1 1v6c0 .553.448 1 1 1h1v36h-1c-.552 0-1 .447-1 1v4c0 .553.448 1 1 1h29v6.184c-1.161.414-2 1.514-2 2.816 0 1.654 1.346 3 3 3s3-1.346 3-3c0-1.302-.839-2.402-2-2.816v-6.184h29c.552 0 1-.447 1-1v-4c0-.553-.448-1-1-1h-1v-36h1c.552 0 1-.447 1-1v-6c0-.553-.448-1-1-1zm-30 60c-.551 0-1-.448-1-1s.449-1 1-1 1 .448 1 1-.449 1-1 1zm29-12h-58v-2h58zm-2-4h-54v-36h54zm2-38h-58v-4h58z" fill="#0C2188"></path><path d="m7.649 18.937 6.351 2.381v4.682c0 2.851 4.299 5 10 5s10-2.149 10-5v-4.682l2-.75v1.71c-.595.347-1 .985-1 1.722s.405 1.375 1 1.722v2.278h2v-2.278c.595-.347 1-.985 1-1.722s-.405-1.375-1-1.722v-2.46l2.351-.882c.39-.146.649-.519.649-.936s-.259-.79-.649-.937l-16-6c-.227-.084-.476-.084-.702 0l-16 6c-.39.147-.649.52-.649.937s.259.79.649.937zm24.351 7.063c0 1.224-3.117 3-8 3s-8-1.776-8-3v-3.932l7.649 2.868c.113.043.232.064.351.064s.238-.021.351-.063l7.649-2.869zm-8-12.932 13.152 4.932-13.152 4.932-13.152-4.932z" fill="#0C2188"></path><path d="m44 19h12c.552 0 1-.447 1-1v-6c0-.553-.448-1-1-1h-12c-.552 0-1 .447-1 1v6c0 .553.448 1 1 1zm1-6h10v4h-10z" fill="#0C2188"></path><path d="m14 33h15v2h-15z" fill="#0C2188"></path><path d="m7 37h28v2h-28z" fill="#0C2188"></path><path d="m37 37h2v2h-2z" fill="#0C2188"></path><path d="m41 37h8v2h-8z" fill="#0C2188"></path><path d="m7 41h33v2h-33z" fill="#0C2188"></path><path d="m47 21h10v2h-10z" fill="#0C2188"></path><path d="m42 25h15v2h-15z" fill="#0C2188"></path><path d="m42 29h15v2h-15z" fill="#0C2188"></path><path d="m42 41h10v2h-10z" fill="#0C2188"></path></g></svg>