<svg xmlns:xlink="http://www.w3.org/1999/xlink" xmlns="http://www.w3.org/2000/svg" height="512" viewBox="0 0 64 64" width="512"><g id="Layer_10" data-name="Layer 10" fill="#0C2188"><path d="m12 57h16v2h-16z" fill="#0C2188"></path><path d="m55 1h-42a1 1 0 0 0 -1 1v3h-3a1 1 0 0 0 -1 1v56a1 1 0 0 0 1 1h42a1 1 0 0 0 1-1v-3h3a1 1 0 0 0 1-1v-56a1 1 0 0 0 -1-1zm-45 60v-54h31v3.465l-5.072 3.381-3.481-1.741a1 1 0 0 0 -1.154.188l-5.448 5.448-4.33-2.6a1 1 0 0 0 -1.07.025l-9 6 1.11 1.664 8.473-5.649 4.457 2.674a1 1 0 0 0 1.222-.15l5.49-5.49 3.356 1.685a1.007 1.007 0 0 0 1-.063l4.447-2.969v2.132a1 1 0 0 0 1 1h8v45zm33-52.586 5.586 5.586h-5.586zm11 48.586h-2v-42a1 1 0 0 0 -.293-.707l-9-9a1 1 0 0 0 -.707-.293h-28v-2h40z" fill="#0C2188"></path><path d="m22 23a10 10 0 1 0 10 10 10.011 10.011 0 0 0 -10-10zm4.885 13.471a5.964 5.964 0 0 0 1.025-2.471h2.021a7.953 7.953 0 0 1 -1.619 3.9zm-8.885-3.471a4 4 0 1 1 4 4 4 4 0 0 1 -4-4zm11.931-1h-2.021a6.008 6.008 0 0 0 -4.91-4.91v-2.021a8.008 8.008 0 0 1 6.931 6.931zm-8.931-6.931v2.021a5.988 5.988 0 0 0 -4.294 8.727l-1.6 1.229a7.978 7.978 0 0 1 5.894-11.977zm-4.673 13.564 1.6-1.236a5.963 5.963 0 0 0 7.54.488l1.433 1.427a7.967 7.967 0 0 1 -10.571-.679z" fill="#0C2188"></path><path d="m38 25h10v2h-10z" fill="#0C2188"></path><path d="m34 29h14v2h-14z" fill="#0C2188"></path><path d="m34 33h14v2h-14z" fill="#0C2188"></path><path d="m34 37h14v2h-14z" fill="#0C2188"></path><path d="m46 46a1 1 0 0 0 -1-1h-4a1 1 0 0 0 -1 1v2h-3a1 1 0 0 0 -1 1v3h-3a1 1 0 0 0 -1 1v4h-2v2h18v-2h-2zm-4 1h2v10h-2zm-4 3h2v7h-2zm-4 4h2v3h-2z" fill="#0C2188"></path><path d="m12 45h10v2h-10z" fill="#0C2188"></path><path d="m12 49h16v2h-16z" fill="#0C2188"></path><path d="m12 53h16v2h-16z" fill="#0C2188"></path></g></svg>