<svg xmlns:xlink="http://www.w3.org/1999/xlink" xmlns="http://www.w3.org/2000/svg" id="Capa_1" enable-background="new 0 0 512 512" height="512" viewBox="0 0 512 512" width="512"><g fill="#0C2188"><path d="m66.917 29.995h15v15h-15z" fill="#0C2188"></path><path d="m96.917 29.995h15v15h-15z" fill="#0C2188"></path><path d="m298.226 128.983h15.001v15h-15.001z" transform="matrix(.444 -.896 .896 .444 47.711 349.848)" fill="#0C2188"></path><path d="m66.718 422h64.61v15h-64.61z" fill="#0C2188"></path><path d="m474.946 316.438-12.675 8.021c34.492 54.51-4.733 126.551-69.77 126.551-45.491 0-82.5-37.009-82.5-82.5s37.009-82.5 82.5-82.5c23.434 0 45.845 10.021 61.487 27.494l11.176-10.005c-16.88-18.855-40.433-30.361-65.486-32.217v-177.79l-94.414-93.492h-283.345v512h377.76v-46.255c73.145-5.348 114.535-87.251 75.267-149.307zm-165.267-290.956 64.266 63.638h-64.266zm75 471.518h-347.76v-482h257.761v89.12h90v167.204c-39.284 3.134-72.079 29.653-84.422 65.596h-233.54v15h229.702c-1.528 8.878-1.862 18.082-.8 27.54h-228.902v15h231.795c2.736 9.897 6.997 19.166 12.513 27.54h-164.697v15h176.851c15.968 16.159 37.523 26.783 61.498 28.695v31.305z" fill="#0C2188"></path><path d="m399.584 422.555v-11.615c23.584-6.6 28.506-40.885 2.949-49.919-6.747-2.385-14.208-5.265-18.393-8.546-1.305-1.023-1.869-3.372-1.403-5.843 1.779-9.429 14.305-8.569 19.191-4.483l7.282 6.716 10.17-11.026c-7.04-6.493-10.556-10.866-19.797-12.882v-10.492h-15v11.008c-18.106 5.066-22.444 28.809-9.7 38.805 4.748 3.724 11.311 6.878 22.651 10.886 12.543 4.434 7.086 21.728-5.501 21.812-9.939.056-10.154-.77-21.258-8.033l-8.211 12.553c8.39 5.487 13.129 9.218 22.02 10.182v10.877z" fill="#0C2188"></path><path d="m458.016 357.974-14.959 1.115c.338 4.531.436 9.235.023 13.741l14.938 1.366c.492-5.372.397-10.863-.002-16.222z" fill="#0C2188"></path><path d="m433.764 396.051 11.496 9.636c3.886-4.637 6.807-9.492 8.928-14.842l-13.944-5.528c-1.521 3.834-3.64 7.346-6.48 10.734z" fill="#0C2188"></path><path d="m76.906 232.819 8.241 14.274 12.99-7.5-13.731-23.784v-49.742c10.688 5.344-5.117-2.559 35.559 17.78v74.393l98.337 44.73 98.337-44.73v-74.394l50.558-25.279-37.981-18.816-6.659 13.441 10.975 5.437-115.23 57.615-115.23-57.616 115.23-57.086 63.933 31.673 6.659-13.441-70.592-34.972c-.435.216-148.46 73.551-148.897 73.761v57.246l-13.731 23.784 12.99 7.5zm58.059-41.473 83.337 41.669 83.337-41.669v57.237l-83.337 37.908-83.337-37.908z" fill="#0C2188"></path></g></svg>