<svg xmlns:xlink="http://www.w3.org/1999/xlink" xmlns="http://www.w3.org/2000/svg" enable-background="new 0 0 520 520" height="512" viewBox="0 0 520 520" width="512"><g id="_x34_7_x2C__Award_x2C__Medal_x2C__Star_x2C__Success" fill="#0C2188"><g fill="#0C2188"><path d="m324.905 184.656c-.669-2.06-2.589-3.455-4.755-3.455h-42.318l-13.077-40.246c-.669-2.06-2.589-3.455-4.755-3.455s-4.086 1.395-4.755 3.455l-13.077 40.246h-42.318c-2.166 0-4.086 1.395-4.755 3.455s.064 4.317 1.816 5.59l34.236 24.874-13.077 40.247c-.669 2.06.064 4.316 1.816 5.59 1.753 1.273 4.125 1.273 5.878 0l34.236-24.874 34.236 24.874c1.752 1.273 4.125 1.273 5.877 0 1.753-1.273 2.486-3.53 1.816-5.59l-13.076-40.247 34.235-24.874c1.754-1.273 2.487-3.53 1.817-5.59zm-44.868 24.51c-1.753 1.273-2.486 3.53-1.816 5.59l9.443 29.066-24.726-17.964c-1.752-1.273-4.125-1.273-5.877 0l-24.726 17.964 9.444-29.066c.669-2.06-.064-4.317-1.816-5.59l-24.726-17.964h30.563c2.166 0 4.086-1.395 4.755-3.455l9.445-29.066 9.444 29.065c.669 2.06 2.589 3.455 4.755 3.455h30.563z" fill="#0C2188"></path><path d="m430 202.5c0-93.738-76.262-170-170-170s-170 76.262-170 170c0 51.823 23.316 98.295 60 129.502v150.498c0 3.581 3.667 6.01 6.97 4.596l103.03-44.157 103.03 44.156c3.282 1.405 6.97-.997 6.97-4.596v-150.497c36.684-31.207 60-77.679 60-129.502zm-270 137.387c26.824 19.578 59.567 31.505 95 32.534v61.782l-95 40.714zm200 135.03-95-40.714v-61.782c35.433-1.029 68.176-12.956 95-32.534zm-100-112.417c-88.224 0-160-71.775-160-160 0-88.224 71.776-160 160-160 88.225 0 160 71.776 160 160 0 88.225-71.775 160-160 160z" fill="#0C2188"></path><path d="m260 77.5c-68.925 0-125 56.075-125 125s56.075 125 125 125 125-56.075 125-125-56.075-125-125-125zm0 240c-63.411 0-115-51.589-115-115s51.589-115 115-115 115 51.589 115 115-51.589 115-115 115z" fill="#0C2188"></path><path d="m260 103.804c-54.421 0-98.696 44.275-98.696 98.696s44.275 98.695 98.696 98.695 98.695-44.274 98.695-98.695-44.274-98.696-98.695-98.696zm0 187.391c-48.907 0-88.696-39.789-88.696-88.695 0-48.907 39.789-88.696 88.696-88.696s88.695 39.789 88.695 88.696-39.788 88.695-88.695 88.695z" fill="#0C2188"></path><path d="m175 367.5c-2.761 0-5 2.238-5 5v55c0 2.762 2.239 5 5 5s5-2.238 5-5v-55c0-2.762-2.239-5-5-5z" fill="#0C2188"></path><path d="m195 392.5c-2.761 0-5 2.238-5 5v40c0 2.762 2.239 5 5 5s5-2.238 5-5v-40c0-2.762-2.239-5-5-5z" fill="#0C2188"></path><path d="m325 432.5c2.762 0 5-2.238 5-5v-45c0-2.762-2.238-5-5-5s-5 2.238-5 5v45c0 2.762 2.238 5 5 5z" fill="#0C2188"></path><path d="m345 442.5c2.762 0 5-2.238 5-5v-30c0-2.762-2.238-5-5-5s-5 2.238-5 5v30c0 2.762 2.238 5 5 5z" fill="#0C2188"></path><path d="m65 372.5c-13.785 0-25 11.215-25 25s11.215 25 25 25 25-11.215 25-25-11.215-25-25-25zm0 40c-8.271 0-15-6.729-15-15s6.729-15 15-15 15 6.729 15 15-6.729 15-15 15z" fill="#0C2188"></path><path d="m447.5 302.5c-17.921 0-32.5 14.579-32.5 32.5s14.579 32.5 32.5 32.5 32.5-14.579 32.5-32.5-14.579-32.5-32.5-32.5zm0 55c-12.406 0-22.5-10.094-22.5-22.5s10.094-22.5 22.5-22.5 22.5 10.094 22.5 22.5-10.094 22.5-22.5 22.5z" fill="#0C2188"></path><circle cx="117.5" cy="45" r="7.5" fill="#0C2188"></circle><circle cx="52.5" cy="150" r="7.5" fill="#0C2188"></circle><circle cx="82.5" cy="315" r="7.5" fill="#0C2188"></circle><circle cx="412.5" cy="55" r="7.5" fill="#0C2188"></circle><circle cx="462.5" cy="190" r="7.5" fill="#0C2188"></circle><circle cx="417.5" cy="395" r="7.5" fill="#0C2188"></circle></g></g></svg>