<svg xmlns:xlink="http://www.w3.org/1999/xlink" xmlns="http://www.w3.org/2000/svg" height="512" viewBox="0 0 512 512.001" width="512"><path d="m477.265625 91.0625v-57.917969c0-18.277343-14.867187-33.144531-33.148437-33.144531h-326.5c-18.277344 0-33.148438 14.867188-33.148438 33.144531v307.742188h-68.46875v-214.75c0-10.53125 8.570312-19.097657 19.101562-19.097657h23.625c4.421876 0 8-3.582031 8-8 0-4.417968-3.578124-8-8-8h-23.625c-19.355468 0-35.101562 15.742188-35.101562 35.097657v276.804687c0 17.382813 14.144531 31.523438 31.527344 31.523438h160.945312v34.230468h-2.976562c-19.464844 0-35.304688 15.835938-35.304688 35.304688 0 4.417969 3.582032 8 8 8h187.058594c4.417969 0 8-3.582031 8-8 0-19.46875-15.835938-35.304688-35.304688-35.304688h-2.976562v-34.230468h160.945312c17.382813 0 31.527344-14.144532 31.527344-31.523438v-276.804687c0-19.042969-15.25-34.582031-34.175781-35.074219zm18.175781 35.074219v214.75h-68.46875v-233.847657h49.371094c10.53125 0 19.097656 8.566407 19.097656 19.097657zm-34.175781-92.992188v57.894531h-34.292969v-57.894531c0-9.453125 7.691406-17.144531 17.144532-17.144531 9.457031 0 17.148437 7.691406 17.148437 17.144531zm-343.648437-17.144531h298.144531c-3.039063 5.007812-4.789063 10.875-4.789063 17.144531v65.835938c0 .019531-.003906.039062-.003906.058593 0 .019532.003906.035157.003906.058594v31.226563h-310.503906v-97.179688c0-9.453125 7.695312-17.144531 17.148438-17.144531zm221.898437 480h-167.589844c3.046875-6.664062 9.777344-11.308594 17.570313-11.308594h132.449218c7.792969 0 14.523438 4.644532 17.570313 11.308594zm-36.542969-27.308594h-94.5v-34.226562h94.5zm176.945313-50.226562h-167.226563c-.554687-.121094-1.128906-.191406-1.71875-.191406h-110.5c-.59375 0-1.167968.070312-1.722656.191406h-167.222656c-8.5625 0-15.527344-6.964844-15.527344-15.523438v-46.054687h324.972656c4.417969 0 8-3.582031 8-8s-3.582031-8-8-8h-240.5v-194.5625h310.5v194.5625h-32.597656c-4.417969 0-8 3.582031-8 8s3.582031 8 8 8h117.066406v46.054687c0 8.558594-6.964844 15.523438-15.523437 15.523438zm0 0" fill="#0C2188"></path><path d="m121.410156 111.898438h9.945313c1.675781 0 2.515625-.835938 2.515625-2.515626v-44.449218h.476562l23.957032 44.570312c.796874 1.597656 2.078124 2.398438 3.832031 2.398438h8.746093c1.675782 0 2.515626-.839844 2.515626-2.515625v-72.007813c0-1.679687-.839844-2.519531-2.515626-2.519531h-9.941406c-1.675781 0-2.515625.839844-2.515625 2.519531v44.570313h-.480469l-24.195312-45.410157c-.558594-1.117187-1.675781-1.679687-3.351562-1.679687h-8.984376c-1.675781 0-2.515624.839844-2.515624 2.519531v72.003906c0 1.679688.835937 2.515626 2.511718 2.515626zm0 0" fill="#0C2188"></path><path d="m191.484375 111.898438h39.167969c1.597656 0 2.398437-.835938 2.398437-2.515626v-8.144531c0-1.679687-.800781-2.515625-2.398437-2.515625h-25.03125c-.960938 0-1.4375-.4375-1.4375-1.320312v-16.652344c0-.878906.476562-1.320312 1.4375-1.320312h20.480468c1.679688 0 2.515626-.835938 2.515626-2.515626v-8.144531c0-1.679687-.835938-2.515625-2.515626-2.515625h-20.480468c-.960938 0-1.4375-.441406-1.4375-1.320312v-15.574219c0-.878906.476562-1.320313 1.4375-1.320313h25.03125c1.597656 0 2.398437-.839843 2.398437-2.515624v-8.144532c0-1.679687-.800781-2.519531-2.398437-2.519531h-39.167969c-1.675781 0-2.515625.839844-2.515625 2.519531v72.003906c0 1.679688.839844 2.515626 2.515625 2.515626zm0 0" fill="#0C2188"></path><path d="m253.171875 109.382812c.238281 1.679688 1.234375 2.515626 2.992187 2.515626h16.769532c1.597656 0 2.558594-.835938 2.875-2.515626l10.902344-56.191406h.476562l10.78125 56.191406c.238281 1.679688 1.199219 2.515626 2.875 2.515626h16.890625c1.59375 0 2.515625-.835938 2.753906-2.515626l12.9375-71.886718c.238281-1.757813-.601562-2.636719-2.515625-2.636719h-12.457031c-1.839844 0-2.796875.878906-2.875 2.636719l-7.03125 50.519531h-.960937l-11.535157-51.117187c-.238281-1.359376-1.117187-2.039063-2.636719-2.039063h-13.414062c-1.433594 0-2.273438.71875-2.511719 2.160156l-11.410156 50.359375h-.839844l-7.035156-50c-.082031-1.679687-1.042969-2.515625-2.875-2.515625h-12.457031c-1.917969 0-2.757813.835938-2.515625 2.515625zm0 0" fill="#0C2188"></path><path d="m350.792969 77.214844c2.792969 1.078125 5.808593 1.957031 9.042969 2.636718 3.234374.675782 6.25 1.136719 9.042968 1.375 2.796875.242188 5.132813.980469 7.007813 2.21875 1.875 1.238282 2.816406 3.015626 2.816406 5.328126v1.441406c0 3.273437-.621094 5.511718-1.855469 6.707031-1.238281 1.199219-3.414062 1.796875-6.527344 1.796875h-5.632812c-3.195312 0-5.390625-.558594-6.585938-1.675781-1.199218-1.117188-1.796874-3.195313-1.796874-6.230469v-.957031c0-1.679688-.839844-2.515625-2.515626-2.515625h-10.179687c-1.679687 0-2.519531.839844-2.519531 2.515625v2.394531c0 6.230469 1.757812 11.0625 5.273437 14.496094 3.511719 3.4375 8.382813 5.152344 14.613281 5.152344h13.054688c6.230469 0 11.097656-1.714844 14.617188-5.152344 3.511718-3.429688 5.269531-8.265625 5.269531-14.496094v-4.074219c0-4.792969-.941407-8.726562-2.816407-11.800781-1.878906-3.074219-4.210937-5.214844-7.007812-6.410156-5.269531-2.15625-11.300781-3.515625-18.085938-4.074219-6.550781-.554687-9.824218-2.714844-9.824218-6.46875v-2.277344c0-3.59375.578125-6.007812 1.738281-7.25 1.15625-1.234375 3.371094-1.855469 6.648437-1.855469h4.671876c3.191406 0 5.390624.558594 6.585937 1.679688 1.199219 1.117188 1.796875 3.234375 1.796875 6.347656v.71875c0 1.679688.839844 2.515625 2.515625 2.515625h10.179687c1.679688 0 2.515626-.835937 2.515626-2.515625v-2.273437c0-6.230469-1.757813-11.066407-5.269532-14.5-3.515625-3.433594-8.425781-5.152344-14.734375-5.152344h-11.976562c-6.230469 0-11.101563 1.71875-14.613281 5.152344-3.515626 3.433593-5.273438 8.265625-5.273438 14.5v4.191406c0 4.953125.941406 9.007813 2.816406 12.160156 1.875 3.15625 4.210938 5.273438 7.007813 6.351563zm0 0" fill="#0C2188"></path><path d="m235.773438 165.21875h-104.074219c-6.914063 0-12.539063 5.625-12.539063 12.539062v136.550782c0 6.914062 5.625 12.539062 12.539063 12.539062h104.074219c6.917968 0 12.542968-5.625 12.542968-12.539062v-136.550782c0-6.914062-5.625-12.539062-12.542968-12.539062zm-3.457032 145.628906h-97.15625v-129.628906h97.15625zm0 0" fill="#0C2188"></path><path d="m283.3125 184.402344h95.0625c4.417969 0 8-3.582032 8-8 0-4.417969-3.582031-8-8-8h-95.0625c-4.417969 0-8 3.582031-8 8 0 4.417968 3.582031 8 8 8zm0 0" fill="#0C2188"></path><path d="m283.3125 219.21875h95.0625c4.417969 0 8-3.582031 8-8s-3.582031-8-8-8h-95.0625c-4.417969 0-8 3.582031-8 8s3.582031 8 8 8zm0 0" fill="#0C2188"></path><path d="m283.3125 254.03125h95.0625c4.417969 0 8-3.582031 8-8s-3.582031-8-8-8h-95.0625c-4.417969 0-8 3.582031-8 8s3.582031 8 8 8zm0 0" fill="#0C2188"></path><path d="m386.375 280.847656c0-4.417968-3.582031-8-8-8h-95.0625c-4.417969 0-8 3.582032-8 8 0 4.417969 3.582031 8 8 8h95.0625c4.417969 0 8-3.582031 8-8zm0 0" fill="#0C2188"></path><path d="m335.96875 307.664062h-52.65625c-4.417969 0-8 3.582032-8 8 0 4.417969 3.582031 8 8 8h52.65625c4.417969 0 8-3.582031 8-8 0-4.417968-3.582031-8-8-8zm0 0" fill="#0C2188"></path></svg>