<svg xmlns:xlink="http://www.w3.org/1999/xlink" xmlns="http://www.w3.org/2000/svg" id="Capa_1" enable-background="new 0 0 512 512" height="512" viewBox="0 0 512 512" width="512"><g fill="#0C2188"><path d="m462.742 381.745c-3.997.047-3.558-.147-8.872.225v-124.321c0-13.305-10.825-24.13-24.13-24.13h-60.92c-.033 0-.064-.005-.097-.005h-70.152v-187.285l57.535 55.615c3.252 3.144 5.117 7.54 5.117 12.063v91.754c0 4.142 3.358 7.5 7.5 7.5s7.5-3.358 7.5-7.5v-91.754c0-8.566-3.532-16.894-9.692-22.848l-70.248-67.903c-1.579-1.482-4.605-2.812-7.602-1.717l-126.021 42.36v-29.2c.095-12.759-11.353-23.864-24.67-23.09-12.737 0-23.1 10.358-23.1 23.09v45.257l-32.971 11.083c-12.951 4.354-21.653 16.458-21.653 30.122v260.725c-33.375.855-60.266 28.251-60.266 61.828v38.138c0 10.354 8.423 18.776 18.776 18.776h474.447c10.354 0 18.776-8.423 18.776-18.776v-50.75c.001-27.16-22.096-49.257-49.257-49.257zm0 15c18.89 0 34.258 15.368 34.258 34.258v7.868h-72.75v-7.868c.017-20.501 18.03-36.034 38.492-34.258zm-23.872-139.096v128.191c-17.414 7.602-29.62 24.979-29.62 45.162v7.868h-110.679v-190.351h131.169c5.034 0 9.13 4.096 9.13 9.13zm-308.98-223.05c0-4.461 3.634-8.09 8.1-8.09 4.011-.589 9.412 2.556 9.67 8.09v34.242l-17.77 5.973zm-69.623 362.173v42.099h-45.029c2.333-23.102 21.512-41.305 45.029-42.099zm-45.267 84.981v-27.882h45.267v31.658h-41.49c-2.083 0-3.777-1.694-3.777-3.776zm60.267-360.692c0-7.214 4.594-13.604 11.432-15.903l196.873-66.176v40.865l-163.572 54.983c-3.926 1.319-6.039 5.572-4.719 9.499 1.053 3.134 3.975 5.112 7.108 5.112.792 0 1.598-.126 2.391-.393l158.792-53.375v38.155l-163.572 54.982c-3.926 1.32-6.039 5.573-4.719 9.499 1.053 3.134 3.975 5.112 7.108 5.112.792 0 1.598-.126 2.391-.393l158.792-53.376v38.155l-163.572 54.983c-3.926 1.319-6.039 5.572-4.719 9.499 1.053 3.134 3.975 5.112 7.108 5.112.792 0 1.598-.126 2.391-.393l158.792-53.375v37.358c0 .01-.001.019-.001.029v.769l-163.571 54.981c-3.926 1.32-6.039 5.573-4.719 9.499 1.053 3.134 3.975 5.112 7.108 5.112.792 0 1.598-.126 2.391-.393l158.79-53.376v38.156l-102.137 34.332c-3.926 1.319-6.039 5.572-4.719 9.499 1.053 3.134 3.975 5.112 7.108 5.112.792 0 1.598-.126 2.391-.393l97.357-32.726v173.936h-64.792v-77.933c0-5.108-2.334-9.81-6.403-12.898s-9.225-4.072-14.145-2.698l-69.807 19.488c-7.967 2.224-13.531 9.554-13.531 17.826v56.215h-39.625zm54.625 308.253c0-1.568 1.055-2.957 2.564-3.379l26.878-7.504v67.098h-29.443v-56.215zm44.442 56.215v-71.286l27.929-7.797c.377-.106.729-.04 1.042.199.313.238.472.558.472.951v77.933zm124.237 0v-31.658h110.679v31.658zm198.429-3.776c0 2.083-1.694 3.776-3.776 3.776h-68.974v-31.658h72.75z" fill="#0C2188"></path><path d="m122.389 365.361c.792 0 1.598-.126 2.391-.393l27.846-9.36c3.926-1.319 6.039-5.572 4.719-9.499s-5.573-6.041-9.499-4.719l-27.846 9.36c-3.926 1.319-6.039 5.572-4.719 9.499 1.053 3.133 3.975 5.112 7.108 5.112z" fill="#0C2188"></path><path d="m331.417 310.379h73.551c6.975 0 12.649-5.674 12.649-12.648v-18.053c0-6.975-5.674-12.649-12.649-12.649h-73.551c-6.975 0-12.648 5.674-12.648 12.649v18.053c0 6.974 5.674 12.648 12.648 12.648zm2.352-28.35h68.848v13.35h-68.848z" fill="#0C2188"></path><path d="m331.417 367.409h73.551c6.975 0 12.649-5.674 12.649-12.649v-18.053c0-6.975-5.674-12.648-12.649-12.648h-73.551c-6.975 0-12.648 5.674-12.648 12.648v18.053c0 6.975 5.674 12.649 12.648 12.649zm2.352-28.35h68.848v13.35h-68.848z" fill="#0C2188"></path><path d="m331.417 425.022h24.328c6.975 0 12.649-5.674 12.649-12.648v-18.053c0-6.975-5.674-12.649-12.649-12.649h-24.328c-6.975 0-12.648 5.674-12.648 12.649v18.053c0 6.974 5.674 12.648 12.648 12.648zm2.352-28.35h19.625v13.35h-19.625z" fill="#0C2188"></path></g></svg>