<svg xmlns:xlink="http://www.w3.org/1999/xlink" xmlns="http://www.w3.org/2000/svg" id="Layer_5" enable-background="new 0 0 64 64" height="512" viewBox="0 0 64 64" width="512"><g fill="#0C2188"><path d="m34 14c-2.206 0-4 1.794-4 4v8h2v-4h4v4h2v-8c0-2.206-1.794-4-4-4zm-2 6v-2c0-1.103.897-2 2-2s2 .897 2 2v2z" fill="#0C2188"></path><path d="m44 14h-4v12h2v-4h2c2.206 0 4-1.794 4-4s-1.794-4-4-4zm0 6h-2v-4h2c1.103 0 2 .897 2 2s-.897 2-2 2z" fill="#0C2188"></path><path d="m49 16h2v8h-2v2h6v-2h-2v-8h2v-2h-6z" fill="#0C2188"></path><path d="m63 24.721v-7.441l-2.606-.869c-.411-1.561-1.032-3.057-1.852-4.46l1.231-2.461-5.263-5.262-2.461 1.23c-1.403-.819-2.899-1.44-4.46-1.851l-.868-2.607h-7.441l-.87 2.606c-1.561.411-3.057 1.032-4.46 1.851l-2.461-1.23-2.773 2.773h-24.716c-1.654 0-3 1.346-3 3v42c0 1.654 1.346 3 3 3h19v8h12v-14h-5v-2h12v2h-5v14h12v-14h-5v-2h12v2h-5v14h12v-14h-5v-4h-3v-7.716l4.773-4.773-1.231-2.461c.819-1.403 1.44-2.899 1.852-4.46zm-16 36.279h-8v-10h8zm14 0h-8v-10h8zm-57-52h22.716l-.489.489 1.231 2.461c-.569.974-1.035 1.995-1.409 3.049h-23.049v-5c0-.55.448-.999 1-.999zm29 52h-8v-10h8zm-5-16v4h-5v4h-19c-.552 0-1-.449-1-1v-35h20.838l-.838.279v7.441l2.606.869c.411 1.561 1.032 3.057 1.852 4.46l-1.231 2.461 5.263 5.262 2.461-1.23c1.403.819 2.899 1.44 4.46 1.851l.868 2.607h2.721v4zm16 0v-4h2.721l.869-2.606c1.561-.411 3.057-1.032 4.46-1.851l.95.475v7.982zm14.58-20.409c-.396 1.725-1.078 3.367-2.026 4.881l-.298.476 1.084 2.168-3.224 3.223-2.167-1.083-.477.298c-1.514.949-3.156 1.63-4.881 2.026l-.548.125-.764 2.295h-4.559l-.765-2.294-.548-.125c-1.725-.396-3.367-1.078-4.881-2.026l-.477-.298-2.167 1.083-3.224-3.223 1.084-2.168-.298-.476c-.948-1.514-1.63-3.156-2.026-4.881l-.126-.547-2.292-.766v-4.559l2.294-.765.126-.547c.396-1.725 1.078-3.367 2.026-4.881l.298-.476-1.084-2.167 3.224-3.223 2.167 1.083.477-.298c1.514-.949 3.156-1.63 4.881-2.026l.548-.125.764-2.295h4.559l.765 2.294.548.125c1.725.396 3.367 1.078 4.881 2.026l.477.298 2.167-1.083 3.224 3.223-1.084 2.168.298.476c.948 1.514 1.63 3.156 2.026 4.881l.126.547 2.292.766v4.559l-2.294.765z" fill="#0C2188"></path><path d="m27 53h4v2h-4z" fill="#0C2188"></path><path d="m27 57h4v2h-4z" fill="#0C2188"></path><path d="m41 53h4v2h-4z" fill="#0C2188"></path><path d="m41 57h4v2h-4z" fill="#0C2188"></path><path d="m55 53h4v2h-4z" fill="#0C2188"></path><path d="m55 57h4v2h-4z" fill="#0C2188"></path><path d="m9 11h2v2h-2z" fill="#0C2188"></path><path d="m13 11h2v2h-2z" fill="#0C2188"></path><path d="m5 11h2v2h-2z" fill="#0C2188"></path><path d="m5 31h16v-12h-16zm2-10h12v8h-12z" fill="#0C2188"></path><path d="m5 33h16v2h-16z" fill="#0C2188"></path><path d="m17 37h4v2h-4z" fill="#0C2188"></path><path d="m5 37h10v2h-10z" fill="#0C2188"></path><path d="m5 41h16v2h-16z" fill="#0C2188"></path><path d="m5 45h2v2h-2z" fill="#0C2188"></path><path d="m9 45h12v2h-12z" fill="#0C2188"></path><path d="m5 49h16v2h-16z" fill="#0C2188"></path></g></svg>