<svg xmlns:xlink="http://www.w3.org/1999/xlink" xmlns="http://www.w3.org/2000/svg" height="438.85714" viewBox="0 0 438.85714 438.85714" width="438.85714"><path d="m429.714844 298.457031h-17.972656c-.75-2.054687-1.582032-4.0625-2.472657-6.019531l12.695313-12.707031c1.714844-1.710938 2.679687-4.035157 2.679687-6.460938 0-2.429687-.964843-4.75-2.679687-6.464843l-30.480469-30.472657c-3.574219-3.574219-9.359375-3.574219-12.929687 0l-12.699219 12.695313c-1.960938-.902344-3.972657-1.722656-6.015625-2.484375v-17.972657c0-5.050781-4.089844-9.140624-9.144532-9.140624h-43.105468c-5.054688 0-9.144532 4.089843-9.144532 9.140624v17.972657c-2.042968.761719-4.050781 1.582031-6.015624 2.484375l-12.699219-12.695313c-3.570313-3.574219-9.355469-3.574219-12.925781 0l-30.484376 30.472657c-1.710937 1.714843-2.675781 4.035156-2.675781 6.464843 0 2.425781.964844 4.75 2.675781 6.460938l12.707032 12.707031c-.902344 1.964844-1.722656 3.972656-2.484375 6.019531h-17.972657c-5.050781 0-9.140624 4.085938-9.140624 9.140625v43.097656c0 5.054688 4.089843 9.144532 9.140624 9.144532h17.972657c.761719 2.042968 1.582031 4.054687 2.484375 6.015625l-12.699219 12.707031c-3.570313 3.570312-3.570313 9.355469 0 12.929688l30.476563 30.472656c3.570312 3.570312 9.355468 3.570312 12.925781 0l12.699219-12.695313c1.964843.898438 3.972656 1.722657 6.015624 2.480469v17.964844c0 5.054687 4.089844 9.140625 9.144532 9.140625h43.105468c5.054688 0 9.144532-4.085938 9.144532-9.140625v-17.964844c2.042968-.757812 4.054687-1.582031 6.015625-2.480469l12.699219 12.695313c3.570312 3.570312 9.355468 3.570312 12.929687 0l30.480469-30.472656c1.714844-1.714844 2.679687-4.035157 2.679687-6.464844 0-2.429688-.964843-4.75-2.679687-6.464844l-12.695313-12.707031c.890625-1.953125 1.722657-3.960938 2.472657-6.015625h17.972656c5.050781 0 9.140625-4.089844 9.140625-9.144532v-43.097656c0-5.054687-4.089844-9.140625-9.140625-9.140625zm-9.144532 43.097657h-15.453124c-4.089844 0-7.679688 2.714843-8.796876 6.640624-1.515624 5.339844-3.597656 10.375-6.175781 14.972657-2.011719 3.574219-1.394531 8.046875 1.507813 10.9375l10.917968 10.921875-17.550781 17.542968-10.910156-10.910156c-2.894531-2.890625-7.351563-3.492187-10.929687-1.515625-4.652344 2.605469-9.699219 4.675781-14.972657 6.175781-3.9375 1.109376-6.652343 4.707032-6.652343 8.796876v15.453124h-24.824219v-15.453124c0-4.089844-2.710938-7.6875-6.652344-8.796876-5.273437-1.5-10.320313-3.570312-14.96875-6.175781-3.566406-1.976562-8.039063-1.367187-10.929687 1.515625l-10.910157 10.910156-17.546875-17.542968 10.910156-10.921875c2.894532-2.890625 3.511719-7.355469 1.511719-10.925781-2.589843-4.644532-4.671875-9.679688-6.171875-14.972657-1.105468-3.9375-4.703125-6.652343-8.792968-6.652343h-15.464844v-24.8125h15.464844c4.089843 0 7.6875-2.714844 8.792968-6.652344 1.5-5.296875 3.582032-10.332032 6.171875-14.972656 2-3.574219 1.382813-8.035157-1.511719-10.929688l-10.917968-10.917969 17.554687-17.546875 10.910157 10.910156c2.890624 2.894532 7.355468 3.5 10.929687 1.519532 4.648437-2.609375 9.695313-4.679688 14.96875-6.179688 3.941406-1.105468 6.652344-4.703125 6.652344-8.792968v-15.464844h24.824219v15.464844c0 4.089843 2.714843 7.6875 6.652343 8.792968 5.273438 1.5 10.320313 3.570313 14.972657 6.179688 3.578124 1.980468 8.042968 1.382812 10.929687-1.519532l10.910156-10.910156 17.550781 17.546875-10.917968 10.917969c-2.902344 2.894531-3.519532 7.367188-1.507813 10.9375 2.578125 4.597656 4.660157 9.632812 6.175781 14.972656 1.117188 3.929688 4.707032 6.644532 8.796876 6.644532h15.453124zm0 0" fill="#0C2188"></path><path d="m329.144531 276c-29.304687 0-53.144531 23.839844-53.144531 53.144531 0 29.300781 23.839844 53.140625 53.144531 53.140625 29.300781 0 53.140625-23.839844 53.140625-53.140625 0-29.304687-23.839844-53.144531-53.140625-53.144531zm0 88c-19.222656 0-34.859375-15.632812-34.859375-34.855469 0-19.226562 15.636719-34.859375 34.859375-34.859375 19.222657 0 34.855469 15.632813 34.855469 34.859375 0 19.222657-15.632812 34.855469-34.855469 34.855469zm0 0" fill="#0C2188"></path><path d="m219.429688 109.714844c0-60.5-49.214844-109.714844-109.714844-109.714844s-109.714844 49.214844-109.714844 109.714844 49.214844 109.714844 109.714844 109.714844 109.714844-49.214844 109.714844-109.714844zm-200.679688 9.140625h17.820312v-18.285157h-17.820312c4.304688-43.125 38.695312-77.515624 81.820312-81.820312v17.820312h18.285157v-17.820312c43.128906 4.304688 77.519531 38.695312 81.824219 81.820312h-17.824219v18.285157h17.824219c-4.304688 43.125-38.695313 77.519531-81.824219 81.824219v-17.824219h-18.285157v17.824219c-43.125-4.304688-77.515624-38.699219-81.820312-81.824219zm0 0" fill="#0C2188"></path><path d="m116.179688 116.179688c1.710937-1.714844 2.675781-4.035157 2.675781-6.464844v-45.714844c0-5.054688-4.089844-9.144531-9.140625-9.144531-5.054688 0-9.144532 4.089843-9.144532 9.144531v41.929688l-33.890624 33.890624c-3.570313 3.574219-3.570313 9.359376 0 12.929688 1.785156 1.785156 4.125 2.679688 6.464843 2.679688 2.339844 0 4.675781-.894532 6.460938-2.679688zm0 0" fill="#0C2188"></path><path d="m182.855469 320h-45.710938c-10.082031 0-18.289062-8.207031-18.289062-18.285156v-45.714844c0-5.054688-4.089844-9.144531-9.140625-9.144531-5.054688 0-9.144532 4.089843-9.144532 9.144531v45.714844c0 20.167968 16.402344 36.570312 36.574219 36.570312h45.710938c5.054687 0 9.144531-4.089844 9.144531-9.140625 0-5.054687-4.089844-9.144531-9.144531-9.144531zm0 0" fill="#0C2188"></path><path d="m256 118.855469h45.714844c10.078125 0 18.285156 8.207031 18.285156 18.289062v45.710938c0 5.054687 4.089844 9.144531 9.144531 9.144531 5.050781 0 9.140625-4.089844 9.140625-9.144531v-45.710938c0-20.171875-16.402344-36.574219-36.570312-36.574219h-45.714844c-5.054688 0-9.144531 4.089844-9.144531 9.144532 0 5.054687 4.089843 9.140625 9.144531 9.140625zm0 0" fill="#0C2188"></path></svg>