<svg xmlns:xlink="http://www.w3.org/1999/xlink" xmlns="http://www.w3.org/2000/svg" id="Capa_1" enable-background="new 0 0 512 512" height="512" viewBox="0 0 512 512" width="512"><g fill="#0C2188"><path d="m399.061 0h-286.122c-21.84 0-39.608 17.768-39.608 39.607v432.787c0 21.839 17.768 39.607 39.608 39.607h207.298c4.148 0 7.509-3.362 7.509-7.509 0-4.148-3.362-7.509-7.509-7.509h-207.298c-13.558 0-24.589-11.03-24.589-24.588v-432.788c0-13.558 11.031-24.588 24.589-24.588h286.121c13.558 0 24.589 11.03 24.589 24.588v432.787c0 13.558-11.031 24.588-24.589 24.588h-46.002c-4.148 0-7.509 3.362-7.509 7.509 0 4.148 3.362 7.509 7.509 7.509h46.002c21.84 0 39.608-17.768 39.608-39.607v-432.786c0-21.839-17.767-39.607-39.607-39.607z" fill="#0C2188"></path><path d="m394.571 428.228v-372.72c0-5.797-4.716-10.513-10.513-10.513h-256.116c-5.797 0-10.513 4.716-10.513 10.513v73.238c0 4.148 3.362 7.509 7.509 7.509 4.148 0 7.509-3.362 7.509-7.509v-68.733h247.105v363.709h-247.104v-262.31c0-4.148-3.362-7.509-7.509-7.509-4.148 0-7.509 3.362-7.509 7.509v266.816c0 5.797 4.716 10.513 10.513 10.513h256.116c5.797 0 10.512-4.715 10.512-10.513z" fill="#0C2188"></path><path d="m150.818 319.069c0 4.736 2.653 8.947 6.922 10.989 2.823 1.372 8.117 2.033 12.907-1.509 7.25-5.843 19.471-12.81 36.517-12.81 11.831 0 22.751 3.304 32.454 9.819 4.565 3.065 10.364 3.464 15.271 1.081.347-.169.725-.267 1.111-.267.386 0 .763.098 1.11.267 4.908 2.382 10.708 1.984 15.27-1.08 9.704-6.515 20.624-9.819 32.455-9.819 17.046 0 29.266 6.967 36.517 12.81 3.458 1.938 6.069 4.075 12.907 1.509 4.269-2.043 6.922-6.253 6.922-10.989v-110.914c0-4.244-1.632-8.246-4.594-11.265-2.215-2.262-5.903-5.652-10.958-9.043-3.204-2.149-7.616-1.738-10.112 1.204-2.965 3.496-2.154 8.676 1.548 11.137 4.099 2.725 7.044 5.426 8.795 7.214.195.198.301.465.301.753v105.269c-9.352-6.403-23.17-12.705-41.327-12.705-18.518 0-32.423 6.726-40.828 12.369-.099.066-.182.122-.358.028-.141-.075-.141-.125-.141-.246v-105.178c4.512-4.749 18.494-17.174 41.327-17.174 1.657 0 3.321.067 4.949.2 4.034.327 7.797-2.512 8.298-6.527.531-4.255-2.582-8.06-6.814-8.419-2.118-.181-4.282-.272-6.434-.272-24.227 0-40.676 11.249-48.836 18.596-8.16-7.348-24.609-18.596-48.836-18.596-27.786 0-45.447 14.958-51.75 21.388-2.964 3.022-4.596 7.024-4.596 11.268v110.912zm15.019-110.913c0-.287.107-.555.302-.754 4.975-5.077 18.933-16.884 41.024-16.884 22.837 0 36.831 12.439 41.327 17.169v105.184c0 .121 0 .171-.141.246-.18.097-.26.037-.359-.028-8.404-5.643-22.309-12.369-40.827-12.369-18.157 0-31.975 6.302-41.327 12.705v-105.269z" fill="#0C2188"></path><circle cx="252.755" cy="468.86" r="14.19" fill="#0C2188"></circle><circle cx="165.39" cy="98.699" r="14.19" fill="#0C2188"></circle><path d="m202.702 106.977h47.666c4.148 0 7.509-3.362 7.509-7.509 0-4.148-3.362-7.509-7.509-7.509h-47.666c-4.148 0-7.509 3.362-7.509 7.509s3.361 7.509 7.509 7.509z" fill="#0C2188"></path><path d="m202.702 133.846h82.991c4.148 0 7.509-3.362 7.509-7.509s-3.362-7.509-7.509-7.509h-82.991c-4.148 0-7.509 3.362-7.509 7.509s3.361 7.509 7.509 7.509z" fill="#0C2188"></path><path d="m304.836 106.977c4.148 0 7.509-3.362 7.509-7.509 0-4.148-3.362-7.509-7.509-7.509h-23.833c-4.148 0-7.509 3.362-7.509 7.509 0 4.148 3.362 7.509 7.509 7.509z" fill="#0C2188"></path></g></svg>