<svg xmlns:xlink="http://www.w3.org/1999/xlink" xmlns="http://www.w3.org/2000/svg" id="Outline" viewBox="0 0 512 512" width="512" height="512">
                                        <path d="M496,432V48a8,8,0,0,0-8-8H464V32a8,8,0,0,0-8-8H320a72.37,72.37,0,0,0-56,26.746A72.37,72.37,0,0,0,208,24H56a8,8,0,0,0-8,8v8H24a8,8,0,0,0-8,8V432a8,8,0,0,0,8,8H396.686l36.687,36.687A38.378,38.378,0,0,0,460.687,488,35.313,35.313,0,0,0,496,452.687a38.58,38.58,0,0,0-2.839-14.579A7.98,7.98,0,0,0,496,432ZM480,56V420.686l-16-16V56ZM400,404.686l-25.768-25.768a120.971,120.971,0,0,0,12.686-12.686L412.686,392ZM64,376H214.509a120.716,120.716,0,0,0,21.675,16H64Zm128-88A104,104,0,1,1,296,392,104.118,104.118,0,0,1,192,288Zm-45.717-90a47.774,47.774,0,0,1-8.333-3.37,8,8,0,0,0-9.34,1.445L120,204.687,107.313,192l8.612-8.61a8,8,0,0,0,1.444-9.34,47.806,47.806,0,0,1-3.37-8.333A8,8,0,0,0,106.332,160H96V144h10.332A8,8,0,0,0,114,138.283a47.806,47.806,0,0,1,3.37-8.333,8,8,0,0,0-1.444-9.34L107.313,112,120,99.313l8.61,8.611a8,8,0,0,0,9.34,1.445,47.774,47.774,0,0,1,8.333-3.37A8,8,0,0,0,152,98.332V88h16V98.332A8,8,0,0,0,173.717,106a47.774,47.774,0,0,1,8.333,3.37,8,8,0,0,0,9.34-1.445L200,99.313,212.687,112l-8.612,8.61a8,8,0,0,0-1.444,9.34,47.806,47.806,0,0,1,3.37,8.333A8,8,0,0,0,213.668,144H224v16H213.668A8,8,0,0,0,206,165.717a47.806,47.806,0,0,1-3.37,8.333,8,8,0,0,0,1.444,9.34l8.612,8.61L200,204.687l-8.61-8.611a8,8,0,0,0-9.34-1.445,47.774,47.774,0,0,1-8.333,3.37A8,8,0,0,0,168,205.668V216H152V205.668A8,8,0,0,0,146.283,198ZM361.309,388.623,364.686,392h-8.87Q358.612,390.386,361.309,388.623Zm65.034-10.28L424,380.686,419.314,376H448v12.686l-10.343-10.343A8,8,0,0,0,426.343,378.343ZM320,40H448V360H403.314l-6.691-6.692A119.751,119.751,0,0,0,391.939,216H408a8,8,0,0,0,0-16H377.491a120.716,120.716,0,0,0-21.675-16H408a8,8,0,0,0,0-16H296a120.077,120.077,0,0,0-24,2.413V66.667l3.2-4.267A56.268,56.268,0,0,1,320,40ZM208,40a56.268,56.268,0,0,1,44.8,22.4l3.2,4.267v108.2a119.621,119.621,0,0,0-25.424,12.589,8.012,8.012,0,0,0-.919-1.11l-10.332-10.332,0-.011H232a8,8,0,0,0,8-8V136a8,8,0,0,0-8-8H219.329l0-.011,10.332-10.332a8,8,0,0,0,0-11.314l-24-24a8,8,0,0,0-11.314,0L184.011,92.675l-.011,0V80a8,8,0,0,0-8-8H144a8,8,0,0,0-8,8V92.671l-.011,0L125.657,82.343a8,8,0,0,0-11.314,0l-24,24a8,8,0,0,0,0,11.314l10.332,10.332,0,.011H88a8,8,0,0,0-8,8v32a8,8,0,0,0,8,8h12.671l0,.011L90.343,186.343a8,8,0,0,0,0,11.314l24,24a8,8,0,0,0,11.314,0l10.332-10.332.011,0V224a8,8,0,0,0,8,8h32a8,8,0,0,0,8-8V211.329l.011,0,10.332,10.332a8.056,8.056,0,0,0,1.11.919A119.621,119.621,0,0,0,182.864,248H168a8,8,0,0,0,0,16h10.413a119.617,119.617,0,0,0-2.14,16H152a8,8,0,0,0,0,16h24.273a119.617,119.617,0,0,0,2.14,16H152a8,8,0,0,0,0,16h30.864a119.87,119.87,0,0,0,17.2,32H64V40ZM32,424V56H48V400a8,8,0,0,0,8,8H380.686l8,8-2.343,2.343A7.976,7.976,0,0,0,384,424Zm442.343,42.343A19.185,19.185,0,0,1,460.687,472a22.481,22.481,0,0,1-16-6.627L403.313,424,432,395.313l41.373,41.374a22.479,22.479,0,0,1,6.627,16A19.187,19.187,0,0,1,474.343,466.343Z" fill="#0C2188"></path><path d="M88,328h32a8,8,0,0,0,8-8V256a8,8,0,0,0-8-8H88a8,8,0,0,0-8,8v64A8,8,0,0,0,88,328Zm8-64h16v48H96Z" fill="#0C2188"></path><path d="M312,88h16a8,8,0,0,0,0-16H312a8,8,0,0,0,0,16Z" fill="#0C2188"></path><path d="M360,88h48a8,8,0,0,0,0-16H360a8,8,0,0,0,0,16Z" fill="#0C2188"></path><path d="M296,120h32a8,8,0,0,0,0-16H296a8,8,0,0,0,0,16Z" fill="#0C2188"></path><path d="M296,152h32a8,8,0,0,0,0-16H296a8,8,0,0,0,0,16Z" fill="#0C2188"></path><path d="M360,152h48a8,8,0,0,0,8-8V112a8,8,0,0,0-8-8H360a8,8,0,0,0-8,8v32A8,8,0,0,0,360,152Zm8-32h32v16H368Z" fill="#0C2188"></path><path d="M296,200a88,88,0,1,0,88,88A88.1,88.1,0,0,0,296,200Zm0,160a72,72,0,1,1,72-72A72.081,72.081,0,0,1,296,360Z" fill="#0C2188"></path><path d="M192,152a32,32,0,1,0-32,32A32.036,32.036,0,0,0,192,152Zm-48,0a16,16,0,1,1,16,16A16.019,16.019,0,0,1,144,152Z" fill="#0C2188"></path>
                                    </svg>