<svg xmlns="http://www.w3.org/2000/svg" xmlns:xlink="http://www.w3.org/1999/xlink" version="1.1" id="Capa_1" x="0px" y="0px" viewBox="0 0 512.002 512.002" class="page_speed_891197809" xml:space="preserve" width="512.002"  height="512.002" >
                            <g fill="#0C2188"><g fill="#0C2188"><path d="M338.101,418.404h-17.423v-13.888c0-4.143-3.357-7.5-7.5-7.5c-4.142,0-7.5,3.357-7.5,7.5v13.888h-4.43    c-4.142,0-7.5,3.358-7.5,7.5c0,4.143,3.358,7.5,7.5,7.5h36.852c4.142,0,7.5-3.357,7.5-7.5    C345.601,421.761,342.243,418.404,338.101,418.404z" fill="#0C2188"></path></g></g>
                            <g fill="#0C2188"><g fill="#0C2188"><path d="M440.067,476.998c-0.054-0.387,0.935,4.654-21.922-110.155c-3.786-18.965-16.061-33.323-38.677-39.634l-57.483-16.956    l-10.282-6.953c19.643-3.576,31.811-7.738,32.471-7.966c38.7-13.816,62.768-34.979,71.531-62.899    c12.984-41.364-12.162-83.329-19.37-94.147c-0.332-29.232-7.981-57.079-22.174-80.654c-2.138-3.551-6.748-4.694-10.293-2.558    c-3.549,2.137-4.693,6.745-2.558,10.293c12.914,21.449,19.83,46.905,20.033,73.691c-0.364,1.955,0.053,4.029,1.268,5.732    c1.272,1.784,31.027,44.146,18.784,83.148c-7.279,23.193-28.228,41.115-62.187,53.239c-0.152,0.052-14.539,4.95-36.938,8.508    v-5.184c31.796-16.624,53.277-49.907,53.277-88.141v-1.385c16.322-3.016,28.607-15.663,28.607-30.768    c0-15.741-13.343-28.816-30.694-31.099c-3.818-7.921-11.801-12.11-19.657-11.65c-17.362,0.985-49.699-1.922-71.458-32.297    c-1.349-1.988-3.627-3.295-6.211-3.295c-1.784,0-3.424,0.623-4.712,1.664c-3.012,2.431-18.734,31.613-62.207,33.944    c-9.429,0.505-17.796,4.817-23.679,11.402c-0.428-0.076-0.867-0.123-1.317-0.123c-19.909,0-36.106,14.109-36.106,31.453    c0,15.104,12.285,27.752,28.606,30.768v1.385c0,38.125,21.362,71.326,53.011,87.997v5.324c-22.384-3.56-36.762-8.452-36.84-8.478    c-34.037-12.151-54.986-30.074-62.265-53.27c-12.242-39.01,17.513-81.361,18.786-83.143c1.215-1.703,1.632-3.778,1.267-5.733    c0.485-63.351,41.49-123.993,100.751-123.993l0.153-0.002c17.298,0.004,21.773,4.457,26.473,3.126    c25.685-7.286,55.584-2.338,80.798,19.94c3.103,2.742,7.844,2.449,10.585-0.654c2.743-3.104,2.45-7.843-0.654-10.585    C320.013,1.467,285.664-4.517,256.013,3.205c-72.029-18.76-139.309,47.238-140.324,135.086    c-3.115,4.689-9.712,15.429-15.085,29.615c-8.902,23.509-10.345,45.218-4.287,64.522c8.763,27.923,32.831,49.088,71.605,62.931    c0.595,0.206,12.835,4.39,32.594,7.974l-10.021,6.778c-60.139,17.74-57.811,17.056-58.088,17.134    c-6.014,1.783-5.646,1.651-6.123,1.827c-10.041,3.745-27.608,13.631-32.429,37.773l-21.851,109.74    c-0.027,0.138-0.051,0.275-0.07,0.413c-2.871,20.271,7.839,35.004,30.403,35.004h67.169c4.142,0,7.5-3.357,7.5-7.5    c0-4.143-3.358-7.5-7.5-7.5h-14.292v-70.683c0-4.143-3.358-7.5-7.5-7.5s-7.5,3.357-7.5,7.5v70.683    c-32.512-0.951-44.997,2.526-50.845-4.21c-3.431-3.951-2.999-10.611-2.612-13.497l21.808-109.516    c3.359-16.823,15.573-23.846,22.725-26.565c13.299-3.923,45.27-13.354,57.064-16.833l12.006,42.363    c3.092,10.911,16.019,15.523,25.319,9.137l9.772-6.716v125.837h-30.95c-4.142,0-7.5,3.357-7.5,7.5c0,4.143,3.358,7.5,7.5,7.5    c48.856,0,168.134,0,205.16,0C432.156,512,442.949,497.344,440.067,476.998z M355.547,148.831    c18.114,5.384,18.099,25.384,0,30.764V148.831z M156.722,179.595c-18.109-5.383-18.102-25.383,0-30.764    C156.722,160.261,156.722,168.059,156.722,179.595z M310.052,320.29c-13.311,45.655-11.981,44.847-13.549,45.409    c-1.089,0.397,0.875,1.395-29.38-19.394l29.101-35.367C298.985,312.806,305.382,317.132,310.052,320.29z M256.135,336.051    c-8.389-10.197-21.01-25.534-25.369-30.833l50.679,0.075C276.339,311.497,261.644,329.356,256.135,336.051z M171.721,196.365    c0-22.862,0-17.57,0-40.357c0-10.413,8.038-19.001,18.3-19.551c19.205-1.03,45.454-7.423,66.114-31.004    c25.529,29.147,59.594,32.049,78.513,30.985c3.172-0.194,5.901,2.395,5.901,5.656c0,7.894,0,47.316,0,54.27    c0,31.65-17.507,61.922-49.225,76.604C235.702,298.759,171.721,258.068,171.721,196.365z M215.767,365.699    c-1.505-0.541-0.091,0.75-13.549-45.409l13.828-9.351l29.101,35.367C216.242,365.739,217.266,366.249,215.767,365.699z     M422.632,492.793c-5.854,6.743-18.438,3.265-50.576,4.21v-70.683c0-4.143-3.357-7.5-7.5-7.5c-4.143,0-7.5,3.357-7.5,7.5v70.683    h-80.239v-78.586c0-4.143-3.357-7.5-7.5-7.5c-4.143,0-7.5,3.357-7.5,7.5v78.586h-11.366    c-0.076-143.13,0.178-134.377-0.196-136.009l5.879-4.04l5.684,3.905v25.148c0,4.143,3.357,7.499,7.5,7.499    c4.143,0,7.5-3.357,7.5-7.499v-14.842c7.605,4.617,14.011,12.525,24.776,8.643c5.007-1.808,8.863-5.943,10.315-11.065    l11.985-42.289c0.102,0.03,56.936,16.795,56.817,16.759c7.153,2.721,19.367,9.744,22.724,26.562l21.807,109.521    C425.63,482.181,426.061,488.841,422.632,492.793z" fill="#0C2188"></path></g></g><g fill="#0C2188"></g><g fill="#0C2188"></g><g fill="#0C2188"></g><g fill="#0C2188"></g><g fill="#0C2188"></g><g fill="#0C2188"></g><g fill="#0C2188"></g><g fill="#0C2188"></g><g fill="#0C2188"></g><g fill="#0C2188"></g><g fill="#0C2188"></g><g fill="#0C2188"></g><g fill="#0C2188"></g><g fill="#0C2188"></g><g fill="#0C2188"></g></svg>