<svg xmlns:xlink="http://www.w3.org/1999/xlink" xmlns="http://www.w3.org/2000/svg" height="512" viewBox="0 0 64 64" width="512"><g id="_24_message_mail_history_time" data-name="24 message, mail, history,time" fill="#0C2188"><path d="m49 14.5v10h2v-10a5 5 0 0 0 -5-5h-36a5 5 0 0 0 -5 5v24a5 5 0 0 0 5 5h18v-2h-18a3 3 0 0 1 -3-3v-24a2.83 2.83 0 0 1 .13-.83l18.66 8.84a5 5 0 0 0 4.42 0l18.61-9a3 3 0 0 1 .18.99zm-19.66 6.24a3 3 0 0 1 -2.66 0l-18.36-8.74a3 3 0 0 1 1.68-.5h36a2.94 2.94 0 0 1 1.5.42zm16.66 8.76a13 13 0 1 0 13 13 13 13 0 0 0 -13-13zm0 24a11 11 0 1 1 11-11 11 11 0 0 1 -11 11zm1-11.41 3.71 3.7-1.42 1.42-4-4a1 1 0 0 1 -.29-.71v-6h2z" fill="#0C2188"></path></g></svg>