<svg xmlns:xlink="http://www.w3.org/1999/xlink" xmlns="http://www.w3.org/2000/svg" viewBox="0 0 64 64" width="512" height="512"><g id="graduate-laptop-online-education" fill="#0C2188"><path d="M61,34a1,1,0,0,0,1-1V5a1,1,0,0,0-1-1H19a1,1,0,0,0-1,1V20H7a3.009,3.009,0,0,0-3,3V52H3a1,1,0,0,0-1,1v4a3.009,3.009,0,0,0,3,3H59a3.009,3.009,0,0,0,3-3V53a1,1,0,0,0-1-1H60V34ZM19,34h2v6a1,1,0,0,0,.59.91.99.99,0,0,0,1.07-.16L30.38,34H54V48H10V26h8v7A1,1,0,0,0,19,34ZM6,23a1,1,0,0,1,1-1H18v2H9a1,1,0,0,0-1,1V49a1,1,0,0,0,1,1H55a1,1,0,0,0,1-1V34h2V52H6ZM35,54v1H29V54Zm25,3a1,1,0,0,1-1,1H5a1,1,0,0,1-1-1V54H27v2a1,1,0,0,0,1,1h8a1,1,0,0,0,1-1V54H60ZM30,32a1,1,0,0,0-.66.25L23,37.8V33a1,1,0,0,0-1-1H20V6H60V32Z" fill="#0C2188"></path><path d="M56,19.18V16.41l1.33-.47a.994.994,0,0,0,0-1.88l-17-6a.938.938,0,0,0-.66,0l-17,6a.994.994,0,0,0,0,1.88l7.14,2.52L29,28.92A1.01,1.01,0,0,0,30,30H50a1.01,1.01,0,0,0,1-1.08l-.81-10.46L54,17.12v2.06A3.01,3.01,0,0,0,52,22v3a1,1,0,0,0,1,1h4a1,1,0,0,0,1-1V22A3.01,3.01,0,0,0,56,19.18ZM31.08,28l.67-8.85,7.92,2.79a.938.938,0,0,0,.66,0l7.91-2.79L48.92,28ZM40,12a3,3,0,1,0,2.82,4h8.34L40,19.94,26,15l14-4.94L51.16,14H42.82A3.01,3.01,0,0,0,40,12Zm1,3a1,1,0,1,1-1-1A1,1,0,0,1,41,15Zm15,9H54V22a1,1,0,0,1,2,0Z" fill="#0C2188"></path></g></svg>