<svg xmlns:xlink="http://www.w3.org/1999/xlink" xmlns="http://www.w3.org/2000/svg" id="Capa_1" enable-background="new 0 0 511.84 511.84" height="512" viewBox="0 0 511.84 511.84" width="512"><g fill="#0C2188"><path d="m228.319 187.893c0-24.742-9.708-47.932-27.334-65.298-17.624-17.363-40.979-26.711-65.723-26.352-24.277.362-46.991 10.051-63.957 27.28-16.964 17.228-26.306 40.089-26.305 64.371 0 21.095 7.337 41.682 20.661 57.969 2.178 2.663 5.416 4.19 8.884 4.19h124.228c3.467 0 6.706-1.527 8.886-4.19 13.323-16.288 20.66-36.875 20.66-57.97zm-91.66-8.515c-8.701 0-15.78-7.078-15.78-15.779s7.079-15.78 15.78-15.78 15.78 7.079 15.78 15.78-7.079 15.779-15.78 15.779zm-6.985 14.191c2.246.523 4.582.809 6.985.809 2.412 0 4.757-.288 7.011-.815 4.589 1.225 8.775 3.629 12.176 7.03 5.123 5.123 7.944 11.934 7.944 19.178v15.282h-54.26v-15.282c0-12.314 8.385-23.072 20.144-26.202zm67.423 41.484h-18.307v-15.282c0-11.25-4.381-21.827-12.337-29.784-2.157-2.157-4.521-4.052-7.046-5.676 4.987-5.472 8.032-12.743 8.032-20.712 0-16.973-13.808-30.78-30.78-30.78s-30.78 13.808-30.78 30.78c0 7.975 3.049 15.25 8.042 20.723-11.766 7.587-19.392 20.817-19.392 35.449v15.282h-18.308c-10.473-13.4-16.221-30.079-16.221-47.159 0-42.352 33.157-76.021 75.486-76.652 20.708-.288 40.233 7.519 54.972 22.039 14.743 14.524 22.862 33.919 22.862 54.612-.001 17.081-5.75 33.761-16.223 47.16z" fill="#0C2188"></path><path d="m492.34 9.151h-472.84c-10.752 0-19.5 8.748-19.5 19.5v71.19c0 4.143 3.358 7.5 7.5 7.5s7.5-3.357 7.5-7.5v-17.335h481.84v303.995c0 2.481-2.019 4.5-4.5 4.5h-25.5v-18.25c0-4.143-3.357-7.5-7.5-7.5s-7.5 3.357-7.5 7.5v95.02c0 .275-.225.5-.5.5h-38.89v-15.69c0-6.341-5.159-11.5-11.5-11.5h-74.511c-6.341 0-11.5 5.159-11.5 11.5v15.69h-38.89c-.275 0-.5-.225-.5-.5v-217.21c0-.275.225-.5.5-.5h175.29c.275 0 .5.225.5.5v87.19c0 4.143 3.357 7.5 7.5 7.5s7.5-3.357 7.5-7.5v-87.19c0-8.547-6.953-15.5-15.5-15.5h-175.289c-8.547 0-15.5 6.953-15.5 15.5v140.44h-38.595c-3.58-11.3-9.24-22.133-16.937-31.863-3.163-3.998-9.061-4.759-13.149-1.693l-6.72 5.039c-8.501-8.477-18.806-15.034-30.167-19.129-42.004-15.134-88.404 6.216-104.411 47.646h-31.071c-2.481 0-4.5-2.019-4.5-4.5v-251.66c0-4.143-3.358-7.5-7.5-7.5s-7.5 3.357-7.5 7.5v251.66c0 10.752 8.748 19.5 19.5 19.5h26.834c-3.054 16.695-.874 33.883 6.492 49.551 9.333 19.852 25.837 34.879 46.471 42.314 9.021 3.252 18.376 4.822 27.662 4.822 21.183 0 41.978-8.186 57.471-23.234l3.979 3.691c1.822 1.688 4.145 2.525 6.463 2.525 2.519 0 5.031-.988 6.885-2.944 5.949-6.287 10.956-13.365 14.881-21.037 8.828-17.256 11.662-36.734 8.816-55.688h35.099v61.77c0 8.547 6.953 15.5 15.5 15.5h42.39c6.341 0 11.5-5.159 11.5-11.5v-15.69h67.511v15.69c0 6.341 5.159 11.5 11.5 11.5h42.39c8.547 0 15.5-6.953 15.5-15.5v-61.77h25.5c10.752 0 19.5-8.748 19.5-19.5v-357.85c-.004-10.752-8.752-19.5-19.504-19.5zm-387.958 474.604c-16.866-6.077-30.354-18.359-37.983-34.585-7.627-16.226-8.481-34.45-2.404-51.317 12.546-34.815 51.083-52.931 85.901-40.387 8.605 3.101 16.466 7.93 23.1 14.13l-48.872 36.646c-2.26 1.693-3.641 4.282-3.789 7.103s.955 5.541 3.026 7.463l50.05 46.429c-18.205 17.28-45.077 23.155-69.029 14.518zm28.747-63.517c-.002.002-.004.004-.007.006 0 0 0 0 0-.001zm70.153 34.62c-2.448 4.784-5.4 9.292-8.809 13.455l-56.08-52.022 58.06-43.534c17.193 24.747 19.968 56.419 6.829 82.101zm-188.282-387.352v-38.855c0-2.481 2.019-4.5 4.5-4.5h472.84c2.481 0 4.5 2.019 4.5 4.5v38.855z" fill="#0C2188"></path><path d="m313.36 38.327h-262.869c-4.142 0-7.5 3.357-7.5 7.5s3.358 7.5 7.5 7.5h262.87c4.143 0 7.5-3.357 7.5-7.5s-3.358-7.5-7.501-7.5z" fill="#0C2188"></path><path d="m461.35 38.327h-3.392c-4.143 0-7.5 3.357-7.5 7.5s3.357 7.5 7.5 7.5h3.392c4.143 0 7.5-3.357 7.5-7.5s-3.358-7.5-7.5-7.5z" fill="#0C2188"></path><path d="m432.958 38.327h-3.392c-4.143 0-7.5 3.357-7.5 7.5s3.357 7.5 7.5 7.5h3.392c4.143 0 7.5-3.357 7.5-7.5s-3.357-7.5-7.5-7.5z" fill="#0C2188"></path><path d="m404.566 38.327h-3.391c-4.143 0-7.5 3.357-7.5 7.5s3.357 7.5 7.5 7.5h3.391c4.143 0 7.5-3.357 7.5-7.5s-3.357-7.5-7.5-7.5z" fill="#0C2188"></path><path d="m196.051 268.583h-118.783c-6.341 0-11.5 5.159-11.5 11.5v33.087c0 6.341 5.159 11.5 11.5 11.5h118.783c6.341 0 11.5-5.159 11.5-11.5v-33.087c0-6.341-5.159-11.5-11.5-11.5zm-3.5 41.086h-111.783v-26.087h111.783z" fill="#0C2188"></path><path d="m421.84 281.008c0-6.341-5.159-11.5-11.5-11.5h-93.289c-6.341 0-11.5 5.159-11.5 11.5v29.957c0 6.341 5.159 11.5 11.5 11.5h93.289c6.341 0 11.5-5.159 11.5-11.5zm-15 26.457h-86.289v-22.957h86.289z" fill="#0C2188"></path><path d="m327.312 343.058h-14.261c-4.143 0-7.5 3.357-7.5 7.5s3.357 7.5 7.5 7.5h14.261c4.143 0 7.5-3.357 7.5-7.5s-3.358-7.5-7.5-7.5z" fill="#0C2188"></path><path d="m414.34 343.058h-59.645c-4.143 0-7.5 3.357-7.5 7.5s3.357 7.5 7.5 7.5h59.645c4.143 0 7.5-3.357 7.5-7.5s-3.358-7.5-7.5-7.5z" fill="#0C2188"></path><path d="m327.312 375.058h-14.261c-4.143 0-7.5 3.357-7.5 7.5s3.357 7.5 7.5 7.5h14.261c4.143 0 7.5-3.357 7.5-7.5s-3.358-7.5-7.5-7.5z" fill="#0C2188"></path><path d="m414.34 375.058h-59.645c-4.143 0-7.5 3.357-7.5 7.5s3.357 7.5 7.5 7.5h59.645c4.143 0 7.5-3.357 7.5-7.5s-3.358-7.5-7.5-7.5z" fill="#0C2188"></path><path d="m327.312 407.058h-14.261c-4.143 0-7.5 3.357-7.5 7.5s3.357 7.5 7.5 7.5h14.261c4.143 0 7.5-3.357 7.5-7.5s-3.358-7.5-7.5-7.5z" fill="#0C2188"></path><path d="m414.34 407.058h-59.645c-4.143 0-7.5 3.357-7.5 7.5s3.357 7.5 7.5 7.5h59.645c4.143 0 7.5-3.357 7.5-7.5s-3.358-7.5-7.5-7.5z" fill="#0C2188"></path><path d="m284.746 96.233c-4.143 0-7.5 3.357-7.5 7.5v101.844c0 5.238 4.262 9.5 9.5 9.5h142.82c4.143 0 7.5-3.357 7.5-7.5s-3.357-7.5-7.5-7.5h-137.32v-31.945l38.324-27.895c3.326 2.153 7.278 3.418 11.526 3.418 2.688 0 5.25-.521 7.62-1.435l11.831 13.11c-1.604 2.99-2.52 6.403-2.52 10.028 0 11.736 9.549 21.285 21.285 21.285 11.737 0 21.286-9.549 21.286-21.285 0-2.131-.323-4.186-.908-6.128l19.156-15.008c3.127 1.808 6.744 2.859 10.608 2.859 11.736 0 21.285-9.549 21.285-21.285s-9.549-21.285-21.285-21.285-21.285 9.549-21.285 21.285c0 2.394.415 4.688 1.147 6.837l-18.751 14.691c-3.269-2.047-7.119-3.251-11.253-3.251-2.633 0-5.145.503-7.475 1.381l-11.91-13.197c1.559-2.958 2.453-6.319 2.453-9.889 0-11.736-9.549-21.285-21.285-21.285s-21.285 9.549-21.285 21.285c0 2.019.301 3.965.828 5.816l-29.393 21.395v-45.846c.001-4.143-3.356-7.5-7.499-7.5zm145.709 23.276c3.466 0 6.285 2.819 6.285 6.285s-2.819 6.285-6.285 6.285-6.285-2.819-6.285-6.285 2.819-6.285 6.285-6.285zm-43.855 45.848c0 3.466-2.82 6.285-6.286 6.285s-6.285-2.819-6.285-6.285 2.819-6.285 6.285-6.285 6.286 2.819 6.286 6.285zm-44.503-49.274c3.466 0 6.285 2.819 6.285 6.285s-2.819 6.286-6.285 6.286-6.285-2.82-6.285-6.286 2.819-6.285 6.285-6.285z" fill="#0C2188"></path></g></svg>