<svg xmlns:xlink="http://www.w3.org/1999/xlink" xmlns="http://www.w3.org/2000/svg" viewBox="0 0 64 64" width="512" height="512"><g id="Layer_27" data-name="Layer 27" fill="#0C2188"><path d="M28,26h2a5.009,5.009,0,0,0-4-4.9V19H24v2.1a5,5,0,0,0,0,9.8v5.917A3,3,0,0,1,22,34H20a5.009,5.009,0,0,0,4,4.9V41h2V38.9a5,5,0,0,0,0-9.8V23.184A3,3,0,0,1,28,26Zm-6,0a3,3,0,0,1,2-2.816v5.632A3,3,0,0,1,22,26Zm6,8a3,3,0,0,1-2,2.816V31.184A3,3,0,0,1,28,34Z" fill="#0C2188"></path><path d="M53.879,35a3.142,3.142,0,0,0-2.207.914L44,43.586l-.672-.672a3.121,3.121,0,0,0-4.414,4.414L41.586,50a3.414,3.414,0,0,0,4.828,0l9.672-9.672A3.121,3.121,0,0,0,53.879,35Zm.793,3.914L45,48.586a1.451,1.451,0,0,1-2,0l-2.672-2.672a1.121,1.121,0,0,1,1.586-1.586l1.379,1.379a1,1,0,0,0,1.414,0l8.379-8.379a1.121,1.121,0,0,1,1.586,1.586Z" fill="#0C2188"></path><path d="M48.916,28.046A24.012,24.012,0,1,0,35.653,51.5,14.991,14.991,0,1,0,48.916,28.046ZM25,52A22,22,0,1,1,46.889,28.056a14.882,14.882,0,0,0-3.945.84A17.983,17.983,0,1,0,33.3,45.969a14.848,14.848,0,0,0,1.337,3.805A22.045,22.045,0,0,1,25,52Zm8-9c0,.278.027.549.042.823A16,16,0,1,1,40.987,29.75,15.007,15.007,0,0,0,33,43ZM48,56A13,13,0,1,1,61,43,13.015,13.015,0,0,1,48,56Z" fill="#0C2188"></path></g></svg>