<svg xmlns:xlink="http://www.w3.org/1999/xlink" xmlns="http://www.w3.org/2000/svg" viewBox="0 0 64 64" width="512" height="512"><g id="mail-file-document-paper-format" fill="#0C2188"><path d="M23,10H41a1,1,0,0,0,0-2H23a1,1,0,0,0,0,2Z" fill="#0C2188"></path><path d="M15,16H41a1,1,0,0,0,0-2H15a1,1,0,0,0,0,2Z" fill="#0C2188"></path><path d="M14,21a1,1,0,0,0,1,1H49a1,1,0,0,0,0-2H15A1,1,0,0,0,14,21Z" fill="#0C2188"></path><path d="M49,26H15a1,1,0,0,0,0,2H49a1,1,0,0,0,0-2Z" fill="#0C2188"></path><path d="M43,32H21a1,1,0,0,0,0,2H43a1,1,0,0,0,0-2Z" fill="#0C2188"></path><path d="M13,12a1,1,0,0,0,1-1V8h3a1,1,0,0,0,0-2H13a1,1,0,0,0-1,1v4A1,1,0,0,0,13,12Z" fill="#0C2188"></path><path d="M62,24.938h0v0h0l-.006-.059h0v0h0a.993.993,0,0,0-.342-.63h0l0,0,0,0L56,19.5V13a1,1,0,0,0-.293-.707l-10-10A1,1,0,0,0,45,2H9A1,1,0,0,0,8,3V19.5l-5.643,4.73A1,1,0,0,0,2,25V61a1,1,0,0,0,1,1H61a1,1,0,0,0,1-1V25.007C62,24.984,62,24.961,62,24.938ZM23.182,43,4,58.874V27.126Zm8.181-4.174a.993.993,0,0,1,1.28.005L58.223,60H5.777ZM40.819,43,60,27.126V58.874ZM46,5.414,52.586,12H46ZM59.437,25,56,27.84V22.113ZM10,4H44v9a1,1,0,0,0,1,1h9V29.17a.988.988,0,0,0,.056.278L39.25,41.7l-5.327-4.409a2.986,2.986,0,0,0-3.84,0L24.75,41.7,9.944,29.448A.988.988,0,0,0,10,29.17ZM8,27.84,4.563,25,8,22.113Z" fill="#0C2188"></path></g></svg>