<svg xmlns:xlink="http://www.w3.org/1999/xlink" xmlns="http://www.w3.org/2000/svg" id="Layer_5" enable-background="new 0 0 64 64" height="512" viewBox="0 0 64 64" width="512"><g fill="#0C2188"><path d="m61.6 8.084c-9.242 4.043-15.471 12.753-16.449 22.653l-5.151-5.151v-24.586h-21.414l-10.586 10.586v14l-7 7v23.414h29v4c0 1.654 1.346 3 3 3h22c1.654 0 3-1.346 3-3v-10c0-1.654-1.346-3-3-3h-9.523l1.111-2h.622l.192-.084c4.161-1.831 7.307-5.097 9.898-10.28l1.779-3.559-.89-2.668 2.623-1.749.115-.288c.086-.212 2.073-5.318 2.073-17.372v-1.529zm-17.189 24.741-4.411 2.808v-7.219zm-6.411 4.08-14 8.909-14-8.909v-23.905h10v-10h8v10.869l4-2.667 4 2.667v-10.869h2zm-21.642 6.417-13.358 9.715v-18.215zm-4.944-32.322 6.586-6.586v6.586zm18.586-8h4v7.131l-2-1.333-2 1.333zm-22 32.633-4.411-2.807 4.411-4.412zm-2.925 18.367 13.096-9.524 5.829 3.71 5.829-3.71 3.471 2.524h-.3c-1.654 0-3 1.346-3 3v4zm49.925-5c.552 0 1 .449 1 1v10c0 .551-.448 1-1 1h-22c-.552 0-1-.449-1-1v-10c0-.551.448-1 1-1h9.078l-1.952 3.514 1.748.972 2.492-4.486zm-18.3-2-5.057-3.678 13.357-8.5v8.919l-1.811 3.259zm22.467-21.646-3.357 2.238 1.11 3.332-1.408 2.818c-2.266 4.531-4.845 7.344-8.283 9.038 2.328-12.067 10.486-23.067 10.571-23.18l-1.6-1.2c-.297.395-5.892 7.937-9.2 17.575v-2.51c0-9.688 5.44-18.504 13.988-22.878-.14 9.031-1.452 13.642-1.821 14.767z" fill="#0C2188"></path><path d="m41 56.341c-.437.498-.61.659-1 .659-.435 0-.746-.936-.882-1.738-.222-1.311-1.355-2.262-2.694-2.262-1.301 0-2.429.925-2.684 2.2l-.721 3.604 1.961.393.721-3.604c.069-.344.372-.593.723-.593.359 0 .663.251.722.596.501 2.962 2.003 3.404 2.854 3.404 1.33 0 2.036-.807 2.504-1.341.436-.498.61-.659.999-.659.39 0 .563.161 1 .659.468.534 1.174 1.341 2.503 1.341 1.328 0 2.034-.808 2.502-1.342.434-.497.608-.658.996-.658s.561.161.995.658c.467.534 1.173 1.342 2.501 1.342v-2c-.388 0-.561-.161-.995-.658-.467-.534-1.173-1.342-2.501-1.342s-2.034.808-2.502 1.342c-.435.497-.608.658-.996.658-.389 0-.563-.161-.999-.659-.468-.534-1.174-1.341-2.504-1.341-1.329 0-2.035.807-2.503 1.341z" fill="#0C2188"></path><path d="m12 15h8v2h-8z" fill="#0C2188"></path><path d="m12 19h24v2h-24z" fill="#0C2188"></path><path d="m12 23h24v2h-24z" fill="#0C2188"></path><path d="m12 27h24v2h-24z" fill="#0C2188"></path><path d="m34 31h2v2h-2z" fill="#0C2188"></path><path d="m12 31h20v2h-20z" fill="#0C2188"></path><path d="m12 35h2v2h-2z" fill="#0C2188"></path><path d="m16 35h20v2h-20z" fill="#0C2188"></path></g></svg>