<svg xmlns:xlink="http://www.w3.org/1999/xlink" xmlns="http://www.w3.org/2000/svg" id="Layer_3" height="512" viewBox="0 0 64 64" width="512" data-name="Layer 3"><path d="m42 31h-4a1 1 0 0 0 -1 1v4a1 1 0 0 0 1 1h4a1 1 0 0 0 1-1v-4a1 1 0 0 0 -1-1zm-1 4h-2v-2h2z" fill="#0C2188"></path><path d="m48 33h15v2h-15z" fill="#0C2188"></path><path d="m42 39h-4a1 1 0 0 0 -1 1v4a1 1 0 0 0 1 1h4a1 1 0 0 0 1-1v-4a1 1 0 0 0 -1-1zm-1 4h-2v-2h2z" fill="#0C2188"></path><path d="m48 41h15v2h-15z" fill="#0C2188"></path><path d="m48 4h15v2h-15z" fill="#0C2188"></path><path d="m48 8h15v2h-15z" fill="#0C2188"></path><path d="m44.52 3.066a6.015 6.015 0 1 0 1.067 1.761l1.12-1.12-1.414-1.414zm-.52 3.934a4.05 4.05 0 1 1 -.908-2.506l-2.092 2.092-1.293-1.293-1.414 1.414 2 2a1 1 0 0 0 1.414 0l2.239-2.239a3.9 3.9 0 0 1 .054.532z" fill="#0C2188"></path><path d="m48 18h15v2h-15z" fill="#0C2188"></path><path d="m48 22h15v2h-15z" fill="#0C2188"></path><path d="m45.293 16.293-.773.773a6.015 6.015 0 1 0 1.067 1.761l1.12-1.12zm-1.293 4.707a4.05 4.05 0 1 1 -.908-2.506l-2.092 2.092-1.293-1.293-1.414 1.414 2 2a1 1 0 0 0 1.414 0l2.239-2.239a3.9 3.9 0 0 1 .054.532z" fill="#0C2188"></path><path d="m35.636 47.9-10.636-4.559v-2.694a10.024 10.024 0 0 0 4.8-6.647h.2a3.987 3.987 0 0 0 2-7.444v-4.556a5.009 5.009 0 0 0 -4.084-4.916 5.009 5.009 0 0 0 -4.916-4.084h-6a9.01 9.01 0 0 0 -9 9v4.556a3.987 3.987 0 0 0 2 7.444h.2a10.024 10.024 0 0 0 4.8 6.647v2.694l-10.636 4.559a5.542 5.542 0 0 0 -3.364 5.1v9a1 1 0 0 0 1 1h36a1 1 0 0 0 1-1v-9a5.542 5.542 0 0 0 -3.364-5.1zm-9.47-1.883-2.406 3.553-2.238-1.678 2.707-2.706zm3.834-14.017v-4a2 2 0 0 1 0 4zm-22-2a2 2 0 0 1 2-2v4a2 2 0 0 1 -2-2zm3-5a1 1 0 0 0 -1 1v-4a7.009 7.009 0 0 1 7-7h6a3 3 0 0 1 3 3 1 1 0 0 0 1 1 3 3 0 0 1 3 3v4a1 1 0 0 0 -.293-.707l-5-5a1 1 0 0 0 -1.414 0 15.966 15.966 0 0 1 -11.364 4.707zm1 7v-5a17.942 17.942 0 0 0 11.98-4.6l4.02 4.014v5.586a8 8 0 0 1 -16 0zm8 10a9.986 9.986 0 0 0 3-.461v2.047l-3 3-3-3v-2.047a9.986 9.986 0 0 0 3 .461zm-4.229 3.186 2.707 2.706-2.238 1.678-2.406-3.554zm21.229 15.814h-34v-8a3.548 3.548 0 0 1 2.151-3.263l6.811-2.919 3.21 4.743a1 1 0 0 0 .663.425 1.021 1.021 0 0 0 .165.014 1 1 0 0 0 .6-.2l3.4-2.55 3.4 2.55a1 1 0 0 0 .6.2 1.021 1.021 0 0 0 .165-.014 1 1 0 0 0 .663-.425l3.21-4.743 6.811 2.919a3.548 3.548 0 0 1 2.151 3.263z" fill="#0C2188"></path></svg>