<svg xmlns:xlink="http://www.w3.org/1999/xlink" xmlns="http://www.w3.org/2000/svg" height="512" viewBox="0 -17 512 511" width="512"><path d="m160.589844 94.722656c0-20.003906-16.277344-36.28125-36.28125-36.28125s-36.28125 16.277344-36.28125 36.28125 16.277344 36.28125 36.28125 36.28125 36.28125-16.277344 36.28125-36.28125zm-57.5625 0c0-11.734375 9.546875-21.28125 21.28125-21.28125s21.28125 9.546875 21.28125 21.28125-9.546875 21.28125-21.28125 21.28125-21.28125-9.546875-21.28125-21.28125zm0 0" fill="#0C2188"></path><path d="m297.753906 131.003906c20.003906 0 36.277344-16.277344 36.277344-36.28125s-16.273438-36.28125-36.277344-36.28125c-20.007812 0-36.28125 16.277344-36.28125 36.28125s16.273438 36.28125 36.28125 36.28125zm0-57.5625c11.730469 0 21.277344 9.546875 21.277344 21.28125s-9.546875 21.28125-21.277344 21.28125c-11.734375 0-21.28125-9.546875-21.28125-21.28125s9.546875-21.28125 21.28125-21.28125zm0 0" fill="#0C2188"></path><path d="m380.558594 332.757812c-4.144532 0-7.5 3.355469-7.5 7.5v81.175782c0 2.167968-1.761719 3.933594-3.929688 3.933594h-316.195312c-2.167969 0-3.929688-1.761719-3.929688-3.933594v-81.175782c0-4.144531-3.359375-7.5-7.5-7.5-4.144531 0-7.5 3.355469-7.5 7.5v81.175782c0 10.441406 8.492188 18.933594 18.929688 18.933594h316.195312c10.4375 0 18.929688-8.492188 18.929688-18.933594v-81.175782c0-4.144531-3.359375-7.5-7.5-7.5zm0 0" fill="#0C2188"></path><path d="m369.128906 209.765625h-316.195312c-10.4375 0-18.929688 8.492187-18.929688 18.929687v81.179688c0 4.144531 3.355469 7.5 7.5 7.5 4.140625 0 7.5-3.355469 7.5-7.5v-81.179688c0-2.167968 1.761719-3.929687 3.929688-3.929687h316.195312c2.167969 0 3.929688 1.761719 3.929688 3.929687v81.179688c0 4.144531 3.355468 7.5 7.5 7.5 4.144531 0 7.5-3.355469 7.5-7.5v-81.179688c0-10.4375-8.492188-18.929687-18.929688-18.929687zm0 0" fill="#0C2188"></path><path d="m299.4375 325.800781c0-48.746093-39.660156-88.402343-88.40625-88.402343s-88.402344 39.65625-88.402344 88.402343c0 48.75 39.65625 88.40625 88.402344 88.40625s88.40625-39.65625 88.40625-88.40625zm-161.8125 0c0-40.476562 32.929688-73.402343 73.40625-73.402343 40.472656 0 73.402344 32.925781 73.402344 73.402343 0 40.476563-32.929688 73.40625-73.402344 73.40625-40.476562 0-73.40625-32.929687-73.40625-73.40625zm0 0" fill="#0C2188"></path><path d="m258.1875 325.789062c0-3.957031-1.96875-7.628906-5.265625-9.820312l-54.394531-36.1875c-3.625-2.414062-8.265625-2.632812-12.105469-.578125-3.839844 2.058594-6.226563 6.042969-6.226563 10.398437v72.375c0 4.355469 2.382813 8.339844 6.226563 10.398438 1.75.9375 3.664063 1.402344 5.570313 1.402344 2.285156 0 4.558593-.664063 6.535156-1.980469l54.394531-36.183594c3.296875-2.191406 5.265625-5.867187 5.265625-9.824219zm-62.992188 30.210938v-60.417969l45.410157 30.207031zm0 0" fill="#0C2188"></path><path d="m500.4375 196.167969c-7.128906-3.550781-15.511719-2.773438-21.867188 2.023437l-56.511718 42.648438v-44.316406c0-13.566407-11.035156-24.605469-24.601563-24.605469h-45.730469c7.121094-4.976563 13.574219-10.941407 19.113282-17.742188 13.628906-16.726562 21.132812-37.839843 21.132812-59.453125 0-51.953125-42.265625-94.222656-94.21875-94.222656-38.890625 0-72.355468 23.683594-86.722656 57.386719-14.371094-33.703125-47.832031-57.386719-86.722656-57.386719-51.953125 0-94.222656 42.269531-94.222656 94.222656 0 21.613282 7.503906 42.726563 21.132812 59.453125 5.542969 6.800781 11.996094 12.765625 19.117188 17.742188h-45.730469c-13.570313 0-24.605469 11.039062-24.605469 24.605469v257.085937c0 13.566406 11.035156 24.601563 24.605469 24.601563h372.851562c13.566407 0 24.601563-11.035157 24.601563-24.601563v-44.320313l56.511718 42.652344c3.710938 2.796875 8.105469 4.230469 12.542969 4.230469 3.167969 0 6.355469-.730469 9.324219-2.210937 7.132812-3.550782 11.5625-10.703126 11.5625-18.671876v-220.445312c0-7.964844-4.429688-15.121094-11.5625-18.675781zm-202.683594-180.667969c43.679688 0 79.21875 35.539062 79.21875 79.222656 0 18.171875-6.308594 35.921875-17.761718 49.976563-11.128907 13.660156-26.609376 23.304687-43.671876 27.21875h-35.574218c-17.0625-3.914063-32.542969-13.558594-43.671875-27.21875-11.453125-14.054688-17.761719-31.804688-17.761719-49.976563 0-43.683594 35.539062-79.222656 79.222656-79.222656zm-86.722656 116.03125c3.4375 8.113281 8.015625 15.75 13.632812 22.644531 5.539063 6.800781 11.992188 12.765625 19.113282 17.742188h-65.496094c7.121094-4.976563 13.574219-10.941407 19.117188-17.742188 5.617187-6.894531 10.191406-14.53125 13.632812-22.644531zm-148.183594 13.167969c-11.453125-14.054688-17.761718-31.804688-17.761718-49.976563 0-43.683594 35.539062-79.222656 79.222656-79.222656s79.222656 35.539062 79.222656 79.222656c0 18.171875-6.308594 35.921875-17.761719 49.976563-11.128906 13.660156-26.613281 23.304687-43.671875 27.21875h-35.578125c-17.058593-3.914063-32.542969-13.558594-43.671875-27.21875zm344.214844 308.910156c0 5.292969-4.308594 9.601563-9.605469 9.601563h-372.851562c-5.296875 0-9.605469-4.308594-9.605469-9.601563v-257.085937c0-5.296876 4.308594-9.605469 9.605469-9.605469h372.851562c5.296875 0 9.601563 4.308593 9.601563 9.605469v257.085937zm89.9375-18.320313c0 3.277344-2.269531 4.761719-3.25 5.246094-.976562.488282-3.527344 1.40625-6.144531-.566406l-65.546875-49.46875v-130.867188l65.546875-49.46875c2.613281-1.972656 5.167969-1.054687 6.144531-.566406.980469.484375 3.25 1.96875 3.25 5.246094zm0 0" fill="#0C2188"></path></svg>