<svg xmlns:xlink="http://www.w3.org/1999/xlink" xmlns="http://www.w3.org/2000/svg" id="Capa_1" enable-background="new 0 0 512 512" height="512" viewBox="0 0 512 512" width="512"><g fill="#0C2188"><g fill="#0C2188"><path d="m211.609 97.425c.614.599.894 1.461.75 2.306l-3.99 23.256c-1.14 6.65 1.543 13.245 7.001 17.211 5.46 3.967 12.56 4.479 18.532 1.339l20.883-10.979c.759-.4 1.668-.4 2.427 0l20.884 10.98c2.598 1.366 5.409 2.04 8.206 2.04 3.632 0 7.242-1.139 10.326-3.38 5.458-3.966 8.141-10.561 7-17.211l-3.989-23.256c-.144-.846.136-1.707.75-2.307l16.896-16.47c4.832-4.709 6.538-11.622 4.453-18.039-2.086-6.417-7.528-11.006-14.206-11.976l-23.349-3.393c-.849-.123-1.583-.656-1.963-1.426l-10.44-21.158c-2.986-6.05-9.032-9.809-15.78-9.809s-12.794 3.759-15.78 9.809l-10.444 21.16c-.379.769-1.113 1.301-1.961 1.425l-23.35 3.393c-6.677.97-12.12 5.559-14.206 11.976-2.085 6.417-.379 13.329 4.453 18.039zm-7.093-29.877c.187-.575.71-1.571 2.104-1.774l23.351-3.393c5.734-.833 10.687-4.432 13.248-9.626l10.443-21.158c.624-1.264 1.732-1.453 2.337-1.453s1.714.189 2.337 1.453l10.442 21.157c2.563 5.195 7.516 8.794 13.25 9.628l23.35 3.393c1.395.203 1.917 1.198 2.104 1.774.186.576.349 1.688-.661 2.673l-16.895 16.469c-4.149 4.043-6.041 9.866-5.061 15.576l3.989 23.255c.238 1.39-.548 2.194-1.037 2.55-.491.355-1.497.854-2.745.198l-20.885-10.98c-2.564-1.347-5.375-2.021-8.188-2.021-2.812 0-5.625.674-8.189 2.021l-20.884 10.98c-1.247.658-2.254.158-2.745-.198-.489-.356-1.276-1.16-1.037-2.549l3.989-23.256c.98-5.71-.913-11.533-5.06-15.576l-16.896-16.47c-1.01-.985-.847-2.098-.661-2.673z" fill="#0C2188"></path><path d="m320.942 115.424c-1.763 3.745-.155 8.211 3.591 9.973l17.173 8.081c1.032.486 2.117.715 3.186.715 2.813 0 5.509-1.592 6.787-4.306 1.763-3.745.155-8.211-3.59-9.973l-17.173-8.081c-3.747-1.762-8.212-.156-9.974 3.591z" fill="#0C2188"></path><path d="m339.846 95.805h17.173c4.14 0 7.495-3.356 7.495-7.495s-3.355-7.495-7.495-7.495h-17.173c-4.14 0-7.495 3.356-7.495 7.495s3.355 7.495 7.495 7.495z" fill="#0C2188"></path><path d="m160.322 129.888c1.278 2.715 3.973 4.306 6.787 4.306 1.069 0 2.155-.23 3.186-.715l17.173-8.081c3.746-1.763 5.353-6.228 3.59-9.973-1.763-3.746-6.226-5.355-9.973-3.59l-17.173 8.081c-3.745 1.761-5.352 6.227-3.59 9.972z" fill="#0C2188"></path><path d="m154.982 95.805h17.173c4.14 0 7.495-3.356 7.495-7.495s-3.355-7.495-7.495-7.495h-17.173c-4.14 0-7.495 3.356-7.495 7.495s3.355 7.495 7.495 7.495z" fill="#0C2188"></path><path d="m504.505 449.532h-31.902v-174.334c0-4.139-3.355-7.495-7.495-7.495h-39.605c-4.14 0-7.495 3.356-7.495 7.495s3.355 7.495 7.495 7.495h32.11v166.838h-124.412v-166.838h57.324c4.14 0 7.495-3.356 7.495-7.495s-3.355-7.495-7.495-7.495h-57.324v-59.183c0-4.139-3.355-7.495-7.495-7.495h-139.412c-4.14 0-7.495 3.356-7.495 7.495v37.386c0 4.139 3.355 7.495 7.495 7.495s7.495-3.356 7.495-7.495v-29.891h124.421v233.516h-124.42v-168.647c0-4.139-3.355-7.495-7.495-7.495s-7.495 3.356-7.495 7.495v47.42h-71.705c-4.14 0-7.495 3.356-7.495 7.495s3.355 7.495 7.495 7.495h71.705v106.237h-124.413v-106.236h17.729c4.14 0 7.495-3.356 7.495-7.495s-3.355-7.495-7.495-7.495h-25.224c-4.14 0-7.495 3.356-7.495 7.495v113.732h-31.902c-4.14 0-7.495 3.356-7.495 7.495v32.326c0 4.139 3.355 7.495 7.495 7.495h497.01c4.14 0 7.495-3.356 7.495-7.495v-32.326c0-4.14-3.355-7.495-7.495-7.495zm-7.495 32.325h-482.019v-17.335h482.019z" fill="#0C2188"></path></g></g></svg>