<svg xmlns:xlink="http://www.w3.org/1999/xlink" xmlns="http://www.w3.org/2000/svg" id="Capa_1" enable-background="new 0 0 511.987 511.987" height="512" viewBox="0 0 511.987 511.987" width="512"><g fill="#0C2188"><path d="m170.69 342.737h170.607c20.678 0 37.5-16.822 37.5-37.5 0-6.57-1.735-13.048-5.018-18.729l.001.001-85.304-147.751c-6.687-11.578-19.134-18.771-32.483-18.771s-25.797 7.192-32.484 18.771l-85.304 147.75c-3.281 5.683-5.016 12.159-5.016 18.729.001 20.678 16.823 37.5 37.501 37.5zm-19.494-48.729 85.303-147.749c4.017-6.953 11.486-11.272 19.495-11.272s15.479 4.319 19.494 11.271l85.303 147.75s0 .001.001.001c1.967 3.405 3.006 7.287 3.006 11.228 0 12.406-10.094 22.5-22.5 22.5h-170.608c-12.406 0-22.5-10.094-22.5-22.5 0-3.941 1.039-7.822 3.006-11.229z" fill="#0C2188"></path><path d="m255.993 252.726c12.406 0 22.5-10.094 22.5-22.5v-42.725c0-12.406-10.094-22.5-22.5-22.5s-22.5 10.094-22.5 22.5v42.725c0 12.406 10.094 22.5 22.5 22.5zm-7.5-65.225c0-4.136 3.364-7.5 7.5-7.5s7.5 3.364 7.5 7.5v42.725c0 4.136-3.364 7.5-7.5 7.5s-7.5-3.364-7.5-7.5z" fill="#0C2188"></path><path d="m255.993 312.737c12.406 0 22.5-10.094 22.5-22.5s-10.094-22.5-22.5-22.5-22.5 10.094-22.5 22.5 10.094 22.5 22.5 22.5zm0-30c4.136 0 7.5 3.364 7.5 7.5s-3.364 7.5-7.5 7.5-7.5-3.364-7.5-7.5 3.365-7.5 7.5-7.5z" fill="#0C2188"></path><path d="m481.646 268.437c.23-4.204.348-8.377.348-12.45s-.117-8.246-.348-12.45l24.623-22.24c1.895-1.711 2.789-4.27 2.372-6.789-2.098-12.682-5.185-25.342-9.177-37.63-3.992-12.284-8.936-24.341-14.692-35.835-1.144-2.284-3.371-3.828-5.911-4.1l-32.975-3.517c-4.502-6.961-9.414-13.711-14.655-20.141l6.85-32.472c.526-2.499-.254-5.094-2.072-6.887-9.148-9.025-19.088-17.453-29.542-25.049-10.448-7.592-21.535-14.439-32.951-20.355-2.267-1.176-4.978-1.116-7.189.158l-28.709 16.515c-7.758-3.004-15.721-5.59-23.755-7.713l-13.523-30.241c-1.042-2.331-3.199-3.972-5.724-4.354-25.422-3.85-51.824-3.85-77.246 0-2.524.382-4.682 2.022-5.724 4.354l-13.521 30.242c-8.034 2.123-15.997 4.709-23.755 7.713l-28.71-16.515c-2.212-1.273-4.921-1.334-7.19-.158-11.416 5.916-22.502 12.765-32.949 20.355-10.454 7.596-20.394 16.023-29.542 25.049-1.818 1.793-2.599 4.388-2.072 6.887l6.85 32.471c-5.241 6.431-10.153 13.182-14.655 20.142l-32.975 3.517c-2.54.271-4.768 1.815-5.911 4.1-5.757 11.494-10.7 23.551-14.692 35.836-3.992 12.289-7.08 24.949-9.177 37.629-.417 2.52.478 5.078 2.372 6.789l24.623 22.24c-.23 4.204-.348 8.377-.348 12.45s.117 8.246.348 12.45l-24.623 22.24c-1.895 1.711-2.789 4.27-2.372 6.789 2.098 12.682 5.185 25.342 9.177 37.63 3.992 12.284 8.936 24.341 14.692 35.835 1.144 2.284 3.371 3.828 5.911 4.1l32.975 3.517c4.502 6.96 9.414 13.711 14.655 20.142l-6.85 32.471c-.526 2.499.254 5.094 2.072 6.887 9.148 9.025 19.088 17.453 29.542 25.049 10.453 7.595 21.54 14.443 32.951 20.355 2.268 1.175 4.978 1.115 7.189-.158l28.709-16.515c7.755 3.003 15.717 5.588 23.755 7.713l13.521 30.242c1.042 2.331 3.199 3.972 5.724 4.354 12.711 1.925 25.705 2.9 38.623 2.9s25.912-.976 38.623-2.9c2.524-.382 4.682-2.022 5.724-4.354l13.521-30.242c8.034-2.123 15.997-4.709 23.755-7.713l28.71 16.515c2.212 1.273 4.922 1.333 7.19.158 11.416-5.916 22.502-12.765 32.949-20.355 10.451-7.593 20.391-16.021 29.542-25.049 1.818-1.793 2.599-4.388 2.072-6.887l-6.85-32.472c5.241-6.43 10.153-13.18 14.655-20.141l32.975-3.517c2.54-.271 4.768-1.815 5.911-4.1 5.757-11.494 10.7-23.551 14.692-35.836 3.992-12.289 7.08-24.949 9.177-37.629.417-2.52-.478-5.078-2.372-6.789zm3.552 62.023c-3.339 10.274-7.384 20.38-12.044 30.094l-32.454 3.461c-2.294.245-4.348 1.531-5.568 3.488-5.301 8.497-11.264 16.691-17.723 24.355-1.488 1.767-2.08 4.12-1.604 6.381l6.743 31.966c-7.798 7.435-16.158 14.403-24.899 20.755-8.739 6.349-17.95 12.146-27.433 17.266l-28.261-16.256c-2.002-1.152-4.423-1.316-6.563-.447-9.305 3.781-18.959 6.916-28.696 9.316-2.244.554-4.107 2.111-5.051 4.221l-13.311 29.771c-21.357 2.861-43.328 2.861-64.686 0l-13.308-29.771c-.943-2.109-2.807-3.667-5.051-4.221-9.743-2.403-19.397-5.537-28.696-9.316-2.139-.869-4.561-.705-6.563.447l-28.26 16.257c-9.478-5.117-18.689-10.915-27.433-17.267-8.743-6.354-17.104-13.323-24.899-20.755l6.743-31.965c.477-2.26-.115-4.614-1.604-6.381-6.46-7.666-12.423-15.86-17.723-24.356-1.221-1.957-3.274-3.243-5.568-3.488l-32.454-3.461c-4.66-9.714-8.705-19.819-12.044-30.094-3.339-10.277-6.006-20.83-7.944-31.427l24.236-21.891c1.711-1.546 2.616-3.793 2.454-6.093-.359-5.091-.541-10.158-.541-15.063s.182-9.973.541-15.063c.162-2.3-.743-4.547-2.454-6.093l-24.236-21.89c1.938-10.595 4.605-21.147 7.944-31.427 3.339-10.274 7.384-20.38 12.044-30.094l32.454-3.461c2.294-.245 4.348-1.531 5.568-3.488 5.3-8.496 11.263-16.69 17.723-24.356 1.488-1.767 2.08-4.121 1.604-6.381l-6.743-31.965c7.796-7.432 16.156-14.401 24.899-20.755 8.739-6.349 17.95-12.146 27.433-17.266l28.261 16.256c2.003 1.153 4.424 1.317 6.563.447 9.305-3.781 18.959-6.916 28.696-9.316 2.244-.554 4.107-2.111 5.051-4.221l13.311-29.771c21.357-2.861 43.328-2.861 64.686 0l13.311 29.771c.943 2.109 2.807 3.667 5.051 4.221 9.737 2.4 19.392 5.535 28.696 9.316 2.14.87 4.562.706 6.563-.447l28.26-16.256c9.481 5.119 18.693 10.916 27.433 17.266 8.743 6.354 17.104 13.323 24.899 20.755l-6.743 31.966c-.477 2.261.115 4.614 1.604 6.381 6.459 7.664 12.422 15.858 17.723 24.355 1.221 1.957 3.274 3.243 5.568 3.488l32.454 3.461c4.66 9.714 8.705 19.819 12.044 30.094 3.339 10.277 6.006 20.83 7.944 31.427l-24.236 21.891c-1.711 1.546-2.616 3.793-2.454 6.093.359 5.091.541 10.158.541 15.063s-.182 9.973-.541 15.063c-.162 2.3.743 4.547 2.454 6.093l24.236 21.891c-1.941 10.594-4.608 21.147-7.947 31.426z" fill="#0C2188"></path><path d="m255.993 421.987c91.532 0 166-74.468 166-166s-74.468-166-166-166-166 74.468-166 166 74.468 166 166 166zm0-317c83.262 0 151 67.738 151 151s-67.738 151-151 151-151-67.738-151-151 67.739-151 151-151z" fill="#0C2188"></path><path d="m255.993 59.987c-46.574 0-91.721 16.63-127.122 46.826-3.151 2.688-3.527 7.422-.839 10.573 2.688 3.15 7.421 3.528 10.573.839 32.689-27.883 74.379-43.238 117.388-43.238 99.804 0 181 81.196 181 181s-81.196 181-181 181-181-81.196-181-181c0-43.009 15.355-84.698 43.238-117.388 2.688-3.151 2.313-7.886-.839-10.573-3.151-2.689-7.886-2.312-10.573.839-30.196 35.401-46.826 80.548-46.826 127.122 0 108.075 87.925 196 196 196s196-87.925 196-196-87.924-196-196-196z" fill="#0C2188"></path></g></svg>