<svg xmlns:xlink="http://www.w3.org/1999/xlink" xmlns="http://www.w3.org/2000/svg" id="Layer_1_1_" enable-background="new 0 0 64 64" height="512" viewBox="0 0 64 64" width="512"><path d="m2 51v10c0 .552.447 1 1 1h14c.553 0 1-.448 1-1v-10c0-2.849-1.714-5.302-4.162-6.393 1.32-1.102 2.162-2.757 2.162-4.607 0-3.309-2.691-6-6-6s-6 2.691-6 6c0 1.85.842 3.505 2.162 4.607-2.448 1.091-4.162 3.544-4.162 6.393zm8-3.308.936 2.339-.936 2.807-.936-2.807zm0-3.692c-2.114 0-3.832-1.653-3.973-3.732 1.178-.817 2.536-1.268 3.973-1.268s2.795.451 3.973 1.268c-.141 2.079-1.859 3.732-3.973 3.732zm0-8c1.291 0 2.429.625 3.161 1.577-1.001-.377-2.064-.577-3.161-.577s-2.16.2-3.161.577c.732-.952 1.87-1.577 3.161-1.577zm-1.497 10.05-1.431 3.578c-.088.22-.095.463-.02.688l2 6c.136.409.517.684.948.684s.812-.275.948-.684l2-6c.075-.225.068-.468-.02-.688l-1.431-3.578c2.521.254 4.503 2.364 4.503 4.95v9h-12v-9c0-2.586 1.982-4.696 4.503-4.95z" fill="#0C2188"></path><path d="m57.231 41.36-4.299 5.159-2.226-2.226-1.414 1.414 3 3c.188.188.443.293.708.293.015 0 .03 0 .045-.001.281-.013.543-.143.724-.359l5-6z" fill="#0C2188"></path><path d="m24.933 30.519-2.226-2.226-1.414 1.414 3 3c.187.188.442.293.707.293.015 0 .03 0 .045-.001.281-.013.543-.143.724-.359l5-6-1.537-1.28z" fill="#0C2188"></path><path d="m57.948 10.266c-.119-.355-.427-.615-.797-.671l-3.618-.553-1.628-3.467c-.165-.351-.517-.575-.905-.575s-.74.224-.905.575l-1.628 3.467-3.618.553c-.37.057-.678.316-.797.671s-.029.748.232 1.016l2.647 2.713-.627 3.844c-.062.378.099.758.411.979.312.22.726.242 1.06.058l3.225-1.783 3.225 1.782c.15.083.317.125.483.125.202 0 .404-.062.576-.183.312-.22.473-.601.411-.979l-.627-3.844 2.647-2.713c.263-.267.352-.659.233-1.015zm-4.664 2.694c-.222.227-.322.546-.271.859l.377 2.309-1.906-1.053c-.15-.083-.316-.125-.483-.125s-.333.042-.483.125l-1.906 1.053.377-2.309c.051-.313-.05-.632-.271-.859l-1.641-1.682 2.222-.339c.329-.051.612-.262.754-.564l.947-2.022.949 2.022c.142.302.425.513.754.564l2.222.339z" fill="#0C2188"></path><path d="m55 58v-5.069c3.94-.495 7-3.859 7-7.931s-3.06-7.436-7-7.931v-7.069c0-.552-.447-1-1-1h-9l1.6-1.2-1.2-1.6-3.733 2.8h-7.667c0-4.072-3.06-7.436-7-7.931v-7.069h7l-1.6 1.2 1.199 1.6 4-3c.252-.188.4-.485.4-.8s-.148-.611-.4-.8l-4-3-1.199 1.6 1.6 1.2h-8c-.553 0-1 .448-1 1v8.069c-3.94.495-7 3.859-7 7.931 0 4.411 3.589 8 8 8 3.719 0 6.845-2.555 7.737-6h7.931l3.733 2.8 1.199-1.6-1.6-1.2h8v6.069c-3.94.495-7 3.859-7 7.931s3.06 7.436 7 7.931v4.069h-15.667l-3.733-2.8-1.2 1.6 1.6 1.2h-14v2h14l-1.6 1.2 1.199 1.6 3.733-2.8h16.668c.553 0 1-.448 1-1zm-29-23c-3.309 0-6-2.691-6-6s2.691-6 6-6 6 2.691 6 6-2.691 6-6 6zm22 10c0-3.309 2.691-6 6-6s6 2.691 6 6-2.691 6-6 6-6-2.691-6-6z" fill="#0C2188"></path><path d="m58.781 20.774-1.414-1.413c-.417.417-.876.794-1.363 1.12l1.113 1.662c.596-.399 1.155-.859 1.664-1.369z" fill="#0C2188"></path><path d="m61.166 17.208-1.848-.766c-.225.542-.504 1.065-.832 1.555l1.662 1.112c.401-.599.744-1.239 1.018-1.901z" fill="#0C2188"></path><path d="m62 12.958-2 .042c0 .591-.058 1.182-.171 1.755l1.961.389c.14-.702.21-1.423.21-2.144z" fill="#0C2188"></path><path d="m60.123 6.853c-.401-.595-.863-1.153-1.374-1.66l-1.408 1.42c.418.415.796.872 1.126 1.359z" fill="#0C2188"></path><path d="m61.149 8.75-1.846.772c.228.543.402 1.11.518 1.684l1.961-.396c-.141-.701-.354-1.394-.633-2.06z" fill="#0C2188"></path><path d="m46.76 2.847.771 1.846c.542-.227 1.108-.4 1.685-.516l-.395-1.961c-.704.141-1.397.354-2.061.631z" fill="#0C2188"></path><path d="m40 13.021 2-.021c0-.586.057-1.171.167-1.737l-1.963-.384c-.136.692-.204 1.406-.204 2.121z" fill="#0C2188"></path><path d="m44.9 22.156c.601.4 1.24.742 1.901 1.015l.764-1.849c-.541-.223-1.064-.503-1.556-.831z" fill="#0C2188"></path><path d="m43.201 5.242 1.418 1.41c.416-.418.874-.796 1.36-1.122l-1.115-1.661c-.594.4-1.154.861-1.663 1.373z" fill="#0C2188"></path><path d="m42.675 9.575c.224-.542.502-1.066.828-1.556l-1.664-1.109c-.399.6-.74 1.24-1.014 1.903z" fill="#0C2188"></path><path d="m49.253 21.831-.387 1.962c.698.138 1.416.207 2.134.207h.01l-.01-2c-.589 0-1.177-.057-1.747-.169z" fill="#0C2188"></path><path d="m40.843 17.229 1.846-.77c-.226-.541-.398-1.108-.514-1.685l-1.961.393c.141.706.352 1.399.629 2.062z" fill="#0C2188"></path><path d="m52.729 4.166.381-1.963c-.692-.135-1.402-.203-2.11-.203h-.031l.031 2c.58 0 1.162.056 1.729.166z" fill="#0C2188"></path><path d="m44.646 19.374c-.417-.416-.795-.874-1.124-1.362l-1.658 1.117c.4.596.861 1.154 1.37 1.661z" fill="#0C2188"></path><path d="m55.176 2.82-.76 1.851c.543.223 1.066.5 1.557.826l1.107-1.665c-.6-.399-1.24-.739-1.904-1.012z" fill="#0C2188"></path><path d="m52.767 21.827.389 1.962c.706-.14 1.4-.351 2.063-.627l-.768-1.847c-.542.226-1.108.398-1.684.512z" fill="#0C2188"></path></svg>