<svg xmlns:xlink="http://www.w3.org/1999/xlink" xmlns="http://www.w3.org/2000/svg" id="Outline" viewBox="0 0 512 512" width="512" height="512"><path d="M192,136a8,8,0,0,0-8-8H120a8,8,0,0,0,0,16h64A8,8,0,0,0,192,136Z" fill="#0C2188"></path><path d="M136,176H72a8,8,0,0,0,0,16h64a8,8,0,0,0,0-16Z" fill="#0C2188"></path><path d="M72,144H88a8,8,0,0,0,0-16H72a8,8,0,0,0,0,16Z" fill="#0C2188"></path><path d="M192,184a8,8,0,0,0-8-8H168a8,8,0,0,0,0,16h16A8,8,0,0,0,192,184Z" fill="#0C2188"></path><path d="M104,224H72a8,8,0,0,0,0,16h32a8,8,0,0,0,0-16Z" fill="#0C2188"></path><path d="M72,96h48a8,8,0,0,0,0-16H72a8,8,0,0,0,0,16Z" fill="#0C2188"></path><path d="M429.657,18.343A8,8,0,0,0,424,16H312a40.045,40.045,0,0,0-40,40V208H240V88a8,8,0,0,0-2.343-5.657l-64-64A8,8,0,0,0,168,16H56A40.045,40.045,0,0,0,16,56V264a40.045,40.045,0,0,0,40,40h88V456a40.045,40.045,0,0,0,40,40H328a40.045,40.045,0,0,0,40-40V304h88a40.045,40.045,0,0,0,40-40V88a8,8,0,0,0-2.343-5.657ZM432,43.313,468.687,80H456a24.028,24.028,0,0,1-24-24Zm-256,0L212.687,80H200a24.028,24.028,0,0,1-24-24ZM144,248v40H56a24.028,24.028,0,0,1-24-24V56A24.028,24.028,0,0,1,56,32H160V56a40.045,40.045,0,0,0,40,40h24V208H184A40.045,40.045,0,0,0,144,248ZM352,456a24.028,24.028,0,0,1-24,24H184a24.028,24.028,0,0,1-24-24V248a24.028,24.028,0,0,1,24-24H288v24a40.045,40.045,0,0,0,40,40h24ZM304,248V235.313L340.687,272H328A24.028,24.028,0,0,1,304,248Zm176,16a24.028,24.028,0,0,1-24,24H368v-8a8,8,0,0,0-2.343-5.657l-64-64A8,8,0,0,0,296,208h-8V56a24.028,24.028,0,0,1,24-24H416V56a40.045,40.045,0,0,0,40,40h24Z" fill="#0C2188"></path><path d="M440,128H376a8,8,0,0,0,0,16h64a8,8,0,0,0,0-16Z" fill="#0C2188"></path><path d="M400,184a8,8,0,0,0-8-8H328a8,8,0,0,0,0,16h64A8,8,0,0,0,400,184Z" fill="#0C2188"></path><path d="M440,224H376a8,8,0,0,0,0,16h64a8,8,0,0,0,0-16Z" fill="#0C2188"></path><path d="M328,144h16a8,8,0,0,0,0-16H328a8,8,0,0,0,0,16Z" fill="#0C2188"></path><path d="M440,176H424a8,8,0,0,0,0,16h16a8,8,0,0,0,0-16Z" fill="#0C2188"></path><path d="M328,96h48a8,8,0,0,0,0-16H328a8,8,0,0,0,0,16Z" fill="#0C2188"></path><circle cx="224" cy="352" r="8" fill="#0C2188"></circle><circle cx="256" cy="352" r="8" fill="#0C2188"></circle><circle cx="288" cy="352" r="8" fill="#0C2188"></circle><path d="M56,336a8,8,0,0,0-8,8v48a8,8,0,0,0,8,8h48a8,8,0,0,0,0-16H64V344A8,8,0,0,0,56,336Z" fill="#0C2188"></path><path d="M456,400a8,8,0,0,0,8-8V344a8,8,0,0,0-16,0v40H408a8,8,0,0,0,0,16Z" fill="#0C2188"></path></svg>