<svg xmlns:xlink="http://www.w3.org/1999/xlink" xmlns="http://www.w3.org/2000/svg" id="Capa_1" enable-background="new 0 0 612.284 612.284" height="512" viewBox="0 0 612.284 612.284" width="512"><g fill="#0C2188"><g fill="#0C2188"><g fill="#0C2188"><g fill="#0C2188"><g fill="#0C2188"><path d="m260.914 553.81c-.797 0-1.61-.1-2.42-.311-5.114-1.331-8.18-6.557-6.848-11.668l15.945-61.216c1.331-5.114 6.557-8.18 11.668-6.848 5.114 1.331 8.18 6.557 6.848 11.668l-15.945 61.216c-1.12 4.305-4.999 7.159-9.248 7.159z" fill="#0C2188"></path></g><g fill="#0C2188"><path d="m351.369 553.81c-4.249 0-8.132-2.854-9.252-7.159l-15.945-61.216c-1.331-5.114 1.734-10.336 6.848-11.668 5.114-1.331 10.336 1.734 11.668 6.848l15.945 61.216c1.331 5.114-1.734 10.336-6.848 11.668-.805.207-1.615.311-2.416.311z" fill="#0C2188"></path></g></g><g fill="#0C2188"><path d="m431.389 601.557h-250.494c-5.286 0-9.567-4.281-9.567-9.567 0-31.607 25.711-57.318 57.318-57.318h154.996c31.603 0 57.314 25.711 57.314 57.318 0 5.281-4.286 9.567-9.567 9.567zm-239.716-19.135h228.933c-4.257-16.439-19.218-28.617-36.968-28.617h-154.992c-17.751 0-32.715 12.178-36.973 28.617z" fill="#0C2188"></path></g><g fill="#0C2188"><path d="m586.771 492.586h-561.259c-14.068 0-25.512-11.444-25.512-25.512v-376.765c0-14.068 11.444-25.512 25.512-25.512h307.337c5.286 0 9.567 4.281 9.567 9.567s-4.281 9.567-9.567 9.567h-307.337c-3.516 0-6.378 2.862-6.378 6.378v376.765c0 3.516 2.862 6.378 6.378 6.378h561.26c3.516 0 6.378-2.862 6.378-6.378v-376.765c0-3.516-2.862-6.378-6.378-6.378h-76.224c-5.286 0-9.567-4.281-9.567-9.567s4.281-9.567 9.567-9.567h76.224c14.067 0 25.512 11.444 25.512 25.512v376.765c-.001 14.068-11.445 25.512-25.513 25.512z" fill="#0C2188"></path></g><g fill="#0C2188"><path d="m602.716 428.081h-593.149c-5.286 0-9.567-4.281-9.567-9.567s4.281-9.567 9.567-9.567h593.149c5.286 0 9.567 4.281 9.567 9.567s-4.281 9.567-9.567 9.567z" fill="#0C2188"></path></g><g fill="#0C2188"><g fill="#0C2188"><path d="m274.878 428.081h-206.403c-5.286 0-9.567-4.281-9.567-9.567v-53.371c0-23.387 9.109-45.375 25.647-61.914s38.527-25.647 61.914-25.647c3.229 0 6.242 1.63 8.008 4.337l17.197 26.329 17.201-26.329c1.766-2.703 4.779-4.337 8.008-4.337 23.387 0 45.375 9.109 61.914 25.647s25.647 38.527 25.647 61.914v53.371c.001 5.286-4.281 9.567-9.566 9.567zm-196.836-19.134h187.269v-43.805c0-36.031-27.991-65.649-63.369-68.244l-22.255 34.07c-1.766 2.707-4.779 4.337-8.008 4.337-3.229 0-6.242-1.63-8.008-4.337l-22.251-34.07c-35.378 2.599-63.369 32.213-63.369 68.244z" fill="#0C2188"></path></g><g fill="#0C2188"><path d="m171.674 263.319c-37.53 0-68.065-30.534-68.065-68.065s30.534-68.065 68.065-68.065 68.065 30.534 68.065 68.065-30.534 68.065-68.065 68.065zm0-116.996c-26.979 0-48.931 21.952-48.931 48.931s21.952 48.931 48.931 48.931 48.931-21.952 48.931-48.931-21.952-48.931-48.931-48.931z" fill="#0C2188"></path></g></g><g fill="#0C2188"><g fill="#0C2188"><path d="m369.331 312.166c-1.232 0-2.475-.239-3.659-.729-3.576-1.479-5.908-4.971-5.908-8.837v-32.292h-26.915c-5.286 0-9.567-4.281-9.567-9.567v-240.446c0-5.286 4.281-9.567 9.567-9.567h177.698c5.286 0 9.567 4.281 9.567 9.567v240.445c0 5.286-4.281 9.567-9.567 9.567h-95.398l-39.053 39.057c-1.83 1.829-4.277 2.802-6.765 2.802zm-26.915-60.993h26.915c5.286 0 9.567 4.281 9.567 9.567v18.763l25.524-25.524c1.794-1.794 4.229-2.802 6.765-2.802h89.794v-221.315h-158.565z" fill="#0C2188"></path></g><g fill="#0C2188"><g fill="#0C2188"><g fill="#0C2188"><path d="m470.84 223.181h-98.284c-5.286 0-9.567-4.281-9.567-9.567s4.281-9.567 9.567-9.567h98.284c5.286 0 9.567 4.281 9.567 9.567s-4.281 9.567-9.567 9.567z" fill="#0C2188"></path></g></g><g fill="#0C2188"><g fill="#0C2188"><path d="m470.84 186.919h-98.284c-5.286 0-9.567-4.281-9.567-9.567s4.281-9.567 9.567-9.567h98.284c5.286 0 9.567 4.281 9.567 9.567s-4.281 9.567-9.567 9.567z" fill="#0C2188"></path></g></g><g fill="#0C2188"><g fill="#0C2188"><path d="m470.84 150.66h-98.284c-5.286 0-9.567-4.281-9.567-9.567s4.281-9.567 9.567-9.567h98.284c5.286 0 9.567 4.281 9.567 9.567s-4.281 9.567-9.567 9.567z" fill="#0C2188"></path></g></g><g fill="#0C2188"><g fill="#0C2188"><path d="m470.84 114.398h-98.284c-5.286 0-9.567-4.281-9.567-9.567s4.281-9.567 9.567-9.567h98.284c5.286 0 9.567 4.281 9.567 9.567 0 5.285-4.281 9.567-9.567 9.567z" fill="#0C2188"></path></g></g><g fill="#0C2188"><g fill="#0C2188"><path d="m470.84 78.135h-98.284c-5.286 0-9.567-4.281-9.567-9.567s4.281-9.567 9.567-9.567h98.284c5.286 0 9.567 4.281 9.567 9.567s-4.281 9.567-9.567 9.567z" fill="#0C2188"></path></g></g></g></g><g fill="#0C2188"><path d="m541.532 374.49h-205.657c-5.286 0-9.567-4.281-9.567-9.567s4.281-9.567 9.567-9.567h205.657c5.286 0 9.567 4.281 9.567 9.567s-4.281 9.567-9.567 9.567z" fill="#0C2188"></path></g><g fill="#0C2188"><path d="m369.746 388.123c-5.286 0-9.567-4.281-9.567-9.567v-27.265c0-5.286 4.281-9.567 9.567-9.567s9.567 4.281 9.567 9.567v27.266c0 5.285-4.286 9.566-9.567 9.566z" fill="#0C2188"></path></g></g></g></g></svg>