<svg xmlns:xlink="http://www.w3.org/1999/xlink" xmlns="http://www.w3.org/2000/svg" id="Layer_3" enable-background="new 0 0 64 64" height="512" viewBox="0 0 64 64" width="512"><g fill="#0C2188"><path d="m5 30h14v2h-14z" fill="#0C2188"></path><path d="m21 30h2v2h-2z" fill="#0C2188"></path><path d="m5 34h23v2h-23z" fill="#0C2188"></path><path d="m19 45h18v2h-18z" fill="#0C2188"></path><path d="m15 49h22v2h-22z" fill="#0C2188"></path><path d="m11 49h2v2h-2z" fill="#0C2188"></path><path d="m5 49h4v2h-4z" fill="#0C2188"></path><path d="m15 53h22v2h-22z" fill="#0C2188"></path><path d="m6 57h31v2h-31z" fill="#0C2188"></path><path d="m8 19h6v5h2v-8c-.001-2.757-2.244-5-5-5-2.757 0-5 2.243-5 5v8h2zm3-6c1.653 0 2.999 1.346 3 3v1h-6v-1c0-1.654 1.346-3 3-3z" fill="#0C2188"></path><path d="m20 21h2v-2h2v-2h-2v-2h-2v2h-2v2h2z" fill="#0C2188"></path><path d="m5 26h21v2h-21z" fill="#0C2188"></path><path d="m58.465 8c-1.212 0-2.351.472-3.207 1.328l-8.258 8.258v-15.586c0-.553-.447-1-1-1h-38c-.553 0-1 .447-1 1v5h-5c-.553 0-1 .447-1 1v54c0 .553.447 1 1 1h38c.553 0 1-.447 1-1v-5h5c.553 0 1-.447 1-1v-25.586l14.672-14.672c.856-.856 1.328-1.995 1.328-3.207 0-2.501-2.034-4.535-4.535-4.535zm-22.465 30.586-1.086-1.086 18.586-18.586 1.086 1.086zm15-22.172 1.086 1.086-18.586 18.586-1.086-1.086zm-22-6 8.586 8.586h-8.586zm2.391 26.391 2.804 2.804-4.486 1.682zm21.023-21.805 1.086-1.086 3.586 3.586-1.086 1.086zm-43.414-12h36v16.586l-4 4v-3.586c0-.266-.105-.52-.293-.707l-12-12c-.187-.188-.441-.293-.707-.293h-19zm-6 58v-52h24v11c0 .553.447 1 1 1h11v4.586l-2 2v-1.586h-9v2h8.586l-2 2h-9.586v2h7.586l-2.293 2.293c-.101.101-.179.223-.229.355l-1.256 3.351-23.808.001v2l23.057-.001-.994 2.649c-.138.367-.048.781.229 1.059.191.191.447.293.708.293.118 0 .237-.021.352-.063l8-3c.133-.051.255-.129.355-.229l2.293-2.294v22.586zm42-6h-4v-18.586l4-4zm15.258-40.672-1.758 1.758-3.586-3.586 1.758-1.758c.478-.478 1.115-.742 1.793-.742 1.397 0 2.535 1.138 2.535 2.535 0 .678-.264 1.315-.742 1.793z" fill="#0C2188"></path></g></svg>