<svg xmlns:xlink="http://www.w3.org/1999/xlink" xmlns="http://www.w3.org/2000/svg" id="Capa_1" enable-background="new 0 0 512 512" height="512" viewBox="0 0 512 512" width="512"><g fill="#0C2188"><g id="Page-1_27_" fill="#0C2188"><g id="_x30_28---Notifications" fill="#0C2188"><path id="Shape_147_" d="m501.632 213.803-24.132-15.94-23.765-57.37 5.794-28.331c1.564-7.601-.803-15.478-6.298-20.958l-32.427-32.427c-5.478-5.492-13.351-7.859-20.949-6.298l-28.339 5.794-57.378-23.773-15.94-24.141c-4.268-6.474-11.506-10.367-19.26-10.359h-45.875c-7.759-.009-15.001 3.888-19.268 10.368l-15.933 24.132-57.37 23.765-28.339-5.803c-7.599-1.548-15.467.821-20.949 6.306l-32.426 32.428c-5.495 5.48-7.862 13.357-6.298 20.958l5.794 28.339-23.774 57.369-24.132 15.94c-6.477 4.266-10.374 11.505-10.368 19.26v45.875c-.006 7.756 3.891 14.994 10.368 19.26l24.132 15.94 23.765 57.37-5.794 28.331c-1.564 7.601.803 15.478 6.298 20.958l32.427 32.427c5.478 5.492 13.351 7.859 20.949 6.298l28.339-5.794 57.37 23.765 15.94 24.141c4.267 6.48 11.509 10.377 19.268 10.368h45.875c7.759.009 15.001-3.888 19.268-10.368l15.932-24.132 57.37-23.765 28.339 5.803c7.599 1.549 15.468-.819 20.949-6.306l32.427-32.427c5.495-5.48 7.862-13.357 6.298-20.958l-5.794-28.339 23.765-57.37 24.132-15.94c6.481-4.264 10.381-11.502 10.377-19.26v-45.875c.006-7.757-3.891-14.996-10.368-19.261zm-6.699 65.135c.008 2.021-1.007 3.909-2.697 5.018l-26.317 17.382c-1.422.939-2.531 2.282-3.183 3.857l-25.771 62.199c-.652 1.573-.819 3.306-.478 4.975l6.323 30.908c.409 1.979-.211 4.031-1.647 5.453l-32.427 32.427c-1.424 1.439-3.479 2.059-5.461 1.647l-30.899-6.323c-1.668-.353-3.404-.186-4.975.478l-62.199 25.762c-1.578.651-2.924 1.759-3.866 3.183l-17.365 26.317c-1.115 1.689-3.003 2.705-5.026 2.705h-45.884c-2.021.008-3.909-1.007-5.018-2.697l-17.374-26.308c-.941-1.424-2.288-2.532-3.866-3.183l-62.199-25.762c-1.036-.431-2.147-.651-3.268-.649-.573.002-1.145.059-1.707.171l-30.899 6.323c-1.981.402-4.033-.216-5.461-1.647l-32.444-32.427c-1.432-1.428-2.051-3.48-1.647-5.461l6.323-30.899c.341-1.669.174-3.401-.478-4.975l-25.771-62.199c-.652-1.575-1.761-2.918-3.183-3.857l-26.308-17.399c-1.69-1.109-2.704-2.997-2.697-5.018v-45.875c-.008-2.021 1.007-3.909 2.697-5.018l26.317-17.382c1.422-.939 2.531-2.282 3.183-3.857l25.771-62.199c.652-1.573.819-3.306.478-4.975l-6.323-30.908c-.417-1.983.2-4.043 1.638-5.47l32.427-32.427c1.424-1.439 3.479-2.059 5.461-1.647l30.899 6.323c1.669.341 3.401.174 4.975-.478l62.199-25.762c1.578-.651 2.924-1.759 3.866-3.183l17.365-26.317c1.12-1.69 3.015-2.704 5.043-2.697h45.875c2.021-.008 3.909 1.007 5.018 2.697l17.374 26.317c.941 1.424 2.288 2.532 3.866 3.183l62.199 25.762c1.572.659 3.306.826 4.975.478l30.899-6.323c1.982-.412 4.038.208 5.461 1.647l32.427 32.427c1.432 1.428 2.051 3.48 1.647 5.461l-6.323 30.899c-.341 1.669-.174 3.401.478 4.975l25.771 62.199c.652 1.575 1.761 2.918 3.183 3.857l26.317 17.382c1.69 1.109 2.704 2.997 2.697 5.018z" fill="#0C2188"></path><path id="Shape_146_" d="m402.961 325.052c-33.579-45.065-36.028-109.158-36.028-109.5v-13.824c-.108-30.104-11.456-59.083-31.821-81.254-12.347-13.364-27.795-23.481-44.979-29.457v-14.217c0-18.851-15.282-34.133-34.133-34.133s-34.133 15.282-34.133 34.133v14.217c-17.193 5.977-32.648 16.1-44.996 29.474-20.355 22.169-31.697 51.141-31.804 81.237v13.559c0 .64-2.347 64.572-36.079 109.833-2.402 3.255-4.965 6.388-7.68 9.387-8.195 8.904-9.786 22.047-3.951 32.649 12.365 22.281 48.717 35.908 107.955 40.585 3.312 25.481 25.018 44.548 50.714 44.548s47.401-19.067 50.714-44.548c59.247-4.685 95.573-18.304 107.947-40.559 5.838-10.588 4.265-23.721-3.908-32.631-3.244-3.611-5.702-6.598-7.818-9.499zm-146.961-265.319c9.426 0 17.067 7.641 17.067 17.067v10.078c-11.305-1.826-22.829-1.826-34.133 0v-10.078c-.001-9.426 7.64-17.067 17.066-17.067zm0 375.467c-15.847-.03-29.607-10.919-33.28-26.334 10.24.486 21.393.734 33.28.734s22.938-.247 33.152-.725c-3.618 15.395-17.337 26.29-33.152 26.325zm143.753-76.331c-5.572 10.018-26.18 27.563-101.743 32.427-12.442.811-26.573 1.237-42.01 1.237s-29.568-.427-42.044-1.263c-75.529-4.838-96.137-22.383-101.717-32.427-2.213-4.238-1.531-9.409 1.707-12.928 3.601-4.028 6.4-7.432 8.764-10.658 36.864-49.459 39.33-116.608 39.424-119.706v-13.824c.089-25.789 9.8-50.616 27.23-69.623 11.685-12.707 26.673-21.913 43.29-26.59 15.286-4.147 31.4-4.147 46.686 0 16.612 4.678 31.597 13.881 43.281 26.581 17.438 19.007 27.154 43.838 27.247 69.632v14.089c.094 2.833 2.56 69.973 39.356 119.373 2.415 3.294 5.214 6.699 8.841 10.761 3.228 3.52 3.904 8.687 1.688 12.919z" fill="#0C2188"></path><path id="Shape_145_" d="m237.176 121.967c-13.547 3.828-25.762 11.351-35.277 21.726-14.531 15.842-22.626 36.538-22.699 58.035 0 4.713 3.821 8.533 8.533 8.533 4.713 0 8.533-3.82 8.533-8.533.051-17.192 6.517-33.747 18.133-46.421 7.363-8.047 16.817-13.89 27.307-16.879 4.546-1.247 7.22-5.942 5.973-10.487-1.247-4.546-5.942-7.22-10.487-5.973h-.016z" fill="#0C2188"></path></g></g></g></svg>