<svg xmlns:xlink="http://www.w3.org/1999/xlink" xmlns="http://www.w3.org/2000/svg" id="Icons" viewBox="0 0 60 60" width="512" height="512"><path d="M45,37a8,8,0,1,0,8,8A8.009,8.009,0,0,0,45,37Zm0,14a6,6,0,1,1,6-6A6.006,6.006,0,0,1,45,51Z" fill="#0C2188"></path><path d="M45,41a4,4,0,1,0,4,4A4,4,0,0,0,45,41Zm0,6a2,2,0,1,1,2-2A2,2,0,0,1,45,47Z" fill="#0C2188"></path><path d="M58.805,42.2l-1.792-.717A12.415,12.415,0,0,0,55.98,39l.761-1.776a1.805,1.805,0,0,0-.263-1.877c-.274-.327-.567-.645-.872-.949s-.622-.6-.949-.872a1.8,1.8,0,0,0-1.875-.263L51,34.02a12.415,12.415,0,0,0-2.486-1.033L47.8,31.2a1.805,1.805,0,0,0-1.515-1.139,14.359,14.359,0,0,0-2.573,0A1.805,1.805,0,0,0,42.2,31.2l-.717,1.792A12.415,12.415,0,0,0,39,34.02l-1.776-.761a1.8,1.8,0,0,0-1.877.263c-.327.274-.645.567-.949.872s-.6.622-.872.949a1.756,1.756,0,0,0-.29.52A11.635,11.635,0,0,0,28.83,35h-.279A5.241,5.241,0,0,0,26,33.235V32.162a11.164,11.164,0,0,0,4.909-8.48,3.763,3.763,0,0,0,2.231-1.954A10.31,10.31,0,0,0,34,16.59V14.269A14.152,14.152,0,0,0,20,0,14.152,14.152,0,0,0,6,14.269V16.59a10.313,10.313,0,0,0,.863,5.144,3.757,3.757,0,0,0,2.228,1.949A11.164,11.164,0,0,0,14,32.162v1.073A5.241,5.241,0,0,0,11.449,35H11.17C5.011,35,0,39.76,0,45.61V58a2,2,0,0,0,2,2H38a2,2,0,0,0,2-2V56.463a12.608,12.608,0,0,0,1.482.55l.717,1.792a1.805,1.805,0,0,0,1.515,1.139c.425.038.855.056,1.286.056s.861-.018,1.287-.056A1.805,1.805,0,0,0,47.8,58.805l.717-1.792A12.415,12.415,0,0,0,51,55.98l1.776.761a1.805,1.805,0,0,0,1.877-.263c.327-.274.645-.567.949-.872s.6-.622.872-.949a1.8,1.8,0,0,0,.263-1.875L55.98,51a12.415,12.415,0,0,0,1.033-2.486l1.792-.717a1.805,1.805,0,0,0,1.139-1.515c.038-.425.056-.855.056-1.286s-.018-.861-.056-1.287A1.805,1.805,0,0,0,58.805,42.2ZM20,53.92a7.064,7.064,0,0,1-2.027-1.4L18.9,44H21.1l.924,8.524A7.064,7.064,0,0,1,20,53.92Zm0-15.566a6.478,6.478,0,0,1,2.445.834L21.323,42H18.677l-1.122-2.8A6.587,6.587,0,0,1,20,38.354ZM15.97,41.242a3.168,3.168,0,0,1,.113-.341l.9,2.239-.768,7.085a26.252,26.252,0,0,1-2.8-9.167,7.121,7.121,0,0,0,1.095.813,1,1,0,0,0,1.462-.629Zm7.82,8.988-.769-7.09.9-2.239a3.243,3.243,0,0,1,.113.341,1,1,0,0,0,1.462.629,7.166,7.166,0,0,0,1.1-.815A26.21,26.21,0,0,1,23.79,50.23Zm3.2-13.978a4.777,4.777,0,0,1-1.562,3.163,5.669,5.669,0,0,0-2.293-2.137,6.786,6.786,0,0,0,2.355-2.1A3.052,3.052,0,0,1,26.993,36.252ZM20,2A12.134,12.134,0,0,1,31.983,13.934a2.432,2.432,0,0,0-1.181-.008c-.853-3.467-4.26-5.243-6.378-5.773a2.526,2.526,0,0,0-2.056.329c-2.823,1.916-8.216,2.82-10.957,2.939A2.551,2.551,0,0,0,9,13.885a2.456,2.456,0,0,0-.985.04A12.134,12.134,0,0,1,20,2ZM11.078,23.43A1.8,1.8,0,0,0,9.789,21.8a1.733,1.733,0,0,1-1.13-.951A8.46,8.46,0,0,1,8,16.59a.779.779,0,0,1,.3-.625.518.518,0,0,1,.309-.112.464.464,0,0,1,.125.017.561.561,0,0,1,.282.289A1,1,0,0,0,11,16V13.99a.555.555,0,0,1,.5-.571c3.072-.134,8.8-1.118,11.978-3.276a.572.572,0,0,1,.446-.053C24.135,10.142,29,11.407,29,15.6V16a1,1,0,0,0,1.987.159.555.555,0,0,1,.28-.288.484.484,0,0,1,.436.094.779.779,0,0,1,.3.625,8.452,8.452,0,0,1-.656,4.256,1.748,1.748,0,0,1-1.156.964,1.794,1.794,0,0,0-1.266,1.62A9.037,9.037,0,0,1,20,32,9.037,9.037,0,0,1,11.078,23.43ZM20,34a10.7,10.7,0,0,0,4-.775v.563c-.226.444-1.173,1.909-4,2.534-2.838-.627-3.782-2.1-4-2.53v-.567A10.7,10.7,0,0,0,20,34Zm-5.493,1.174a6.786,6.786,0,0,0,2.355,2.1,5.673,5.673,0,0,0-2.293,2.136,4.77,4.77,0,0,1-1.562-3.162A3.057,3.057,0,0,1,14.507,35.174ZM2,45.61a8.9,8.9,0,0,1,9.025-8.6c.143,3.567,1.139,15.4,7.975,18.648V58H2ZM21,58V55.655c6.834-3.249,7.831-15.074,7.975-18.645a9.528,9.528,0,0,1,4.772,1.35L34.02,39a12.415,12.415,0,0,0-1.033,2.486L31.2,42.2a1.805,1.805,0,0,0-1.139,1.515C30.018,44.139,30,44.569,30,45s.018.861.056,1.287A1.805,1.805,0,0,0,31.2,47.8l1.792.717A12.415,12.415,0,0,0,34.02,51l-.761,1.776a1.805,1.805,0,0,0,.263,1.877c.274.327.567.645.872.949s.622.6.949.872a1.8,1.8,0,0,0,1.875.263L38,56.407V58ZM57.963,45.983l-2.156.863a1,1,0,0,0-.6.687,10.427,10.427,0,0,1-1.2,2.889,1,1,0,0,0-.063.91l.916,2.139c-.212.248-.436.489-.669.721s-.473.457-.721.669l-2.139-.916a.993.993,0,0,0-.91.063,10.427,10.427,0,0,1-2.889,1.2,1,1,0,0,0-.687.6l-.863,2.156a12.65,12.65,0,0,1-1.966,0l-.863-2.156a1,1,0,0,0-.687-.6,10.427,10.427,0,0,1-2.889-1.2.994.994,0,0,0-.91-.063l-2.139.916c-.248-.212-.489-.436-.721-.669s-.457-.473-.669-.721l.916-2.139a1,1,0,0,0-.063-.91,10.427,10.427,0,0,1-1.2-2.889,1,1,0,0,0-.6-.687l-2.156-.863C32.012,45.658,32,45.329,32,45s.012-.658.037-.983l2.156-.863a1,1,0,0,0,.6-.687,10.427,10.427,0,0,1,1.2-2.889,1,1,0,0,0,.063-.91l-.916-2.139c.212-.248.436-.489.669-.721s.473-.457.721-.669l2.139.916a1,1,0,0,0,.91-.063,10.427,10.427,0,0,1,2.889-1.2,1,1,0,0,0,.687-.6l.863-2.156a12.65,12.65,0,0,1,1.966,0l.863,2.156a1,1,0,0,0,.687.6,10.427,10.427,0,0,1,2.889,1.2,1,1,0,0,0,.91.063l2.139-.916c.248.212.489.436.721.669s.457.473.669.721l-.916,2.139a1,1,0,0,0,.063.91,10.427,10.427,0,0,1,1.2,2.889,1,1,0,0,0,.6.687l2.156.863c.025.325.037.654.037.983S57.988,45.658,57.963,45.983Z" fill="#0C2188"></path><path d="M56,6H54a2,2,0,0,0-2,2v4H44V8a2,2,0,0,0-2-2H40a4,4,0,0,0-4,4V23.945c0,.089,0,.179.005.269A4.089,4.089,0,0,0,40.17,28H56a4,4,0,0,0,4-4V10A4,4,0,0,0,56,6ZM38,10a2,2,0,0,1,2-2h2V20H40a4,4,0,0,0-2,.538ZM56,26H40.17A2.119,2.119,0,0,1,38,24.109c0-.037,0-.073,0-.109v-.031A2,2,0,0,1,40,22h2a2,2,0,0,0,2-2V14h8v6a2,2,0,0,0,2,2h2a2,2,0,0,1,0,4Zm2-5.463A3.97,3.97,0,0,0,56,20H54V8h2a2,2,0,0,1,2,2Z" fill="#0C2188"></path></svg>