<svg xmlns:xlink="http://www.w3.org/1999/xlink" xmlns="http://www.w3.org/2000/svg" id="Line_Expand" height="512" viewBox="0 0 64 64" width="512" data-name="Line Expand"><path d="m55 51v-43a5.0059 5.0059 0 0 0 -5-5h-40a5.0059 5.0059 0 0 0 -5 5v5h8v3.0507a10.9915 10.9915 0 0 0 -6 19.4279v13.4355l6-6v13.0859a5.0059 5.0059 0 0 0 5 5h36a5.0059 5.0059 0 0 0 5-5v-5zm-48-40v-3a3 3 0 0 1 6 0v3zm-2 16a9 9 0 1 1 9 9 9.01 9.01 0 0 1 -9-9zm4 9.7857a10.9011 10.9011 0 0 0 10 0v7.3l-5-5-5 5zm12 19.2143a3 3 0 0 1 -6 0v-13.0859l6 6v-13.4355a10.9915 10.9915 0 0 0 -6-19.4279v-8.0507a4.9732 4.9732 0 0 0 -1.002-3h36.002a3.0033 3.0033 0 0 1 3 3v43h-32zm36 0a3.0033 3.0033 0 0 1 -3 3h-32.002a4.9732 4.9732 0 0 0 1.002-3v-3h34z" fill="#0C2188"></path><path d="m20 9h14v2h-14z" fill="#0C2188"></path><path d="m29 18h7v2h-7z" fill="#0C2188"></path><path d="m29 24h14v2h-14z" fill="#0C2188"></path><path d="m29 30h14v2h-14z" fill="#0C2188"></path><path d="m29 36h14v2h-14z" fill="#0C2188"></path><path d="m35 45h14v2h-14z" fill="#0C2188"></path><path d="m46 8a4 4 0 1 0 4 4 4.0039 4.0039 0 0 0 -4-4zm0 6a2 2 0 1 1 2-2 2.0027 2.0027 0 0 1 -2 2z" fill="#0C2188"></path><path d="m14 33a6 6 0 1 0 -6-6 6.0066 6.0066 0 0 0 6 6zm0-10a4 4 0 1 1 -4 4 4.0039 4.0039 0 0 1 4-4z" fill="#0C2188"></path></svg>