<svg xmlns:xlink="http://www.w3.org/1999/xlink" xmlns="http://www.w3.org/2000/svg" id="Icons" viewBox="0 0 60 60" width="512" height="512"><path d="M23,17v3a3,3,0,0,0,3,3h8a3,3,0,0,0,3-3V17a5.009,5.009,0,0,0-4-4.9V10.974A4.977,4.977,0,0,0,35,7V4a4,4,0,0,0-4-4H29a4,4,0,0,0-4,4V7a4.977,4.977,0,0,0,2,3.974V12.1A5.009,5.009,0,0,0,23,17Zm12,0v3a1,1,0,0,1-1,1H26a1,1,0,0,1-1-1V17a3,3,0,0,1,2.216-2.883,2.845,2.845,0,0,0,.657.99A2.937,2.937,0,0,0,30,16a3,3,0,0,0,2.78-1.884A3,3,0,0,1,35,17ZM27,4a2,2,0,0,1,2-2h2a2,2,0,0,1,2,2V7a3,3,0,0,1-6,0Zm3,8a5,5,0,0,0,1-.1V13a1,1,0,0,1-1,1,.977.977,0,0,1-.713-.307A.959.959,0,0,1,29,13V11.9A5,5,0,0,0,30,12Z" fill="#0C2188"></path><path d="M40,17v3a3,3,0,0,0,3,3h8a3,3,0,0,0,3-3V17a5.009,5.009,0,0,0-4-4.9V10.974A4.977,4.977,0,0,0,52,7V4a4,4,0,0,0-4-4H46a4,4,0,0,0-4,4V7a4.977,4.977,0,0,0,2,3.974V12.1A5.009,5.009,0,0,0,40,17Zm12,0v3a1,1,0,0,1-1,1H43a1,1,0,0,1-1-1V17a3,3,0,0,1,2.216-2.883,2.845,2.845,0,0,0,.657.99A2.937,2.937,0,0,0,47,16a3,3,0,0,0,2.78-1.884A3,3,0,0,1,52,17ZM44,4a2,2,0,0,1,2-2h2a2,2,0,0,1,2,2V7a3,3,0,0,1-6,0Zm3,8a5,5,0,0,0,1-.1V13a1,1,0,0,1-1,1,.977.977,0,0,1-.713-.307A.959.959,0,0,1,46,13V11.9A5,5,0,0,0,47,12Z" fill="#0C2188"></path><path d="M6,17v3a3,3,0,0,0,3,3h8a3,3,0,0,0,3-3V17a5.009,5.009,0,0,0-4-4.9V10.974A4.977,4.977,0,0,0,18,7V4a4,4,0,0,0-4-4H12A4,4,0,0,0,8,4V7a4.977,4.977,0,0,0,2,3.974V12.1A5.009,5.009,0,0,0,6,17Zm12,0v3a1,1,0,0,1-1,1H9a1,1,0,0,1-1-1V17a3,3,0,0,1,2.216-2.883,2.845,2.845,0,0,0,.657.99A2.937,2.937,0,0,0,13,16a3,3,0,0,0,2.78-1.884A3,3,0,0,1,18,17ZM10,4a2,2,0,0,1,2-2h2a2,2,0,0,1,2,2V7a3,3,0,0,1-6,0Zm3,8a5,5,0,0,0,1-.1V13a1,1,0,0,1-1,1,.977.977,0,0,1-.713-.307A.959.959,0,0,1,12,13V11.9A5,5,0,0,0,13,12Z" fill="#0C2188"></path><path d="M23,54v3a3,3,0,0,0,3,3h8a3,3,0,0,0,3-3V54a5.009,5.009,0,0,0-4-4.9V47.974A4.977,4.977,0,0,0,35,44V41a4,4,0,0,0-4-4H29a4,4,0,0,0-4,4v3a4.977,4.977,0,0,0,2,3.974V49.1A5.009,5.009,0,0,0,23,54Zm12,0v3a1,1,0,0,1-1,1H26a1,1,0,0,1-1-1V54a3,3,0,0,1,2.216-2.883,2.845,2.845,0,0,0,.657.99A2.937,2.937,0,0,0,30,53a3,3,0,0,0,2.78-1.884A3,3,0,0,1,35,54ZM27,41a2,2,0,0,1,2-2h2a2,2,0,0,1,2,2v3a3,3,0,0,1-6,0Zm3,8a5,5,0,0,0,1-.1V50a1,1,0,0,1-1,1,.977.977,0,0,1-.713-.307A.959.959,0,0,1,29,50V48.9A5,5,0,0,0,30,49Z" fill="#0C2188"></path><path d="M40,54v3a3,3,0,0,0,3,3h8a3,3,0,0,0,3-3V54a5.009,5.009,0,0,0-4-4.9V47.974A4.977,4.977,0,0,0,52,44V41a4,4,0,0,0-4-4H46a4,4,0,0,0-4,4v3a4.977,4.977,0,0,0,2,3.974V49.1A5.009,5.009,0,0,0,40,54Zm12,0v3a1,1,0,0,1-1,1H43a1,1,0,0,1-1-1V54a3,3,0,0,1,2.216-2.883,2.845,2.845,0,0,0,.657.99A2.937,2.937,0,0,0,47,53a3,3,0,0,0,2.78-1.884A3,3,0,0,1,52,54ZM44,41a2,2,0,0,1,2-2h2a2,2,0,0,1,2,2v3a3,3,0,0,1-6,0Zm3,8a5,5,0,0,0,1-.1V50a1,1,0,0,1-1,1,.977.977,0,0,1-.713-.307A.959.959,0,0,1,46,50V48.9A5,5,0,0,0,47,49Z" fill="#0C2188"></path><path d="M6,54v3a3,3,0,0,0,3,3h8a3,3,0,0,0,3-3V54a5.009,5.009,0,0,0-4-4.9V47.974A4.977,4.977,0,0,0,18,44V41a4,4,0,0,0-4-4H12a4,4,0,0,0-4,4v3a4.977,4.977,0,0,0,2,3.974V49.1A5.009,5.009,0,0,0,6,54Zm12,0v3a1,1,0,0,1-1,1H9a1,1,0,0,1-1-1V54a3,3,0,0,1,2.216-2.883,2.845,2.845,0,0,0,.657.99A2.937,2.937,0,0,0,13,53a3,3,0,0,0,2.78-1.884A3,3,0,0,1,18,54ZM10,41a2,2,0,0,1,2-2h2a2,2,0,0,1,2,2v3a3,3,0,0,1-6,0Zm3,8a5,5,0,0,0,1-.1V50a1,1,0,0,1-1,1,.977.977,0,0,1-.713-.307A.959.959,0,0,1,12,50V48.9A5,5,0,0,0,13,49Z" fill="#0C2188"></path><path d="M57,27H3a3,3,0,0,0,0,6H57a3,3,0,0,0,0-6Zm0,4H3a1,1,0,0,1,0-2H57a1,1,0,0,1,0,2Z" fill="#0C2188"></path></svg>