<svg xmlns:xlink="http://www.w3.org/1999/xlink" xmlns="http://www.w3.org/2000/svg" id="Layer_1" enable-background="new 0 0 512.002 512.002" height="512" viewBox="0 0 512.002 512.002" width="512"><g fill="#0C2188"><path d="m482.002 71.999h-56.001v-41.999c0-16.542-13.458-30-30-30h-280c-16.542 0-30 13.458-30 30v41.998h-56.001c-16.542 0-30 13.458-30 29.999v300.003c0 16.541 13.458 29.999 30 29.999h174.407l-16.078 60.003h-12.328c-13.254.492-13.244 19.512 0 20h160c13.254-.492 13.244-19.512 0-20h-12.328l-16.077-60.003h174.406c16.542 0 30-13.458 30-29.999v-300.002c0-16.541-13.458-29.999-30-29.999zm-366.001 188.001h111.704l14.155 14.156c7.426 7.741 20.859 7.742 28.283-.001l14.156-14.155h111.702c16.542 0 30-13.458 30-30v-98.002h26.001v240h-392.001v-240h26v98.002c0 16.542 13.458 30 30 30zm-10-230c0-5.514 4.486-10 10-10h280c5.514 0 10 4.486 10 10v200c0 5.514-4.486 10-10 10h-115.845c-2.652 0-5.195 1.054-7.071 2.929l-17.083 17.084-17.083-17.084c-1.875-1.875-4.419-2.929-7.071-2.929h-115.847c-5.514 0-10-4.486-10-10zm196.967 462.001h-93.934l16.078-60.003h61.779zm189.034-90.001c0 5.514-4.486 9.999-10 9.999h-452.002c-5.514 0-10-4.485-10-9.999v-300.002c0-5.514 4.486-9.999 10-9.999h56.001v20h-36c-5.522 0-10 4.478-10 10v260c0 5.522 4.478 10 10 10h412.001c5.522 0 10-4.478 10-10v-260c0-5.522-4.478-10-10-10h-36.001v-20h56.001c5.514 0 10 4.485 10 9.999z" fill="#0C2188"></path><path d="m116.001 304h98.75c13.254-.492 13.244-19.512 0-20h-98.75c-13.254.492-13.244 19.512 0 20z" fill="#0C2188"></path><path d="m116.001 347.999h98.75c13.254-.492 13.244-19.512 0-20h-98.75c-13.254.492-13.244 19.512 0 20z" fill="#0C2188"></path><path d="m297.251 304h98.75c13.254-.492 13.244-19.512 0-20h-98.75c-13.254.492-13.244 19.512 0 20z" fill="#0C2188"></path><path d="m297.251 347.999h98.75c13.254-.492 13.244-19.512 0-20h-98.75c-13.254.492-13.244 19.512 0 20z" fill="#0C2188"></path><path d="m296.001 180c5.522 0 10-4.478 10-10v-80c-.492-13.254-19.512-13.244-20 0v80c0 5.523 4.478 10 10 10z" fill="#0C2188"></path><path d="m166.001 180c4.626 0 9.01-1.053 12.927-2.931l.002.002c3.906 3.905 10.237 3.905 14.143 0 3.905-3.905 3.905-10.237 0-14.143l-.002-.002c1.878-3.917 2.931-8.301 2.931-12.927v-40c-1.513-39.754-58.501-39.724-60 0v40c-.001 16.543 13.457 30.001 29.999 30.001zm-10-70c.505-13.251 19.5-13.241 20 0v40c-2.559 0-5.118.976-7.071 2.928-1.953 1.953-2.929 4.512-2.929 7.071-5.514 0-10-4.486-10-10z" fill="#0C2188"></path><path d="m241 180c16.543 0 30.001-13.458 30.001-30v-60c-.492-13.254-19.512-13.244-20 0v60c-.505 13.251-19.5 13.242-20 0v-60c-.492-13.254-19.512-13.244-20 0v60c0 16.542 13.457 30 29.999 30z" fill="#0C2188"></path><path d="m331.001 100h19.71l-28.871 65.992c-1.354 3.092-1.055 6.657.792 9.481 1.848 2.824 4.994 4.526 8.369 4.526h35c13.254-.492 13.244-19.512 0-20h-19.71l28.871-65.992c1.354-3.092 1.055-6.657-.792-9.481-1.848-2.824-4.994-4.526-8.369-4.526h-35c-13.254.493-13.244 19.513 0 20z" fill="#0C2188"></path></g></svg>