<svg xmlns:xlink="http://www.w3.org/1999/xlink" xmlns="http://www.w3.org/2000/svg" id="Capa_1" enable-background="new 0 0 512 512" height="512" viewBox="0 0 512 512" width="512"><g fill="#0C2188"><path d="m480.452 76.153h-448.904c-17.396 0-31.548 14.153-31.548 31.549v296.597c0 17.396 14.152 31.548 31.548 31.548h296.597c4.142 0 7.5-3.358 7.5-7.5s-3.358-7.5-7.5-7.5h-296.597c-9.125 0-16.548-7.423-16.548-16.548v-296.597c0-9.125 7.423-16.548 16.548-16.548h448.903c9.125 0 16.548 7.423 16.548 16.548v296.597c0 9.125-7.423 16.548-16.548 16.548h-56.113c-4.142 0-7.5 3.358-7.5 7.5s3.358 7.5 7.5 7.5h56.113c17.396 0 31.548-14.152 31.548-31.548v-296.597c.001-17.396-14.151-31.549-31.547-31.549z" fill="#0C2188"></path><path d="m383.742 381.999v-89.191l42.711-18.57c5.755-2.502 9.33-7.954 9.33-14.229s-3.575-11.727-9.329-14.229l-154.678-67.251c-10.025-4.359-21.525-4.359-31.551 0l-154.678 67.25c-5.755 2.502-9.33 7.954-9.33 14.229s3.575 11.728 9.33 14.229l47.221 20.531c3.796 1.652 8.216-.089 9.868-3.888s-.089-8.217-3.888-9.868l-47.221-20.531c-.152-.066-.31-.135-.31-.474 0-.338.158-.407.31-.473l154.678-67.251c6.225-2.706 13.364-2.707 19.59 0l154.678 67.251c.152.066.31.135.31.473 0 .339-.158.407-.31.474l-68.795 29.911v-22.368c0-9.042-9.565-14.64-31.985-18.716-17.083-3.106-39.703-4.817-63.692-4.817s-46.609 1.71-63.692 4.817c-22.419 4.076-31.985 9.673-31.985 18.716v64.129c0 8.556 6.96 15.516 15.516 15.516h160.322c8.556 0 15.516-6.96 15.516-15.516v-25.405l17.064-7.419v82.669c-9.308 3.139-16.032 11.946-16.032 22.3v24.048c0 4.142 3.358 7.5 7.5 7.5h32.065c4.142 0 7.5-3.358 7.5-7.5v-24.048c-.001-10.353-6.725-19.16-16.033-22.299zm-127.742-122.507c47.447 0 74.803 6.409 80.677 10.329v30.784h-161.354v-30.784c5.874-3.92 33.23-10.329 80.677-10.329zm80.161 73.177h-160.322c-.285 0-.516-.231-.516-.516v-16.548h161.354v16.548c0 .285-.231.516-.516.516zm48.613 88.178h-17.065v-16.548c0-4.705 3.828-8.532 8.533-8.532s8.532 3.828 8.532 8.532z" fill="#0C2188"></path><path d="m103.177 147.782c0-17.396-14.152-31.548-31.548-31.548s-31.548 14.152-31.548 31.548 14.152 31.548 31.548 31.548 31.548-14.152 31.548-31.548zm-31.548 16.549c-9.125 0-16.548-7.423-16.548-16.548s7.423-16.548 16.548-16.548 16.548 7.423 16.548 16.548-7.423 16.548-16.548 16.548z" fill="#0C2188"></path><path d="m127.742 139.25h96.194c4.142 0 7.5-3.358 7.5-7.5s-3.358-7.5-7.5-7.5h-96.194c-4.142 0-7.5 3.358-7.5 7.5s3.358 7.5 7.5 7.5z" fill="#0C2188"></path><path d="m127.742 171.314h48.097c4.142 0 7.5-3.358 7.5-7.5s-3.358-7.5-7.5-7.5h-48.097c-4.142 0-7.5 3.358-7.5 7.5s3.358 7.5 7.5 7.5z" fill="#0C2188"></path></g></svg>