<svg xmlns:xlink="http://www.w3.org/1999/xlink" xmlns="http://www.w3.org/2000/svg" id="Capa_1" enable-background="new 0 0 505.561 505.561" height="512" viewBox="0 0 505.561 505.561" width="512"><g fill="#0C2188"><g fill="#0C2188"><path d="m502.248 84.132c-2.109-1.896-4.92-2.808-7.743-2.509l-35.465 3.765v-25.04c0-6.483-6.349-11.358-12.625-9.649l-79.775 21.706c-2.093-2.748-4.374-5.399-6.883-7.908-30.26-30.26-79.497-30.259-109.756 0-9.535 9.536-16.059 20.957-19.585 33.073l-83.15-22.623c-5.334-1.45-10.825 1.695-12.275 7.024s1.695 10.825 7.024 12.275l85.289 23.205c-.409 17.013 4.902 34.087 14.978 47.813v223.139l-176.76-45.873v-246.024c0-.014-.002-.028-.002-.042v-36.116c0-5.523-4.477-10-10-10s-10 4.477-10 10v25.013l-34.441-3.737c-5.827-.634-11.079 4.079-11.079 9.943v362.192c0 5.523 4.477 10 10 10h485.561c5.523 0 10-4.477 10-10v-362.192c0-2.836-1.205-5.539-3.313-7.435zm-436.726 279.063 176.758 45.871v31.862l-176.758-44.507zm196.758-178.916c21.072 13.896 48.47 16.526 71.837 7.018 6.473-2.634 12.576-6.163 18.104-10.437l13.216 13.216-7.381 7.381c-3.85 3.85-3.85 10.292 0 14.143l48.833 48.833c8.341 8.34 21.092 11.091 32.149 6.989v71.107l-176.758 45.873zm131.752 9.487 41.762 41.762c4.07 4.07 4.07 10.693 0 14.764-4.027 4.023-10.733 4.029-14.763 0l-41.763-41.762zm-131.752 247.163v-31.862l176.758-45.871v33.226zm176.76-367.496v23.042c0 .01-.001.021-.001.031v113.981l-37.936-37.935c-3.904-3.904-10.236-3.904-14.142 0l-7.382 7.382-13.208-13.208c16.935-21.888 20.869-50.925 10.523-76.384zm-174.897 5.206c27.06-27.061 73.918-19.812 91.755 13.97 10.056 19.197 8.554 42.917-4.506 60.762-10.836 14.736-28.206 23.614-46.513 23.614-30.446 0-56.079-24.627-57.519-54.962-.713-15.622 4.879-31.481 16.783-43.384zm-244.143 24.071 25.52 2.769.002 298.736c0 4.583 3.115 8.579 7.558 9.697l118.532 29.846h-151.612zm465.561 341.049h-152.613l118.532-29.846c4.443-1.119 7.558-5.115 7.558-9.697l.001-298.715 26.521-2.816v341.074z" fill="#0C2188"></path><path d="m95.543 141.832 107.681 28.464c.856.227 1.716.334 2.562.334 4.428 0 8.477-2.964 9.662-7.447 1.412-5.339-1.773-10.812-7.112-12.224l-107.681-28.464c-5.342-1.413-10.813 1.773-12.224 7.112-1.411 5.341 1.773 10.814 7.112 12.225z" fill="#0C2188"></path><path d="m95.543 198.761 107.681 28.465c.856.227 1.716.334 2.562.334 4.428 0 8.477-2.964 9.662-7.447 1.412-5.339-1.773-10.812-7.112-12.224l-107.681-28.465c-5.342-1.413-10.813 1.773-12.224 7.112-1.411 5.341 1.773 10.813 7.112 12.225z" fill="#0C2188"></path><path d="m95.543 255.69 107.681 28.464c.856.227 1.716.334 2.562.334 4.428 0 8.477-2.964 9.662-7.447 1.412-5.339-1.773-10.812-7.112-12.224l-107.681-28.464c-5.342-1.413-10.813 1.773-12.224 7.112-1.411 5.341 1.773 10.814 7.112 12.225z" fill="#0C2188"></path><path d="m95.543 312.619 58.566 15.481c.856.227 1.716.334 2.562.334 4.428 0 8.477-2.964 9.662-7.447 1.412-5.339-1.773-10.812-7.112-12.224l-58.566-15.481c-5.342-1.415-10.813 1.773-12.224 7.112-1.411 5.341 1.773 10.813 7.112 12.225z" fill="#0C2188"></path><path d="m298.273 284.489c.826 0 1.665-.103 2.502-.319l52.38-13.496c5.348-1.378 8.566-6.831 7.188-12.179s-6.83-8.569-12.179-7.188l-52.38 13.496c-5.348 1.378-8.566 6.831-7.188 12.179 1.163 4.511 5.224 7.507 9.677 7.507z" fill="#0C2188"></path><path d="m395.235 316.499c5.345-1.392 8.549-6.853 7.157-12.197-1.392-5.345-6.855-8.552-12.197-7.157l-94.435 24.594c-5.345 1.392-8.549 6.853-7.157 12.197 1.172 4.5 5.228 7.482 9.67 7.482.834 0 1.682-.105 2.527-.325z" fill="#0C2188"></path><path d="m96.27 81.262c7.549 5.03 17.611-2.268 15.186-10.984-1.142-4.103-4.879-7.107-9.139-7.319-4.271-.212-8.275 2.414-9.814 6.391-1.675 4.325-.074 9.326 3.767 11.912z" fill="#0C2188"></path><path d="m294.901 133.169v14.966c0 5.523 4.477 10 10 10h10.639c5.523 0 10-4.477 10-10s-4.477-10-10-10h-.639v-20.452c0-3.436-1.763-6.63-4.67-8.461-2.906-1.831-6.549-2.041-9.648-.558l-11.789 5.645c-4.981 2.385-7.086 8.356-4.701 13.338 1.991 4.158 6.482 6.308 10.808 5.522z" fill="#0C2188"></path><path d="m294.89 91.392c2.095 5.029 8.021 7.491 13.06 5.41 5.034-2.079 7.498-8.03 5.41-13.06-2.089-5.033-8.019-7.497-13.06-5.41-5.024 2.08-7.504 8.033-5.41 13.06z" fill="#0C2188"></path><path d="m215.01 327.872c-1.616-3.942-5.721-6.463-9.968-6.145-4.175.313-7.766 3.272-8.888 7.301-2.374 8.524 7.196 15.773 14.763 11.244 4.194-2.509 5.971-7.892 4.093-12.4z" fill="#0C2188"></path></g></g></svg>