<svg xmlns:xlink="http://www.w3.org/1999/xlink" xmlns="http://www.w3.org/2000/svg" height="512" viewBox="0 -27 512 512" width="512"><path d="m504.425781 84.652344h-28l-5.722656-3.816406c7.171875-26.484376 10.507813-54.09375 3.367187-75.640626-1.21875-3.6875-5.03125-5.855468-8.820312-5.015624-41.292969 9.09375-75.667969 37.234374-97.234375 59.238281-1.660156 1.691406-3.261719 3.371093-4.824219 5.035156h-70.261718c-12.816407 0-24.863282 4.992187-33.921876 14.054687l-3.007812 3.007813-3.011719-3.011719c-9.058593-9.058594-21.105469-14.050781-33.917969-14.050781h-150.90625c-1.492187 0-2.957031.445313-4.199218 1.273437l-28.386719 18.925782h-28.003906c-4.183594 0-7.574219 3.390625-7.574219 7.574218v347.390626c0 4.183593 3.390625 7.574218 7.574219 7.574218h225.703125v2.527344c0 4.183594 3.390625 7.574219 7.574218 7.574219h30.296876c4.183593 0 7.574218-3.390625 7.574218-7.574219v-2.527344h225.703125c4.183594 0 7.574219-3.390625 7.574219-7.574218v-347.394532c0-4.179687-3.390625-7.570312-7.574219-7.570312zm-433.121093 301.945312h142.878906c11.148437 0 21.632812 5.800782 27.664062 15.148438h-185.691406zm198.847656 15.148438c6.03125-9.347656 16.519531-15.148438 27.664062-15.148438h142.878906l15.148438 15.148438zm196.015625-305.730469.386719.261719v294.757812l-15.148438-15.148437v-241.550781c4.972656-11.296876 10.238281-24.441407 14.761719-38.320313zm-4.6875-79.273437c10.167969 50.136718-34.484375 134.285156-40.574219 145.441406l-32.207031 26.121094c-2.214844 1.796874-3.230469 4.679687-2.636719 7.464843.59375 2.785157 2.699219 5 5.449219 5.738281l9.429687 2.519532-33.65625 45.046875-43.21875 16.808593c19.800782-59.089843 52.800782-136.003906 105.457032-206.492187 2.503906-3.351563 1.816406-8.097656-1.535157-10.601563-3.347656-2.503906-8.097656-1.816406-10.597656 1.535157-51.625 69.105469-84.730469 144.160156-105.164063 203.351562l-15.863281-52.429687 21.929688-51.140625 6.902343 6.902343c2.015626 2.011719 4.988282 2.726563 7.695313 1.847657 2.707031-.878907 4.691406-3.203125 5.140625-6.015625l6.480469-40.824219c6.625-10.023437 53.042969-77.210937 116.96875-95.273437zm-168.550781 62.859374h56.925781c-11.902344 14.390626-18.597657 24.988282-18.992188 25.613282-.539062.863281-.902343 1.828125-1.0625 2.835937l-4.402343 27.738281-4.304688-4.304687c-1.777344-1.777344-4.316406-2.554687-6.789062-2.082031-2.464844.476562-4.535157 2.144531-5.527344 4.453125l-9.214844 21.488281h-10.742188c-4.183593 0-7.574218 3.390625-7.574218 7.574219 0 4.179687 3.390625 7.574219 7.574218 7.574219h4.25l-11.714843 27.320312c-.703125 1.640625-.804688 3.472656-.289063 5.179688l10.023438 33.140624h-2.269532c-4.183593 0-7.574218 3.390626-7.574218 7.574219 0 4.179688 3.390625 7.574219 7.574218 7.574219h6.851563l7.636719 25.246094h-14.488282c-4.183593 0-7.574218 3.390625-7.574218 7.574218 0 4.183594 3.390625 7.574219 7.574218 7.574219h11.257813c-2.6875 9.132813-5.007813 17.589844-6.992187 25.246094h-4.265626c-4.183593 0-7.574218 3.390625-7.574218 7.574219s3.390625 7.574218 7.574218 7.574218h10.152344.023438 111.007812c4.179688 0 7.570313-3.390624 7.570313-7.574218s-3.390625-7.574219-7.570313-7.574219h-101.257812c2.042968-7.703125 4.410156-16.15625 7.132812-25.246094h94.125c4.183594 0 7.574219-3.390625 7.574219-7.574219 0-4.183593-3.390625-7.574218-7.574219-7.574218h-71.507812l36.300781-14.121094c1.324219-.511719 2.472656-1.386719 3.324219-2.523438l6.425781-8.601562h25.457031c4.183594 0 7.574219-3.390625 7.574219-7.574219 0-4.183593-3.390625-7.574219-7.574219-7.574219h-14.140625l23.910157-31.996093c1.503906-2.015625 1.910156-4.644531 1.085937-7.015625-.820313-2.375-2.769531-4.1875-5.199219-4.835938l-5.878906-1.574218 21.8125-17.691407c.738281-.597656 1.355469-1.328125 1.824219-2.15625.28125-.5 1.300781-2.320312 2.84375-5.214843v205.804687h-138.445313c-13.035156 0-25.308594 5.253906-34.242187 14.371094v-290.460938l6.144531-6.144531c6.199219-6.203125 14.445312-9.617188 23.210938-9.617188zm-50.652344 9.613282 6.148437 6.148437v290.457031c-8.929687-9.117187-21.207031-14.367187-34.242187-14.367187h-138.445313v-291.851563h143.332031c8.765626 0 17.007813 3.414063 23.207032 9.613282zm-196.832032 7.0625 15.148438-10.097656v289.707031l-15.148438 15.148437zm-30.296874 3.519531h15.148437v309.523437c0 4.125 3.441406 7.574219 7.574219 7.574219h195.40625v15.148438h-218.128906zm248.425781 342.34375h-15.148438v-25.246094h15.148438zm233.277343-10.097656h-218.128906v-15.148438h195.40625c4.132813 0 7.574219-3.449219 7.574219-7.574219v-309.523437h15.148437zm0 0" fill="#0C2188"></path><path d="m122.699219 130.09375h79.777343c4.183594 0 7.574219-3.390625 7.574219-7.574219 0-4.183593-3.390625-7.574219-7.574219-7.574219h-79.777343c-4.183594 0-7.574219 3.390626-7.574219 7.574219 0 4.183594 3.390625 7.574219 7.574219 7.574219zm0 0" fill="#0C2188"></path><path d="m101.996094 170.488281h121.183594c4.183593 0 7.574218-3.390625 7.574218-7.574219 0-4.179687-3.390625-7.574218-7.574218-7.574218h-121.183594c-4.183594 0-7.574219 3.394531-7.574219 7.574218 0 4.183594 3.390625 7.574219 7.574219 7.574219zm0 0" fill="#0C2188"></path><path d="m101.996094 210.882812h121.183594c4.183593 0 7.574218-3.390624 7.574218-7.574218s-3.390625-7.574219-7.574218-7.574219h-121.183594c-4.183594 0-7.574219 3.390625-7.574219 7.574219s3.390625 7.574218 7.574219 7.574218zm0 0" fill="#0C2188"></path><path d="m101.996094 251.277344h121.183594c4.183593 0 7.574218-3.390625 7.574218-7.574219s-3.390625-7.574219-7.574218-7.574219h-121.183594c-4.183594 0-7.574219 3.390625-7.574219 7.574219s3.390625 7.574219 7.574219 7.574219zm0 0" fill="#0C2188"></path><path d="m101.996094 291.671875h121.183594c4.183593 0 7.574218-3.390625 7.574218-7.574219s-3.390625-7.574218-7.574218-7.574218h-121.183594c-4.183594 0-7.574219 3.390624-7.574219 7.574218s3.390625 7.574219 7.574219 7.574219zm0 0" fill="#0C2188"></path><path d="m223.179688 316.917969h-121.183594c-4.183594 0-7.574219 3.390625-7.574219 7.574219 0 4.183593 3.390625 7.574218 7.574219 7.574218h121.183594c4.183593 0 7.574218-3.390625 7.574218-7.574218 0-4.183594-3.390625-7.574219-7.574218-7.574219zm0 0" fill="#0C2188"></path></svg>