<svg xmlns:xlink="http://www.w3.org/1999/xlink" xmlns="http://www.w3.org/2000/svg" id="icons" height="512" viewBox="0 0 340 340" width="512"><path d="m189.5 24.65h-120.511c-.033 0-.064.009-.1.01s-.063-.007-.095-.006c-.3.015-29.945 1.83-29.945 35.688v104.7c-4.8 5.676-12.848 15.17-19.885 23.423a34.15 34.15 0 0 0 -7.939 18.2c-1.3 11.041-2.546 27.705-1.061 44.385a49.141 49.141 0 0 0 .813 5.462 133.423 133.423 0 0 0 7.323 23.788 18.389 18.389 0 0 1 1.38 7.1v23.95a4 4 0 0 0 4 4h74.643a4 4 0 0 0 4-4v-32.567a43.356 43.356 0 0 0 8.919-23.226 4 4 0 0 0 -7.98-.572 35.114 35.114 0 0 1 -7.862 19.615 4 4 0 0 0 -1.079 2.733v30.017h-66.64v-19.95a26.349 26.349 0 0 0 -1.993-10.175 125.178 125.178 0 0 1 -6.87-22.317 40.247 40.247 0 0 1 -.682-4.568c-1.426-16-.223-32.071 1.037-42.737a26.165 26.165 0 0 1 6.082-13.952c4.562-5.35 9.543-11.217 13.8-16.235v24.934a30.661 30.661 0 0 0 -9.33 20.123l-1.525 23.406a4 4 0 0 0 7.983.521l1.517-23.407a22.683 22.683 0 0 1 6.94-14.923 84.957 84.957 0 0 1 18.211-13.215 4.966 4.966 0 0 1 4.012-.318 4.667 4.667 0 0 1 2.808 2.6c3.337 7.915.424 16.34-8.656 25.043a4.023 4.023 0 0 0 .356 6.08c.618.474 15.059 11.955 8.123 40.332a4 4 0 0 0 2.936 4.836 4.057 4.057 0 0 0 .953.115 4 4 0 0 0 3.887-3.043c3.1-12.664 2.422-22.583.33-30.067h112.1a4 4 0 0 0 .971-7.881c-1.038-.268-10.149-2.942-10.149-13.981s9.111-13.712 10.122-13.973c.117-.029.225-.078.337-.116s.219-.065.322-.111a4.11 4.11 0 0 0 .429-.232c.074-.044.153-.079.224-.127a4 4 0 0 0 1.042-1.042c.051-.074.088-.157.134-.234a4.05 4.05 0 0 0 .225-.415c.041-.093.068-.193.1-.29a4.156 4.156 0 0 0 .132-.428c.023-.1.034-.2.05-.309a4.076 4.076 0 0 0 .046-.459c0-.042.012-.082.012-.124v-172.061a4 4 0 0 0 -3.997-4zm-95.464 172.058a4 4 0 0 0 0 8h82.764a21.436 21.436 0 0 0 -4.168 9.86h-16.079a4 4 0 0 0 0 8h16.078a21.454 21.454 0 0 0 4.168 9.862h-102.53a36.808 36.808 0 0 0 -5.028-7.43c11.579-12.742 10.642-23.764 7.605-30.968a12.739 12.739 0 0 0 -7.539-7.049 12.978 12.978 0 0 0 -10.482.847 96.574 96.574 0 0 0 -11.973 7.719v-135.207c0-19.263 11.657-25.149 18.137-26.933v138.121a4 4 0 0 0 8 0v-138.88h112.511v164.058z" fill="#0C2188"></path><path d="m259.543 178.853h-26.253a4 4 0 0 0 -4 4v82.172h-11.833a4 4 0 0 0 -3.292 6.271l28.959 41.974a4 4 0 0 0 6.584 0l28.959-41.97a4 4 0 0 0 -3.292-6.271h-11.832v-82.176a4 4 0 0 0 -4-4zm8.213 94.172-21.34 30.93-21.339-30.93h8.213a4 4 0 0 0 4-4v-82.172h18.253v82.172a4 4 0 0 0 4 4z" fill="#0C2188"></path><path d="m297.749 99.652a4 4 0 0 0 -3.292 1.729l-28.957 41.973a4 4 0 0 0 3.292 6.272h11.832v82.174a4 4 0 0 0 4 4h26.254a4 4 0 0 0 4-4v-82.174h11.832a4 4 0 0 0 3.29-6.272l-28.959-41.973a4 4 0 0 0 -3.292-1.729zm13.127 41.974a4 4 0 0 0 -4 4v82.174h-18.254v-82.174a4 4 0 0 0 -4-4h-8.212l21.339-30.93 21.34 30.93z" fill="#0C2188"></path><path d="m135.97 222.568h2.23a4 4 0 0 0 0-8h-2.23a4 4 0 0 0 0 8z" fill="#0C2188"></path><path d="m85.348 218.568a4 4 0 0 0 4 4h27.48a4 4 0 0 0 0-8h-27.48a4 4 0 0 0 -4 4z" fill="#0C2188"></path></svg>