<svg xmlns:xlink="http://www.w3.org/1999/xlink" xmlns="http://www.w3.org/2000/svg" id="Guide" height="512" viewBox="0 0 512 512" width="512"><path d="m338 88.612a149.875 149.875 0 0 0 -89.667 29.663 149.87 149.87 0 0 0 -89.666-29.663c-83.078 0-150.667 67.588-150.667 150.667s67.589 150.667 150.667 150.667a149.87 149.87 0 0 0 89.666-29.663 149.875 149.875 0 0 0 89.667 29.663c83.078 0 150.667-67.589 150.667-150.667s-67.589-150.667-150.667-150.667zm-179.333 289.334c-76.461 0-138.667-62.206-138.667-138.667s62.206-138.667 138.667-138.667a137.9 137.9 0 0 1 80.011 25.474 151.964 151.964 0 0 0 -20.958 22.562 108.21 108.21 0 1 0 0 181.262 151.964 151.964 0 0 0 20.958 22.562 137.9 137.9 0 0 1 -80.011 25.474zm138.666-138.667a138.405 138.405 0 0 1 -49 105.683 139.8 139.8 0 0 1 -20.945-22.156 108.083 108.083 0 0 0 0-167.054 139.848 139.848 0 0 1 20.945-22.152 138.405 138.405 0 0 1 49 105.679zm-98 0a137.831 137.831 0 0 1 21.206-73.613 96.075 96.075 0 0 1 0 147.227 137.835 137.835 0 0 1 -21.206-73.614zm11.538 80.778a96.21 96.21 0 1 1 0-161.556 150.376 150.376 0 0 0 0 161.556zm127.129 57.889a137.9 137.9 0 0 1 -80.012-25.474 150.443 150.443 0 0 0 0-226.386 137.9 137.9 0 0 1 80.012-25.474c76.461 0 138.667 62.206 138.667 138.667s-62.206 138.667-138.667 138.667z" fill="#0C2188"></path></svg>