<svg xmlns:xlink="http://www.w3.org/1999/xlink" xmlns="http://www.w3.org/2000/svg" id="Layer_1" enable-background="new 0 0 512 512" height="512" viewBox="0 0 512 512" width="512">
                        <g fill="#0C2188"><g fill="#0C2188"><path d="m486.5 55.5h-230v-25.588c0-14.012-11.393-25.412-25.396-25.412h-145.208c-14.003 0-25.396 11.399-25.396 25.412v25.588h-35c-14.061 0-25.5 11.439-25.5 25.5v49.171c.307 9.916 14.696 9.909 15 0v-49.171c0-5.79 4.71-10.5 10.5-10.5h35v14.99h-19c-6.341 0-11.5 5.159-11.5 11.5v250.41h-15v-181.507c-.307-9.916-14.696-9.909-15 0v223.017c0 14.055 11.439 25.49 25.5 25.49h144v48.108h-7.002c-12.405 0-22.498 10.093-22.498 22.498v10.91c0 6.387 5.197 11.584 11.584 11.584h208.832c6.388 0 11.584-5.197 11.584-11.584v-10.91c0-12.405-10.093-22.498-22.498-22.498h-7.002v-48.108h68.623c9.916-.307 9.909-14.696 0-15h-73.667c-.771-.267-1.595-.42-2.456-.42h-158c-.862 0-1.686.153-2.456.42h-149.044c-5.79 0-10.5-4.706-10.5-10.49v-26.51h58.566v3.261c.307 9.916 14.696 9.909 15 0v-3.261h14.232v3.261c.307 9.916 14.696 9.909 15 0v-3.261h14.232v3.261c.307 9.916 14.696 9.909 15 0v-3.261h349.97v26.51c0 5.784-4.71 10.49-10.5 10.49h-39.936c-9.916.307-9.909 14.696 0 15h39.936c14.061 0 25.5-11.435 25.5-25.49v-307.91c0-14.061-11.439-25.5-25.5-25.5zm-129.5 429.506v7.494h-202v-7.494c0-4.134 3.364-7.498 7.498-7.498h187.004c4.135 0 7.498 3.364 7.498 7.498zm-29.5-22.498h-143v-48.108h143zm-252-432.596c0-5.741 4.664-10.412 10.396-10.412h145.208c5.732 0 10.396 4.67 10.396 10.412v94.321c0 5.741-4.664 10.412-10.396 10.412h-56.195c-2.198 0-4.317.801-5.963 2.253l-20.812 18.34v-11.57c0-4.975-4.047-9.022-9.021-9.022h-53.217c-5.732 0-10.396-4.67-10.396-10.412zm-30.5 70.578h15.5v23.743c0 14.012 11.393 25.412 25.396 25.412h47.238v18.83c0 3.538 2.083 6.766 5.307 8.222 3.203 1.451 7.015.895 9.678-1.453l29.049-25.6h53.936c14.003 0 25.396-11.399 25.396-25.412v-23.742h210.5v246.91h-422zm437 246.91v-250.41c0-6.341-5.159-11.5-11.5-11.5h-214v-14.99h230c5.79 0 10.5 4.71 10.5 10.5v266.4z" fill="#0C2188"></path><path d="m430.104 134.757h-145.208c-14.004 0-25.396 11.399-25.396 25.412v94.321c0 14.012 11.393 25.412 25.396 25.412h53.935l29.05 25.6c2.662 2.348 6.474 2.904 9.677 1.453 3.225-1.457 5.309-4.684 5.309-8.223v-18.83h47.237c14.004 0 25.396-11.399 25.396-25.412v-94.321c0-14.013-11.393-25.412-25.396-25.412zm10.396 119.733c0 5.741-4.664 10.412-10.396 10.412h-53.217c-4.974 0-9.021 4.047-9.021 9.022v11.571l-20.81-18.338c-1.648-1.455-3.768-2.255-5.966-2.255h-56.194c-5.732 0-10.396-4.67-10.396-10.412v-94.321c0-5.741 4.664-10.412 10.396-10.412h145.207c5.732 0 10.396 4.67 10.396 10.412v94.321z" fill="#0C2188"></path><path d="m156.634 110.391h-.01c-9.914.309-9.9 14.698.01 15 9.913-.307 9.911-14.696 0-15z" fill="#0C2188"></path><path d="m135.927 70.18c5.304-.085 7.816-4.474 7.627-9.349.921-6.597 6.627-11.491 13.336-11.335 6.874.139 12.537 5.617 12.893 12.473.19 3.662-1.091 7.137-3.606 9.787-2.518 2.651-5.914 4.112-9.563 4.112-4.142 0-7.5 3.358-7.5 7.5v14.288c.307 9.916 14.696 9.909 15 0v-7.813c12.48-3.276 21.551-15.713 20.648-28.65-.762-14.673-12.872-26.398-27.571-26.694-14.309-.296-26.523 10.142-28.494 24.261-1.15 5.521.87 11.214 7.23 11.42z" fill="#0C2188"></path><path d="m391.341 182.595-39.97 37.197-19.088-25.627c-2.474-3.321-7.172-4.01-10.495-1.535-3.321 2.475-4.009 7.173-1.534 10.495l24.086 32.338c1.273 1.709 3.214 2.796 5.336 2.989 2.108.194 4.23-.525 5.788-1.979l46.096-42.897c3.032-2.822 3.203-7.567.381-10.6-2.822-3.032-7.568-3.204-10.6-.381z" fill="#0C2188"></path><path d="m192.411 216.757h-79.717c-9.916.307-9.909 14.696 0 15h79.717c9.916-.307 9.909-14.696 0-15z" fill="#0C2188"></path><path d="m192.411 248.5h-79.717c-9.916.307-9.909 14.696 0 15h79.717c9.916-.307 9.909-14.696 0-15z" fill="#0C2188"></path><path d="m170.514 280.243h-57.821c-9.916.307-9.909 14.696 0 15h57.821c9.916-.308 9.909-14.696 0-15z" fill="#0C2188"></path></g></g></svg>