<svg xmlns:xlink="http://www.w3.org/1999/xlink" xmlns="http://www.w3.org/2000/svg" id="Capa_1" enable-background="new 0 0 512 512" height="512" viewBox="0 0 512 512" width="512"><g fill="#0C2188"><path d="m502.925 335.135c-8.632-5.213-15.3-10.675-20.595-16.914 19.18-22.444 29.67-49.986 29.67-78.221 0-71.683-66.168-130-147.5-130-25.156 0-48.858 5.584-69.604 15.413-1.119-28.43-12.675-55.658-33.265-77.792-28.153-30.264-69.752-47.621-114.131-47.621-81.332 0-147.5 58.317-147.5 130 0 28.238 10.491 55.78 29.669 78.221-5.296 6.241-11.964 11.703-20.596 16.914-5.816 3.514-9.052 9.703-9.074 16.048-.011 3.327.866 6.696 2.708 9.746 3.691 6.11 10.736 9.776 18.187 8.956 18.667-2.107 36.009-8.13 51.615-17.916 6.947 3.621 14.198 6.722 21.689 9.281-7.722 7.267-14.556 15.367-20.303 24.199-2.259 3.472-1.275 8.117 2.196 10.376s8.117 1.277 10.377-2.196c7.342-11.284 16.695-21.234 27.533-29.586.083-.06.164-.122.244-.185 27.44-21.042 64.652-32.128 103.635-28.034-8.294 67.088 42.489 126.251 113.057 140.779-13.157 48.448-60.818 84.218-118.7 88.059-3.185.211-5.887 2.415-6.734 5.492l-8.889 32.286c-.724 2.686-3.171 4.561-5.952 4.561-2.884 0-5.353-1.962-6.004-4.772l-7.848-33.848c-.323-3.182-2.668-5.897-5.928-6.578-59.691-12.482-101.382-58.456-101.382-111.803 0-10.625 1.652-21.12 4.91-31.194 1.274-3.941-.887-8.169-4.829-9.443-3.943-1.275-8.169.887-9.444 4.828-3.74 11.567-5.637 23.615-5.637 35.809 0 29.573 11.56 58.512 32.549 81.484 19.441 21.278 46.279 36.76 75.994 43.926l7.003 30.205c2.236 9.648 10.714 16.385 20.617 16.385 9.548 0 17.952-6.439 20.424-15.618l7.488-27.196c30.619-3.043 59.798-14.656 82.668-32.993 22.277-17.861 37.909-41.524 44.571-67.231 12.742 1.426 25.601 1.368 38.069-.075 4.115-.477 7.064-4.198 6.588-8.313-.477-4.115-4.199-7.073-8.313-6.588-79.355 9.181-150.158-44.436-150.158-113.986 0-63.411 59.439-115 132.5-115s132.5 51.589 132.5 115c0 26.436-10.611 52.26-29.879 72.715-2.439 2.591-2.724 6.539-.679 9.452 7.033 10.019 16.162 18.22 28.728 25.807 1.146.693 1.831 1.909 1.831 3.253 0 2.238-1.968 4.005-4.213 3.752-17.771-2.006-34.161-8.037-48.712-17.928-2.349-1.596-5.401-1.729-7.879-.341-8.225 4.604-17.025 8.409-26.158 11.313-3.947 1.255-6.13 5.472-4.875 9.42 1.255 3.947 5.473 6.132 9.42 4.875 8.623-2.741 16.983-6.214 24.913-10.345 21.676 13.591 45.804 18.027 53.694 18.027 10.16 0 18.809-8.226 18.809-18.773 0-6.544-3.476-12.709-9.075-16.092zm-223.005-201.577c-29.414 18.21-50.973 45.635-59.226 77.48-42.133-4.738-82.355 6.73-112.643 28.753-11.368-3.077-22.22-7.471-32.292-13.116-2.757-1.545-6.079-1.155-8.4.757-14.409 9.663-30.604 15.566-48.133 17.545-1.473.158-2.917-.545-3.679-1.805-1.079-1.787-.503-4.119 1.282-5.197 12.275-7.412 21.271-15.41 28.239-25.12 2.563-2.898 2.502-7.284-.162-10.111-19.285-20.458-29.906-46.292-29.906-72.744 0-63.411 59.44-115 132.5-115 40.227 0 77.823 15.613 103.148 42.837 19.934 21.428 30.24 48.186 29.272 75.721z" fill="#0C2188"></path><path d="m179.771 397.377.149-.399h25.062l.149.397c4.308 11.494 17.256 17.565 28.97 13.164 11.636-4.367 17.523-17.318 13.157-28.962l-33.745-89.992c-7.264-19.36-34.847-19.42-42.129.001l-33.745 89.989c-4.368 11.642 1.517 24.601 13.169 28.968 11.617 4.344 24.607-1.561 28.963-13.166zm-28.087-10.533 33.745-89.99c2.418-6.45 11.613-6.471 14.04-.001l33.744 89.99c1.456 3.883-.507 8.2-4.383 9.653-.002 0-.004.001-.007.002-3.919 1.474-8.219-.581-9.647-4.391l-1.977-5.266c-1.098-2.926-3.896-4.864-7.021-4.864h-35.455c-3.126 0-5.925 1.939-7.022 4.866l-1.974 5.264c-1.452 3.869-5.785 5.837-9.658 4.389-3.877-1.455-5.842-5.77-4.385-9.652z" fill="#0C2188"></path><path d="m185.968 366.982h12.957c4.142 0 7.5-3.357 7.5-7.5s-3.358-7.5-7.5-7.5h-2.135l2.68-7.146c1.455-3.879-.511-8.202-4.389-9.656-3.879-1.453-8.202.511-9.656 4.389l-6.479 17.279c-.864 2.304-.543 4.884.858 6.906 1.401 2.021 3.704 3.228 6.164 3.228z" fill="#0C2188"></path><path d="m361.998 202.504c-20.676 0-37.496 16.82-37.496 37.496 0 24.331 23.099 42.639 47.172 36.194 5.575-1.491 7.439-8.472 3.366-12.547l-3.346-3.348c-2.923-2.923-2.922-7.68 0-10.604 2.924-2.922 7.681-2.922 10.603-.002l3.344 3.346c4.069 4.073 11.053 2.217 12.549-3.359 6.434-23.999-11.788-47.176-36.192-47.176zm-6.526 59.027c-9.231-2.805-15.97-11.396-15.97-21.531 0-12.404 10.092-22.496 22.496-22.496 10.136 0 18.728 6.738 21.53 15.971-17.235-5.191-33.242 10.859-28.056 28.056z" fill="#0C2188"></path><path d="m422.902 300.903c8.791-8.791 8.796-23.021-.001-31.82l-.012-.011c4.334-9.052 6.604-18.992 6.604-29.072 0-37.216-30.277-67.492-67.493-67.492s-67.493 30.276-67.493 67.492 30.277 67.492 67.493 67.492c10.08 0 20.021-2.27 29.073-6.603l.011.011c8.785 8.795 23.029 8.797 31.818.003zm-25.151-14.546c-2.425-2.423-6.182-2.889-9.119-1.15-8.06 4.767-17.269 7.286-26.632 7.286-28.944 0-52.493-23.548-52.493-52.492s23.549-52.492 52.493-52.492c28.945 0 52.493 23.548 52.493 52.492 0 9.364-2.521 18.573-7.289 26.632-1.744 2.948-1.27 6.703 1.153 9.125l3.938 3.935c2.929 2.931 2.932 7.673.001 10.604-.001.001-.002.001-.002.002-2.918 2.92-7.665 2.938-10.604-.004z" fill="#0C2188"></path><path d="m170.077 62.508h-45.575c-12.404 0-22.496 10.092-22.496 22.496v89.99c0 12.14 9.808 22.498 22.477 22.498 12.588 0 22.519-10.319 22.519-22.923v-22.071h11.497c12.404 0 22.496-10.094 22.496-22.5 0-4.143-3.358-7.5-7.5-7.5s-7.5 3.357-7.5 7.5c0 4.136-3.363 7.5-7.496 7.5h-18.997c-4.142 0-7.5 3.357-7.5 7.5v29.571c0 4.178-3.196 7.729-7.125 7.914-4.383.191-7.871-3.264-7.871-7.489v-89.99c0-4.134 3.363-7.496 7.496-7.496h45.575c4.178 0 7.726 3.198 7.909 7.128.202 4.373-3.272 7.868-7.489 7.868h-23.496c-8.271 0-14.999 6.729-14.999 14.999s6.729 14.999 14.999 14.999h.776c4.142 0 7.5-3.357 7.5-7.5 0-4.084-3.265-7.406-7.327-7.498h22.546c12.565 0 23.082-10.446 22.472-23.564-.557-12.018-10.612-21.432-22.891-21.432z" fill="#0C2188"></path></g></svg>