<svg xmlns:xlink="http://www.w3.org/1999/xlink" xmlns="http://www.w3.org/2000/svg" id="Capa_1" enable-background="new 0 0 512 512" height="512" viewBox="0 0 512 512" width="512"><g fill="#0C2188"><path d="m322.928 166c5.123-8.833 8.072-19.075 8.072-30 0-33.084-26.916-60-60-60-18.608 0-33.895 8.17-45.436 24.284-8.821 12.317-14.157 27.402-18.864 40.71-2.789 7.885-7.297 20.626-10.701 24.435-3.402-3.809-7.911-16.55-10.7-24.436-4.708-13.309-10.044-28.394-18.865-40.71-11.539-16.113-26.826-24.283-45.434-24.283-33.084 0-60 26.916-60 60 0 10.925 2.949 21.167 8.072 30h-69.072v270h512v-270zm-87.946-15.001c9.616-27.182 17.317-44.999 36.018-44.999 16.542 0 30 13.458 30 30s-13.458 30-30 30h-41.628c2.043-4.925 3.856-10.04 5.61-15.001zm-143.982-14.999c0-16.542 13.458-30 30-30 18.701 0 26.402 17.817 36.017 44.998 1.755 4.961 3.568 10.077 5.611 15.002h-41.628c-16.542 0-30-13.458-30-30zm-61 60h154.972l65.625 210h-220.597zm452 210h-199.972l-65.625-210h265.597z" fill="#0C2188"></path><path d="m301 255.999h150v30h-150z" fill="#0C2188"></path><path d="m301 315.999h150v30h-150z" fill="#0C2188"></path><path d="m75.999 240.999h30v30h-30z" fill="#0C2188"></path><path d="m135.999 330.999h30v30h-30z" fill="#0C2188"></path><path d="m57.359 285.999h127.279v30h-127.279z" transform="matrix(.707 -.707 .707 .707 -177.398 173.72)" fill="#0C2188"></path></g></svg>