<svg xmlns="http://www.w3.org/2000/svg" xmlns:xlink="http://www.w3.org/1999/xlink" version="1.1" id="Capa_1" x="0px" y="0px" viewBox="0 0 512 512" class="page_speed_883150925" xml:space="preserve" width="512"  height="512" >
                                <g fill="#0C2188"><g fill="#0C2188"><path d="M256,94.512c-13.809,0-27.135,4.072-38.536,11.775c-3.423,2.312-4.322,6.96-2.011,10.382    c2.311,3.423,6.959,4.321,10.382,2.011c8.921-6.027,19.351-9.212,30.165-9.212c29.754,0,53.959,24.206,53.959,53.96    c0,29.754-24.205,53.96-53.959,53.96c-29.754,0-53.959-24.206-53.959-53.96c0-8.806,2.166-17.54,6.261-25.256    c1.935-3.648,0.548-8.175-3.099-10.112c-3.651-1.935-8.175-0.548-10.112,3.099c-5.237,9.868-8.006,21.027-8.006,32.269    c0,38.001,30.916,68.916,68.915,68.916s68.915-30.916,68.915-68.916C324.915,125.427,294,94.512,256,94.512z" fill="#0C2188"></path></g></g><g fill="#0C2188"><g fill="#0C2188"><path d="M511.426,499.737L454.721,363.49c-0.012-0.028-0.023-0.057-0.035-0.085l-17.064-40.999    c-1.16-2.788-3.884-4.604-6.904-4.604h-73.547c14.306-19.352,26.212-38.629,35.511-57.556    c16.479-33.542,24.835-66.116,24.835-96.819c0-89.061-72.456-161.517-161.516-161.517S94.484,74.366,94.484,163.428    c0,30.703,8.355,63.278,24.835,96.819c9.299,18.927,21.205,38.203,35.511,57.556H81.282c-3.02,0-5.744,1.817-6.904,4.604    l-31.35,75.326c-1.587,3.813,0.217,8.191,4.03,9.777c3.812,1.588,8.19-0.217,9.777-4.03l6.718-16.141    c7.518-0.146,22.227-1.101,39.507-5.732c28.301-7.587,51.821-22.059,68.79-42.112c0.468,0.563,0.926,1.128,1.398,1.691    c5.486,6.552,10.956,12.757,16.315,18.609c-34.031,11.767-54.3,31.93-54.3,54.152c0,8.467,2.903,16.505,8.217,23.851    c-23.083,14.205-48.307,20.357-75.119,18.29c-13.492-1.041-24.336-4.039-30.816-6.253l7.785-18.706    c1.587-3.813-0.217-8.191-4.03-9.777c-3.815-1.59-8.191,0.216-9.777,4.03L0.575,499.737c-0.961,2.307-0.705,4.943,0.683,7.022    c1.387,2.08,3.721,3.329,6.221,3.329h294.878c0.007,0,0.014,0.001,0.021,0.001c0.006,0,0.012-0.001,0.019-0.001h202.126    c2.5,0,4.835-1.249,6.221-3.329C512.131,504.681,512.386,502.046,511.426,499.737z M425.73,332.758l11.105,26.682    c-32.459,3.267-57.441,20.289-68.997,29.694c-9.165-12.145-24.973-22.363-45.348-29.397c5.342-5.835,10.795-12.021,16.263-18.552    c2.352-2.809,4.641-5.618,6.895-8.427H425.73z M99.643,367.039c-11.748,3.189-22.309,4.501-29.732,5.027l16.36-39.308h71.672    C143.263,348.989,123.724,360.501,99.643,367.039z M184.715,331.586c-62.217-74.307-75.275-132.46-75.275-168.158    c0-80.815,65.747-146.562,146.561-146.562s146.561,65.747,146.561,146.562c0,35.65-13.026,93.722-75.083,167.926    c-29.932,35.792-60.222,61.929-71.48,71.215C244.773,393.315,214.627,367.31,184.715,331.586z M311.03,413.946    c0,6.108-19.424,17.997-55.031,17.997s-55.031-11.889-55.031-17.997c0-4.291,9.597-11.429,27.644-15.3    c13.196,11.962,22.058,18.862,22.813,19.446c1.348,1.043,2.962,1.563,4.576,1.563c1.614,0,3.229-0.521,4.576-1.563    c0.755-0.584,9.616-7.485,22.814-19.445C301.434,402.518,311.03,409.655,311.03,413.946z M377.749,495.134L377.749,495.134    c11.505-3.668,22.341-7.887,32.433-12.675c3.731-1.77,5.321-6.231,3.551-9.962c-1.771-3.731-6.231-5.321-9.962-3.552    c-28.091,13.328-62.339,22.135-101.791,26.188H18.69l13.091-31.455c7.232,2.544,19.414,6.011,34.759,7.267    c3.537,0.289,7.351,0.465,11.405,0.465c20.919,0,48.176-4.681,75.977-22.523c21.226,17.931,58.63,29.606,102.074,29.606    c4.13,0,7.478-3.347,7.478-7.478c0-4.13-3.348-7.478-7.478-7.478c-29.106,0-56.353-5.652-76.72-15.915    c-18.468-9.306-29.06-21.581-29.06-33.676c0-15.579,17.488-31.099,45.639-40.505c1.616-0.54,2.918-1.583,3.807-2.891    c5.611,5.825,11.005,11.191,16.06,16.056c-2.351,0.736-4.613,1.531-6.75,2.403c-14.809,6.036-22.964,14.892-22.964,24.939    c0,10.046,8.156,18.903,22.964,24.938c12.681,5.169,29.382,8.014,47.023,8.014c17.641,0,34.341-2.846,47.023-8.014    c14.808-6.035,22.964-14.892,22.964-24.938c0-10.046-8.156-18.903-22.964-24.939c-2.135-0.87-4.396-1.666-6.745-2.401    c4.676-4.501,9.64-9.423,14.8-14.748c23.945,7.049,41.694,18.438,48.093,31.435c0.121,0.313,0.261,0.62,0.426,0.917    c1.422,3.169,2.184,6.426,2.184,9.736c0,17.197-21.169,34.082-53.932,43.014c-3.984,1.087-6.334,5.198-5.249,9.182    c0.907,3.326,3.921,5.513,7.21,5.513c0.651,0,1.313-0.086,1.972-0.265c40.065-10.924,64.953-32.935,64.953-57.443    c0-3.851-0.597-7.617-1.747-11.272c9.044-7.738,34.69-26.954,67.896-28.707l19.869,47.741    c-3.475,5.569-13.26,19.011-33.792,32.943c-3.418,2.318-4.308,6.968-1.989,10.386c1.446,2.132,3.8,3.28,6.195,3.28    c1.445,0,2.905-0.419,4.192-1.291c15.772-10.701,25.948-21.253,32.159-29.066l23.796,57.174H377.749z" fill="#0C2188"></path></g>
                            </g></svg>