<svg xmlns:xlink="http://www.w3.org/1999/xlink" xmlns="http://www.w3.org/2000/svg" id="Layer_1" height="512" viewBox="0 0 64 64" width="512" data-name="Layer 1"><path d="m58.61768 46.94141 4.7998-4.522a.99993.99993 0 0 0 -.68555-1.728h-10.292v-4.77a.99965.99965 0 0 0 -.76025-.97071 82.36881 82.36881 0 0 0 -39.35938 0 .99965.99965 0 0 0 -.76025.97071v4.77h-10.29198a.99993.99993 0 0 0 -.68555 1.728l4.7998 4.522-4.73193 3.71484a1 1 0 0 0 .61768 1.78662h11.292a1.00005 1.00005 0 0 0 1-1v-3.18616a80.38943 80.38943 0 0 1 36.87988 0v3.18616a1.00005 1.00005 0 0 0 1 1h11.292a1 1 0 0 0 .61768-1.78662zm-47.05762 3.50146h-7.39893l3.37061-2.646a1.00015 1.00015 0 0 0 .06787-1.51465l-3.81152-3.59081h7.772v7.75146zm2-4.248v-9.48637a80.40422 80.40422 0 0 1 36.87988 0v9.48632a82.4172 82.4172 0 0 0 -36.87988 0zm38.87988 4.248v-7.75146h7.772l-3.81152 3.59082a1.00015 1.00015 0 0 0 .06787 1.51465l3.37061 2.646z" fill="#0C2188"></path><path d="m42.11426 18.90527a1 1 0 0 0 -.95117-.69091h-6.27344l-1.93848-5.96636a1.00018 1.00018 0 0 0 -1.90234 0l-1.93848 5.96631h-6.27344a1 1 0 0 0 -.58789 1.80908l5.0752 3.6875-1.93848 5.96631a1.00012 1.00012 0 0 0 1.53906 1.11816l5.0752-3.68745 5.0752 3.6875a1.00012 1.00012 0 0 0 1.53906-1.11816l-1.93848-5.96631 5.0752-3.6875a1.00027 1.00027 0 0 0 .36328-1.11817zm-7.20215 3.61473a1.00023 1.00023 0 0 0 -.36328 1.11816l1.2124 3.73-3.17334-2.30516a1.00059 1.00059 0 0 0 -1.17578 0l-3.17334 2.30517 1.2124-3.73a1.00023 1.00023 0 0 0 -.36328-1.11817l-3.17334-2.30566h3.92236a1 1 0 0 0 .95118-.69092l1.21191-3.73042 1.21191 3.73047a1 1 0 0 0 .95118.69092h3.92236z" fill="#0C2188"></path><path d="m53.20215 24.97266a1 1 0 0 0 -.95117-.69092h-3.40235l-1.05127-3.23584a1.00018 1.00018 0 0 0 -1.90234 0l-1.05127 3.23584h-3.40234a1 1 0 0 0 -.58789 1.80908l2.75244 2-1.05127 3.23584a1.00012 1.00012 0 0 0 1.53906 1.11816l2.75244-2 2.75244 2a1.00013 1.00013 0 0 0 1.53907-1.11816l-1.05127-3.23584 2.75244-2a1.00025 1.00025 0 0 0 .36328-1.11816zm-4.8794 1.92724a1.00027 1.00027 0 0 0 -.36328 1.11817l.32471.99951-.8501-.61817a1.00063 1.00063 0 0 0 -1.17578 0l-.8501.61817.32471-.99951a1.00027 1.00027 0 0 0 -.36328-1.11817l-.85108-.61816h1.05176a1 1 0 0 0 .95117-.69092l.32471-1 .32471 1a1 1 0 0 0 .95117.69092h1.05176z" fill="#0C2188"></path><path d="m23.78809 24.97266a1 1 0 0 0 -.95118-.69092h-3.40234l-1.05127-3.23584a1.00018 1.00018 0 0 0 -1.90234 0l-1.05127 3.23584h-3.40235a1 1 0 0 0 -.58789 1.80908l2.75244 2-1.05127 3.23584a1.00013 1.00013 0 0 0 1.53907 1.11816l2.75244-2 2.75244 2a1.00012 1.00012 0 0 0 1.53906-1.11816l-1.05127-3.23584 2.75244-2a1.00024 1.00024 0 0 0 .36329-1.11816zm-4.8794 1.92724a1.00027 1.00027 0 0 0 -.36328 1.11817l.32471.99951-.8501-.61817a1.00063 1.00063 0 0 0 -1.17578 0l-.8501.61817.32471-.99951a1.00027 1.00027 0 0 0 -.36328-1.11817l-.85108-.61816h1.05176a1 1 0 0 0 .95117-.69092l.32471-1 .32471 1a1 1 0 0 0 .95117.69092h1.05176z" fill="#0C2188"></path></svg>