<svg xmlns:xlink="http://www.w3.org/1999/xlink" xmlns="http://www.w3.org/2000/svg" viewBox="0 0 512 512" width="512" height="512"><path d="M456.5,63.5H402.749a7.5,7.5,0,0,0,0,15H456.5A22.526,22.526,0,0,1,479,101V270a7.5,7.5,0,0,0,15,0V101A37.542,37.542,0,0,0,456.5,63.5Z" fill="#0C2188"></path><path d="M235.5,153.5A7.5,7.5,0,0,0,228,161v90a7.5,7.5,0,0,0,15,0V161A7.5,7.5,0,0,0,235.5,153.5Z" fill="#0C2188"></path><path d="M486.5,285.75a7.5,7.5,0,0,0-7.5,7.5V353.5H454V121a17.521,17.521,0,0,0-17.5-17.5H392.1l-10.6-60.131a17.521,17.521,0,0,0-20.273-14.2l-29.544,5.209A17.521,17.521,0,0,0,317.48,54.655l1.56,8.845H273V61a17.521,17.521,0,0,0-17.5-17.5h-40a17.468,17.468,0,0,0-2.5.2V35.5A17.521,17.521,0,0,0,195.5,18h-70A17.521,17.521,0,0,0,108,35.5v28H55.5A37.542,37.542,0,0,0,18,101V371a37.542,37.542,0,0,0,37.5,37.5H196.4l-6.75,40.5H176a17.521,17.521,0,0,0-17.5,17.5v10A17.521,17.521,0,0,0,176,494H336a17.521,17.521,0,0,0,17.5-17.5v-10A17.521,17.521,0,0,0,336,449H322.354l-6.75-40.5H456.5A37.542,37.542,0,0,0,494,371V293.25A7.5,7.5,0,0,0,486.5,285.75Zm-50-167.25A2.5,2.5,0,0,1,439,121V353.5h-6.272a17.377,17.377,0,0,0,1.553-10.75L394.74,118.5ZM417.482,348.251l-29.545,5.209a2.5,2.5,0,0,1-2.9-2.027l-8.682-49.241,34.468-6.077,8.683,49.239A2.5,2.5,0,0,1,417.482,348.251ZM378.008,109.986l30.215,171.356-34.469,6.078L343.539,116.063ZM370.175,353.5H343V199.384ZM334.28,49.155l29.543-5.21a2.5,2.5,0,0,1,2.9,2.028l8.682,49.24-34.469,6.078-8.682-49.24A2.5,2.5,0,0,1,334.28,49.155ZM273,107a2.5,2.5,0,0,1,2.5-2.5h34a7.5,7.5,0,0,0,0-15h-34a17.468,17.468,0,0,0-2.5.2V78.5h48.685L328,114.314V137H273Zm0,45h55v15H273Zm0,30h55v94H273Zm0,109h55v15H273Zm0,30h55v32.5H273ZM213,61a2.5,2.5,0,0,1,2.5-2.5h40A2.5,2.5,0,0,1,258,61V353.5H213ZM123,35.5a2.5,2.5,0,0,1,2.5-2.5h70a2.5,2.5,0,0,1,2.5,2.5v50H123Zm0,65h75v15H123Zm0,30h75V256H123ZM123,271h75v15H123ZM336,464a2.5,2.5,0,0,1,2.5,2.5v10A2.5,2.5,0,0,1,336,479H176a2.5,2.5,0,0,1-2.5-2.5v-10A2.5,2.5,0,0,1,176,464h45.158a7.5,7.5,0,1,0,0-15h-16.3l6.75-40.5H300.4l6.75,40.5H245.211a7.5,7.5,0,0,0,0,15Zm143-93a22.526,22.526,0,0,1-22.5,22.5H55.5A22.526,22.526,0,0,1,33,371V101A22.526,22.526,0,0,1,55.5,78.5H108v275H73V121a2.5,2.5,0,0,1,2.5-2.5h17a7.5,7.5,0,0,0,0-15h-17A17.521,17.521,0,0,0,58,121V361a7.5,7.5,0,0,0,7.5,7.5h92.772a7.5,7.5,0,0,0,0-15H123V301h75v52.5H181.683a7.5,7.5,0,0,0,0,15H479Z" fill="#0C2188"></path></svg>