<svg xmlns:xlink="http://www.w3.org/1999/xlink" xmlns="http://www.w3.org/2000/svg" id="Layer_1" enable-background="new 0 0 512 512" height="512" viewBox="0 0 512 512" width="512"><g id="_x30_8_Network" fill="#0C2188"><g fill="#0C2188"><path d="m255.981 306.21c27.701 0 50.238-22.519 50.238-50.198 0-27.701-22.537-50.238-50.238-50.238-27.68 0-50.198 22.537-50.198 50.238-.002 27.679 22.517 50.198 50.198 50.198zm0-89.77c21.821 0 39.571 17.75 39.571 39.571 0 21.798-17.75 39.532-39.571 39.532-21.798 0-39.532-17.734-39.532-39.532 0-21.822 17.734-39.571 39.532-39.571z" fill="#0C2188"></path><path d="m52.23 308.217c26.822 0 49.167-20.322 51.899-46.878h67.994c-1.756 6.625-6.652 12.129-13.346 14.441-5.641 1.943-8.706 7.758-6.977 13.237 1.901 6.013 4.336 11.885 7.237 17.454 2.659 5.109 8.893 7.052 14.188 4.427 6.387-3.164 13.755-2.778 19.69.652l-48.077 48.077c-8.989-7.332-20.446-11.743-32.919-11.743-28.8 0-52.233 23.43-52.233 52.23 0 27.383 22.07 52.201 52.233 52.201 29.089 0 52.199-23.688 52.199-52.201 0-12.484-4.411-23.949-11.74-32.944l48.079-48.079c3.43 5.935 3.815 13.304.651 19.69-2.622 5.294-.679 11.526 4.427 14.188 5.565 2.902 11.441 5.336 17.454 7.234 5.469 1.732 11.292-1.325 13.24-6.971 2.309-6.695 7.813-11.591 14.438-13.348v67.958c-26.296 2.688-46.882 24.966-46.882 51.959 0 27.438 22.127 52.199 52.233 52.199 28.928 0 52.199-23.563 52.199-52.199 0-27.004-20.589-49.289-46.884-51.964v-67.955c6.626 1.756 12.13 6.653 14.441 13.352 1.953 5.645 7.757 8.697 13.24 6.971 6.018-1.901 11.89-4.339 17.454-7.24 5.109-2.662 7.055-8.893 4.43-14.185-3.164-6.388-2.778-13.757.652-19.691l48.096 48.051c-7.346 8.999-11.766 20.474-11.766 32.969 0 27.449 22.133 52.199 52.23 52.199 29.075 0 52.201-23.655 52.201-52.199 0-28.797-23.417-52.23-52.199-52.233-12.471 0-23.927 4.407-32.919 11.728l-48.103-48.054c5.935-3.427 13.305-3.809 19.685-.652 5.289 2.632 11.531.682 14.188-4.427 2.902-5.565 5.334-11.438 7.234-17.451 1.735-5.477-1.328-11.292-6.971-13.242-6.695-2.309-11.591-7.813-13.346-14.438h67.994c2.676 25.854 24.424 46.878 51.925 46.878 29.011 0 52.201-23.604 52.201-52.199 0-28.8-23.417-52.233-52.201-52.233-26.996 0-49.273 20.587-51.958 46.887h-67.96c1.756-6.626 6.651-12.131 13.349-14.441 5.641-1.951 8.704-7.766 6.971-13.24-1.903-6.015-4.336-11.888-7.237-17.454-2.662-5.112-8.899-7.062-14.188-4.427-6.388 3.158-13.754 2.776-19.686-.651l48.116-48.072c9.17 7.517 20.694 11.73 32.905 11.73 29.02 0 52.204-23.606 52.204-52.201 0-28.8-23.417-52.23-52.201-52.23-28.8 0-52.233 23.431-52.233 52.23 0 11.932 4.144 23.586 11.664 32.811.021.028.045.057.068.083.013.015.028.03.042.047l-48.107 48.063c-3.432-5.934-3.818-13.303-.654-19.692 2.625-5.297.679-11.529-4.427-14.188-5.565-2.902-11.438-5.334-17.451-7.234-5.466-1.732-11.292 1.325-13.242 6.971-2.309 6.696-7.815 11.593-14.441 13.349v-67.989c26.523-2.689 46.884-25.116 46.884-51.906 0-28.8-23.417-52.23-52.199-52.23-28.8 0-52.233 23.431-52.233 52.23 0 25.982 19.676 49.151 46.882 51.905v67.989c-6.625-1.757-12.128-6.654-14.438-13.35-1.951-5.641-7.76-8.692-13.237-6.971-6.015 1.901-11.89 4.336-17.456 7.237-5.106 2.659-7.052 8.89-4.427 14.188 3.164 6.387 2.779 13.757-.65 19.691l-48.036-48.036c.007-.008.015-.016.022-.024.028-.031.055-.063.08-.096 7.523-9.227 11.662-20.899 11.657-32.87-.01-28.792-23.443-52.214-52.236-52.214-.003 0-.005 0-.005 0-28.876.005-52.244 23.342-52.233 52.233.012 27.439 22.158 52.183 52.264 52.183h.008c12.143-.002 23.652-4.209 32.858-11.71l48.078 48.078c-5.935 3.429-13.303 3.818-19.69.651-5.286-2.625-11.529-.677-14.188 4.427-2.902 5.565-5.334 11.438-7.237 17.456-1.73 5.474 1.333 11.289 6.974 13.237 6.696 2.309 11.593 7.814 13.349 14.441h-67.964c-2.685-26.299-24.949-46.887-51.927-46.887-28.8 0-52.233 23.43-52.233 52.23-.001 27.487 22.176 52.197 52.23 52.197zm59.688 133.429c-11.51 0-22.243-4.691-29.984-12.904 3.361-6.417 8.752-11.61 15.329-14.774 4.046 3.204 9.09 5.199 14.64 5.199 5.547 0 10.59-1.994 14.634-5.196 6.574 3.155 11.973 8.352 15.347 14.788-7.809 8.201-18.536 12.887-29.966 12.887zm-13.076-46.206c0-7.201 5.86-13.057 13.06-13.057s13.057 5.857 13.057 13.057-5.857 13.06-13.057 13.06-13.06-5.859-13.06-13.06zm54.608 4.672c0 6.799-1.701 13.457-4.758 19.297-3.94-5.773-9.234-10.522-15.387-13.905 1.448-3.066 2.323-6.453 2.323-10.064 0-13.081-10.643-23.724-23.724-23.724-13.084 0-23.727 10.643-23.727 23.724 0 3.609.872 6.995 2.321 10.061-6.137 3.378-11.413 8.109-15.342 13.85-3.118-5.879-4.802-12.392-4.802-19.239 0-22.917 18.646-41.563 41.566-41.563 22.899 0 41.53 18.646 41.53 41.563zm246.658 41.529c-11.519 0-22.258-4.699-30.001-12.924 3.366-6.415 8.771-11.593 15.352-14.751 4.045 3.202 9.089 5.196 14.637 5.196 5.547 0 10.591-1.994 14.635-5.197 6.603 3.172 11.998 8.371 15.336 14.798-7.804 8.196-18.529 12.878-29.959 12.878zm-13.073-46.204c0-7.201 5.86-13.06 13.06-13.06s13.057 5.86 13.057 13.06c0 7.201-5.857 13.057-13.057 13.057-7.201 0-13.06-5.856-13.06-13.057zm13.076-36.893c22.901.003 41.532 18.649 41.532 41.566 0 6.757-1.682 13.376-4.776 19.276-3.92-5.755-9.205-10.501-15.368-13.888 1.448-3.065 2.321-6.451 2.321-10.059 0-13.084-10.643-23.727-23.724-23.727-13.084 0-23.727 10.643-23.727 23.727 0 3.605.87 6.987 2.316 10.05-6.138 3.373-11.414 8.101-15.347 13.837-3.112-5.874-4.793-12.379-4.793-19.216 0-22.756 18.49-41.566 41.566-41.566zm59.688-60.993c-11.508 0-22.241-4.692-29.984-12.904 3.406-6.445 8.795-11.638 15.323-14.78 4.047 3.208 9.093 5.205 14.645 5.205 5.553 0 10.6-1.998 14.647-5.205 6.597 3.176 11.983 8.384 15.313 14.821-7.8 8.185-18.52 12.863-29.944 12.863zm-13.073-46.207c0-7.201 5.857-13.057 13.057-13.057s13.06 5.857 13.06 13.057c0 7.201-5.86 13.06-13.06 13.06s-13.057-5.86-13.057-13.06zm13.073-36.892c22.901 0 41.534 18.646 41.534 41.566 0 6.753-1.716 13.354-4.81 19.252-3.914-5.749-9.183-10.489-15.33-13.874 1.445-3.064 2.317-6.447 2.317-10.053 0-13.081-10.643-23.724-23.727-23.724-13.081 0-23.724 10.643-23.724 23.724 0 3.607.871 6.991 2.318 10.056-6.112 3.369-11.387 8.104-15.337 13.865-3.117-5.876-4.799-12.387-4.802-19.228-.01-20.645 15.473-41.584 41.561-41.584zm-59.688-61.001c-11.515 0-22.251-4.696-29.993-12.915 3.371-6.428 8.762-11.619 15.326-14.775 4.048 3.211 9.098 5.211 14.655 5.211 5.558 0 10.609-2.001 14.657-5.213 6.595 3.176 11.98 8.384 15.309 14.82-7.807 8.193-18.529 12.872-29.954 12.872zm-13.074-46.206c0-7.201 5.86-13.057 13.06-13.057s13.06 5.857 13.06 13.057c0 7.201-5.86 13.06-13.06 13.06s-13.06-5.86-13.06-13.06zm-28.489 4.672c0-22.917 18.646-41.563 41.566-41.563 22.901 0 41.534 18.646 41.534 41.563 0 6.758-1.682 13.378-4.778 19.28-3.916-5.764-9.196-10.516-15.356-13.908 1.442-3.061 2.311-6.441 2.311-10.043 0-13.081-10.643-23.724-23.727-23.724s-23.727 10.643-23.727 23.724c0 3.603.869 6.984 2.313 10.046-6.132 3.373-11.405 8.103-15.339 13.851-3.115-5.88-4.797-12.387-4.797-19.226zm-246.57 41.509c-.005 0-.005 0-.008 0-11.52 0-22.263-4.696-30.011-12.912 3.412-6.434 8.809-11.621 15.342-14.762 4.049 3.205 9.097 5.2 14.651 5.2 5.407-.002 10.476-1.89 14.646-5.195 6.573 3.157 11.971 8.355 15.343 14.793-7.805 8.192-18.532 12.873-29.963 12.876zm-13.105-46.197c0-7.217 5.834-13.057 13.06-13.057 7.206 0 13.071 5.857 13.073 13.057.005 7.212-5.83 13.055-13.057 13.055-7.205 0-13.072-5.857-13.076-13.055zm34.488 10.057c1.467-3.119 2.315-6.513 2.312-10.062-.005-13.079-10.654-23.719-23.742-23.719-13.145.005-23.729 10.633-23.724 23.729.002 3.606.876 6.989 2.325 10.053-6.114 3.367-11.392 8.097-15.345 13.85-3.122-5.877-4.81-12.389-4.813-19.234-.011-22.974 18.571-41.561 41.566-41.561h.005c22.91 0 41.558 18.641 41.568 41.553.004 6.757-1.679 13.379-4.776 19.282-3.94-5.765-9.228-10.51-15.376-13.891zm122.656 384.046c-11.52 0-22.257-4.698-29.999-12.919 3.412-6.435 8.808-11.622 15.34-14.763 4.046 3.206 9.092 5.202 14.644 5.202 5.55 0 10.595-1.996 14.641-5.202 6.572 3.154 11.966 8.353 15.336 14.797-7.805 8.201-18.531 12.885-29.962 12.885zm-13.075-46.206c0-7.201 5.86-13.057 13.06-13.057 7.201 0 13.057 5.857 13.057 13.057s-5.857 13.06-13.057 13.06c-7.201 0-13.06-5.859-13.06-13.06zm54.607 4.675c0 6.755-1.682 13.375-4.777 19.276-3.936-5.769-9.218-10.514-15.364-13.894 1.446-3.064 2.319-6.449 2.319-10.056 0-13.081-10.643-23.724-23.724-23.724-13.084 0-23.727 10.643-23.727 23.724 0 3.608.872 6.993 2.32 10.058-6.113 3.366-11.39 8.093-15.343 13.844-3.116-5.878-4.799-12.387-4.799-19.228 0-22.897 18.611-41.526 41.5-41.563.53.239 41.595 1.765 41.595 41.563zm-78.295-388.333c-3.118-5.879-4.803-12.39-4.803-19.237 0-22.917 18.646-41.563 41.566-41.563 22.901 0 41.532 18.646 41.532 41.563 0 6.754-1.681 13.371-4.774 19.27-3.935-5.769-9.217-10.516-15.363-13.895 1.444-3.062 2.314-6.443 2.314-10.046 0-13.084-10.643-23.727-23.724-23.727-13.084 0-23.727 10.643-23.727 23.727 0 3.604.87 6.986 2.316 10.049-6.112 3.367-11.386 8.1-15.337 13.859zm49.804-23.909c0 7.201-5.857 13.057-13.057 13.057-7.201 0-13.06-5.857-13.06-13.057s5.86-13.06 13.06-13.06c7.201-.001 13.057 5.859 13.057 13.06zm-43.032 33.296c3.405-6.445 8.795-11.638 15.324-14.78 4.047 3.21 9.097 5.208 14.652 5.208 5.554 0 10.602-1.999 14.649-5.208 6.57 3.156 11.963 8.356 15.331 14.8-13.453 14.137-29.417 12.77-29.973 12.888-.534-.114-16.913.958-29.983-12.908zm-64.055 145.35c1.716-5.427 3.912-10.722 6.518-15.536 12.335 6.117 26.971 3.444 36.295-5.88 9.245-9.245 12.048-23.859 5.677-36.29 5.018-2.614 10.315-4.81 15.683-6.242 4.393 12.732 16.391 21.287 29.857 21.287 13.464 0 25.462-8.555 29.797-21.568 5.427 1.716 10.722 3.911 15.536 6.518-5.977 12.065-3.66 26.515 5.725 36.061 7.82 8.742 23.229 12.682 36.445 5.911 2.612 5.018 4.808 10.312 6.242 15.683-12.732 4.393-21.285 16.391-21.285 29.857 0 13.464 8.552 25.462 21.565 29.797-1.716 5.427-3.912 10.722-6.518 15.536-13.373-6.631-28.725-2.479-36.45 6.115-9.382 9.55-11.698 23.996-5.524 36.053-5.016 2.617-10.31 4.813-15.68 6.245-4.393-12.732-16.391-21.287-29.854-21.287-13.467 0-25.464 8.555-29.797 21.568-5.427-1.713-10.725-3.909-15.539-6.518 6.632-13.377 2.451-28.846-6.142-36.469-9.626-9.439-24.036-11.648-36.028-5.503-2.614-5.021-4.81-10.318-6.242-15.68 12.732-4.395 21.287-16.394 21.287-29.857 0-13.468-8.554-25.465-21.568-29.801zm-109.741 71.346c-11.499 0-22.226-4.685-29.967-12.886 3.368-6.436 8.75-11.638 15.306-14.799 4.047 3.208 9.094 5.206 14.648 5.206 5.552 0 10.599-1.997 14.646-5.205 6.571 3.156 11.963 8.357 15.331 14.801-7.808 8.198-18.534 12.883-29.964 12.883zm-13.074-46.207c0-7.201 5.86-13.057 13.06-13.057s13.057 5.857 13.057 13.057c0 7.201-5.857 13.06-13.057 13.06s-13.06-5.86-13.06-13.06zm13.076-36.892c22.901 0 41.532 18.646 41.532 41.566 0 6.755-1.682 13.375-4.777 19.276-3.935-5.77-9.217-10.516-15.363-13.897 1.445-3.064 2.317-6.447 2.317-10.053 0-13.081-10.643-23.724-23.724-23.724-13.084 0-23.727 10.643-23.727 23.724 0 3.607.871 6.991 2.318 10.055-6.126 3.38-11.398 8.121-15.328 13.875-3.125-5.884-4.813-12.404-4.813-19.259 0-22.917 18.646-41.563 41.565-41.563z" fill="#0C2188"></path></g></g></svg>