<svg xmlns:xlink="http://www.w3.org/1999/xlink" xmlns="http://www.w3.org/2000/svg" id="Layer_1" height="512" viewBox="0 0 64 64" width="512" data-name="Layer 1"><path d="m27 45a5 5 0 1 0 5-5 5 5 0 0 0 -5 5zm8 0a3 3 0 1 1 -3-3 3 3 0 0 1 3 3z" fill="#0C2188"></path><path d="m16 45a5 5 0 1 0 5-5 5 5 0 0 0 -5 5zm8 0a3 3 0 1 1 -3-3 3 3 0 0 1 3 3z" fill="#0C2188"></path><path d="m38 45a5 5 0 1 0 5-5 5 5 0 0 0 -5 5zm8 0a3 3 0 1 1 -3-3 3 3 0 0 1 3 3z" fill="#0C2188"></path><path d="m49 45a5 5 0 1 0 5-5 5 5 0 0 0 -5 5zm5-3a3 3 0 1 1 -3 3 3 3 0 0 1 3-3z" fill="#0C2188"></path><path d="m5 45a5 5 0 1 0 5-5 5 5 0 0 0 -5 5zm8 0a3 3 0 1 1 -3-3 3 3 0 0 1 3 3z" fill="#0C2188"></path><path d="m61 62v-6a5 5 0 0 0 -5-5h-4a5 5 0 0 0 -3.5 1.44 5 5 0 0 0 -3.5-1.44h-4a5 5 0 0 0 -3.5 1.44 5 5 0 0 0 -3.5-1.44h-4a5 5 0 0 0 -3.5 1.44 5 5 0 0 0 -3.5-1.44h-4a5 5 0 0 0 -3.5 1.44 5 5 0 0 0 -3.5-1.44h-4a5 5 0 0 0 -5 5v6a1 1 0 0 0 1 1h56a1 1 0 0 0 1-1zm-47-6v5h-9v-5a3 3 0 0 1 3-3h4a3 3 0 0 1 2.35 1.19 4.94 4.94 0 0 0 -.35 1.81zm11 0v5h-9v-5a3 3 0 0 1 3-3h4a3 3 0 0 1 2.35 1.19 4.94 4.94 0 0 0 -.35 1.81zm12 5h-10v-5a3 3 0 0 1 3-3h1.67l-.67 2 1 4 1-4-.67-2h1.67a3 3 0 0 1 3 3zm11 0h-9v-5a4.94 4.94 0 0 0 -.35-1.81 3 3 0 0 1 2.35-1.19h4a3 3 0 0 1 3 3zm11 0h-9v-5a4.87 4.87 0 0 0 -.35-1.82 3 3 0 0 1 2.35-1.18h4a3 3 0 0 1 3 3z" fill="#0C2188"></path><path d="m19 21h2v2h-2z" fill="#0C2188"></path><path d="m19 25h2v2h-2z" fill="#0C2188"></path><path d="m19 29h2v2h-2z" fill="#0C2188"></path><path d="m27 16h2v2h-2z" fill="#0C2188"></path><path d="m27 20h2v2h-2z" fill="#0C2188"></path><path d="m27 24h2v2h-2z" fill="#0C2188"></path><path d="m31 16h2v2h-2z" fill="#0C2188"></path><path d="m29 9h2v2h-2z" fill="#0C2188"></path><path d="m33 9h2v2h-2z" fill="#0C2188"></path><path d="m31 20h2v2h-2z" fill="#0C2188"></path><path d="m31 24h2v2h-2z" fill="#0C2188"></path><path d="m35 16h2v2h-2z" fill="#0C2188"></path><path d="m35 20h2v2h-2z" fill="#0C2188"></path><path d="m35 24h2v2h-2z" fill="#0C2188"></path><path d="m43 21h2v2h-2z" fill="#0C2188"></path><path d="m43 25h2v2h-2z" fill="#0C2188"></path><path d="m43 29h2v2h-2z" fill="#0C2188"></path><path d="m38 6h-12a1 1 0 0 0 -1 1v5h-1a1 1 0 0 0 -1 1v3.21l-7.23 1.72a1 1 0 0 0 -.77 1v17.07h-3v2h40v-2h-3v-17.1a1 1 0 0 0 -.77-1l-7.23-1.69v-3.21a1 1 0 0 0 -1-1h-1v-5a1 1 0 0 0 -1-1zm-15 30h-2v-3h-2v3h-2v-16.31l6-1.42zm18-17.73 6 1.42v16.31h-2v-3h-2v3h-2zm-14-10.27h10v4h-10zm7 28h-4v-6h4zm5 0h-3v-7a1 1 0 0 0 -1-1h-6a1 1 0 0 0 -1 1v7h-3v-22h14z" fill="#0C2188"></path><path d="m3.06 30.07-2-.13c-.06.68-.06 1.37-.06 2.06h2c0-.65 0-1.29.06-1.93z" fill="#0C2188"></path><path d="m12.89 10.19-1.32-1.51a30.88 30.88 0 0 0 -2.86 2.86l1.5 1.33a28.25 28.25 0 0 1 2.68-2.68z" fill="#0C2188"></path><path d="m7.9 15.87-1.66-1.12a31.44 31.44 0 0 0 -2 3.51l1.8.89a28.84 28.84 0 0 1 1.86-3.28z" fill="#0C2188"></path><path d="m60.43 26.26 2-.39a30.87 30.87 0 0 0 -1-3.91l-1.89.65a28.9 28.9 0 0 1 .89 3.65z" fill="#0C2188"></path><path d="m4.54 22.65-1.89-.65a29.42 29.42 0 0 0 -1 3.92l2 .39a28.6 28.6 0 0 1 .89-3.66z" fill="#0C2188"></path><path d="m19.17 6-.88-1.79a31.37 31.37 0 0 0 -3.51 2l1.11 1.66a29.73 29.73 0 0 1 3.28-1.87z" fill="#0C2188"></path><path d="m53.77 12.84 1.5-1.32a31 31 0 0 0 -2.87-2.86l-1.31 1.51a28.14 28.14 0 0 1 2.68 2.67z" fill="#0C2188"></path><path d="m41.93 2.63a29.28 29.28 0 0 0 -3.91-1l-.39 2a28.57 28.57 0 0 1 3.66 1z" fill="#0C2188"></path><path d="m49.19 6.2a31.37 31.37 0 0 0 -3.51-2l-.89 1.8a27.47 27.47 0 0 1 3.29 1.89z" fill="#0C2188"></path><path d="m59.78 18.22a30.68 30.68 0 0 0 -2-3.5l-1.66 1.12a29 29 0 0 1 1.88 3.27z" fill="#0C2188"></path><path d="m26.33 3.55-.39-2a31.48 31.48 0 0 0 -3.94 1.09l.65 1.89a30.35 30.35 0 0 1 3.68-.98z" fill="#0C2188"></path><path d="m33.87 3.06.13-2a32.19 32.19 0 0 0 -4.05 0l.13 2a30 30 0 0 1 3.79 0z" fill="#0C2188"></path><path d="m60.94 30.07c0 .64.06 1.28.06 1.93h2c0-.69 0-1.38-.07-2.06z" fill="#0C2188"></path></svg>