<svg xmlns:xlink="http://www.w3.org/1999/xlink" xmlns="http://www.w3.org/2000/svg" id="Capa_1" enable-background="new 0 0 512 512" height="512" viewBox="0 0 512 512" width="512"><g fill="#0C2188"><path d="m138.579 218.247c7.153 0 13.951-2.767 19.14-7.79 2.976-2.881 3.053-7.629.172-10.605-2.88-2.976-7.629-3.055-10.605-.172-2.376 2.301-5.469 3.567-8.708 3.567h-2.353c-3.238 0-6.331-1.267-8.708-3.567-2.977-2.882-7.725-2.804-10.605.172-2.881 2.977-2.804 7.725.172 10.605 5.189 5.023 11.987 7.79 19.14 7.79z" fill="#0C2188"></path><path d="m499.5 42.241h-241.683c-6.893 0-12.5 5.607-12.5 12.5v13.953c0 6.893 5.607 12.5 12.5 12.5h2.496v155.86c0 6.893 5.607 12.5 12.5 12.5h3.118l-25.948 34.45c-5.914-2.919-12.563-4.567-19.593-4.567h-.063c10.134-54.758 16.333-115.127 16.333-141.79 0-35.217-10.954-62.027-32.557-79.687-18.705-15.291-44.508-23.044-76.693-23.044-34.223 0-61.149 8.72-80.03 25.916-3.062 2.789-3.284 7.532-.495 10.595 2.79 3.063 7.533 3.284 10.595.495 16.032-14.602 39.56-22.006 69.93-22.006 42.997 0 94.25 15.221 94.25 87.73 0 4.411-.178 9.787-.518 15.918-4.909-5.296-11.918-8.619-19.692-8.619h-6.3v-5.46c0-16.576-10.432-30.933-25.213-36.592 1.441-2.487 2.829-4.988 4.139-7.493 1.919-3.67.499-8.202-3.171-10.121-3.672-1.92-8.202-.499-10.122 3.172-10.486 20.054-25.43 39.505-44.499 56.217-.076.067-.152.133-.228.199-15.394 13.452-32.963 24.691-51.875 32.875-2.745 1.188-4.521 3.892-4.521 6.883v7.06c0 23.962 13.159 44.896 32.62 55.996v31.754h-42.55c-10.274-54.62-16.581-115.36-16.581-141.79 0-15.185 2.271-28.61 6.751-39.904 1.527-3.851-.356-8.21-4.207-9.737-3.85-1.525-8.209.356-9.737 4.206-5.181 13.063-7.808 28.349-7.808 45.436 0 26.65 6.196 87.017 16.324 141.789h-.051c-24.473 0-44.401 19.91-44.422 44.39v115.969c0 20.561 16.727 37.288 37.287 37.288h3.853c6.535 0 12.982-1.728 18.644-4.996l9.056-5.229h198.47c4.142 0 7.5-3.357 7.5-7.5v-135.5c0-12.07-4.846-23.025-12.686-31.04l32.586-43.263h77.503v10.864c-9.308 3.139-16.032 11.946-16.032 22.299 0 12.976 10.556 23.531 23.532 23.531 12.975 0 23.531-10.556 23.531-23.531 0-10.354-6.724-19.16-16.031-22.299v-10.864h97.291c6.893 0 12.5-5.607 12.5-12.5v-155.86h2.496c6.893 0 12.5-5.607 12.5-12.5v-13.953c.001-6.892-5.606-12.5-12.499-12.5zm-284.431 237.197h-42.54v-31.758c17.543-10.008 29.957-28.005 32.234-49.011h6.686c6.128 0 11.78-2.067 16.305-5.536-2.868 26.446-7.213 57.238-12.685 86.305zm-85.957 15c-3.617 9.098-8.245 14.498-13.21 15.145-6.148.804-14.209-4.923-21.934-15.145zm54.727 0c-7.728 10.218-15.793 15.939-21.931 15.145-4.966-.647-9.593-6.046-13.21-15.145zm27.611-134.491c6.54 0 11.86 5.32 11.86 11.86s-5.32 11.86-11.86 11.86h-6.3v-23.721h6.3zm-126.791 31.741v-2.197c20.386-9.408 39.59-22.265 56.517-38.073.023-.021.046-.042.069-.064 11.788-11.017 22.078-23.115 30.441-35.356 10.629 2.576 18.463 12.202 18.463 23.49v52.19c0 27.262-22.179 49.44-49.44 49.44h-6.62c-27.256 0-49.43-22.175-49.43-49.43zm32.62 62.191c5.363 1.451 10.995 2.239 16.81 2.239h6.62c5.819 0 11.454-.789 16.82-2.241v25.561h-40.25zm142.531 69.978v128.001h-31.076v-41.845c0-4.143-3.358-7.5-7.5-7.5s-7.5 3.357-7.5 7.5v41.845h-118.913l32.276-18.635c3.587-2.071 4.816-6.658 2.745-10.245s-6.658-4.815-10.245-2.745l-67.313 38.863c-3.384 1.954-7.237 2.986-11.144 2.986h-3.853c-12.289 0-22.287-9.998-22.287-22.288v-115.961c.014-16.204 13.205-29.388 29.408-29.396h31.459c11.848 19.437 25.739 30.218 38.901 30.218 8.471 0 17.27-4.397 24.137-16.09 6.657 11.334 14.647 15.055 21.065 15.891 17.463 2.277 32.725-14.846 41.974-30.019h28.446c3.631 0 7.109.666 10.323 1.874l-25.518 33.879c-2.457-1.492-5.138-2.647-7.992-3.412-7.879-2.112-16.109-1.028-23.173 3.051l-122.954 70.987v-22.086c0-4.143-3.358-7.5-7.5-7.5s-7.5 3.357-7.5 7.5v35.076c0 2.68 1.43 5.155 3.75 6.495s5.18 1.34 7.5 0l94.103-54.33 15.538 26.913-16.543 9.551c-3.587 2.071-4.816 6.658-2.745 10.245s6.658 4.815 10.245 2.745l56.644-32.704c7.064-4.078 12.117-10.663 14.229-18.542 2.105-7.856 1.033-16.061-3.017-23.11l27.168-36.07c4.28 5.11 6.862 11.688 6.862 18.858zm-79.852 61.528-15.538-26.913 27.111-15.652c3.595-2.076 7.782-2.627 11.791-1.553s7.36 3.646 9.435 7.24 2.626 7.781 1.552 11.79-3.646 7.359-7.24 9.435zm199.755-94.136c-4.705 0-8.532-3.827-8.532-8.531 0-4.705 3.827-8.532 8.532-8.532 4.704 0 8.531 3.827 8.531 8.532 0 4.704-3.827 8.531-8.531 8.531zm-119.396-234.008h236.683v8.953h-236.683zm221.687 177.314h-175.996l14.532-19.294c2.492-3.309 1.831-8.011-1.478-10.503-3.31-2.493-8.011-1.832-10.503 1.478l-21.33 28.319h-11.916v-153.361h206.691z" fill="#0C2188"></path></g></svg>